<?xml version="1.0" encoding="utf-8" ?>
<svg baseProfile="full" height="749.8346617644909" version="1.1" width="1200" xmlns="http://www.w3.org/2000/svg" xmlns:ev="http://www.w3.org/2001/xml-events" xmlns:xlink="http://www.w3.org/1999/xlink"><defs /><rect fill="#222B38" height="749.8346617644909" rx="0" ry="0" width="1200" x="0" y="0" /><path class="route-1994849_1" d="M 432.2154209303999 470.8762723646125 L 411.1158113818937 472.2917685763917" fill="none" stroke="#EEF608" stroke-width="5" /><path class="route-1994849_1" d="M 434.95436272083634 470.04450456190415 L 432.2154209303999 470.8762723646125" fill="none" stroke="#EEF608" stroke-width="5" /><path class="route-1994849_1" d="M 434.95436272083634 470.04450456190415 L 446.08441592320133 471.18937127133484" fill="none" stroke="#EEF608" stroke-width="5" /><path class="route-1994849_1" d="M 455.91211809712365 468.48217264350717 L 446.08441592320133 471.18937127133484" fill="none" stroke="#EEF608" stroke-width="5" /><path class="route-1994849_1" d="M 455.91211809712365 468.48217264350717 L 466.3334644708881 464.851038569432" fill="none" stroke="#EEF608" stroke-width="5" /><path class="route-1994849_1" d="M 481.2380231225121 458.75667904159945 L 466.3334644708881 464.851038569432" fill="none" stroke="#EEF608" stroke-width="5" /><path class="route-1994849_1" d="M 481.2380231225121 458.75667904159945 L 478.3882489470218 447.642797358367" fill="none" stroke="#EEF608" stroke-width="5" /><path class="route-1994849_1" d="M 478.3882489470218 447.642797358367 L 470.73771219959997 442.60384770947394" fill="none" stroke="#EEF608" stroke-width="5" /><path class="route-1994849_1" d="M 470.73771219959997 442.60384770947394 L 472.39681378044196 421.2051413326661" fill="none" stroke="#EEF608" stroke-width="5" /><path class="route-1994849_1" d="M 464.9730180955726 424.3076668629222 L 472.39681378044196 421.2051413326661" fill="none" stroke="#EEF608" stroke-width="5" /><path class="route-1994849_1" d="M 458.2195750297174 427.9415117500422 L 464.9730180955726 424.3076668629222" fill="none" stroke="#EEF608" stroke-width="5" /><path class="route-1994849_1" d="M 458.2195750297174 427.9415117500422 L 452.1085649744283 430.00444047745776" fill="none" stroke="#EEF608" stroke-width="5" /><path class="route-1994848_1" d="M 368.37596713946704 341.9753048556253 L 373.6688480623369 346.2895638170956" fill="none" stroke="#A9C539" stroke-width="5" /><path class="route-1994848_1" d="M 377.92898548885415 350.0449434890745 L 373.6688480623369 346.2895638170956" fill="none" stroke="#A9C539" stroke-width="5" /><path class="route-1994848_1" d="M 377.92898548885415 350.0449434890745 L 400.14481534281185 339.3051540060819" fill="none" stroke="#A9C539" stroke-width="5" /><path class="route-1994848_1" d="M 404.23771713488406 339.5834641453885 L 400.14481534281185 339.3051540060819" fill="none" stroke="#A9C539" stroke-width="5" /><path class="route-1994848_1" d="M 404.23771713488406 339.5834641453885 L 414.10687569710893 341.0030265767381" fill="none" stroke="#A9C539" stroke-width="5" /><path class="route-1994845_2" d="M 365.81159340589625 313.56462873517955 L 368.0804141126569 330.3752840329476" fill="none" stroke="white" stroke-width="5" /><path class="route-1994846_2" d="M 365.81159340589625 313.56462873517955 L 368.0804141126569 330.3752840329476" fill="none" stroke="white" stroke-width="5" /><path class="route-1994845_2" d="M 365.81159340589625 313.56462873517955 L 356.48023982661647 303.4045014416874" fill="none" stroke="white" stroke-width="5" /><path class="route-1994846_2" d="M 365.81159340589625 313.56462873517955 L 356.48023982661647 303.4045014416874" fill="none" stroke="white" stroke-width="5" /><path class="route-1994845_2" d="M 356.48023982661647 303.4045014416874 L 336.0552131408291 288.5474387451744" fill="none" stroke="white" stroke-width="5" /><path class="route-1994846_2" d="M 356.48023982661647 303.4045014416874 L 336.0552131408291 288.5474387451744" fill="none" stroke="white" stroke-width="5" /><path class="route-1994845_2" d="M 322.17521951439613 274.9558739386081 L 336.0552131408291 288.5474387451744" fill="none" stroke="white" stroke-width="5" /><path class="route-1994846_2" d="M 322.17521951439613 274.9558739386081 L 336.0552131408291 288.5474387451744" fill="none" stroke="white" stroke-width="5" /><path class="route-1994845_2" d="M 322.17521951439613 274.9558739386081 L 309.9599677937446 260.9748556578759" fill="none" stroke="white" stroke-width="5" /><path class="route-1994846_2" d="M 322.17521951439613 274.9558739386081 L 309.9599677937446 260.9748556578759" fill="none" stroke="white" stroke-width="5" /><path class="route-1994845_2" d="M 304.78073941839784 248.6162589847122 L 309.9599677937446 260.9748556578759" fill="none" stroke="white" stroke-width="5" /><path class="route-1994846_2" d="M 304.78073941839784 248.6162589847122 L 309.9599677937446 260.9748556578759" fill="none" stroke="white" stroke-width="5" /><path class="route-1994845_2" d="M 200.25028941917336 168.04411824810825 L 225.36496427559183 173.60715841907694" fill="none" stroke="#2D80D3" stroke-width="5" /><path class="route-1994845_2" d="M 240.72864537726025 179.2117643900733 L 225.36496427559183 173.60715841907694" fill="none" stroke="#2D80D3" stroke-width="5" /><path class="route-1994845_2" d="M 240.72864537726025 179.2117643900733 L 245.43831670142526 184.173907669353" fill="none" stroke="#2D80D3" stroke-width="5" /><path class="route-1994845_2" d="M 256.4707922823434 195.88281281601496 L 245.43831670142526 184.173907669353" fill="none" stroke="#2D80D3" stroke-width="5" /><path class="route-1994845_2" d="M 256.4707922823434 195.88281281601496 L 274.0736823848422 211.06020325403537" fill="none" stroke="#2D80D3" stroke-width="5" /><path class="route-1994845_2" d="M 301.7276315288524 239.2106413221388 L 274.0736823848422 211.06020325403537" fill="none" stroke="#2D80D3" stroke-width="5" /><path class="route-1994845_2" d="M 301.7276315288524 239.2106413221388 L 304.78073941839784 248.6162589847122" fill="none" stroke="#2D80D3" stroke-width="5" /><path class="route-1994845_2" d="M 346.73601446179305 350.7483994743087 L 368.0804141126569 330.3752840329476" fill="none" stroke="white" stroke-width="5" /><path class="route-1994842_2" d="M 346.73601446179305 350.7483994743087 L 368.0804141126569 330.3752840329476" fill="none" stroke="white" stroke-width="5" /><path class="route-1994845_2" d="M 346.73601446179305 350.7483994743087 L 349.81929808976304 412.9958958273873" fill="none" stroke="white" stroke-width="5" /><path class="route-1994843_2" d="M 346.73601446179305 350.7483994743087 L 349.81929808976304 412.9958958273873" fill="none" stroke="white" stroke-width="5" /><path class="route-1994842_2" d="M 346.73601446179305 350.7483994743087 L 349.81929808976304 412.9958958273873" fill="none" stroke="white" stroke-width="5" /><path class="route-1994845_2" d="M 351.92962566573453 445.54688707223437 L 349.81929808976304 412.9958958273873" fill="none" stroke="white" stroke-width="5" /><path class="route-1994843_2" d="M 351.92962566573453 445.54688707223437 L 349.81929808976304 412.9958958273873" fill="none" stroke="white" stroke-width="5" /><path class="route-1994842_2" d="M 351.92962566573453 445.54688707223437 L 349.81929808976304 412.9958958273873" fill="none" stroke="white" stroke-width="5" /><path class="route-1994845_2" d="M 100.0 100.0 L 148.4097808874768 127.97875324190613" fill="none" stroke="#2D80D3" stroke-width="5" /><path class="route-1994845_2" d="M 166.7388628258874 137.76478833515839 L 148.4097808874768 127.97875324190613" fill="none" stroke="#2D80D3" stroke-width="5" /><path class="route-1994845_2" d="M 166.7388628258874 137.76478833515839 L 171.39720719310628 149.91555600818987" fill="none" stroke="#2D80D3" stroke-width="5" /><path class="route-1994845_2" d="M 200.25028941917336 168.04411824810825 L 171.39720719310628 149.91555600818987" fill="none" stroke="#2D80D3" stroke-width="5" /><path class="route-1994842_2" d="M 414.10687569710893 341.0030265767381 L 449.2821981474354 331.1270828508216" fill="none" stroke="white" stroke-width="5" /><path class="route-1994843_2" d="M 414.10687569710893 341.0030265767381 L 449.2821981474354 331.1270828508216" fill="none" stroke="white" stroke-width="5" /><path class="route-1994843_2" d="M 449.2821981474354 331.1270828508216 L 472.9021868949871 328.68961012099305" fill="none" stroke="#D66ECD" stroke-width="5" /><path class="route-1994843_2" d="M 472.9021868949871 328.68961012099305 L 539.4622514203045 310.9396581030548" fill="none" stroke="#D66ECD" stroke-width="5" /><path class="route-1994843_2" d="M 346.73601446179305 350.7483994743087 L 377.92898548885415 350.0449434890745" fill="none" stroke="#D66ECD" stroke-width="5" /><path class="route-1994842_2" d="M 377.92898548885415 350.0449434890745 L 414.10687569710893 341.0030265767381" fill="none" stroke="white" stroke-width="5" /><path class="route-1994843_2" d="M 377.92898548885415 350.0449434890745 L 414.10687569710893 341.0030265767381" fill="none" stroke="white" stroke-width="5" /><path class="route-1994843_2" d="M 596.3477485937965 280.5207213182754 L 539.4622514203045 310.9396581030548" fill="none" stroke="#D66ECD" stroke-width="5" /><path class="route-1994842_2" d="M 596.3477485937965 280.5207213182754 L 637.7536559881215 238.56908223477146" fill="none" stroke="white" stroke-width="5" /><path class="route-1994843_2" d="M 596.3477485937965 280.5207213182754 L 637.7536559881215 238.56908223477146" fill="none" stroke="white" stroke-width="5" /><path class="route-1994843_2" d="M 721.4470535647562 283.59523511373095 L 637.7536559881215 238.56908223477146" fill="none" stroke="#D66ECD" stroke-width="5" /><path class="route-1994843_2" d="M 721.4470535647562 283.59523511373095 L 790.3142930064201 241.90835210430967" fill="none" stroke="#D66ECD" stroke-width="5" /><path class="route-1994843_2" d="M 900.7856972640197 222.80073455289198 L 790.3142930064201 241.90835210430967" fill="none" stroke="#D66ECD" stroke-width="5" /><path class="route-1994843_2" d="M 957.9825403741513 198.6501011330109 L 900.7856972640197 222.80073455289198" fill="none" stroke="#D66ECD" stroke-width="5" /><path class="route-1994843_2" d="M 957.9825403741513 198.6501011330109 L 977.2535565773945 264.01503248809206" fill="none" stroke="#D66ECD" stroke-width="5" /><path class="route-1994843_2" d="M 977.2535565773945 264.01503248809206 L 1020.1744552503673 322.2089597342158" fill="none" stroke="#D66ECD" stroke-width="5" /><path class="route-1994843_2" d="M 1085.493930305325 319.39287678240385 L 1020.1744552503673 322.2089597342158" fill="none" stroke="#D66ECD" stroke-width="5" /><path class="route-1994843_2" d="M 1100.0 403.4606109408207 L 1085.493930305325 319.39287678240385" fill="none" stroke="#D66ECD" stroke-width="5" /><path class="route-1994842_2" d="M 539.4622514203045 310.9396581030548 L 472.9021868949871 328.68961012099305" fill="none" stroke="white" stroke-width="5" /><path class="route-1994843_2" d="M 539.4622514203045 310.9396581030548 L 472.9021868949871 328.68961012099305" fill="none" stroke="white" stroke-width="5" /><path class="route-1994842_2" d="M 472.9021868949871 328.68961012099305 L 449.2821981474354 331.1270828508216" fill="none" stroke="white" stroke-width="5" /><path class="route-1994843_2" d="M 472.9021868949871 328.68961012099305 L 449.2821981474354 331.1270828508216" fill="none" stroke="white" stroke-width="5" /><path class="route-1994842_2" d="M 377.92898548885415 350.0449434890745 L 346.73601446179305 350.7483994743087" fill="none" stroke="white" stroke-width="5" /><path class="route-1994843_2" d="M 377.92898548885415 350.0449434890745 L 346.73601446179305 350.7483994743087" fill="none" stroke="white" stroke-width="5" /><path class="route-1994842_2" d="M 619.247467846623 266.74753203767546 L 637.7536559881215 238.56908223477146" fill="none" stroke="#BB3636" stroke-width="5" /><path class="route-1994842_2" d="M 596.3477485937965 280.5207213182754 L 619.247467846623 266.74753203767546" fill="none" stroke="#BB3636" stroke-width="5" /><path class="route-1994842_2" d="M 596.3477485937965 280.5207213182754 L 582.8267616497387 288.5831311169362" fill="none" stroke="#BB3636" stroke-width="5" /><path class="route-1994842_2" d="M 582.8267616497387 288.5831311169362 L 574.9965805530057 293.2818737286558" fill="none" stroke="#BB3636" stroke-width="5" /><path class="route-1994842_2" d="M 574.9965805530057 293.2818737286558 L 561.2547748875814 301.6881049818875" fill="none" stroke="#BB3636" stroke-width="5" /><path class="route-1994842_2" d="M 561.2547748875814 301.6881049818875 L 539.4622514203045 310.9396581030548" fill="none" stroke="#BB3636" stroke-width="5" /><path class="route-1994842_2" d="M 471.36660843031177 299.3030413042659 L 539.4622514203045 310.9396581030548" fill="none" stroke="#BB3636" stroke-width="5" /><path class="route-1994842_2" d="M 438.8289839377647 316.8099237524831 L 471.36660843031177 299.3030413042659" fill="none" stroke="#BB3636" stroke-width="5" /><path class="route-1994842_2" d="M 411.9801911788139 326.08677779540614 L 438.8289839377647 316.8099237524831" fill="none" stroke="#BB3636" stroke-width="5" /><path class="route-1994842_2" d="M 411.9801911788139 326.08677779540614 L 368.0804141126569 330.3752840329476" fill="none" stroke="#BB3636" stroke-width="5" /><path class="route-1994842_2" d="M 351.92962566573453 445.54688707223437 L 375.7915843531745 471.60186665638463" fill="none" stroke="#BB3636" stroke-width="5" /><path class="route-1994842_2" d="M 375.7915843531745 471.60186665638463 L 407.5832758725229 530.6881031965581" fill="none" stroke="#BB3636" stroke-width="5" /><path class="route-1994842_2" d="M 407.5832758725229 530.6881031965581 L 413.68441535916895 563.908213461403" fill="none" stroke="#BB3636" stroke-width="5" /><path class="route-1994842_2" d="M 402.88488519823625 571.6394522663742 L 413.68441535916895 563.908213461403" fill="none" stroke="#BB3636" stroke-width="5" /><path class="route-1994842_2" d="M 402.88488519823625 571.6394522663742 L 398.29591682776845 570.6653667787914" fill="none" stroke="#BB3636" stroke-width="5" /><path class="route-1994842_2" d="M 386.605497342702 566.8236928915392 L 398.29591682776845 570.6653667787914" fill="none" stroke="#BB3636" stroke-width="5" /><path class="route-1994842_2" d="M 386.605497342702 566.8236928915392 L 329.13650855425794 582.7650808061384" fill="none" stroke="#BB3636" stroke-width="5" /><path class="route-1994842_2" d="M 263.9777827600649 630.9868304632392 L 329.13650855425794 582.7650808061384" fill="none" stroke="#BB3636" stroke-width="5" /><path class="route-1994842_2" d="M 263.9777827600649 630.9868304632392 L 227.6021991626938 627.1953066173222" fill="none" stroke="#BB3636" stroke-width="5" /><path class="route-1994842_2" d="M 227.6021991626938 627.1953066173222 L 198.9690896092523 629.1728447338106" fill="none" stroke="#BB3636" stroke-width="5" /><path class="route-1994842_2" d="M 198.9690896092523 629.1728447338106 L 189.25109175539595 637.7805797567389" fill="none" stroke="#BB3636" stroke-width="5" /><path class="route-1994842_2" d="M 160.76660476410052 648.7494329420554 L 189.25109175539595 637.7805797567389" fill="none" stroke="#BB3636" stroke-width="5" /><path class="route-1994842_2" d="M 160.76660476410052 648.7494329420554 L 153.7229669801276 649.8346617644909" fill="none" stroke="#BB3636" stroke-width="5" /><path class="route-1994842_2" d="M 574.9965805530057 293.2818737286558 L 539.4622514203045 310.9396581030548" fill="none" stroke="#BB3636" stroke-width="5" /><path class="route-1994842_2" d="M 375.7915843531745 471.60186665638463 L 413.68441535916895 563.908213461403" fill="none" stroke="#BB3636" stroke-width="5" /><circle cx="153.7229669801276" cy="649.8346617644909" fill="white" id="de:05334:1008" r="1.5" /><circle cx="957.9825403741513" cy="198.6501011330109" fill="white" id="de:05774:7131" r="1.5" /><circle cx="472.9021868949871" cy="328.68961012099305" fill="white" id="de:05911:5194" r="1.5" /><circle cx="721.4470535647562" cy="283.59523511373095" fill="white" id="de:05974:11246" r="1.5" /><circle cx="539.4622514203045" cy="310.9396581030548" fill="white" id="de:05913:131" r="1.5" /><circle cx="349.81929808976304" cy="412.9958958273873" fill="white" id="de:05111:18488" r="1.5" /><circle cx="263.9777827600649" cy="630.9868304632392" fill="white" id="de:05358:2286" r="1.5" /><circle cx="351.92962566573453" cy="445.54688707223437" fill="white" id="de:05111:18235_G" r="1.5" /><circle cx="346.73601446179305" cy="350.7483994743087" fill="white" id="de:05112:16032" r="1.5" /><circle cx="411.1158113818937" cy="472.2917685763917" fill="white" id="de:05122:13800_G" r="1.5" /><circle cx="414.10687569710893" cy="341.0030265767381" fill="white" id="de:05113:9289_G" r="1.5" /><circle cx="438.8289839377647" cy="316.8099237524831" fill="white" id="de:05513:5613_G" r="1.5" /><circle cx="637.7536559881215" cy="238.56908223477146" fill="white" id="de:05915:7756" r="1.5" /><circle cx="471.36660843031177" cy="299.3030413042659" fill="white" id="de:05916:7501_G" r="1.5" /><circle cx="329.13650855425794" cy="582.7650808061384" fill="white" id="de:05362:87303" r="1.5" /><circle cx="1020.1744552503673" cy="322.2089597342158" fill="white" id="de:05762:8130" r="1.5" /><circle cx="398.29591682776845" cy="570.6653667787914" fill="white" id="de:05315:11201" r="1.5" /><circle cx="386.605497342702" cy="566.8236928915392" fill="white" id="de:05315:14201" r="1.5" /><circle cx="413.68441535916895" cy="563.908213461403" fill="white" id="de:05315:19201" r="1.5" /><circle cx="304.78073941839784" cy="248.6162589847122" fill="white" id="de:05170:36918_G" r="1.5" /><circle cx="377.92898548885415" cy="350.0449434890745" fill="white" id="de:05117:15225" r="1.5" /><circle cx="452.1085649744283" cy="430.00444047745776" fill="white" id="de:05124:11376_G" r="1.5" /><circle cx="368.0804141126569" cy="330.3752840329476" fill="white" id="de:05119:14022_G" r="1.5" /><circle cx="900.7856972640197" cy="222.80073455289198" fill="white" id="de:05774:7000" r="1.5" /><circle cx="481.2380231225121" cy="458.75667904159945" fill="white" id="de:05120:12106" r="1.5" /><circle cx="189.25109175539595" cy="637.7805797567389" fill="white" id="de:05334:5766" r="1.5" /><circle cx="160.76660476410052" cy="648.7494329420554" fill="white" id="de:05334:1646" r="1.5" /><circle cx="790.3142930064201" cy="241.90835210430967" fill="white" id="de:05974:11593" r="1.5" /><circle cx="368.37596713946704" cy="341.9753048556253" fill="white" id="de:05117:15012" r="1.5" /><circle cx="336.0552131408291" cy="288.5474387451744" fill="white" id="de:05170:36259_G" r="1.5" /><circle cx="561.2547748875814" cy="301.6881049818875" fill="white" id="de:05913:162" r="1.5" /><circle cx="574.9965805530057" cy="293.2818737286558" fill="white" id="de:05913:298" r="1.5" /><circle cx="375.7915843531745" cy="471.60186665638463" fill="white" id="de:05111:18263_G" r="1.5" /><circle cx="200.25028941917336" cy="168.04411824810825" fill="white" id="de:05154:36119" r="1.5" /><circle cx="166.7388628258874" cy="137.76478833515839" fill="white" id="000008001774" r="1.5" /><circle cx="245.43831670142526" cy="184.173907669353" fill="white" id="de:05154:40024_G" r="1.5" /><circle cx="198.9690896092523" cy="629.1728447338106" fill="white" id="de:05334:2828" r="1.5" /><circle cx="404.23771713488406" cy="339.5834641453885" fill="white" id="de:05113:9643" r="1.5" /><circle cx="411.9801911788139" cy="326.08677779540614" fill="white" id="de:05113:9117" r="1.5" /><circle cx="400.14481534281185" cy="339.3051540060819" fill="white" id="de:05113:9244" r="1.5" /><circle cx="309.9599677937446" cy="260.9748556578759" fill="white" id="de:05170:36447_G" r="1.5" /><circle cx="256.4707922823434" cy="195.88281281601496" fill="white" id="de:05154:35840_G" r="1.5" /><circle cx="1085.493930305325" cy="319.39287678240385" fill="white" id="de:06633:201373" r="1.5" /><circle cx="596.3477485937965" cy="280.5207213182754" fill="white" id="de:05978:11186" r="1.5" /><circle cx="582.8267616497387" cy="288.5831311169362" fill="white" id="de:05978:11188" r="1.5" /><circle cx="1100.0" cy="403.4606109408207" fill="white" id="de:06611:200007" r="1.5" /><circle cx="402.88488519823625" cy="571.6394522663742" fill="white" id="de:05315:11901" r="1.5" /><circle cx="227.6021991626938" cy="627.1953066173222" fill="white" id="de:05358:4566" r="1.5" /><circle cx="274.0736823848422" cy="211.06020325403537" fill="white" id="de:05170:37030_G" r="1.5" /><circle cx="240.72864537726025" cy="179.2117643900733" fill="white" id="de:05154:40035_G" r="1.5" /><circle cx="373.6688480623369" cy="346.2895638170956" fill="white" id="de:05117:15227" r="1.5" /><circle cx="619.247467846623" cy="266.74753203767546" fill="white" id="de:05978:21858" r="1.5" /><circle cx="356.48023982661647" cy="303.4045014416874" fill="white" id="de:05119:14453" r="1.5" /><circle cx="365.81159340589625" cy="313.56462873517955" fill="white" id="de:05119:14190_G" r="1.5" /><circle cx="225.36496427559183" cy="173.60715841907694" fill="white" id="de:05154:36112" r="1.5" /><circle cx="466.3334644708881" cy="464.851038569432" fill="white" id="de:05120:12077" r="1.5" /><circle cx="455.91211809712365" cy="468.48217264350717" fill="white" id="de:05120:12058" r="1.5" /><circle cx="478.3882489470218" cy="447.642797358367" fill="white" id="de:05120:12113" r="1.5" /><circle cx="446.08441592320133" cy="471.18937127133484" fill="white" id="de:05122:13006" r="1.5" /><circle cx="432.2154209303999" cy="470.8762723646125" fill="white" id="de:05122:13869" r="1.5" /><circle cx="434.95436272083634" cy="470.04450456190415" fill="white" id="de:05122:13818" r="1.5" /><circle cx="322.17521951439613" cy="274.9558739386081" fill="white" id="de:05170:36966_G" r="1.5" /><circle cx="449.2821981474354" cy="331.1270828508216" fill="white" id="de:05911:5503" r="1.5" /><circle cx="301.7276315288524" cy="239.2106413221388" fill="white" id="de:05170:36206" r="1.5" /><circle cx="977.2535565773945" cy="264.01503248809206" fill="white" id="de:05762:9892" r="1.5" /><circle cx="464.9730180955726" cy="424.3076668629222" fill="white" id="de:05124:11130" r="1.5" /><circle cx="470.73771219959997" cy="442.60384770947394" fill="white" id="de:05124:11531" r="1.5" /><circle cx="458.2195750297174" cy="427.9415117500422" fill="white" id="de:05124:11524" r="1.5" /><circle cx="407.5832758725229" cy="530.6881031965581" fill="white" id="de:05316:21101_G" r="1.5" /><circle cx="472.39681378044196" cy="421.2051413326661" fill="white" id="de:05124:11602_G" r="1.5" /><circle cx="171.39720719310628" cy="149.91555600818987" fill="white" id="de:05154:37336" r="1.5" /><circle cx="100.0" cy="100.0" fill="white" id="D_nl:4:18038" r="1.5" /><circle cx="148.4097808874768" cy="127.97875324190613" fill="white" id="D_nl:4:18003" r="1.5" /></svg>