<?xml version="1.0" encoding="utf-8" ?>
<svg baseProfile="full" height="857.3953981183421" version="1.1" width="1200" xmlns="http://www.w3.org/2000/svg" xmlns:ev="http://www.w3.org/2001/xml-events" xmlns:xlink="http://www.w3.org/1999/xlink"><defs /><rect fill="#222B38" height="857.3953981183421" rx="0" ry="0" width="1200" x="0" y="0" /><path d="M 653.6703238628152 431.71058241764325 L 670.6218940917339 414.2566372743065" fill="none" stroke="#00ff66" stroke-width="3" /><path d="M 656.5397446221107 434.497412966156 L 673.4913148510294 417.04346782281925" fill="none" stroke="#59ff00" stroke-width="3" /><path d="M 659.4091653814062 437.28424351466873 L 676.3607356103249 419.830298371332" fill="none" stroke="#59ff00" stroke-width="3" /><path d="M 624.879444234314 438.6089193641237 L 655.5316931702388 430.62651742760437" fill="none" stroke="#00ff66" stroke-width="3" /><path d="M 625.8874956861858 442.47981490267534 L 656.5397446221107 434.497412966156" fill="none" stroke="#59ff00" stroke-width="3" /><path d="M 626.8955471380577 446.35071044122697 L 657.5477960739826 438.3683085047076" fill="none" stroke="#59ff00" stroke-width="3" /><path d="M 625.8801399680407 438.47982166600474 L 601.2166175937143 438.43446710955436" fill="none" stroke="#00ff66" stroke-width="3" /><path d="M 625.8874956861858 442.47981490267534 L 601.2239733118595 442.43446034622497" fill="none" stroke="#59ff00" stroke-width="3" /><path d="M 625.894851404331 446.47980813934595 L 601.2313290300046 446.43445358289557" fill="none" stroke="#59ff00" stroke-width="3" /><path d="M 601.2313290300046 438.43446710955436 L 625.894851404331 438.47982166600474" fill="none" stroke="#00ff66" stroke-width="3" /><path d="M 601.2239733118595 442.43446034622497 L 625.8874956861858 442.47981490267534" fill="none" stroke="#59ff00" stroke-width="3" /><path d="M 601.2166175937143 446.43445358289557 L 625.8801399680407 446.47980813934595" fill="none" stroke="#59ff00" stroke-width="3" /><path d="M 782.4709536408612 757.3953981183421 L 754.5036236051983 729.736677772071" fill="none" stroke="#33ccff" stroke-width="3" /><path d="M 732.5296215345666 729.2831322074871 L 754.5036236051983 729.736677772071" fill="none" stroke="#33ccff" stroke-width="3" /><path d="M 705.5861037616459 723.6402694749243 L 732.5296215345666 729.2831322074871" fill="none" stroke="#33ccff" stroke-width="3" /><path d="M 705.5861037616459 723.6402694749243 L 684.2862072932251 706.2241197952603" fill="none" stroke="#33ccff" stroke-width="3" /><path d="M 684.2862072932251 706.2241197952603 L 670.0609685954222 676.6567285314183" fill="none" stroke="#33ccff" stroke-width="3" /><path d="M 670.0609685954222 676.6567285314183 L 675.3502818359582 645.5775187189724" fill="none" stroke="#33ccff" stroke-width="3" /><path d="M 675.3502818359582 645.5775187189724 L 673.0702864373637 617.4425755298923" fill="none" stroke="#33ccff" stroke-width="3" /><path d="M 673.0702864373637 617.4425755298923 L 663.5269757275955 576.7255224702486" fill="none" stroke="#33ccff" stroke-width="3" /><path d="M 656.8112274243665 556.890463112867 L 663.5269757275955 576.7255224702486" fill="none" stroke="#33ccff" stroke-width="3" /><path d="M 656.8112274243665 556.890463112867 L 651.9705510180603 527.9202401756836" fill="none" stroke="#33ccff" stroke-width="3" /><path d="M 651.9705510180603 527.9202401756836 L 640.4716438513734 510.09211994155106" fill="none" stroke="#33ccff" stroke-width="3" /><path d="M 617.2644656620288 488.12917597707064 L 640.4716438513734 510.09211994155106" fill="none" stroke="#33ccff" stroke-width="3" /><path d="M 617.2644656620288 488.12917597707064 L 578.0720119636511 479.57984208484174" fill="none" stroke="#33ccff" stroke-width="3" /><path d="M 549.7664787760266 471.8960243116651 L 578.0720119636511 479.57984208484174" fill="none" stroke="#33ccff" stroke-width="3" /><path d="M 549.7664787760266 471.8960243116651 L 533.1047969630743 463.14637446177153" fill="none" stroke="#33ccff" stroke-width="3" /><path d="M 521.8681697917857 442.8237536224684 L 533.1047969630743 463.14637446177153" fill="none" stroke="#33ccff" stroke-width="3" /><path d="M 521.8681697917857 442.8237536224684 L 496.45922006211816 467.71584602484" fill="none" stroke="#33ccff" stroke-width="3" /><path d="M 496.45922006211816 467.71584602484 L 470.4727942022339 473.43429968485594" fill="none" stroke="#33ccff" stroke-width="3" /><path d="M 446.009432877029 478.6047191209986 L 470.4727942022339 473.43429968485594" fill="none" stroke="#33ccff" stroke-width="3" /><path d="M 446.009432877029 478.6047191209986 L 422.8942827562419 481.715285784718" fill="none" stroke="#33ccff" stroke-width="3" /><path d="M 422.8942827562419 481.715285784718 L 402.45945013229203 487.7890168036395" fill="none" stroke="#33ccff" stroke-width="3" /><path d="M 377.58886460370337 489.9395786889903 L 402.45945013229203 487.7890168036395" fill="none" stroke="#33ccff" stroke-width="3" /><path d="M 363.7248360750055 475.86832754807494 L 377.58886460370337 489.9395786889903" fill="none" stroke="#33ccff" stroke-width="3" /><path d="M 363.7248360750055 475.86832754807494 L 353.5212239733126 463.14637446177153" fill="none" stroke="#33ccff" stroke-width="3" /><path d="M 353.5212239733126 463.14637446177153 L 347.2265040837451 438.50751166626543" fill="none" stroke="#33ccff" stroke-width="3" /><path d="M 345.9059012998995 414.58676268137503 L 347.2265040837451 438.50751166626543" fill="none" stroke="#33ccff" stroke-width="3" /><path d="M 342.5951915334177 395.2052488885504 L 345.9059012998995 414.58676268137503" fill="none" stroke="#33ccff" stroke-width="3" /><path d="M 342.5951915334177 395.2052488885504 L 346.93431496606627 373.9982141983585" fill="none" stroke="#33ccff" stroke-width="3" /><path d="M 343.4694581847459 340.6474970166585 L 346.93431496606627 373.9982141983585" fill="none" stroke="#33ccff" stroke-width="3" /><path d="M 343.4694581847459 340.6474970166585 L 330.6315426204986 323.81717702459434" fill="none" stroke="#33ccff" stroke-width="3" /><path d="M 330.6315426204986 323.81717702459434 L 315.7367997239175 299.0460301060992" fill="none" stroke="#33ccff" stroke-width="3" /><path d="M 299.44092948349487 300.11186218284297 L 315.7367997239175 299.0460301060992" fill="none" stroke="#33ccff" stroke-width="3" /><path d="M 299.44092948349487 300.11186218284297 L 268.94512826412097 298.89106870488496" fill="none" stroke="#33ccff" stroke-width="3" /><path d="M 244.89589324744082 299.3521733621926 L 268.94512826412097 298.89106870488496" fill="none" stroke="#33ccff" stroke-width="3" /><path d="M 244.89589324744082 299.3521733621926 L 212.04877487633803 294.83939499468704" fill="none" stroke="#33ccff" stroke-width="3" /><path d="M 174.58414816519388 292.4960762443687 L 212.04877487633803 294.83939499468704" fill="none" stroke="#33ccff" stroke-width="3" /><path d="M 174.58414816519388 292.4960762443687 L 140.80064419648164 297.01641370462494" fill="none" stroke="#33ccff" stroke-width="3" /><path d="M 115.81042217876751 290.82173720182686 L 140.80064419648164 297.01641370462494" fill="none" stroke="#33ccff" stroke-width="3" /><path d="M 115.81042217876751 290.82173720182686 L 100.0 303.53235164901764" fill="none" stroke="#33ccff" stroke-width="3" /><path d="M 656.8112274243665 556.890463112867 L 673.0702864373637 617.4425755298923" fill="none" stroke="#33ccff" stroke-width="3" /><path d="M 293.09789485793226 100.0 L 307.594616357991 128.38439324961058" fill="none" stroke="#4d66ff" stroke-width="3" /><path d="M 319.0083975612574 150.63458273834797 L 307.594616357991 128.38439324961058" fill="none" stroke="#4d66ff" stroke-width="3" /><path d="M 319.0083975612574 150.63458273834797 L 337.3933049580146 170.0236556238696" fill="none" stroke="#4d66ff" stroke-width="3" /><path d="M 337.3933049580146 170.0236556238696 L 356.8342344415067 185.18341611978073" fill="none" stroke="#4d66ff" stroke-width="3" /><path d="M 356.8342344415067 185.18341611978073 L 393.19452432992085 198.89561035540174" fill="none" stroke="#4d66ff" stroke-width="3" /><path d="M 407.39905671229667 208.80180139496653 L 393.19452432992085 198.89561035540174" fill="none" stroke="#4d66ff" stroke-width="3" /><path d="M 424.6796272863238 224.6456597841019 L 407.39905671229667 208.80180139496653" fill="none" stroke="#4d66ff" stroke-width="3" /><path d="M 424.6796272863238 224.6456597841019 L 449.88611526515774 248.0788472870976" fill="none" stroke="#4d66ff" stroke-width="3" /><path d="M 449.88611526515774 248.0788472870976 L 466.9711261934881 263.1101032063548" fill="none" stroke="#4d66ff" stroke-width="3" /><path d="M 482.3053031174497 277.32497710937173 L 466.9711261934881 263.1101032063548" fill="none" stroke="#4d66ff" stroke-width="3" /><path d="M 482.3053031174497 277.32497710937173 L 492.24893592545646 288.07778653615253" fill="none" stroke="#4d66ff" stroke-width="3" /><path d="M 492.24893592545646 288.07778653615253 L 507.5509030254254 305.04794974395645" fill="none" stroke="#4d66ff" stroke-width="3" /><path d="M 507.5509030254254 305.04794974395645 L 519.9332796502939 320.7066103609018" fill="none" stroke="#4d66ff" stroke-width="3" /><path d="M 519.9332796502939 320.7066103609018 L 531.8325089152196 343.7278273094021" fill="none" stroke="#4d66ff" stroke-width="3" /><path d="M 529.2166110663759 361.27248156566634 L 531.8325089152196 343.7278273094021" fill="none" stroke="#4d66ff" stroke-width="3" /><path d="M 534.7981134245947 374.59538252504393 L 529.2166110663759 361.27248156566634" fill="none" stroke="#4d66ff" stroke-width="3" /><path d="M 534.7981134245947 374.59538252504393 L 536.7376049695151 395.38666711440544" fill="none" stroke="#4d66ff" stroke-width="3" /><path d="M 539.3696077303573 413.61163971753194 L 536.7376049695151 395.38666711440544" fill="none" stroke="#4d66ff" stroke-width="3" /><path d="M 539.3696077303573 413.61163971753194 L 541.433337167836 447.2458228770733" fill="none" stroke="#4d66ff" stroke-width="3" /><path d="M 541.433337167836 447.2458228770733 L 533.1047969630743 463.14637446177153" fill="none" stroke="#4d66ff" stroke-width="3" /><path d="M 532.3202576785911 492.9972317034819 L 533.1047969630743 463.14637446177153" fill="none" stroke="#4d66ff" stroke-width="3" /><path d="M 529.8493040377326 521.4458772414059 L 532.3202576785911 492.9972317034819" fill="none" stroke="#4d66ff" stroke-width="3" /><path d="M 529.8493040377326 521.4458772414059 L 527.6153226734168 549.5959386159606" fill="none" stroke="#4d66ff" stroke-width="3" /><path d="M 529.8493040377326 521.4458772414059 L 533.1047969630743 463.14637446177153" fill="none" stroke="#4d66ff" stroke-width="3" /><path d="M 527.7119521454031 567.6016975295593 L 527.6153226734168 549.5959386159606" fill="none" stroke="#4d66ff" stroke-width="3" /><path d="M 527.7119521454031 567.6016975295593 L 525.6620269182104 588.0792797700767" fill="none" stroke="#4d66ff" stroke-width="3" /><path d="M 525.6620269182104 588.0792797700767 L 525.3537328885332 614.7704362452822" fill="none" stroke="#4d66ff" stroke-width="3" /><path d="M 525.3537328885332 614.7704362452822 L 527.5923156562776 644.2660161280601" fill="none" stroke="#4d66ff" stroke-width="3" /><path d="M 531.5311169906834 666.9621920886306 L 527.5923156562776 644.2660161280601" fill="none" stroke="#4d66ff" stroke-width="3" /><path d="M 492.24893592545646 288.07778653615253 L 482.3053031174497 277.32497710937173" fill="none" stroke="#4d66ff" stroke-width="3" /><path d="M 337.3933049580146 170.0236556238696 L 319.0083975612574 150.63458273834797" fill="none" stroke="#4d66ff" stroke-width="3" /><path d="M 1065.871390774185 290.9200054074782 L 1100.0 294.81293817007315" fill="none" stroke="#664019" stroke-width="3" /><path d="M 1065.871390774185 290.9200054074782 L 1032.7780973196823 301.52919207215734" fill="none" stroke="#664019" stroke-width="3" /><path d="M 1032.7780973196823 301.52919207215734 L 1013.3854825721853 310.46781924062964" fill="none" stroke="#664019" stroke-width="3" /><path d="M 998.7668238812847 331.1797333561762 L 1013.3854825721853 310.46781924062964" fill="none" stroke="#664019" stroke-width="3" /><path d="M 998.7668238812847 331.1797333561762 L 994.6784769354649 357.814196635792" fill="none" stroke="#664019" stroke-width="3" /><path d="M 994.6784769354649 357.814196635792 L 961.946393650063 390.7416046238839" fill="none" stroke="#664019" stroke-width="3" /><path d="M 961.946393650063 390.7416046238839 L 930.256528241114 421.28411885156913" fill="none" stroke="#664019" stroke-width="3" /><path d="M 930.256528241114 421.28411885156913 L 899.344300011503 440.65807355164316" fill="none" stroke="#664019" stroke-width="3" /><path d="M 844.8176693891637 449.27921882490944 L 899.344300011503 440.65807355164316" fill="none" stroke="#664019" stroke-width="3" /><path d="M 844.8176693891637 449.27921882490944 L 821.6219947083848 418.18111128060036" fill="none" stroke="#664019" stroke-width="3" /><path d="M 786.9987346140575 396.74730380810314 L 821.6219947083848 418.18111128060036" fill="none" stroke="#664019" stroke-width="3" /><path d="M 786.9987346140575 396.74730380810314 L 761.6841136546637 391.7507435050648" fill="none" stroke="#664019" stroke-width="3" /><path d="M 761.6841136546637 391.7507435050648 L 734.8947428965815 387.50631292992614" fill="none" stroke="#664019" stroke-width="3" /><path d="M 710.7350741976293 383.4168437560017 L 734.8947428965815 387.50631292992614" fill="none" stroke="#664019" stroke-width="3" /><path d="M 684.8245714943041 379.22154728370214 L 710.7350741976293 383.4168437560017" fill="none" stroke="#664019" stroke-width="3" /><path d="M 659.9608880708605 375.1547553880029 L 684.8245714943041 379.22154728370214" fill="none" stroke="#664019" stroke-width="3" /><path d="M 659.9608880708605 375.1547553880029 L 634.492120096628 370.7062293088109" fill="none" stroke="#664019" stroke-width="3" /><path d="M 634.492120096628 370.7062293088109 L 610.7649833199113 362.04728857181806" fill="none" stroke="#664019" stroke-width="3" /><path d="M 610.7649833199113 362.04728857181806 L 590.5556194639385 357.1678942062674" fill="none" stroke="#664019" stroke-width="3" /><path d="M 576.6363740941005 369.05456754449426 L 590.5556194639385 357.1678942062674" fill="none" stroke="#664019" stroke-width="3" /><path d="M 561.2975957667102 370.47567698017053 L 576.6363740941005 369.05456754449426" fill="none" stroke="#664019" stroke-width="3" /><path d="M 561.2975957667102 370.47567698017053 L 534.7981134245947 374.59538252504393" fill="none" stroke="#664019" stroke-width="3" /><path d="M 534.7981134245947 374.59538252504393 L 518.8335442309926 376.42846251518876" fill="none" stroke="#664019" stroke-width="3" /><path d="M 498.16173933049595 362.8258751243317 L 518.8335442309926 376.42846251518876" fill="none" stroke="#664019" stroke-width="3" /><path d="M 498.16173933049595 362.8258751243317 L 489.2419187852314 342.0572678132222" fill="none" stroke="#664019" stroke-width="3" /><path d="M 534.7981134245947 374.59538252504393 L 576.6363740941005 369.05456754449426" fill="none" stroke="#664019" stroke-width="3" /><path d="M 899.344300011503 440.65807355164316 L 930.256528241114 421.28411885156913" fill="none" stroke="#664019" stroke-width="3" /><path d="M 1013.3854825721853 310.46781924062964 L 1032.7780973196823 301.52919207215734" fill="none" stroke="#664019" stroke-width="3" /><path d="M 452.80299294428784 436.413926783488 L 426.887888837534 427.0973449778848" fill="none" stroke="#00ff66" stroke-width="3" /><path d="M 454.15621764638416 440.1780711624454 L 428.2411135396303 430.8614893568422" fill="none" stroke="#59ff00" stroke-width="3" /><path d="M 455.5094423484805 443.9422155414028 L 429.59433824172663 434.62563373579957" fill="none" stroke="#ff3300" stroke-width="3" /><path d="M 601.4489547976272 440.4471548007535 L 575.6419836714332 443.3687441458672" fill="none" stroke="#00ff66" stroke-width="3" /><path d="M 600.9989918260918 444.42176589169645 L 575.1920206998979 447.34335523681017" fill="none" stroke="#59ff00" stroke-width="3" /><path d="M 575.5280471885499 443.35913481900826 L 541.5443821707204 445.2489080047429" fill="none" stroke="#00ff66" stroke-width="3" /><path d="M 575.3059571827812 447.3529645636691 L 541.3222921649517 449.2427377494037" fill="none" stroke="#59ff00" stroke-width="3" /><path d="M 522.3090831721255 440.8729600939172 L 541.8742505481758 445.29502934852206" fill="none" stroke="#00ff66" stroke-width="3" /><path d="M 521.4272564114459 444.77454715101965 L 540.9924237874963 449.1966164056245" fill="none" stroke="#59ff00" stroke-width="3" /><path d="M 501.48106431751916 438.40725137264786 L 522.1022537803043 440.8374996894782" fill="none" stroke="#00ff66" stroke-width="3" /><path d="M 501.01289634048186 442.3797592386283 L 521.6340858032671 444.81000755545864" fill="none" stroke="#59ff00" stroke-width="3" /><path d="M 501.192126724328 438.39425767664 L 474.8813019227641 437.67236431968934" fill="none" stroke="#00ff66" stroke-width="3" /><path d="M 501.30183393367304 442.3927529346362 L 474.9910091321092 441.6708595776855" fill="none" stroke="#59ff00" stroke-width="3" /><path d="M 454.10748710056663 438.1786649171055 L 474.8874249816191 437.6722057033475" fill="none" stroke="#00ff66" stroke-width="3" /><path d="M 454.2049481922017 442.1774774077853 L 474.9848860732542 441.67101819402734" fill="none" stroke="#59ff00" stroke-width="3" /><path d="M 414.9200506154401 436.72734532532166 L 428.2411135396303 430.8614893568422" fill="none" stroke="#00ff66" stroke-width="3" /><path d="M 400.75232946048556 451.751042151855 L 414.9200506154401 436.72734532532166" fill="none" stroke="#00ff66" stroke-width="3" /><path d="M 400.75232946048556 451.751042151855 L 385.6551248130708 462.1410151269526" fill="none" stroke="#00ff66" stroke-width="3" /><path d="M 385.6551248130708 462.1410151269526 L 363.7248360750055 475.86832754807494" fill="none" stroke="#00ff66" stroke-width="3" /><path d="M 363.7248360750055 475.86832754807494 L 358.59657195444925 513.9548163331701" fill="none" stroke="#00ff66" stroke-width="3" /><path d="M 363.42114344875296 542.913700631241 L 358.59657195444925 513.9548163331701" fill="none" stroke="#00ff66" stroke-width="3" /><path d="M 363.42114344875296 542.913700631241 L 351.6622569883839 562.264978053063" fill="none" stroke="#00ff66" stroke-width="3" /><path d="M 351.6622569883839 562.264978053063 L 319.284481766942 574.2461400505792" fill="none" stroke="#00ff66" stroke-width="3" /><path d="M 307.33923846773354 598.7262618984555 L 319.284481766942 574.2461400505792" fill="none" stroke="#00ff66" stroke-width="3" /><path d="M 288.10537213850387 624.0303248553225 L 307.33923846773354 598.7262618984555" fill="none" stroke="#00ff66" stroke-width="3" /><path d="M 288.10537213850387 624.0303248553225 L 258.79213160013944 626.2262412971505" fill="none" stroke="#00ff66" stroke-width="3" /><path d="M 258.79213160013944 626.2262412971505 L 224.5254802714844 627.2580574565565" fill="none" stroke="#00ff66" stroke-width="3" /><path d="M 224.5254802714844 627.2580574565565 L 193.10709766479127 655.7218211799283" fill="none" stroke="#00ff66" stroke-width="3" /><path d="M 385.6551248130708 462.1410151269526 L 400.75232946048556 451.751042151855" fill="none" stroke="#00ff66" stroke-width="3" /><path d="M 541.3222921649517 445.2489080047429 L 575.3059571827812 443.35913481900826" fill="none" stroke="#00ff66" stroke-width="3" /><path d="M 541.5443821707204 449.2427377494037 L 575.5280471885499 447.3529645636691" fill="none" stroke="#59ff00" stroke-width="3" /><path d="M 400.75232946048556 451.751042151855 L 428.2411135396303 430.8614893568422" fill="none" stroke="#00ff66" stroke-width="3" /><path d="M 288.20660301391865 401.0937821352819 L 268.14908547106813 401.80055730673126" fill="none" stroke="#ff3300" stroke-width="3" /><path d="M 288.20660301391865 401.0937821352819 L 324.48406764063276 397.37092895940253" fill="none" stroke="#ff3300" stroke-width="3" /><path d="M 342.5951915334177 395.2052488885504 L 324.48406764063276 397.37092895940253" fill="none" stroke="#ff3300" stroke-width="3" /><path d="M 342.5951915334177 395.2052488885504 L 351.99355803520046 394.1318577190828" fill="none" stroke="#ff3300" stroke-width="3" /><path d="M 382.27309329345456 395.05784658008685 L 351.99355803520046 394.1318577190828" fill="none" stroke="#ff3300" stroke-width="3" /><path d="M 405.5699988496483 412.6743122174154 L 382.27309329345456 395.05784658008685" fill="none" stroke="#ff3300" stroke-width="3" /><path d="M 405.5699988496483 412.6743122174154 L 428.2411135396303 430.8614893568422" fill="none" stroke="#ff3300" stroke-width="3" /><path d="M 474.01357414011335 447.8014161936704 L 454.15621764638416 440.1780711624454" fill="none" stroke="#ff3300" stroke-width="3" /><path d="M 474.01357414011335 447.8014161936704 L 501.2469803290005 440.3935053056381" fill="none" stroke="#ff3300" stroke-width="3" /><path d="M 501.2469803290005 440.3935053056381 L 502.2270792591764 424.44759916448953" fill="none" stroke="#ff3300" stroke-width="3" /><path d="M 509.72276544346 404.5482875187944 L 502.2270792591764 424.44759916448953" fill="none" stroke="#ff3300" stroke-width="3" /><path d="M 509.72276544346 404.5482875187944 L 523.1151501207887 395.2959580014779" fill="none" stroke="#ff3300" stroke-width="3" /><path d="M 523.1151501207887 395.2959580014779 L 536.7376049695151 395.38666711440544" fill="none" stroke="#ff3300" stroke-width="3" /><path d="M 549.6836535143224 388.334033585252 L 536.7376049695151 395.38666711440544" fill="none" stroke="#ff3300" stroke-width="3" /><path d="M 565.8023697227671 396.11989911044185 L 549.6836535143224 388.334033585252" fill="none" stroke="#ff3300" stroke-width="3" /><path d="M 565.8023697227671 396.11989911044185 L 580.5613712182203 393.4515393722205" fill="none" stroke="#ff3300" stroke-width="3" /><path d="M 589.0463591395371 373.71474822049026 L 580.5613712182203 393.4515393722205" fill="none" stroke="#ff3300" stroke-width="3" /><path d="M 589.0463591395371 373.71474822049026 L 591.6760611986668 355.38772786532365" fill="none" stroke="#ff3300" stroke-width="3" /><path d="M 196.65477970781166 342.1252996478977 L 216.43621304498174 374.39884611371446" fill="none" stroke="#ff3300" stroke-width="3" /><path d="M 216.43621304498174 374.39884611371446 L 238.08581617393375 376.8139762450702" fill="none" stroke="#ff3300" stroke-width="3" /><path d="M 268.14908547106813 401.80055730673126 L 238.08581617393375 376.8139762450702" fill="none" stroke="#ff3300" stroke-width="3" /><path d="M 523.1151501207887 395.2959580014779 L 502.2270792591764 424.44759916448953" fill="none" stroke="#ff3300" stroke-width="3" /><path d="M 584.3299206257932 332.28336089664646 L 591.6760611986668 355.38772786532365" fill="none" stroke="#ff3300" stroke-width="3" /><path d="M 584.3299206257932 332.28336089664646 L 589.4374784309225 315.5361909247323" fill="none" stroke="#ff3300" stroke-width="3" /><path d="M 589.4374784309225 315.5361909247323 L 588.3538479236154 283.78800140456354" fill="none" stroke="#ff3300" stroke-width="3" /><path d="M 588.3538479236154 283.78800140456354 L 595.2191418382627 252.36485287232466" fill="none" stroke="#ff3300" stroke-width="3" /><path d="M 592.0717818934769 213.88529126457047 L 595.2191418382627 252.36485287232466" fill="none" stroke="#ff3300" stroke-width="3" /><path d="M 592.0717818934769 213.88529126457047 L 588.6414356378697 184.5408932366181" fill="none" stroke="#ff3300" stroke-width="3" /><path d="M 402.60669504198967 424.61011965845444 L 428.2411135396303 430.8614893568422" fill="none" stroke="#59ff00" stroke-width="3" /><path d="M 402.60669504198967 424.61011965845444 L 390.6752559530673 428.4690365037116" fill="none" stroke="#59ff00" stroke-width="3" /><circle cx="656.5397446221107" cy="434.497412966156" fill="white" id="070101058001" r="2.5" /><circle cx="625.8874956861858" cy="442.47981490267534" fill="white" id="070101058002" r="2.5" /><circle cx="601.2239733118595" cy="442.43446034622497" fill="white" id="070101058003" r="2.5" /><circle cx="625.8874956861858" cy="442.47981490267534" fill="white" id="070101058010" r="2.5" /><circle cx="656.5397446221107" cy="434.497412966156" fill="white" id="070101058011" r="2.5" /><circle cx="673.4913148510294" cy="417.04346782281925" fill="white" id="070201012101" r="2.5" /><circle cx="673.4913148510294" cy="417.04346782281925" fill="white" id="070201012103" r="2.5" /><circle cx="656.5397446221107" cy="434.497412966156" fill="white" id="070201012201" r="2.5" /><circle cx="656.5397446221107" cy="434.497412966156" fill="white" id="070201012202" r="2.5" /><circle cx="625.8874956861858" cy="442.47981490267534" fill="white" id="070201012301" r="2.5" /><circle cx="625.8874956861858" cy="442.47981490267534" fill="white" id="070201012302" r="2.5" /><circle cx="601.2239733118595" cy="442.43446034622497" fill="white" id="070201012401" r="2.5" /><circle cx="601.2239733118595" cy="442.43446034622497" fill="white" id="070201012402" r="2.5" /><circle cx="575.4170021856655" cy="445.3560496913387" fill="white" id="070201012501" r="2.5" /><circle cx="575.4170021856655" cy="445.3560496913387" fill="white" id="070201012502" r="2.5" /><circle cx="541.433337167836" cy="447.2458228770733" fill="white" id="070201012601" r="2.5" /><circle cx="541.433337167836" cy="447.2458228770733" fill="white" id="070201012602" r="2.5" /><circle cx="521.8681697917857" cy="442.8237536224684" fill="white" id="070201012701" r="2.5" /><circle cx="521.8681697917857" cy="442.8237536224684" fill="white" id="070201012702" r="2.5" /><circle cx="501.2469803290005" cy="440.3935053056381" fill="white" id="070201012801" r="2.5" /><circle cx="501.2469803290005" cy="440.3935053056381" fill="white" id="070201012802" r="2.5" /><circle cx="474.93615552743665" cy="439.6716119486874" fill="white" id="070201012901" r="2.5" /><circle cx="474.93615552743665" cy="439.6716119486874" fill="white" id="070201012902" r="2.5" /><circle cx="454.15621764638416" cy="440.1780711624454" fill="white" id="070201013001" r="2.5" /><circle cx="454.15621764638416" cy="440.1780711624454" fill="white" id="070201013002" r="2.5" /><circle cx="428.2411135396303" cy="430.8614893568422" fill="white" id="070201013101" r="2.5" /><circle cx="428.2411135396303" cy="430.8614893568422" fill="white" id="070201013106" r="2.5" /><circle cx="402.60669504198967" cy="424.61011965845444" fill="white" id="070201013201" r="2.5" /><circle cx="402.60669504198967" cy="424.61011965845444" fill="white" id="070201013202" r="2.5" /><circle cx="390.6752559530673" cy="428.4690365037116" fill="white" id="070201013301" r="2.5" /><circle cx="390.6752559530673" cy="428.4690365037116" fill="white" id="070201013302" r="2.5" /><circle cx="588.6414356378697" cy="184.5408932366181" fill="white" id="070201022002" r="2.5" /><circle cx="592.0717818934769" cy="213.88529126457047" fill="white" id="070201022102" r="2.5" /><circle cx="595.2191418382627" cy="252.36485287232466" fill="white" id="070201022202" r="2.5" /><circle cx="588.3538479236154" cy="283.78800140456354" fill="white" id="070201022302" r="2.5" /><circle cx="589.4374784309225" cy="315.5361909247323" fill="white" id="070201022402" r="2.5" /><circle cx="584.3299206257932" cy="332.28336089664646" fill="white" id="070201022502" r="2.5" /><circle cx="591.6760611986668" cy="355.38772786532365" fill="white" id="070201022602" r="2.5" /><circle cx="589.0463591395371" cy="373.71474822049026" fill="white" id="070201022702" r="2.5" /><circle cx="580.5613712182203" cy="393.4515393722205" fill="white" id="070201022802" r="2.5" /><circle cx="565.8023697227671" cy="396.11989911044185" fill="white" id="070201022902" r="2.5" /><circle cx="549.6836535143224" cy="388.334033585252" fill="white" id="070201023002" r="2.5" /><circle cx="536.7376049695151" cy="395.38666711440544" fill="white" id="070201023102" r="2.5" /><circle cx="523.1151501207887" cy="395.2959580014779" fill="white" id="070201023202" r="2.5" /><circle cx="509.72276544346" cy="404.5482875187944" fill="white" id="070201023302" r="2.5" /><circle cx="502.2270792591764" cy="424.44759916448953" fill="white" id="070201023402" r="2.5" /><circle cx="501.2469803290005" cy="440.3935053056381" fill="white" id="070201023502" r="2.5" /><circle cx="474.01357414011335" cy="447.8014161936704" fill="white" id="070201023601" r="2.5" /><circle cx="474.01357414011335" cy="447.8014161936704" fill="white" id="070201023602" r="2.5" /><circle cx="454.15621764638416" cy="440.1780711624454" fill="white" id="070201023701" r="2.5" /><circle cx="454.15621764638416" cy="440.1780711624454" fill="white" id="070201023702" r="2.5" /><circle cx="428.2411135396303" cy="430.8614893568422" fill="white" id="070201023802" r="2.5" /><circle cx="428.2411135396303" cy="430.8614893568422" fill="white" id="070201023803" r="2.5" /><circle cx="405.5699988496483" cy="412.6743122174154" fill="white" id="070201023901" r="2.5" /><circle cx="405.5699988496483" cy="412.6743122174154" fill="white" id="070201023902" r="2.5" /><circle cx="382.27309329345456" cy="395.05784658008685" fill="white" id="070201024002" r="2.5" /><circle cx="351.99355803520046" cy="394.1318577190828" fill="white" id="070201024102" r="2.5" /><circle cx="351.99355803520046" cy="394.1318577190828" fill="white" id="070201024104" r="2.5" /><circle cx="342.5951915334177" cy="395.2052488885504" fill="white" id="070201024202" r="2.5" /><circle cx="324.48406764063276" cy="397.37092895940253" fill="white" id="070201024302" r="2.5" /><circle cx="288.20660301391865" cy="401.0937821352819" fill="white" id="070201024402" r="2.5" /><circle cx="268.14908547106813" cy="401.80055730673126" fill="white" id="070201024502" r="2.5" /><circle cx="238.08581617393375" cy="376.8139762450702" fill="white" id="070201024602" r="2.5" /><circle cx="216.43621304498174" cy="374.39884611371446" fill="white" id="070201024702" r="2.5" /><circle cx="216.43621304498174" cy="374.39884611371446" fill="white" id="070201024703" r="2.5" /><circle cx="196.65477970781166" cy="342.1252996478977" fill="white" id="070201024802" r="2.5" /><circle cx="428.2411135396303" cy="430.8614893568422" fill="white" id="070201033104" r="2.5" /><circle cx="414.9200506154401" cy="436.72734532532166" fill="white" id="070201033201" r="2.5" /><circle cx="414.9200506154401" cy="436.72734532532166" fill="white" id="070201033202" r="2.5" /><circle cx="400.75232946048556" cy="451.751042151855" fill="white" id="070201033301" r="2.5" /><circle cx="400.75232946048556" cy="451.751042151855" fill="white" id="070201033302" r="2.5" /><circle cx="385.6551248130708" cy="462.1410151269526" fill="white" id="070201033401" r="2.5" /><circle cx="385.6551248130708" cy="462.1410151269526" fill="white" id="070201033402" r="2.5" /><circle cx="363.7248360750055" cy="475.86832754807494" fill="white" id="070201033501" r="2.5" /><circle cx="363.7248360750055" cy="475.86832754807494" fill="white" id="070201033502" r="2.5" /><circle cx="358.59657195444925" cy="513.9548163331701" fill="white" id="070201033601" r="2.5" /><circle cx="358.59657195444925" cy="513.9548163331701" fill="white" id="070201033602" r="2.5" /><circle cx="363.42114344875296" cy="542.913700631241" fill="white" id="070201033701" r="2.5" /><circle cx="363.42114344875296" cy="542.913700631241" fill="white" id="070201033702" r="2.5" /><circle cx="351.6622569883839" cy="562.264978053063" fill="white" id="070201033801" r="2.5" /><circle cx="351.6622569883839" cy="562.264978053063" fill="white" id="070201033802" r="2.5" /><circle cx="319.284481766942" cy="574.2461400505792" fill="white" id="070201033901" r="2.5" /><circle cx="319.284481766942" cy="574.2461400505792" fill="white" id="070201033902" r="2.5" /><circle cx="307.33923846773354" cy="598.7262618984555" fill="white" id="070201034001" r="2.5" /><circle cx="307.33923846773354" cy="598.7262618984555" fill="white" id="070201034002" r="2.5" /><circle cx="288.10537213850387" cy="624.0303248553225" fill="white" id="070201034101" r="2.5" /><circle cx="288.10537213850387" cy="624.0303248553225" fill="white" id="070201034102" r="2.5" /><circle cx="258.79213160013944" cy="626.2262412971505" fill="white" id="070201034201" r="2.5" /><circle cx="258.79213160013944" cy="626.2262412971505" fill="white" id="070201034202" r="2.5" /><circle cx="224.5254802714844" cy="627.2580574565565" fill="white" id="070201034301" r="2.5" /><circle cx="224.5254802714844" cy="627.2580574565565" fill="white" id="070201034302" r="2.5" /><circle cx="193.10709766479127" cy="655.7218211799283" fill="white" id="070201034402" r="2.5" /><circle cx="454.15621764638416" cy="440.1780711624454" fill="white" id="070201042103" r="2.5" /><circle cx="1100.0" cy="294.81293817007315" fill="white" id="070201052101" r="2.5" /><circle cx="1100.0" cy="294.81293817007315" fill="white" id="070201052102" r="2.5" /><circle cx="1100.0" cy="294.81293817007315" fill="white" id="070201052103" r="2.5" /><circle cx="1065.871390774185" cy="290.9200054074782" fill="white" id="070201052201" r="2.5" /><circle cx="1065.871390774185" cy="290.9200054074782" fill="white" id="070201052202" r="2.5" /><circle cx="1032.7780973196823" cy="301.52919207215734" fill="white" id="070201052301" r="2.5" /><circle cx="1032.7780973196823" cy="301.52919207215734" fill="white" id="070201052302" r="2.5" /><circle cx="1013.3854825721853" cy="310.46781924062964" fill="white" id="070201052401" r="2.5" /><circle cx="1013.3854825721853" cy="310.46781924062964" fill="white" id="070201052402" r="2.5" /><circle cx="998.7668238812847" cy="331.1797333561762" fill="white" id="070201052501" r="2.5" /><circle cx="998.7668238812847" cy="331.1797333561762" fill="white" id="070201052502" r="2.5" /><circle cx="994.6784769354649" cy="357.814196635792" fill="white" id="070201052601" r="2.5" /><circle cx="994.6784769354649" cy="357.814196635792" fill="white" id="070201052602" r="2.5" /><circle cx="961.946393650063" cy="390.7416046238839" fill="white" id="070201052701" r="2.5" /><circle cx="961.946393650063" cy="390.7416046238839" fill="white" id="070201052702" r="2.5" /><circle cx="930.256528241114" cy="421.28411885156913" fill="white" id="070201052801" r="2.5" /><circle cx="930.256528241114" cy="421.28411885156913" fill="white" id="070201052802" r="2.5" /><circle cx="899.344300011503" cy="440.65807355164316" fill="white" id="070201052901" r="2.5" /><circle cx="899.344300011503" cy="440.65807355164316" fill="white" id="070201052902" r="2.5" /><circle cx="899.344300011503" cy="440.65807355164316" fill="white" id="070201052903" r="2.5" /><circle cx="844.8176693891637" cy="449.27921882490944" fill="white" id="070201053001" r="2.5" /><circle cx="844.8176693891637" cy="449.27921882490944" fill="white" id="070201053002" r="2.5" /><circle cx="821.6219947083848" cy="418.18111128060036" fill="white" id="070201053101" r="2.5" /><circle cx="821.6219947083848" cy="418.18111128060036" fill="white" id="070201053102" r="2.5" /><circle cx="786.9987346140575" cy="396.74730380810314" fill="white" id="070201053201" r="2.5" /><circle cx="786.9987346140575" cy="396.74730380810314" fill="white" id="070201053202" r="2.5" /><circle cx="761.6841136546637" cy="391.7507435050648" fill="white" id="070201053301" r="2.5" /><circle cx="761.6841136546637" cy="391.7507435050648" fill="white" id="070201053302" r="2.5" /><circle cx="734.8947428965815" cy="387.50631292992614" fill="white" id="070201053401" r="2.5" /><circle cx="734.8947428965815" cy="387.50631292992614" fill="white" id="070201053402" r="2.5" /><circle cx="710.7350741976293" cy="383.4168437560017" fill="white" id="070201053501" r="2.5" /><circle cx="710.7350741976293" cy="383.4168437560017" fill="white" id="070201053502" r="2.5" /><circle cx="684.8245714943041" cy="379.22154728370214" fill="white" id="070201053601" r="2.5" /><circle cx="684.8245714943041" cy="379.22154728370214" fill="white" id="070201053602" r="2.5" /><circle cx="659.9608880708605" cy="375.1547553880029" fill="white" id="070201053701" r="2.5" /><circle cx="659.9608880708605" cy="375.1547553880029" fill="white" id="070201053702" r="2.5" /><circle cx="634.492120096628" cy="370.7062293088109" fill="white" id="070201053801" r="2.5" /><circle cx="634.492120096628" cy="370.7062293088109" fill="white" id="070201053802" r="2.5" /><circle cx="610.7649833199113" cy="362.04728857181806" fill="white" id="070201053901" r="2.5" /><circle cx="610.7649833199113" cy="362.04728857181806" fill="white" id="070201053902" r="2.5" /><circle cx="590.5556194639385" cy="357.1678942062674" fill="white" id="070201054001" r="2.5" /><circle cx="590.5556194639385" cy="357.1678942062674" fill="white" id="070201054002" r="2.5" /><circle cx="518.8335442309926" cy="376.42846251518876" fill="white" id="070201054401" r="2.5" /><circle cx="498.16173933049595" cy="362.8258751243317" fill="white" id="070201054501" r="2.5" /><circle cx="489.2419187852314" cy="342.0572678132222" fill="white" id="070201054601" r="2.5" /><circle cx="293.09789485793226" cy="100.0" fill="white" id="070201062101" r="2.5" /><circle cx="293.09789485793226" cy="100.0" fill="white" id="070201062102" r="2.5" /><circle cx="307.594616357991" cy="128.38439324961058" fill="white" id="070201062201" r="2.5" /><circle cx="307.594616357991" cy="128.38439324961058" fill="white" id="070201062202" r="2.5" /><circle cx="319.0083975612574" cy="150.63458273834797" fill="white" id="070201062301" r="2.5" /><circle cx="319.0083975612574" cy="150.63458273834797" fill="white" id="070201062302" r="2.5" /><circle cx="337.3933049580146" cy="170.0236556238696" fill="white" id="070201062401" r="2.5" /><circle cx="337.3933049580146" cy="170.0236556238696" fill="white" id="070201062402" r="2.5" /><circle cx="356.8342344415067" cy="185.18341611978073" fill="white" id="070201062501" r="2.5" /><circle cx="356.8342344415067" cy="185.18341611978073" fill="white" id="070201062502" r="2.5" /><circle cx="393.19452432992085" cy="198.89561035540174" fill="white" id="070201062601" r="2.5" /><circle cx="393.19452432992085" cy="198.89561035540174" fill="white" id="070201062602" r="2.5" /><circle cx="407.39905671229667" cy="208.80180139496653" fill="white" id="070201062701" r="2.5" /><circle cx="407.39905671229667" cy="208.80180139496653" fill="white" id="070201062702" r="2.5" /><circle cx="424.6796272863238" cy="224.6456597841019" fill="white" id="070201062801" r="2.5" /><circle cx="424.6796272863238" cy="224.6456597841019" fill="white" id="070201062802" r="2.5" /><circle cx="449.88611526515774" cy="248.0788472870976" fill="white" id="070201062901" r="2.5" /><circle cx="449.88611526515774" cy="248.0788472870976" fill="white" id="070201062902" r="2.5" /><circle cx="449.88611526515774" cy="248.0788472870976" fill="white" id="070201062903" r="2.5" /><circle cx="466.9711261934881" cy="263.1101032063548" fill="white" id="070201063001" r="2.5" /><circle cx="466.9711261934881" cy="263.1101032063548" fill="white" id="070201063002" r="2.5" /><circle cx="482.3053031174497" cy="277.32497710937173" fill="white" id="070201063101" r="2.5" /><circle cx="482.3053031174497" cy="277.32497710937173" fill="white" id="070201063102" r="2.5" /><circle cx="492.24893592545646" cy="288.07778653615253" fill="white" id="070201063201" r="2.5" /><circle cx="492.24893592545646" cy="288.07778653615253" fill="white" id="070201063202" r="2.5" /><circle cx="507.5509030254254" cy="305.04794974395645" fill="white" id="070201063301" r="2.5" /><circle cx="507.5509030254254" cy="305.04794974395645" fill="white" id="070201063302" r="2.5" /><circle cx="519.9332796502939" cy="320.7066103609018" fill="white" id="070201063401" r="2.5" /><circle cx="519.9332796502939" cy="320.7066103609018" fill="white" id="070201063402" r="2.5" /><circle cx="531.8325089152196" cy="343.7278273094021" fill="white" id="070201063501" r="2.5" /><circle cx="531.8325089152196" cy="343.7278273094021" fill="white" id="070201063502" r="2.5" /><circle cx="529.2166110663759" cy="361.27248156566634" fill="white" id="070201063601" r="2.5" /><circle cx="529.2166110663759" cy="361.27248156566634" fill="white" id="070201063602" r="2.5" /><circle cx="536.7376049695151" cy="395.38666711440544" fill="white" id="070201063801" r="2.5" /><circle cx="536.7376049695151" cy="395.38666711440544" fill="white" id="070201063802" r="2.5" /><circle cx="539.3696077303573" cy="413.61163971753194" fill="white" id="070201063901" r="2.5" /><circle cx="539.3696077303573" cy="413.61163971753194" fill="white" id="070201063902" r="2.5" /><circle cx="541.433337167836" cy="447.2458228770733" fill="white" id="070201064001" r="2.5" /><circle cx="541.433337167836" cy="447.2458228770733" fill="white" id="070201064002" r="2.5" /><circle cx="533.1047969630743" cy="463.14637446177153" fill="white" id="070201064101" r="2.5" /><circle cx="533.1047969630743" cy="463.14637446177153" fill="white" id="070201064102" r="2.5" /><circle cx="532.3202576785911" cy="492.9972317034819" fill="white" id="070201064201" r="2.5" /><circle cx="532.3202576785911" cy="492.9972317034819" fill="white" id="070201064202" r="2.5" /><circle cx="529.8493040377326" cy="521.4458772414059" fill="white" id="070201064301" r="2.5" /><circle cx="529.8493040377326" cy="521.4458772414059" fill="white" id="070201064302" r="2.5" /><circle cx="527.6153226734168" cy="549.5959386159606" fill="white" id="070201064401" r="2.5" /><circle cx="527.6153226734168" cy="549.5959386159606" fill="white" id="070201064402" r="2.5" /><circle cx="527.7119521454031" cy="567.6016975295593" fill="white" id="070201064501" r="2.5" /><circle cx="527.7119521454031" cy="567.6016975295593" fill="white" id="070201064502" r="2.5" /><circle cx="525.6620269182104" cy="588.0792797700767" fill="white" id="070201064601" r="2.5" /><circle cx="525.6620269182104" cy="588.0792797700767" fill="white" id="070201064602" r="2.5" /><circle cx="525.3537328885332" cy="614.7704362452822" fill="white" id="070201064701" r="2.5" /><circle cx="525.3537328885332" cy="614.7704362452822" fill="white" id="070201064702" r="2.5" /><circle cx="527.5923156562776" cy="644.2660161280601" fill="white" id="070201064801" r="2.5" /><circle cx="527.5923156562776" cy="644.2660161280601" fill="white" id="070201064802" r="2.5" /><circle cx="531.5311169906834" cy="666.9621920886306" fill="white" id="070201064901" r="2.5" /><circle cx="531.5311169906834" cy="666.9621920886306" fill="white" id="070201064902" r="2.5" /><circle cx="100.0" cy="303.53235164901764" fill="white" id="070201072102" r="2.5" /><circle cx="115.81042217876751" cy="290.82173720182686" fill="white" id="070201072202" r="2.5" /><circle cx="140.80064419648164" cy="297.01641370462494" fill="white" id="070201072302" r="2.5" /><circle cx="174.58414816519388" cy="292.4960762443687" fill="white" id="070201072402" r="2.5" /><circle cx="212.04877487633803" cy="294.83939499468704" fill="white" id="070201072502" r="2.5" /><circle cx="244.89589324744082" cy="299.3521733621926" fill="white" id="070201072602" r="2.5" /><circle cx="268.94512826412097" cy="298.89106870488496" fill="white" id="070201072702" r="2.5" /><circle cx="299.44092948349487" cy="300.11186218284297" fill="white" id="070201072802" r="2.5" /><circle cx="315.7367997239175" cy="299.0460301060992" fill="white" id="070201072902" r="2.5" /><circle cx="330.6315426204986" cy="323.81717702459434" fill="white" id="070201073002" r="2.5" /><circle cx="343.4694581847459" cy="340.6474970166585" fill="white" id="070201073102" r="2.5" /><circle cx="346.93431496606627" cy="373.9982141983585" fill="white" id="070201073202" r="2.5" /><circle cx="342.5951915334177" cy="395.2052488885504" fill="white" id="070201073302" r="2.5" /><circle cx="345.9059012998995" cy="414.58676268137503" fill="white" id="070201073402" r="2.5" /><circle cx="347.2265040837451" cy="438.50751166626543" fill="white" id="070201073502" r="2.5" /><circle cx="353.5212239733126" cy="463.14637446177153" fill="white" id="070201073602" r="2.5" /><circle cx="363.7248360750055" cy="475.86832754807494" fill="white" id="070201073702" r="2.5" /><circle cx="377.58886460370337" cy="489.9395786889903" fill="white" id="070201073802" r="2.5" /><circle cx="402.45945013229203" cy="487.7890168036395" fill="white" id="070201073902" r="2.5" /><circle cx="422.8942827562419" cy="481.715285784718" fill="white" id="070201074002" r="2.5" /><circle cx="446.009432877029" cy="478.6047191209986" fill="white" id="070201074102" r="2.5" /><circle cx="470.4727942022339" cy="473.43429968485594" fill="white" id="070201074202" r="2.5" /><circle cx="496.45922006211816" cy="467.71584602484" fill="white" id="070201074302" r="2.5" /><circle cx="521.8681697917857" cy="442.8237536224684" fill="white" id="070201074402" r="2.5" /><circle cx="533.1047969630743" cy="463.14637446177153" fill="white" id="070201074504" r="2.5" /><circle cx="549.7664787760266" cy="471.8960243116651" fill="white" id="070201074602" r="2.5" /><circle cx="578.0720119636511" cy="479.57984208484174" fill="white" id="070201074702" r="2.5" /><circle cx="617.2644656620288" cy="488.12917597707064" fill="white" id="070201074802" r="2.5" /><circle cx="640.4716438513734" cy="510.09211994155106" fill="white" id="070201074902" r="2.5" /><circle cx="651.9705510180603" cy="527.9202401756836" fill="white" id="070201075002" r="2.5" /><circle cx="656.8112274243665" cy="556.890463112867" fill="white" id="070201075102" r="2.5" /><circle cx="663.5269757275955" cy="576.7255224702486" fill="white" id="070201075202" r="2.5" /><circle cx="673.0702864373637" cy="617.4425755298923" fill="white" id="070201075302" r="2.5" /><circle cx="675.3502818359582" cy="645.5775187189724" fill="white" id="070201075402" r="2.5" /><circle cx="670.0609685954222" cy="676.6567285314183" fill="white" id="070201075502" r="2.5" /><circle cx="684.2862072932251" cy="706.2241197952603" fill="white" id="070201075602" r="2.5" /><circle cx="705.5861037616459" cy="723.6402694749243" fill="white" id="070201075702" r="2.5" /><circle cx="732.5296215345666" cy="729.2831322074871" fill="white" id="070201075802" r="2.5" /><circle cx="754.5036236051983" cy="729.736677772071" fill="white" id="070201075902" r="2.5" /><circle cx="782.4709536408612" cy="757.3953981183421" fill="white" id="070201076002" r="2.5" /><circle cx="576.6363740941005" cy="369.05456754449426" fill="white" id="070201054101" r="2.5" /><circle cx="576.6363740941005" cy="369.05456754449426" fill="white" id="070201054102" r="2.5" /><circle cx="561.2975957667102" cy="370.47567698017053" fill="white" id="070201054201" r="2.5" /><circle cx="561.2975957667102" cy="370.47567698017053" fill="white" id="070201054202" r="2.5" /><circle cx="534.7981134245947" cy="374.59538252504393" fill="white" id="070201054301" r="2.5" /><circle cx="534.7981134245947" cy="374.59538252504393" fill="white" id="070201054302" r="2.5" /><circle cx="518.8335442309926" cy="376.42846251518876" fill="white" id="070201054402" r="2.5" /><circle cx="498.16173933049595" cy="362.8258751243317" fill="white" id="070201054502" r="2.5" /><circle cx="489.2419187852314" cy="342.0572678132222" fill="white" id="070201054602" r="2.5" /><circle cx="673.4913148510294" cy="417.04346782281925" fill="white" id="070101051279" r="2.5" /><circle cx="673.4913148510294" cy="417.04346782281925" fill="white" id="070101051280" r="2.5" /><circle cx="601.2239733118595" cy="442.43446034622497" fill="white" id="070101058017" r="2.5" /><circle cx="534.7981134245947" cy="374.59538252504393" fill="white" id="070201065001" r="2.5" /><circle cx="534.7981134245947" cy="374.59538252504393" fill="white" id="070201065002" r="2.5" /></svg>