<?xml version="1.0" encoding="utf-8" ?>
<svg baseProfile="full" height="1318.2594085379121" version="1.1" width="1200" xmlns="http://www.w3.org/2000/svg" xmlns:ev="http://www.w3.org/2001/xml-events" xmlns:xlink="http://www.w3.org/1999/xlink"><defs /><rect fill="#222B38" height="1318.2594085379121" rx="0" ry="0" width="1200" x="0" y="0" /><path d="M 495.3518254028171 304.2061310341154 L 491.2165227145517 300.21174159340956 L 484.87572525921126 298.0079552320094 L 481.0161094168301 290.0193173569104 L 483.49729102978944 277.89888788792496 L 492.8706437898578 291.9475966731984 L 496.4545727863546 289.74384953694187 L 490.3894621768986 279.2761934834464 L 486.5298463345174 269.91059600719905 L 474.9509988073741 241.81493715183856 L 484.87572525921126 226.11516249606214 L 482.394543646252 219.5048899144432 L 472.74550404029924 232.45009538634673 L 463.3721512802308 190.0352366916186 L 457.8584143625435 192.5139204998357 L 466.6803934308432 223.63629924636444 L 430.84110346587573 215.64894104657114 L 436.0791535376786 198.8483948168997 L 441.59289045536593 192.7893306291676 L 436.0791535376786 183.97628755346267 L 422.84618493522913 190.58605417154394 L 410.71596371631136 167.45228283045898 L 401.8939846480174 160.84284566852324 L 426.15442708583583 137.7105568652978 L 421.7434375516917 130.00005016728497 L 418.4351954010793 138.81206828079382 L 394.1747529632552 163.04598093041048 L 386.455521278493 164.14755248313617 L 371.0170579089685 95.8550605077764 L 356.6813419229816 100.26072443810719 L 366.60606837481873 138.81206828079382 L 352.2703523888317 144.3196645776637 L 339.0373837863822 116.78233675195355 L 325.8044151839327 130.00005016728497 L 268.46155123998483 156.43660652132172 L 261.84506693876006 138.81206828079382 L 268.46155123998483 128.898559669031 L 225.45440328202386 99.15930453372376 L 247.50935095277308 78.23282311395829 L 287.20825676012157 110.1736212328135 L 358.88683669005644 67.21926462908152 L 318.0851834991705 5.548168608511148 L 313.674193965015 16.56026301511838 L 330.2154047180825 39.686512248409144 L 329.11265733453934 68.32060871239487 L 316.98243611563305 63.91524806641919 L 310.3659518144026 49.59811486519655 L 290.51649891073396 72.72601119023933 L 275.07803554120954 66.11792316026464 L 297.13298321195873 39.686512248409144 L 289.4137515271965 31.977634398583675 L 262.9478143222975 65.01658430609368 L 248.61209833631054 62.81391444079282 L 259.63957217168513 42.99035625744293 L 299.33847797903366 -6.564833282692035 L 250.81759310337972 -32.992103037331816 L 241.99561403508577 0.042219443220844255 L 257.4340774046102 -16.475235904781314 L 270.6670460070597 -17.576378680310327 L 255.22858263753528 14.357823218781647 L 221.043413747874 4.446973546639498 L 236.48187711739845 -38.49759470190625 L 164.80329718746358 -46.20517323389015 L 185.7554974746753 24.268884654302866 L 212.22143467957434 40.78779097020746 L 203.39945561127467 56.20596759265603 L 172.5225288722258 39.686512248409144 L 162.59780242038866 16.56026301511838 L 151.57032858501407 28.67386882167918 L 139.440107366102 24.268884654302866 L 157.08406550269567 9.952974998795511 L 148.26208643440168 -26.385426769768287 L 111.87142277766552 35.28142350461138 L 93.1247172575287 19.863942317226147 L 122.89889661304012 -23.082053343273117 L 57.83680098433 -34.09320659877636 L 63.350537902017294 -42.90194097690352 L 129.51538091426488 -31.890996861913862 L 141.64560213317694 -50.609446310907 L -25.972000164516928 -88.04407869899794 L 15.932400409906535 48.49681522772537 L 84.30273818922903 48.49681522772537 L 106.35768585997822 67.21926462908152 L 24.754379478206218 72.72601119023933 L 26.959874245281128 90.34803942262131 L 109.6659280105906 91.44943841088356 L 104.15219109290331 105.76786317836813 L 34.67910593004335 105.76786317836813 L 36.884600697118266 122.28967158587584 L 108.56318062705314 124.49262382202593 L 107.46043324351568 139.91358231093574 L 34.67910593004335 138.81206828079382 L 30.2681163958935 154.23350263600742 L 52.323064066642694 157.53816238594774 L 63.350537902017294 169.65544946862028 L -51.335189985878486 174.0618141220388 L -64.568158588328 144.3196645776637 L -53.54068475295344 148.72578867902521 L -2.8143051102302934 149.82732624120456 L 6.00767395806939 105.76786317836813 L -50.23244260234105 -67.12509782514601 L -75.59563242370263 -55.013677560314306 L -88.82860102615214 -69.32714025254174 L -109.78080131336387 -57.215777499981954 L -139.5549806688753 -94.64987659894106 L -147.2742123536375 -113.36579292515566 L -98.75332747798927 -110.06303905758261 L -282.91214052874506 -147.4928719559456 L -297.24785651473206 -145.29120072824108 L -256.446203323846 -3.261318684297194 L -161.6099283396245 -8.767163276603313 L -153.89069665486224 6.649366284356205 L -123.01376991581338 5.548168608511148 L -123.01376991581338 22.066408256883662 L -182.56212862683623 25.370126774719807 L -178.15113909268638 38.585236140883126 L -185.8703707774486 38.585236140883126 L -189.17861292806094 26.471371509409053 L -247.62422425554632 28.67386882167918 L -249.82971902262693 79.334193341788 L -168.22641264084922 77.13145549987783 L -159.40443357254958 96.956472568521 L -252.03521378969617 96.956472568521 L -254.2407085567711 116.78233675195355 L -291.73411959704475 118.98526284171922 L -298.35060389826947 22.066408256883662 L -302.7615934324193 -37.39650159732673 L -344.66599400684277 -160.70267974795826 L -446.11875329228906 -178.31517127759383 L -426.26930038861474 4.446973546639498 L -461.5572166618134 -17.576378680310327 L -468.1737009630383 -39.59868519191457 L -476.995680031338 -32.992103037331816 L -494.6396381679373 -39.59868519191457 L -468.1737009630383 -57.215777499981954 L -470.3791957301132 -77.03420640239872 L -496.8451329350122 -74.83220057317126 L -510.07810153746175 -85.8421251528253 L -470.3791957301132 -88.04407869899794 L -479.2011747984128 -187.12116610570968 L -583.9621762344715 -209.13542128705865 L -718.4973570260416 -265.26703967493603 L -977.6429921573447 -495.2256019635429 L -1050.424319470817 -528.2246392111891 L -1193.7814793306868 -534.8241644422749 L -1229.0693956038856 -554.6221757093906 L -1705.4562652920738 -530.4244914073655 L -1676.7848333200939 -310.3875288895359 L -1800.2925402762896 152.03040920897791 L -2514.8728448085635 1736.5448340033302 L -779.148463120602 2212.066513017664 L 250.81759310337972 2953.960939418503 L 2363.6815799611527 2417.9073309172886 L 2460.723349712449 1076.0426817957896 L 2242.3793677720378 1124.609602495402 L 2008.5969224620962 892.8585442784495 L 1858.6232783010016 846.5221791954039 L 1781.4309614533795 764.8931457894497 L 1684.3891917020828 749.4514266794534 L 1604.991380087386 791.3658571986472 L 1524.4908210891513 773.1657062336923 L 1456.1204833098232 801.8450550891135 L 1432.4114145637736 784.196015733928 L 1392.7125087564248 765.9961453463117 L 1375.619924311594 770.4081697350142 L 1401.5344878247247 772.6141976256847 L 1403.1886089000309 815.0822741200014 L 1386.0960244552002 818.9432006342881 L 1359.6300872503011 806.8089680778418 L 1357.4245924832262 786.9536339860402 L 1346.9484923396203 774.8202359807673 L 1332.0614026618646 773.7172154951558 L 1329.8559078947897 767.6506495870079 L 1384.9932770716628 742.8337040237557 L 1386.0960244552002 700.3722245804998 L 1342.5375028054707 657.9146225998983 L 1286.8487599368286 669.4935840609838 L 1273.6157913343793 683.2784380209182 L 1269.2048018002295 659.0173684087031 L 1292.3624968545162 641.3737493611071 L 1277.4754071767604 605.5372097334962 L 1303.3899706898908 607.7424554690299 L 1304.4927180734283 591.754660935846 L 1296.2221126968973 579.6263560707944 L 1220.6839169245814 607.7424554690299 L 1122.5393997897474 520.0919953269872 L 1084.494615057705 540.4871674316466 L 1051.4121935515811 506.86317314369376 L 1069.0561516881805 493.08355053250057 L 1082.8404939823988 514.0287384077358 L 1073.4671412223304 523.9504727429228 L 1083.9432413659363 529.4626389172658 L 1096.6248362766169 510.1703433801591 L 1107.6523101119915 498.5953505368581 L 1064.6451621540305 479.8554972982561 L 1070.7102727634867 486.4694768375171 L 1047.5525777092002 504.65840606321524 L 1027.7031248055257 492.53237412844146 L 1016.1242772783825 480.4066586635617 L 1012.8160351277701 485.9183082796374 L 1022.7407615796071 496.94180366993646 L 1003.4426823677017 518.4383719571447 L 1003.9940560594704 530.0138591311216 L 1010.6105403606952 528.9114193573891 L 1019.4325194289949 537.1797814140007 L 1028.8058721890632 532.2187465251399 L 1032.1141143396758 544.8970520727711 L 1042.5902144832817 551.5119575026035 L 1072.364393838793 539.9359347939074 L 1078.429504448249 541.5896346684644 L 1094.4193415095422 568.6008990192892 L 1081.7377465988611 561.9857503388394 L 1089.4569782836236 581.8314788688768 L 1100.4844521189982 588.998200220381 L 1123.090773481516 603.3319744609547 L 1166.6492951312457 649.0927502963154 L 1225.6462801505 694.8580312162793 L 1264.7938122660796 678.3158435095554 L 1270.307549183767 690.4467236111856 L 1264.7938122660796 715.2608733292492 L 1264.2424385743109 704.7836263585772 L 1249.3553488965495 709.7465033891152 L 1229.505895992881 708.6436372487623 L 1219.029795849275 712.5036801842199 L 1178.228142658389 704.7836263585772 L 1156.7245686794085 685.4840525848714 L 1155.0704476041024 674.4560844009321 L 1150.1080843781838 662.3256215311382 L 1143.491600076959 649.6441124104745 L 1136.3237420839655 650.1954751788368 L 1117.5770365638286 628.6928117937763 L 1094.970715201311 606.0885201865979 L 1070.7102727634867 589.5494910556056 L 1076.7753833729428 573.0110504521099 L 1074.5698886058678 560.3319778814249 L 1069.6075253799493 561.9857503388394 L 1005.0968034430078 565.8445756258258 L 1000.1344402170894 536.0773246391291 L 988.555592689946 537.7310107821436 L 947.2025658072913 522.2968356415377 L 908.6064073834801 490.8788488391672 L 897.0275598563368 451.74713467150724 L 965.949271327428 448.9915043835309 L 972.5657556286528 457.25844428490433 L 967.0520187109655 480.95782068277174 L 985.2473505393335 487.0206460491516 L 1006.750924518314 483.71364058708747 L 1012.8160351277701 478.20201712516746 L 995.7234506829394 463.32096037919496 L 1001.7885612923955 450.0937545371878 L 1035.973730182057 445.1336494417756 L 914.1201443011674 340.98367603346435 L 897.0275598563368 329.9638812582865 L 882.6918438703499 348.6976879747649 L 894.2706913974931 427.4981491300082 L 894.2706913974931 444.58252992276033 L 891.5138229386495 457.25844428490433 L 895.9248124727936 474.3439196064261 L 906.9522863081739 512.3751366155406 L 925.1476181365421 527.8089821993485 L 953.2676764167472 541.038400723066 L 985.2473505393335 546.5507696028196 L 979.1822399298776 560.3319778814249 L 957.6786659508971 565.2933129087116 L 1002.8913086759329 585.139182683504 L 1166.6492951312457 722.9811011164584 L 1180.9850111172327 715.2608733292492 L 1206.8995746303628 716.363755165473 L 1249.3553488965495 718.5695266852956 L 1244.3929856706366 729.5985412426692 L 1233.916885527025 740.076347379106 L 1196.4234744867513 731.2529159893108 L 1179.3308900419265 732.9072966217643 L 1214.0674326233564 766.5476461058233 L 1260.9341964236985 813.979158144855 L 1336.4723921960147 823.9072961020773 L 1264.2424385743109 823.355727322841 L 1285.7460125532912 888.4453582865782 L 1308.9037076075724 1136.2001845946468 L 1309.4550812993468 1365.3113560617758 L 1306.1468391487344 1419.9834401756557 L 1199.1803429456008 2045.0258282200634 L 1187.050121726683 2043.919797569896 L 1217.9270484657375 1851.5103360120434 L 1297.3248600804347 1396.2361915309475 L 1298.4276074639722 1155.5184625737518 L 1286.8487599368286 1043.483605987276 L 1273.0644176426106 896.1684612441247 L 1253.2149647389363 832.7324855217705 L 1210.759190472744 780.8868954146448 L 1155.0704476041024 735.6646107562809 L 1053.0663146268876 644.1305206954008 L 983.5932294640216 588.4469100390609 L 942.2402025813726 576.3186914910993 L 919.082507527086 564.7420508456512 L 903.0926704657928 545.4482905957238 L 888.4812676339214 476.2729643611838 L 886.0000860209622 459.7385549426321 L 878.0051674903157 462.49424898026524 L 863.945138350213 464.14767324897974 L 863.945138350213 461.9431088650943 L 872.215743726744 461.9431088650943 L 880.2106622573849 457.80957884259834 L 881.8647833326967 442.92917528831873 L 875.5239858773564 410.1388574190085 L 865.8749462714036 423.9160199392935 L 868.0804410384785 444.3069704083828 L 865.3235725796347 441.27582653826875 L 801.0885374885778 442.92917528831873 L 748.7080367705428 441.8269421344558 L 742.0915524693237 445.96032994654655 L 746.5025420034735 438.7958144467366 L 762.4923790647667 433.5602768445808 L 855.6745329736821 417.57847442705116 L 856.2259066654508 414.2719632680155 L 827.5544746934769 418.4051058945269 L 827.8301615393611 415.64967339052964 L 858.7070882784101 411.7920953453885 L 857.3286540489883 405.1791789459947 L 777.3794687425224 417.8540180863223 L 774.8982871295631 411.7920953453885 L 841.6145038335794 397.73976053417425 L 839.4090090664988 381.4836683124623 L 808.5320823274557 388.09624734646457 L 784.8230135814003 393.60680179316716 L 771.5900449789508 371.8404926502016 L 764.973560677726 371.2894600885812 L 778.7579029719443 390.5759887565 L 668.7588514640827 359.99343665448833 L 674.8239620735387 341.25917425329646 L 750.637844691739 363.29956141479767 L 749.5350973082016 370.46291247209984 L 756.9786421470794 369.36085127138836 L 769.6602370577602 370.46291247209984 L 833.3438984570429 367.15673671607016 L 836.9278274535452 362.74853898678896 L 838.3062616829671 352.83024708323546 L 765.2492475236104 354.20777495810705 L 671.5157199229262 327.4844634732078 L 638.4332984168026 332.71880543539487 L 639.8117326462243 337.4022140470198 L 654.4231354780957 336.30023130070515 L 670.6886593852732 340.4326800836866 L 665.4506093134703 359.717927320076 L 607.2806848318693 341.8101711838186 L 603.421068989488 349.52419685456954 L 615.5512902084001 356.1363208479739 L 572.5441422504393 347.59567842360343 L 559.7247039168162 346.7691729761427 L 536.9805391313562 333.1320454717671 L 508.58479400526664 317.84240904779676 L 495.3518254028171 304.2061310341154" fill="white" opacity="0.05" /><path d="M -1634.3290590539018 -592.0161092890393 L -1484.906788584576 -625.5580971730094 L -1186.6136213376933 -572.7696089643642 L -1032.228987642449 -551.8725025504598 L -977.6429921573447 -528.7746032399315 L -862.9572642694488 -426.4700538712684 L -692.5827935129113 -280.67452997620364 L -566.8695917896409 -231.14863092903556 L -108.6780539298264 -137.58526908999227 L 130.61812829780234 -86.94310323315989 L 135.02911783194648 -97.95274025840357 L 85.4054855727665 -187.12116610570968 L 20.34338994405637 -225.6454265366969 L 15.932400409906535 -250.95962568765168 L 40.192842847730645 -269.66923203487636 L 53.425811450180156 -291.67956654903367 L 69.96702220324205 -258.663672723109 L 104.15219109290331 -183.81893764963058 L 143.85109690025186 -119.97123008062866 L 159.28956026977627 -121.07212712412618 L 222.14616113141147 -143.08951904449353 L 228.76264543263625 -158.50107125576488 L 235.3791297338553 -154.09782290354792 L 239.79011926801084 -147.4928719559456 L 245.30385618569812 -145.29120072824108 L 229.8653928161737 -130.9800828825418 L 190.16648700882516 -125.4756891571121 L 174.72802363930072 -110.06303905758261 L 216.63242421371848 -104.55839699653464 L 215.5296768301867 -93.54891681784008 L 155.98131811916392 -91.34698941274652 L 175.8307710228325 -78.13520539549191 L 226.55715066556132 -68.77663062600755 L 239.79011926801084 -79.23620177476116 L 255.22858263753528 -90.24602178875392 L 260.7423195552226 -96.8517883192975 L 249.16347202807924 -135.93398136053273 L 276.180782924747 -186.02042590084056 L 298.2357305954962 -192.07446468039097 L 312.5714465814832 -184.91968308199813 L 332.97227317692614 -149.14411851506244 L 315.8796887320956 -127.67745448935364 L 293.82474106134634 -89.14505155101207 L 285.5541356848097 -60.51890780259063 L 277.28353030828447 -57.215777499981954 L 262.3964406305288 -69.32714025254174 L 273.42391446590335 -92.99843594658253 L 265.15330908937244 -130.42964645077495 L 279.4890250753594 -167.3074424896996 L 285.00276199304665 -178.31517127759383 L 268.46155123998483 -161.2530802371798 L 260.19094586345386 -134.28268774952096 L 261.84506693876006 -121.62257466546683 L 267.35880385644737 -91.89747224429729 L 252.47171417869163 -62.720981600133086 L 279.4890250753594 -48.407315000793716 L 294.9274884448781 -46.20517323389015 L 303.1980938214148 -52.81156716408054 L 308.7118307391021 -46.20517323389015 L 305.4035885884897 -29.13821998542332 L 334.62639425223233 -14.272942511205272 L 339.0373837863822 -20.32922418148607 L 343.99974701230076 -14.823516839970068 L 340.69150486168843 -8.216581758402882 L 364.9519472995125 16.009652085420555 L 380.39041066903695 1.1434040474055251 L 389.7637634291054 6.649366284356205 L 375.4280474431184 29.2244947838537 L 406.30497418216726 55.65530960396458 L 419.5379427846168 51.80072198325467 L 429.46266923644816 66.668593567833 L 437.73327461298487 46.84487067382092 L 458.13410120842786 57.85794548111025 L 427.257174469379 90.89873858980027 L 450.96624321543436 92.55084001311921 L 462.54509074257766 77.13145549987783 L 466.9560802767218 79.334193341788 L 458.6854749001966 107.4200175465669 L 473.02119088618355 111.27506728275941 L 469.1615750438025 133.30453734999708 L 489.5624016392454 133.30453734999708 L 495.07613855692705 125.59410386177098 L 505.5522387005386 123.94188478230004 L 522.0934494536004 99.15930453372376 L 543.597023432581 70.52330472243625 L 561.7923552609491 51.80072198325467 L 566.2033447950989 34.18015785507123 L 498.38438070753944 -45.10409842936616 L 507.2063597758448 -48.95784880863678 L 569.5115869457113 24.81950538763391 L 575.5766975551674 36.93332688144807 L 566.7547184868677 55.65530960396458 L 544.6997708161184 77.13145549987783 L 538.0832865148936 90.34803942262131 L 534.7750443642813 99.15930453372376 L 539.7374075901998 103.56499983846051 L 520.990702070063 114.02869384684018 L 548.0080129667308 131.101543280409 L 533.1209232889751 128.3478154004616 L 528.1585600630565 130.55079639696953 L 516.5797125359131 124.49262382202593 L 502.24399654992624 138.81206828079382 L 591.5665346164606 190.58605417154394 L 600.9398873765288 189.48441986507459 L 580.5390607810859 198.8483948168997 L 504.4494913169955 149.82732624120456 L 507.75773346760786 177.91741751187638 L 532.0181759054376 190.0352366916186 L 546.3538918914246 242.9166956627689 L 540.2887812819686 243.46757589853013 L 527.6071863712878 193.89097277979886 L 509.41185454291974 185.6287203833569 L 527.6071863712878 287.5401128604645 L 543.597023432581 294.7022953027051 L 560.6896078774116 277.6234272589613 L 566.2033447950989 253.3835319327481 L 559.5868604938742 209.31423744483965 L 571.7170817127862 199.399222755857 L 578.8849397057797 202.70420411912593 L 566.2033447950989 213.1701336891424 L 573.3712027880867 255.03621186397973 L 567.8574658704051 279.82711686561015 L 542.4942760490435 300.7626898180347 L 548.0080129667308 310.1289096627286 L 584.9500503152357 277.0725064918171 L 620.2379665884287 243.46757589853013 L 652.2176407110207 196.64508959675123 L 661.0396197793148 154.23350263600742 L 653.3203880945582 128.898559669031 L 667.6561040805452 127.79707178527349 L 672.067093614695 157.53816238594774 L 643.6713484886054 229.9711983071316 L 612.2430480577879 261.9224415744583 L 552.9703761926494 311.2308303013579 L 559.0354868021054 318.66886301062203 L 566.7547184868677 314.8120904364802 L 564.8249105656771 312.88371616231404 L 559.0354868021054 315.0875731292416 L 557.1056788809149 309.57795032427043 L 571.7170817127862 300.21174159340956 L 573.0955159422081 301.8645882287738 L 565.9276579492146 310.1289096627286 L 574.7496370175143 304.7570839984447 L 583.9851463546404 295.3909725137908 L 585.6392674299466 296.4928581763471 L 577.6443488993001 305.99673055890446 L 578.333566014011 307.51185862723685 L 575.8523844010517 311.6440512148955 L 583.709459508756 312.88371616231404 L 594.3234030753042 313.29693854678146 L 597.7694886488587 317.98015127292445 L 604.7995032189043 318.2556358452031 L 604.9373466418522 320.1840324291562 L 649.1850854062927 310.1289096627286 L 644.2227221803741 284.23452745846964 L 647.2552774851022 283.1326708878936 L 652.2176407110207 309.85342991175213 L 695.2247886689817 301.8645882287738 L 699.3600913572473 298.5589008419139 L 694.1220412854442 288.09104604910095 L 704.5981414290501 286.98918032610595 L 708.7334441173156 296.3551223255724 L 727.2044627915681 291.6721277090655 L 719.7609179526902 283.4081347853329 L 725.5503417162618 276.7970463531135 L 730.7883917880648 279.2761934834464 L 733.2695734010241 285.33638664436415 L 736.5778155516364 286.162782749546 L 737.4048760892895 283.4081347853329 L 746.2268551575892 286.98918032610595 L 760.0111974518074 284.509992009888 L 766.0763080612635 289.4683818804681 L 797.2289216461967 289.4683818804681 L 801.9155980262252 288.91744705740706 L 802.4669717179996 280.6535031649171 L 806.0509007144964 279.55165509278083 L 805.2238401768433 272.3897063645857 L 767.179055444801 261.37153943869305 L 775.7253476672163 227.76774534988692 L 771.3143581330664 218.67861246035517 L 753.1190263046983 215.37351735330122 L 748.7080367705428 219.78031605908842 L 746.2268551575892 214.5472472534139 L 745.1241077740517 211.24218156286378 L 773.79553974602 215.37351735330122 L 779.5849635095974 216.75063745429958 L 779.5849635095974 222.5345864957353 L 785.374387273169 223.08544254435924 L 787.8555688861284 217.02606196511803 L 789.2340031155444 217.85233647742115 L 786.4771346567064 226.3905925630125 L 782.0661451225566 231.6237948887628 L 776.0010345131005 249.80274559842582 L 779.0335898178286 257.79069149083125 L 811.2889507862936 267.43149888803123 L 813.4944455533742 270.73696465534834 L 809.6348297109931 285.61185184923846 L 820.6623035463621 286.162782749546 L 825.0732930805176 271.8387918075524 L 828.1058483852456 272.66516388797083 L 822.5921114675583 285.8873172176822 L 827.8301615393611 286.162782749546 L 831.1384036899736 275.14428895443143 L 833.6195853029329 275.9706669184196 L 835.8250800700077 278.725270754888 L 835.5493932241234 285.8873172176822 L 831.9654642276266 286.162782749546 L 833.3438984570429 288.09104604910095 L 851.5392302854166 288.09104604910095 L 865.0478857337505 285.61185184923846 L 868.3561278843628 280.6535031649171 L 869.7345621137847 266.0542284307327 L 872.4914305726284 267.98240821487605 L 870.5616226514378 285.33638664436415 L 887.6542070962685 284.509992009888 L 903.9197310034459 293.3249439450892 L 911.363275842318 296.6305940679955 L 919.3581943729704 303.24196491955956 L 916.8770127600111 308.4760336083946 L 918.5311338353173 312.3327535547826 L 929.5586076706919 290.57025348703286 L 957.1272922591284 328.03544405918547 L 967.6033924027342 338.5041994084287 L 991.8638348405583 332.1678192925381 L 1041.4874670997442 394.4333905992699 L 1055.823183085731 392.2291570519697 L 1096.6248362766169 355.86081380211454 L 1113.1660470296788 360.26894615224603 L 1115.9229154885224 353.6567633177638 L 1161.6869319053214 343.18766636960106 L 1172.163032048933 363.02405011919535 L 1175.4712741995454 382.8612811806994 L 1210.759190472744 398.290824478196 L 1222.3380379998875 407.65901156264493 L 1243.8416119788678 396.08657262448884 L 1242.7388645953304 376.2487766802086 L 1255.4204595060112 358.6158916175983 L 1252.1122173553988 313.43467942330153 L 1238.8792487529493 305.7212532595275 L 1242.7388645953304 295.2532369897815 L 1252.1122173553988 295.2532369897815 L 1253.766338430705 285.8873172176822 L 1272.5130439508418 284.7854567245769 L 1287.9515073203663 268.8087734309803 L 1327.650413127709 245.67110337957223 L 1352.4622292573076 141.56585825856303 L 1415.318830118937 70.52330472243625 L 1464.9424623781285 47.39551820482539 L 1504.641368185477 -18.677518841567036 L 1598.3748957861612 -23.082053343273117 L 1620.4298434569102 -72.63018428730294 L 1641.382043744122 -135.38355081046757 L 1727.3963396600439 -268.5686878656833 L 1805.6914038912037 -405.016233524827 L 2063.734291638969 -523.8249034613922 L 1887.2947102729754 -521.6250199078468 L 1836.5683306302524 -594.2156583731728 L 1781.4309614533795 -763.5495525284804 L 1810.1023934253535 -567.8203795374684 L 1792.4584352887541 -477.62515378269575 L 1763.78700331678 -424.81979527909937 L 1713.060623674057 -279.5740119437557 L 1613.8133591556855 -281.7750453949771 L 1485.8946626653403 -316.9901587876167 L 1477.0726835970406 -440.2219801410745 L 1516.771589404389 -526.0247765625562 L 1455.0177359262914 -528.2246392111891 L 1432.9627882555421 -486.4254614959084 L 1399.8803667494128 -554.6221757093906 L 1232.2627644517245 -611.8116747812011 L 1602.785885320311 -603.0137501909718 L 1574.114453348337 -822.9116999037732 L 1728.4990870435756 -981.1735178697104 L 1349.1539871066952 -1751.924380537227 L 1282.9891440944477 -2330.7867788011977 L -1231.2748903709603 -2654.9823628146005 L -1385.6595240662048 -1396.3531089226717 L -1517.9892100906998 -847.0940944502922 L -1634.3290590539018 -592.0161092890393" fill="white" opacity="0.05" /><path class="route-3337" d="M 1067.674587420584 1053.7832045643263 L 1035.0344003546054 994.8914691261925" fill="none" stroke="#d81118" stroke-width="3" /><path class="route-3337" d="M 1035.0344003546054 994.8914691261925 L 992.96382662992 919.6046951973357" fill="none" stroke="#d81118" stroke-width="3" /><path class="route-3337" d="M 992.96382662992 919.6046951973357 L 952.4350054924926 868.8000570006719" fill="none" stroke="#d81118" stroke-width="3" /><path class="route-3337" d="M 891.9276404119073 851.8581666808412 L 952.4350054924926 868.8000570006719" fill="none" stroke="#d81118" stroke-width="3" /><path class="route-3337" d="M 820.7307907263593 890.7582612140342 L 891.9276404119073 851.8581666808412" fill="none" stroke="#d81118" stroke-width="3" /><path class="route-3337" d="M 820.7307907263593 890.7582612140342 L 719.7203003847931 862.6479739236439" fill="none" stroke="#d81118" stroke-width="3" /><path class="route-468" d="M 662.2149155742712 751.0682047000655 L 721.9192845156637 861.4586595025678" fill="none" stroke="#fff200" stroke-width="3" /><path class="route-3337" d="M 657.81694731253 753.4468335422177 L 717.5213162539225 863.83728834472" fill="none" stroke="#d81118" stroke-width="3" /><path class="route-63198" d="M 655.263279694033 750.7043606137016 L 632.6701803216577 681.5696697618729" fill="none" stroke="#FF6600" stroke-width="3" /><path class="route-468" d="M 660.0159314434006 752.2575191211416 L 637.4228320710253 683.1228282693129" fill="none" stroke="#fff200" stroke-width="3" /><path class="route-3337" d="M 664.7685831927682 753.8106776285816 L 642.1754838203929 684.6759867767529" fill="none" stroke="#d81118" stroke-width="3" /><path class="route-63198" d="M 632.827280985783 681.1528256746628 L 597.5918103979242 598.9567892131887" fill="none" stroke="#FF6600" stroke-width="3" /><path class="route-468" d="M 637.4228320710253 683.1228282693129 L 602.1873614831665 600.9267918078388" fill="none" stroke="#fff200" stroke-width="3" /><path class="route-3337" d="M 642.0183831562675 685.092830863963 L 606.7829125684087 602.8967944024888" fill="none" stroke="#d81118" stroke-width="3" /><path class="route-63198" d="M 580.1893395585573 526.5140783331789 L 606.8809312253841 599.2033060739438" fill="none" stroke="#FF6600" stroke-width="3" /><path class="route-468" d="M 575.4957698163397 528.2375640670738 L 602.1873614831665 600.9267918078388" fill="none" stroke="#fff200" stroke-width="3" /><path class="route-3337" d="M 570.8022000741221 529.9610498009687 L 597.4937917409488 602.6502775417337" fill="none" stroke="#d81118" stroke-width="3" /><path class="route-3337" d="M 575.4957698163397 528.2375640670738 L 533.245324956478 415.3757596524737" fill="none" stroke="#d81118" stroke-width="3" /><path class="route-63198" d="M 534.9225444876654 356.61121456873263 L 538.2373125502618 415.09281113505443" fill="none" stroke="#FF6600" stroke-width="3" /><path class="route-468" d="M 529.9305568938817 356.8941630861519 L 533.245324956478 415.3757596524737" fill="none" stroke="#fff200" stroke-width="3" /><path class="route-3337" d="M 524.9385693000979 357.1771116035711 L 528.2533373626943 415.6587081698929" fill="none" stroke="#d81118" stroke-width="3" /><path class="route-63198" d="M 539.6468065862385 466.12575564309634 L 528.3598928537225 414.31154483893005" fill="none" stroke="#FF6600" stroke-width="3" /><path class="route-468" d="M 544.5322386889941 467.18997045663997 L 533.245324956478 415.3757596524737" fill="none" stroke="#fff200" stroke-width="3" /><path class="route-3337" d="M 549.4176707917496 468.2541852701836 L 538.1307570592336 416.4399744660173" fill="none" stroke="#d81118" stroke-width="3" /><path class="route-63198" d="M 571.0365558214239 525.975836729938 L 540.0730246940783 464.92824311950426" fill="none" stroke="#FF6600" stroke-width="3" /><path class="route-468" d="M 575.4957698163397 528.2375640670738 L 544.5322386889941 467.18997045663997" fill="none" stroke="#fff200" stroke-width="3" /><path class="route-3337" d="M 579.9549838112555 530.4992914042095 L 548.9914526839099 469.4516977937757" fill="none" stroke="#d81118" stroke-width="3" /><path class="route-59759" d="M 651.95385020589 231.044627731093 L 732.8573172220209 100.0" fill="none" stroke="#00adef" stroke-width="3" /><path class="route-59759" d="M 651.95385020589 231.044627731093 L 524.598662529632 349.36443405509124" fill="none" stroke="#00adef" stroke-width="3" /><path class="route-59759" d="M 476.23902304277425 438.44870028657937 L 524.598662529632 349.36443405509124" fill="none" stroke="#00adef" stroke-width="3" /><path class="route-59759" d="M 476.23902304277425 438.44870028657937 L 465.35039539529737 542.9604979265698" fill="none" stroke="#00adef" stroke-width="3" /><path class="route-59759" d="M 467.1619546853224 614.882029830369 L 465.35039539529737 542.9604979265698" fill="none" stroke="#00adef" stroke-width="3" /><path class="route-59759" d="M 470.17479619957936 738.112986234658 L 467.1619546853224 614.882029830369" fill="none" stroke="#00adef" stroke-width="3" /><path class="route-59759" d="M 470.17479619957936 738.112986234658 L 358.61614857355676 759.0195523152366" fill="none" stroke="#00adef" stroke-width="3" /><path class="route-480" d="M 997.7858730668542 1215.76559743423 L 1099.8241984665847 1208.5723926057199" fill="none" stroke="#187a36" stroke-width="3" /><path class="route-468" d="M 998.1374761336848 1220.7532196415943 L 1100.1758015334153 1213.5600148130843" fill="none" stroke="#fff200" stroke-width="3" /><path class="route-480" d="M 997.1671458574948 1215.8890237427986 L 908.7540589476165 1186.2538611598532" fill="none" stroke="#187a36" stroke-width="3" /><path class="route-468" d="M 998.7562033430441 1220.6297933330256 L 910.3431164331658 1190.9946307500802" fill="none" stroke="#fff200" stroke-width="3" /><path class="route-480" d="M 907.3657218539853 1187.4056005019115 L 857.297306582928 1097.7219005347329" fill="none" stroke="#187a36" stroke-width="3" /><path class="route-468" d="M 911.731453526797 1189.8428914080218 L 861.6630382557397 1100.1591914408432" fill="none" stroke="#fff200" stroke-width="3" /><path class="route-480" d="M 828.6228435825532 1037.997316170766 L 861.6677407026909 1097.7303621151266" fill="none" stroke="#187a36" stroke-width="3" /><path class="route-468" d="M 824.247707015839 1040.417683916089 L 857.2926041359767 1100.1507298604495" fill="none" stroke="#fff200" stroke-width="3" /><path class="route-480" d="M 792.8005657761156 974.3156378366281 L 828.6141935841897 1037.9818103978319" fill="none" stroke="#187a36" stroke-width="3" /><path class="route-468" d="M 788.4427292061283 976.7670171278193 L 824.2563570142024 1040.433189689023" fill="none" stroke="#fff200" stroke-width="3" /><path class="route-63198" d="M 639.799157945709 682.3462490155929 L 662.3922573180844 751.4809398674216" fill="none" stroke="#FF6600" stroke-width="3" /><path class="route-468" d="M 635.0465061963415 683.8994075230329 L 657.6396055687169 753.0340983748616" fill="none" stroke="#fff200" stroke-width="3" /><path class="route-480" d="M 759.1085159266621 925.9737789791543 L 717.6160994221976 861.2980338105232" fill="none" stroke="#187a36" stroke-width="3" /><path class="route-468" d="M 763.316917851853 928.6736592053958 L 721.8245013473885 863.9979140367647" fill="none" stroke="#fff200" stroke-width="3" /><path class="route-480" d="M 763.3470508971567 926.0219440184912 L 792.7559814990211 974.2395524084399" fill="none" stroke="#187a36" stroke-width="3" /><path class="route-468" d="M 759.0783828813584 928.6254941660588 L 788.4873134832228 976.8431025560075" fill="none" stroke="#fff200" stroke-width="3" /><path class="route-480" d="M 212.0503737882455 169.71408601037214 L 133.2668165795879 235.99883752219623" fill="none" stroke="#187a36" stroke-width="3" /><path class="route-63198" d="M 208.83138021227774 173.54006044283747 L 130.04782300362012 239.82481195466156" fill="none" stroke="#FF6600" stroke-width="3" /><path class="route-480" d="M 124.70809731156268 335.5583783485277 L 129.15990790725772 237.79809752125578" fill="none" stroke="#187a36" stroke-width="3" /><path class="route-63198" d="M 129.70292108025527 335.7858327828739 L 134.1547316759503 238.025551955602" fill="none" stroke="#FF6600" stroke-width="3" /><path class="route-480" d="M 104.44547333961701 414.4186480928647 L 124.78375955313842 335.0515182086424" fill="none" stroke="#187a36" stroke-width="3" /><path class="route-63198" d="M 109.28897262515811 415.65982280698154 L 129.62725883867952 336.2926929227592" fill="none" stroke="#FF6600" stroke-width="3" /><path class="route-480" d="M 109.35723970673655 414.81603887185275 L 102.49001672434899 491.42787684808434" fill="none" stroke="#187a36" stroke-width="3" /><path class="route-63198" d="M 104.37720625803857 415.2624320279935 L 97.50998327565101 491.8742700042251" fill="none" stroke="#FF6600" stroke-width="3" /><path class="route-480" d="M 100.13541820516916 565.3553482720956 L 97.5015908686137 491.561900491889" fill="none" stroke="#187a36" stroke-width="3" /><path class="route-63198" d="M 105.13223646794175 565.533694140627 L 102.4984091313863 491.74024636042043" fill="none" stroke="#FF6600" stroke-width="3" /><path class="route-480" d="M 99.78698517150956 619.125013952679 L 100.13387950363874 565.4283708907287" fill="none" stroke="#187a36" stroke-width="3" /><path class="route-63198" d="M 104.78688083734299 619.1573145839441 L 105.13377516947217 565.4606715219938" fill="none" stroke="#FF6600" stroke-width="3" /><path class="route-480" d="M 102.04347698816892 679.6119928938148 L 99.78866382931493 619.0481528244541" fill="none" stroke="#187a36" stroke-width="3" /><path class="route-63198" d="M 107.04001533839161 679.7980157815297 L 104.78520217953762 619.234175712169" fill="none" stroke="#FF6600" stroke-width="3" /><path class="route-480" d="M 105.83224393798288 677.5638328140694 L 251.28375260713162 765.2283875662434" fill="none" stroke="#187a36" stroke-width="3" /><path class="route-63198" d="M 103.25124838857765 681.846175861275 L 248.70275705772636 769.510730613449" fill="none" stroke="#FF6600" stroke-width="3" /><path class="route-480" d="M 249.8521340723542 764.873545281576 L 364.80263739033524 758.3744216206957" fill="none" stroke="#187a36" stroke-width="3" /><path class="route-63198" d="M 250.13437559250377 769.8655728981165 L 365.0848789104848 763.3664492372362" fill="none" stroke="#FF6600" stroke-width="3" /><path class="route-480" d="M 455.2675802544164 770.9928513929788 L 364.5996801856784 758.3942265617284" fill="none" stroke="#187a36" stroke-width="3" /><path class="route-63198" d="M 455.95573618387965 775.9452691274539 L 365.28783611514166 763.3466442962035" fill="none" stroke="#FF6600" stroke-width="3" /><path class="route-480" d="M 456.42506823083875 771.1050881468273 L 642.3411583462761 835.0762357664522" fill="none" stroke="#187a36" stroke-width="3" /><path class="route-63198" d="M 454.7982482074573 775.8330323736054 L 640.7143383228946 839.8041799932304" fill="none" stroke="#FF6600" stroke-width="3" /><path class="route-63198" d="M 660.0159314434006 752.2575191211416 L 641.5277483345853 837.4402078798413" fill="none" stroke="#FF6600" stroke-width="3" /><path class="route-480" d="M 719.7203003847931 862.6479739236439 L 641.5277483345853 837.4402078798413" fill="none" stroke="#187a36" stroke-width="3" /><circle cx="1035.0344003546054" cy="994.8914691261925" fill="white" id="96451" r="1.5" /><circle cx="1035.0344003546054" cy="994.8914691261925" fill="white" id="96452" r="1.5" /><circle cx="102.28693300442627" cy="619.1411642683115" fill="white" id="96453" r="1.5" /><circle cx="102.28693300442627" cy="619.1411642683115" fill="white" id="96454" r="1.5" /><circle cx="1067.674587420584" cy="1053.7832045643263" fill="white" id="96436" r="1.5" /><circle cx="992.96382662992" cy="919.6046951973357" fill="white" id="96444" r="1.5" /><circle cx="719.7203003847931" cy="862.6479739236439" fill="white" id="96458" r="1.5" /><circle cx="358.61614857355676" cy="759.0195523152366" fill="white" id="1480225" r="1.5" /><circle cx="997.9616746002695" cy="1218.2594085379121" fill="white" id="96480" r="1.5" /><circle cx="210.44087700026162" cy="171.6270732266048" fill="white" id="1401131" r="1.5" /><circle cx="761.2127168892575" cy="927.323719092275" fill="white" id="96435" r="1.5" /><circle cx="476.23902304277425" cy="438.44870028657937" fill="white" id="1480223" r="1.5" /><circle cx="1100.0" cy="1211.066203709402" fill="white" id="96473" r="1.5" /><circle cx="732.8573172220209" cy="100.0" fill="white" id="1480227" r="1.5" /><circle cx="1067.674587420584" cy="1053.7832045643263" fill="white" id="96434" r="1.5" /><circle cx="637.4228320710253" cy="683.1228282693129" fill="white" id="96469" r="1.5" /><circle cx="820.7307907263593" cy="890.7582612140342" fill="white" id="96448" r="1.5" /><circle cx="820.7307907263593" cy="890.7582612140342" fill="white" id="96449" r="1.5" /><circle cx="467.1619546853224" cy="614.882029830369" fill="white" id="1480233" r="1.5" /><circle cx="465.35039539529737" cy="542.9604979265698" fill="white" id="1480234" r="1.5" /><circle cx="470.17479619957936" cy="738.112986234658" fill="white" id="1480224" r="1.5" /><circle cx="210.44087700026162" cy="171.6270732266048" fill="white" id="14849" r="1.5" /><circle cx="891.9276404119073" cy="851.8581666808412" fill="white" id="96447" r="1.5" /><circle cx="102.63382733655546" cy="565.4445212063613" fill="white" id="96455" r="1.5" /><circle cx="102.63382733655546" cy="565.4445212063613" fill="white" id="96456" r="1.5" /><circle cx="719.7203003847931" cy="862.6479739236439" fill="white" id="96457" r="1.5" /><circle cx="602.1873614831665" cy="600.9267918078388" fill="white" id="14765" r="1.5" /><circle cx="602.1873614831665" cy="600.9267918078388" fill="white" id="14766" r="1.5" /><circle cx="533.245324956478" cy="415.3757596524737" fill="white" id="14893" r="1.5" /><circle cx="533.245324956478" cy="415.3757596524737" fill="white" id="14894" r="1.5" /><circle cx="575.4957698163397" cy="528.2375640670738" fill="white" id="96463" r="1.5" /><circle cx="575.4957698163397" cy="528.2375640670738" fill="white" id="96464" r="1.5" /><circle cx="544.5322386889941" cy="467.18997045663997" fill="white" id="96471" r="1.5" /><circle cx="544.5322386889941" cy="467.18997045663997" fill="white" id="96472" r="1.5" /><circle cx="529.9305568938817" cy="356.8941630861519" fill="white" id="1928474" r="1.5" /><circle cx="529.9305568938817" cy="356.8941630861519" fill="white" id="1690783" r="1.5" /><circle cx="790.621647491122" cy="975.5413274822237" fill="white" id="15139" r="1.5" /><circle cx="997.9616746002695" cy="1218.2594085379121" fill="white" id="96481" r="1.5" /><circle cx="732.8573172220209" cy="100.0" fill="white" id="1480228" r="1.5" /><circle cx="641.5277483345853" cy="837.4402078798413" fill="white" id="15582" r="1.5" /><circle cx="992.96382662992" cy="919.6046951973357" fill="white" id="96445" r="1.5" /><circle cx="524.598662529632" cy="349.36443405509124" fill="white" id="1480230" r="1.5" /><circle cx="524.598662529632" cy="349.36443405509124" fill="white" id="1480231" r="1.5" /><circle cx="651.95385020589" cy="231.044627731093" fill="white" id="1480232" r="1.5" /><circle cx="476.23902304277425" cy="438.44870028657937" fill="white" id="1480229" r="1.5" /><circle cx="761.2127168892575" cy="927.323719092275" fill="white" id="96437" r="1.5" /><circle cx="104.54174616328027" cy="679.7050043376722" fill="white" id="14616" r="1.5" /><circle cx="104.54174616328027" cy="679.7050043376722" fill="white" id="14617" r="1.5" /><circle cx="660.0159314434006" cy="752.2575191211416" fill="white" id="14761" r="1.5" /><circle cx="660.0159314434006" cy="752.2575191211416" fill="white" id="14762" r="1.5" /><circle cx="131.657319791604" cy="237.9118247384289" fill="white" id="14851" r="1.5" /><circle cx="131.657319791604" cy="237.9118247384289" fill="white" id="14852" r="1.5" /><circle cx="790.621647491122" cy="975.5413274822237" fill="white" id="15140" r="1.5" /><circle cx="859.4801724193338" cy="1098.940545987788" fill="white" id="15143" r="1.5" /><circle cx="859.4801724193338" cy="1098.940545987788" fill="white" id="15144" r="1.5" /><circle cx="952.4350054924926" cy="868.8000570006719" fill="white" id="15354" r="1.5" /><circle cx="952.4350054924926" cy="868.8000570006719" fill="white" id="15355" r="1.5" /><circle cx="660.0159314434006" cy="752.2575191211416" fill="white" id="15578" r="1.5" /><circle cx="660.0159314434006" cy="752.2575191211416" fill="white" id="15579" r="1.5" /><circle cx="467.1619546853224" cy="614.882029830369" fill="white" id="1480220" r="1.5" /><circle cx="651.95385020589" cy="231.044627731093" fill="white" id="1480226" r="1.5" /><circle cx="465.35039539529737" cy="542.9604979265698" fill="white" id="1480222" r="1.5" /><circle cx="637.4228320710253" cy="683.1228282693129" fill="white" id="96470" r="1.5" /><circle cx="249.993254832429" cy="767.3695590898462" fill="white" id="15716" r="1.5" /><circle cx="249.993254832429" cy="767.3695590898462" fill="white" id="15717" r="1.5" /><circle cx="641.5277483345853" cy="837.4402078798413" fill="white" id="15806" r="1.5" /><circle cx="100.0" cy="491.6510734261547" fill="white" id="15846" r="1.5" /><circle cx="100.0" cy="491.6510734261547" fill="white" id="15847" r="1.5" /><circle cx="455.611658219148" cy="773.4690602602163" fill="white" id="15916" r="1.5" /><circle cx="455.611658219148" cy="773.4690602602163" fill="white" id="15917" r="1.5" /><circle cx="1100.0" cy="1211.066203709402" fill="white" id="96450" r="1.5" /><circle cx="470.17479619957936" cy="738.112986234658" fill="white" id="1480221" r="1.5" /><circle cx="106.86722298238756" cy="415.0392354499231" fill="white" id="96430" r="1.5" /><circle cx="106.86722298238756" cy="415.0392354499231" fill="white" id="96431" r="1.5" /><circle cx="127.20550919590897" cy="335.6721055657008" fill="white" id="96432" r="1.5" /><circle cx="127.20550919590897" cy="335.6721055657008" fill="white" id="96433" r="1.5" /><circle cx="719.7203003847931" cy="862.6479739236439" fill="white" id="96467" r="1.5" /><circle cx="719.7203003847931" cy="862.6479739236439" fill="white" id="96468" r="1.5" /><circle cx="826.4352752991961" cy="1039.2075000434274" fill="white" id="96476" r="1.5" /><circle cx="826.4352752991961" cy="1039.2075000434274" fill="white" id="96477" r="1.5" /><circle cx="909.5485876903912" cy="1188.6242459549667" fill="white" id="96478" r="1.5" /><circle cx="909.5485876903912" cy="1188.6242459549667" fill="white" id="96479" r="1.5" /><circle cx="364.94375815041" cy="760.870435428966" fill="white" id="238000" r="1.5" /><circle cx="364.94375815041" cy="760.870435428966" fill="white" id="238001" r="1.5" /><circle cx="641.5277483345853" cy="837.4402078798413" fill="white" id="15807" r="1.5" /><circle cx="891.9276404119073" cy="851.8581666808412" fill="white" id="96446" r="1.5" /></svg>