<?xml version="1.0" encoding="utf-8" ?>
<svg baseProfile="full" height="848.4823564977384" version="1.1" width="1200" xmlns="http://www.w3.org/2000/svg" xmlns:ev="http://www.w3.org/2001/xml-events" xmlns:xlink="http://www.w3.org/1999/xlink"><defs /><rect fill="#222B38" height="848.4823564977384" rx="0" ry="0" width="1200" x="0" y="0" /><path d="M 133.17125877903743 386.0557982705686 L 127.56538595989468 394.78255651200186" fill="none" stroke="#A9C539" stroke-width="3" /><path d="M 133.17125877903743 386.0557982705686 L 135.32271903899385 369.6253120611081" fill="none" stroke="#A9C539" stroke-width="3" /><path d="M 135.32271903899385 369.6253120611081 L 144.19232847109797 362.05592140170296" fill="none" stroke="#A9C539" stroke-width="3" /><path d="M 159.96758508914002 354.4193620880052 L 144.19232847109797 362.05592140170296" fill="none" stroke="#A9C539" stroke-width="3" /><path d="M 183.43343820510293 337.65819942655764 L 159.96758508914002 354.4193620880052" fill="none" stroke="#A9C539" stroke-width="3" /><path d="M 183.43343820510293 337.65819942655764 L 203.22242349127566 322.72092407069874" fill="none" stroke="#A9C539" stroke-width="3" /><path d="M 203.22242349127566 322.72092407069874 L 209.87383608224508 318.34462790107125" fill="none" stroke="#A9C539" stroke-width="3" /><path d="M 222.90018114214934 309.59720238140255 L 209.87383608224508 318.34462790107125" fill="none" stroke="#A9C539" stroke-width="3" /><path d="M 222.90018114214934 309.59720238140255 L 237.11189500111203 302.27065224145633" fill="none" stroke="#A9C539" stroke-width="3" /><path d="M 256.24304827279457 292.4123605157801 L 237.11189500111203 302.27065224145633" fill="none" stroke="#A9C539" stroke-width="3" /><path d="M 256.24304827279457 292.4123605157801 L 239.96567832967938 252.7208526349303" fill="none" stroke="#A9C539" stroke-width="3" /><path d="M 282.4514570820229 281.515538058012 L 239.96567832967938 252.7208526349303" fill="none" stroke="#A9C539" stroke-width="3" /><path d="M 281.6052449653667 279.7033777302197 L 304.0223803770682 269.23540129613957" fill="none" stroke="#ef7100" stroke-width="3" /><path d="M 283.2976691986791 283.3276983858043 L 305.7148046103806 272.85972195172417" fill="none" stroke="#A9C539" stroke-width="3" /><path d="M 305.0188566612743 269.0532144425338 L 328.12878134427393 270.79443263514395" fill="none" stroke="#ef7100" stroke-width="3" /><path d="M 304.7183283261745 273.04190880532997 L 327.82825300917415 274.78312699794014" fill="none" stroke="#A9C539" stroke-width="3" /><path d="M 339.33227670729315 264.04246943771767 L 326.5188531206771 269.06461805267026" fill="none" stroke="#be1fa1" stroke-width="3" /><path d="M 340.7919407633401 267.76663120158946 L 327.97851717672404 272.78877981654205" fill="none" stroke="#ef7100" stroke-width="3" /><path d="M 342.25160481938707 271.49079296546125 L 329.438181232771 276.51294158041384" fill="none" stroke="#A9C539" stroke-width="3" /><path d="M 337.9108431819481 262.50362096727514 L 355.5229447486664 252.86233566323602" fill="none" stroke="#BB3636" stroke-width="3" /><path d="M 339.8315749028761 266.01229445681804 L 357.44367646959444 256.3710091527789" fill="none" stroke="#be1fa1" stroke-width="3" /><path d="M 341.7523066238041 269.5209679463609 L 359.3644081905224 259.87968264232177" fill="none" stroke="#ef7100" stroke-width="3" /><path d="M 343.6730383447321 273.0296414359038 L 361.2851399114504 263.38835613186467" fill="none" stroke="#A9C539" stroke-width="3" /><path d="M 355.33756200225173 252.9681472006632 L 370.31833551100937 244.06055027451393" fill="none" stroke="#BB3636" stroke-width="3" /><path d="M 357.3818822207895 256.4062796652546 L 372.36265572954716 247.49868273910536" fill="none" stroke="#be1fa1" stroke-width="3" /><path d="M 359.4262024393273 259.8444121298461 L 374.40697594808495 250.9368152036968" fill="none" stroke="#ef7100" stroke-width="3" /><path d="M 361.4705226578651 263.2825445944375 L 376.45129616662274 254.37494766828823" fill="none" stroke="#A9C539" stroke-width="3" /><path d="M 372.3287747132941 247.51928580100076 L 406.14197584463653 226.49549700031233" fill="none" stroke="#BB3636" stroke-width="3" /><path d="M 374.440856964338 250.9162121418014 L 408.2540580956805 229.89242334111296" fill="none" stroke="#A9C539" stroke-width="3" /><path d="M 406.90041395665867 226.21622600092243 L 432.20628995373545 222.40827998319122" fill="none" stroke="#BB3636" stroke-width="3" /><path d="M 407.49561998365834 230.17169434050285 L 432.8014959807351 226.36374832277164" fill="none" stroke="#A9C539" stroke-width="3" /><path d="M 431.6282984027367 222.58786672893063 L 452.6693890691491 212.3420635360373" fill="none" stroke="#BB3636" stroke-width="3" /><path d="M 433.3794875317339 226.18416157703223 L 454.4205781981463 215.9383583841389" fill="none" stroke="#A9C539" stroke-width="3" /><path d="M 453.5449836336477 214.1402109600881 L 463.3044141481558 225.28504075690154" fill="none" stroke="#A9C539" stroke-width="3" /><path d="M 472.96215082467194 239.1269503654019 L 463.3044141481558 225.28504075690154" fill="none" stroke="#A9C539" stroke-width="3" /><path d="M 472.96215082467194 239.1269503654019 L 486.7130644802475 244.45394133459317" fill="none" stroke="#A9C539" stroke-width="3" /><path d="M 500.3686401627092 249.55359224301122 L 486.7130644802475 244.45394133459317" fill="none" stroke="#A9C539" stroke-width="3" /><path d="M 500.3686401627092 249.55359224301122 L 522.2709505195928 237.6802408878576" fill="none" stroke="#A9C539" stroke-width="3" /><path d="M 522.2709505195928 237.6802408878576 L 536.7559665681497 226.09623142822016" fill="none" stroke="#A9C539" stroke-width="3" /><path d="M 536.7559665681497 226.09623142822016 L 549.3469348841647 214.5845574424985" fill="none" stroke="#A9C539" stroke-width="3" /><path d="M 559.1921695744738 199.03243055868603 L 549.3469348841647 214.5845574424985" fill="none" stroke="#A9C539" stroke-width="3" /><path d="M 558.0926982959994 197.36175317875603 L 589.2459699774428 176.85981315387" fill="none" stroke="#BB3636" stroke-width="3" /><path d="M 560.2916408529483 200.70310793861603 L 591.4449125343916 180.20116791373" fill="none" stroke="#A9C539" stroke-width="3" /><path d="M 592.3231888702966 170.03100140662207 L 592.345434397357 178.5252527677324" fill="none" stroke="#0CC261" stroke-width="3" /><path d="M 588.3232025874169 170.04147693875723 L 588.3454481144773 178.53572829986757" fill="none" stroke="#A9C539" stroke-width="3" /><path d="M 549.3469348841647 214.5845574424985 L 536.7559665681497 226.09623142822016" fill="none" stroke="#A9C539" stroke-width="3" /><path d="M 522.2709505195928 237.6802408878576 L 500.3686401627092 249.55359224301122" fill="none" stroke="#A9C539" stroke-width="3" /><path d="M 432.11914506079376 222.42337077006928 L 404.4711328575328 227.84336449133832" fill="none" stroke="#BB3636" stroke-width="3" /><path d="M 432.8886408736768 226.34865753589358 L 405.24062867041584 231.76865125716262" fill="none" stroke="#A9C539" stroke-width="3" /><path d="M 372.33485879065626 247.51551802437314 L 403.8059237158145 228.10377692722253" fill="none" stroke="#BB3636" stroke-width="3" /><path d="M 374.43477288697585 250.91997991842902 L 405.9058378121341 231.5082388212784" fill="none" stroke="#A9C539" stroke-width="3" /><path d="M 328.12878134427393 270.79443263514395 L 305.0188566612743 269.0532144425338" fill="none" stroke="#ef7100" stroke-width="3" /><path d="M 327.82825300917415 274.78312699794014 L 304.7183283261745 273.04190880532997" fill="none" stroke="#A9C539" stroke-width="3" /><path d="M 237.11189500111203 302.27065224145633 L 222.90018114214934 309.59720238140255" fill="none" stroke="#A9C539" stroke-width="3" /><path d="M 133.17125877903743 386.0557982705686 L 124.98490482092429 395.753918589801" fill="none" stroke="#A9C539" stroke-width="3" /><path d="M 133.17125877903743 386.0557982705686 L 126.60247243143718 395.49557761165624" fill="none" stroke="#A9C539" stroke-width="3" /><path d="M 590.5678965265181 191.3028684928737 L 590.3454412559172 178.5304905338" fill="none" stroke="#0CC261" stroke-width="3" /><path d="M 590.5678965265181 191.3028684928737 L 605.4692217243443 239.58163048694834" fill="none" stroke="#0CC261" stroke-width="3" /><path d="M 605.4692217243443 239.58163048694834 L 650.4369657101096 276.999737760176" fill="none" stroke="#0CC261" stroke-width="3" /><path d="M 664.3245304604822 292.6500342156527 L 650.4369657101096 276.999737760176" fill="none" stroke="#0CC261" stroke-width="3" /><path d="M 647.5005561381759 313.40514839913374 L 664.3245304604822 292.6500342156527" fill="none" stroke="#0CC261" stroke-width="3" /><path d="M 647.5005561381759 313.40514839913374 L 630.8418343026023 335.60180524057273" fill="none" stroke="#0CC261" stroke-width="3" /><path d="M 611.869577652777 361.2653980086198 L 630.8418343026023 335.60180524057273" fill="none" stroke="#0CC261" stroke-width="3" /><path d="M 611.869577652777 361.2653980086198 L 598.3347634029301 381.2816569946246" fill="none" stroke="#0CC261" stroke-width="3" /><path d="M 591.476785203545 397.8671477909425 L 598.3347634029301 381.2816569946246" fill="none" stroke="#0CC261" stroke-width="3" /><path d="M 589.9999604447493 396.5184489246984 L 573.2490785684993 414.86065837238567" fill="none" stroke="#0CC261" stroke-width="3" /><path d="M 592.9536099623407 399.2158466571866 L 576.2027280860907 417.55805610487386" fill="none" stroke="#EEF608" stroke-width="3" /><path d="M 549.2611307083607 443.78467324486695 L 574.725903327295 416.20935723862976" fill="none" stroke="#0CC261" stroke-width="3" /><path d="M 529.5039247465584 465.00996800854347 L 549.2611307083607 443.78467324486695" fill="none" stroke="#0CC261" stroke-width="3" /><path d="M 529.5039247465584 465.00996800854347 L 492.89096513807937 525.208582733829" fill="none" stroke="#0CC261" stroke-width="3" /><path d="M 497.31384173803764 559.1208600733294 L 494.88590135604954 525.0663523354225" fill="none" stroke="#0CC261" stroke-width="3" /><path d="M 493.3239693020973 559.4053208701423 L 490.8960289201092 525.3508131322354" fill="none" stroke="#8478F4" stroke-width="3" /><path d="M 500.01375856702936 586.6171797190879 L 497.3093380630095 559.0676978106725" fill="none" stroke="#0CC261" stroke-width="3" /><path d="M 496.0328934811453 587.0079650412146 L 493.32847297712544 559.4584831327992" fill="none" stroke="#8478F4" stroke-width="3" /><path d="M 499.7424489960577 585.7905077015503 L 513.5410316381916 608.9998611772961" fill="none" stroke="#0CC261" stroke-width="3" /><path d="M 496.304203052117 587.8346370587522 L 510.1027856942509 611.043990534498" fill="none" stroke="#8478F4" stroke-width="3" /><path d="M 513.5410316381916 608.9998611772961 L 499.7424489960577 585.7905077015503" fill="none" stroke="#0CC261" stroke-width="3" /><path d="M 510.1027856942509 611.043990534498 L 496.304203052117 587.8346370587522" fill="none" stroke="#8478F4" stroke-width="3" /><path d="M 605.4692217243443 239.58163048694834 L 590.5678965265181 191.3028684928737" fill="none" stroke="#0CC261" stroke-width="3" /><path d="M 938.1669685702478 368.28710579436404 L 924.3747417929891 384.5729210560664" fill="none" stroke="#be1fa1" stroke-width="3" /><path d="M 924.3747417929891 384.5729210560664 L 893.545619220133 397.91364916699973" fill="none" stroke="#be1fa1" stroke-width="3" /><path d="M 893.545619220133 397.91364916699973 L 869.4950265357336 360.50587553290814" fill="none" stroke="#be1fa1" stroke-width="3" /><path d="M 872.5172402834711 324.5706454741826 L 869.4950265357336 360.50587553290814" fill="none" stroke="#be1fa1" stroke-width="3" /><path d="M 897.5053230368302 302.9371719650536 L 872.5172402834711 324.5706454741826" fill="none" stroke="#be1fa1" stroke-width="3" /><path d="M 897.5053230368302 302.9371719650536 L 949.0450313026333 276.61739311254536" fill="none" stroke="#be1fa1" stroke-width="3" /><path d="M 949.0450313026333 276.61739311254536 L 996.9746083198246 291.8646776421192" fill="none" stroke="#be1fa1" stroke-width="3" /><path d="M 1012.7784663298049 322.7002567924634 L 996.9746083198246 291.8646776421192" fill="none" stroke="#be1fa1" stroke-width="3" /><path d="M 1011.6831004848677 321.02688484763314 L 985.6590117569949 338.06188894591105" fill="none" stroke="#be1fa1" stroke-width="3" /><path d="M 1013.8738321747421 324.37362873729364 L 987.8497434468693 341.40863283557155" fill="none" stroke="#ef7100" stroke-width="3" /><path d="M 942.4001690508532 330.64031523099607 L 987.0691873875235 337.76019258840444" fill="none" stroke="#be1fa1" stroke-width="3" /><path d="M 941.7705494796704 334.5904518356698 L 986.4395678163407 341.71032919307817" fill="none" stroke="#ef7100" stroke-width="3" /><path d="M 942.0033166997988 330.61706698747435 L 909.5343809893724 331.950106434632" fill="none" stroke="#be1fa1" stroke-width="3" /><path d="M 942.1674018307248 334.6137000791915 L 909.6984661202983 335.9467395263492" fill="none" stroke="#ef7100" stroke-width="3" /><path d="M 873.8097430818283 322.48628206512035 L 910.1239770412153 332.01389733877284" fill="none" stroke="#be1fa1" stroke-width="3" /><path d="M 872.7946361090684 326.35533334855586 L 909.1088700684554 335.88294862220835" fill="none" stroke="#ef7100" stroke-width="3" /><path d="M 873.3991284987064 322.4231583759907 L 647.4608439466369 311.4591672638932" fill="none" stroke="#be1fa1" stroke-width="3" /><path d="M 873.2052506921902 326.4184570376855 L 647.2669661401208 315.45446592558807" fill="none" stroke="#ef7100" stroke-width="3" /><path d="M 648.8746086943823 312.1461776365052 L 625.3769762540462 285.06170948873563" fill="none" stroke="#be1fa1" stroke-width="3" /><path d="M 645.8532013923754 314.7674555529761 L 622.3555689520392 287.6829874052066" fill="none" stroke="#ef7100" stroke-width="3" /><path d="M 591.8877165234754 246.28299332822525 L 625.3799464786654 285.0651409660189" fill="none" stroke="#be1fa1" stroke-width="3" /><path d="M 588.8603687722301 248.8974082901297 L 622.3525987274201 287.67955592792333" fill="none" stroke="#ef7100" stroke-width="3" /><path d="M 591.118218809832 245.73380595895247 L 537.5001427301289 224.23983657799516" fill="none" stroke="#be1fa1" stroke-width="3" /><path d="M 589.6298664858735 249.44659565940248 L 536.0117904061705 227.95262627844517" fill="none" stroke="#ef7100" stroke-width="3" /><path d="M 464.5739489784854 238.02103787899546 L 536.3761544635961 224.13262689440117" fill="none" stroke="#be1fa1" stroke-width="3" /><path d="M 465.3335731875926 241.94824694663345 L 537.1357786727033 228.05983596203916" fill="none" stroke="#ef7100" stroke-width="3" /><path d="M 465.4687835214355 238.05209179563826 L 439.68303972634874 231.18022177723853" fill="none" stroke="#be1fa1" stroke-width="3" /><path d="M 464.4387386446425 241.91719302999064 L 438.65299484955574 235.0453230115909" fill="none" stroke="#ef7100" stroke-width="3" /><path d="M 404.83693079305345 227.31172951543016 L 439.3874122498176 231.12484235271103" fill="none" stroke="#be1fa1" stroke-width="3" /><path d="M 404.39814086932273 231.28758959883754 L 438.9486223260869 235.1007024361184" fill="none" stroke="#ef7100" stroke-width="3" /><path d="M 403.54214359862476 227.61338213448286 L 372.3094236062527 247.5314715487501" fill="none" stroke="#be1fa1" stroke-width="3" /><path d="M 405.6929280637514 230.98593697978484 L 374.4602080713794 250.90402639405207" fill="none" stroke="#ef7100" stroke-width="3" /><path d="M 304.8654145612868 243.1364023460845 L 327.97851717672404 272.78877981654205" fill="none" stroke="#be1fa1" stroke-width="3" /><path d="M 302.8889646632083 242.83038633280188 L 306.81688915553224 217.4613022798574" fill="none" stroke="#be1fa1" stroke-width="3" /><path d="M 306.8418644593653 243.44241835936714 L 310.76978895168924 218.07333430642265" fill="none" stroke="#2D80D3" stroke-width="3" /><path d="M 308.79333905361074 217.76731829314002 L 273.58820351479403 232.14141031661555" fill="none" stroke="#be1fa1" stroke-width="3" /><path d="M 254.60005720278372 242.55255173550242 L 273.58820351479403 232.14141031661555" fill="none" stroke="#be1fa1" stroke-width="3" /><path d="M 254.60005720278372 242.55255173550242 L 239.96567832967938 252.7208526349303" fill="none" stroke="#be1fa1" stroke-width="3" /><path d="M 222.44860622606132 258.8299776188142 L 239.10732806163495 250.91441004869955" fill="none" stroke="#D66ECD" stroke-width="3" /><path d="M 224.16530676215018 262.4428627912757 L 240.8240285977238 254.52729522116107" fill="none" stroke="#be1fa1" stroke-width="3" /><path d="M 207.86856071439854 269.5646844094296 L 223.30695649410575 260.63642020504494" fill="none" stroke="#be1fa1" stroke-width="3" /><path d="M 207.86856071439854 269.5646844094296 L 188.11771061747137 281.38636756893965" fill="none" stroke="#be1fa1" stroke-width="3" /><path d="M 174.34772936727302 290.0097894191224 L 188.11771061747137 281.38636756893965" fill="none" stroke="#be1fa1" stroke-width="3" /><path d="M 174.34772936727302 290.0097894191224 L 157.81930276162404 300.255592611979" fill="none" stroke="#be1fa1" stroke-width="3" /><path d="M 138.0462071376365 310.2740557440991 L 157.81930276162404 300.255592611979" fill="none" stroke="#be1fa1" stroke-width="3" /><path d="M 120.74236501732025 317.8847809600118 L 138.0462071376365 310.2740557440991" fill="none" stroke="#be1fa1" stroke-width="3" /><path d="M 120.74236501732025 317.8847809600118 L 110.73505577271317 323.94546030709296" fill="none" stroke="#be1fa1" stroke-width="3" /><path d="M 112.00940668001319 334.23259805645716 L 110.73505577271317 323.94546030709296" fill="none" stroke="#be1fa1" stroke-width="3" /><path d="M 112.00940668001319 334.23259805645716 L 100.0 351.3812721851217" fill="none" stroke="#be1fa1" stroke-width="3" /><path d="M 100.0 351.3812721851217 L 115.0951790764915 365.073344026351" fill="none" stroke="#be1fa1" stroke-width="3" /><path d="M 100.0 351.3812721851217 L 115.79750214510527 365.7088628325767" fill="none" stroke="#be1fa1" stroke-width="3" /><path d="M 372.3521145029135 247.50499447912117 L 406.54348959427676 226.88938442388522" fill="none" stroke="#be1fa1" stroke-width="3" /><path d="M 374.4175171747186 250.930503463681 L 408.6088922660819 230.31489340844504" fill="none" stroke="#ef7100" stroke-width="3" /><path d="M 439.45070740086595 231.13285161315582 L 407.85888104309305 226.62221813490623" fill="none" stroke="#be1fa1" stroke-width="3" /><path d="M 438.8853271750385 235.09269317567362 L 407.2935008172656 230.58205969742403" fill="none" stroke="#ef7100" stroke-width="3" /><path d="M 873.8176690757266 322.4883789486656 L 913.3892837831968 333.0441913153106" fill="none" stroke="#be1fa1" stroke-width="3" /><path d="M 872.7867101151701 326.3532364650106 L 912.3583248226403 336.9090488316556" fill="none" stroke="#ef7100" stroke-width="3" /><path d="M 941.9242202811224 330.6218855454256 L 912.7126653187792 332.98312208557576" fill="none" stroke="#be1fa1" stroke-width="3" /><path d="M 942.2464982494012 334.6088815212403 L 913.0349432870579 336.97011806139045" fill="none" stroke="#ef7100" stroke-width="3" /><path d="M 938.1669685702478 368.28710579436404 L 911.7138589633581 335.08512328432005" fill="none" stroke="#be1fa1" stroke-width="3" /><path d="M 938.1669685702478 368.28710579436404 L 911.7583500174788 334.9456191561116" fill="none" stroke="#be1fa1" stroke-width="3" /><path d="M 294.8057937066128 557.3106935972887 L 312.3988276787112 544.9671616619396" fill="none" stroke="#A9C539" stroke-width="3" /><path d="M 297.1031903083863 560.5851353595071 L 314.69622428048467 548.241603424158" fill="none" stroke="#2D80D3" stroke-width="3" /><path d="M 310.00413131216726 529.5228770686767 L 313.54752597959794 546.6043825430488" fill="none" stroke="#2D80D3" stroke-width="3" /><path d="M 310.00413131216726 529.5228770686767 L 298.31251787586893 512.6997125724497" fill="none" stroke="#2D80D3" stroke-width="3" /><path d="M 284.80948295039235 486.2455964113194 L 298.31251787586893 512.6997125724497" fill="none" stroke="#2D80D3" stroke-width="3" /><path d="M 284.80948295039235 486.2455964113194 L 258.1752311945848 434.360394362465" fill="none" stroke="#2D80D3" stroke-width="3" /><path d="M 252.96659993008566 417.8575726791255 L 258.1752311945848 434.360394362465" fill="none" stroke="#2D80D3" stroke-width="3" /><path d="M 251.71947839116424 416.29402291427687 L 259.31791484840596 410.23334356719573" fill="none" stroke="#2D80D3" stroke-width="3" /><path d="M 254.21372146900708 419.4211224439741 L 261.8121579262488 413.360443096893" fill="none" stroke="#39C5C3" stroke-width="3" /><path d="M 259.2481873943698 410.2915997627541 L 274.10819947051266 397.2918817429439" fill="none" stroke="#2D80D3" stroke-width="3" /><path d="M 261.881885380285 413.3021869013346 L 276.74189745642786 400.30246888152436" fill="none" stroke="#39C5C3" stroke-width="3" /><path d="M 298.36654272730254 414.75231412191266 L 275.42504846347026 398.7971753122341" fill="none" stroke="#2D80D3" stroke-width="3" /><path d="M 298.36654272730254 414.75231412191266 L 308.38338576921956 406.28389685862413" fill="none" stroke="#2D80D3" stroke-width="3" /><path d="M 316.38541964597727 399.10718448602245 L 308.38338576921956 406.28389685862413" fill="none" stroke="#2D80D3" stroke-width="3" /><path d="M 316.38541964597727 399.10718448602245 L 330.3842120316518 387.19249857436125" fill="none" stroke="#2D80D3" stroke-width="3" /><path d="M 338.7548860711232 379.95895118656625 L 330.3842120316518 387.19249857436125" fill="none" stroke="#2D80D3" stroke-width="3" /><path d="M 353.5036705119642 365.388520019689 L 338.7548860711232 379.95895118656625" fill="none" stroke="#2D80D3" stroke-width="3" /><path d="M 353.5036705119642 365.388520019689 L 366.2535354498367 359.62751620722344" fill="none" stroke="#2D80D3" stroke-width="3" /><path d="M 366.2535354498367 359.62751620722344 L 379.9663139161667 356.07791116763696" fill="none" stroke="#2D80D3" stroke-width="3" /><path d="M 401.6557027997593 343.5897082845664 L 379.9663139161667 356.07791116763696" fill="none" stroke="#2D80D3" stroke-width="3" /><path d="M 400.4458434538687 341.9971504792855 L 413.5993058112572 332.0045214449505" fill="none" stroke="#A9C539" stroke-width="3" /><path d="M 402.8655621456499 345.18226608984736 L 416.0190245030384 335.1896370555124" fill="none" stroke="#2D80D3" stroke-width="3" /><path d="M 412.37391075108474 319.7339380891822 L 418.3897368546215 331.8139622268002" fill="none" stroke="#A9C539" stroke-width="3" /><path d="M 408.793339053611 321.51705511261343 L 414.8091651571478 333.59707925023145" fill="none" stroke="#8478F4" stroke-width="3" /><path d="M 405.2127673561373 323.3001721360447 L 411.2285934596741 335.3801962736627" fill="none" stroke="#2D80D3" stroke-width="3" /><path d="M 412.03765829077355 319.1773130996178 L 401.8650965594366 305.0718956933863" fill="none" stroke="#A9C539" stroke-width="3" /><path d="M 408.793339053611 321.51705511261343 L 398.6207773222741 307.41163770638195" fill="none" stroke="#8478F4" stroke-width="3" /><path d="M 405.5490198164485 323.8567971256091 L 395.37645808511155 309.7513797193776" fill="none" stroke="#2D80D3" stroke-width="3" /><path d="M 401.3796652793551 281.47759117209 L 396.6540797453035 307.04818118802257" fill="none" stroke="#8478F4" stroke-width="3" /><path d="M 405.3130604332963 282.20450420880877 L 400.5874748992447 307.77509422474134" fill="none" stroke="#2D80D3" stroke-width="3" /><path d="M 405.1011694200736 280.88154056497956 L 392.8597736721466 258.4937113996885" fill="none" stroke="#8478F4" stroke-width="3" /><path d="M 401.5915562925778 282.8005548159192 L 389.35016054465086 260.41272565062815" fill="none" stroke="#2D80D3" stroke-width="3" /><path d="M 381.72170631710804 244.0862010896196 L 392.6855732252974 258.22778623277225" fill="none" stroke="#2D80D3" stroke-width="3" /><path d="M 378.56049408331074 246.5370656743918 L 389.5243609915001 260.6786508175444" fill="none" stroke="#39C5C3" stroke-width="3" /><path d="M 401.00108254558114 227.94130530402109 L 378.9780107560885 243.6846045116489" fill="none" stroke="#2D80D3" stroke-width="3" /><path d="M 403.3272614338229 231.1953630447347 L 381.3041896443303 246.93866225236252" fill="none" stroke="#39C5C3" stroke-width="3" /><path d="M 402.9759380994194 227.74048413044258 L 382.11598958192485 218.47637665448448" fill="none" stroke="#EEF608" stroke-width="3" /><path d="M 401.35240587998464 231.3961842183132 L 380.4924573624901 222.1320767423551" fill="none" stroke="#2D80D3" stroke-width="3" /><path d="M 360.9557452164607 231.4640888637193 L 380.1949481910047 218.64004270903865" fill="none" stroke="#EEF608" stroke-width="3" /><path d="M 363.1742957788662 234.79245684248158 L 382.41349875341024 221.96841068780094" fill="none" stroke="#2D80D3" stroke-width="3" /><path d="M 362.06502049766345 233.12827285310044 L 357.4697301935365 245.32196702114177" fill="none" stroke="#2D80D3" stroke-width="3" /><path d="M 357.4697301935365 245.32196702114177 L 336.9212190548817 235.13299884344175" fill="none" stroke="#2D80D3" stroke-width="3" /><path d="M 304.8654145612868 243.1364023460845 L 336.9212190548817 235.13299884344175" fill="none" stroke="#2D80D3" stroke-width="3" /><path d="M 308.79333905361074 217.76731829314002 L 291.0986112435261 224.90786292882055" fill="none" stroke="#2D80D3" stroke-width="3" /><path d="M 277.27778307433175 209.51074063190225 L 291.0986112435261 224.90786292882055" fill="none" stroke="#2D80D3" stroke-width="3" /><path d="M 277.27778307433175 209.51074063190225 L 264.25143801442755 188.34744770296868" fill="none" stroke="#2D80D3" stroke-width="3" /><path d="M 264.25143801442755 188.34744770296868 L 260.08199065687984 176.42759497179452" fill="none" stroke="#2D80D3" stroke-width="3" /><path d="M 260.08199065687984 176.42759497179452 L 253.48778084977877 169.70039590111617" fill="none" stroke="#2D80D3" stroke-width="3" /><path d="M 254.08523214796298 154.2722726868264 L 253.48778084977877 169.70039590111617" fill="none" stroke="#2D80D3" stroke-width="3" /><path d="M 254.08523214796298 154.2722726868264 L 240.57266342517644 156.19949638370224" fill="none" stroke="#2D80D3" stroke-width="3" /><path d="M 244.09381256554394 161.95016655703176 L 240.57266342517644 156.19949638370224" fill="none" stroke="#2D80D3" stroke-width="3" /><path d="M 244.09381256554394 161.95016655703176 L 253.48778084977877 169.70039590111617" fill="none" stroke="#2D80D3" stroke-width="3" /><path d="M 264.25143801442755 188.34744770296868 L 277.27778307433175 209.51074063190225" fill="none" stroke="#2D80D3" stroke-width="3" /><path d="M 393.0847200128954 259.1693551123395 L 397.1111604107736 287.2510194357667" fill="none" stroke="#8478F4" stroke-width="3" /><path d="M 389.1252142039021 259.73708193797717 L 393.1516546017803 287.8187462614044" fill="none" stroke="#2D80D3" stroke-width="3" /><path d="M 397.10128410062276 287.1890704673027 L 400.5906539166199 307.0658253250991" fill="none" stroke="#8478F4" stroke-width="3" /><path d="M 393.16153091193115 287.88069522986837 L 396.6509007279283 307.7574500876648" fill="none" stroke="#2D80D3" stroke-width="3" /><path d="M 462.242984714144 748.4823564977384 L 488.83274541583074 747.5936635329543" fill="none" stroke="#8478F4" stroke-width="3" /><path d="M 468.4304191692886 728.1922560749398 L 462.242984714144 748.4823564977384" fill="none" stroke="#8478F4" stroke-width="3" /><path d="M 468.4304191692886 728.1922560749398 L 470.3657800235164 701.7846412898668" fill="none" stroke="#8478F4" stroke-width="3" /><path d="M 470.3816696857016 673.8269806359622 L 470.3657800235164 701.7846412898668" fill="none" stroke="#8478F4" stroke-width="3" /><path d="M 486.9037404264781 667.2702866108638 L 470.3816696857016 673.8269806359622" fill="none" stroke="#8478F4" stroke-width="3" /><path d="M 486.9037404264781 667.2702866108638 L 502.9268757746192 651.7646611031453" fill="none" stroke="#8478F4" stroke-width="3" /><path d="M 500.25105666253484 636.1505323845898 L 502.9268757746192 651.7646611031453" fill="none" stroke="#8478F4" stroke-width="3" /><path d="M 511.82190866622125 610.021925855897 L 500.25105666253484 636.1505323845898" fill="none" stroke="#8478F4" stroke-width="3" /><path d="M 475.59665681507585 475.20410300579323 L 492.89096513807937 525.208582733829" fill="none" stroke="#8478F4" stroke-width="3" /><path d="M 470.95369752439063 432.2213310635016 L 475.59665681507585 475.20410300579323" fill="none" stroke="#8478F4" stroke-width="3" /><path d="M 470.95369752439063 432.2213310635016 L 469.6602790224678 416.4005295624451" fill="none" stroke="#8478F4" stroke-width="3" /><path d="M 469.6602790224678 416.4005295624451 L 473.60091524454214 390.70593587702655" fill="none" stroke="#8478F4" stroke-width="3" /><path d="M 460.32472451546994 369.5710407975952 L 475.20380418623563 389.50979749013453" fill="none" stroke="#EEF608" stroke-width="3" /><path d="M 457.11894663208295 371.9633175713792 L 471.99802630284864 391.90207426391856" fill="none" stroke="#8478F4" stroke-width="3" /><path d="M 460.44602463955795 369.7536842089498 L 452.7014032902064 356.57829432397324" fill="none" stroke="#EEF608" stroke-width="3" /><path d="M 456.99764650799494 371.7806741600246 L 449.25302515864337 358.60528427504806" fill="none" stroke="#8478F4" stroke-width="3" /><path d="M 440.8266800033412 336.321256520261 L 452.70261352099493 356.58035602568805" fill="none" stroke="#EEF608" stroke-width="3" /><path d="M 437.3758814102011 338.3441230679062 L 449.2518149278548 358.60322257333326" fill="none" stroke="#8478F4" stroke-width="3" /><path d="M 439.10128070677115 337.3326897940836 L 414.8091651571478 333.59707925023145" fill="none" stroke="#8478F4" stroke-width="3" /><path d="M 375.141473593569 242.74069689358615 L 392.4262481192624 257.9518136862388" fill="none" stroke="#EEF608" stroke-width="3" /><path d="M 372.49891157184163 245.74350657142523 L 389.78368609753505 260.95462336407786" fill="none" stroke="#8478F4" stroke-width="3" /><path d="M 373.8201925827053 244.2421017325057 L 357.4697301935365 245.32196702114177" fill="none" stroke="#8478F4" stroke-width="3" /><path d="M 473.60091524454214 390.70593587702655 L 469.6602790224678 416.4005295624451" fill="none" stroke="#8478F4" stroke-width="3" /><path d="M 401.75896520767594 272.90066220877657 L 393.4264263574529 286.48939765875525" fill="none" stroke="#D66ECD" stroke-width="3" /><path d="M 405.16892750532406 274.99163258843714 L 396.836388655101 288.5803680384158" fill="none" stroke="#0CC261" stroke-width="3" /><path d="M 374.38594692941837 305.980465440798 L 393.6982423500187 286.13987831995945" fill="none" stroke="#D66ECD" stroke-width="3" /><path d="M 377.2522772419349 308.7704744980502 L 396.5645726625352 288.9298873772116" fill="none" stroke="#0CC261" stroke-width="3" /><path d="M 372.79582029390576 304.7563657825291 L 352.74306661544887 327.9037174235318" fill="none" stroke="#D66ECD" stroke-width="3" /><path d="M 375.81911208567664 307.3754699694241 L 355.76635840721974 330.52282161042683" fill="none" stroke="#39C5C3" stroke-width="3" /><path d="M 378.8424038774475 309.9945741563191 L 358.7896501989906 333.14192579732185" fill="none" stroke="#0CC261" stroke-width="3" /><path d="M 333.7070163672301 321.2477707682229 L 356.3847422387782 328.62082228422634" fill="none" stroke="#D66ECD" stroke-width="3" /><path d="M 332.4702487041132 325.0517694206239 L 355.1479745756613 332.4248209366273" fill="none" stroke="#0CC261" stroke-width="3" /><path d="M 325.25273751133665 306.01928778488065 L 334.8087803498665 322.1294311814534" fill="none" stroke="#D66ECD" stroke-width="3" /><path d="M 321.812441882947 308.0599656108206 L 331.3684847214768 324.17010900739336" fill="none" stroke="#0CC261" stroke-width="3" /><path d="M 326.8579318089223 304.8165432896944 L 314.10171100617737 285.7354786445676" fill="none" stroke="#D66ECD" stroke-width="3" /><path d="M 323.5325896971418 307.0396266978506 L 310.7763688943969 287.95856205272383" fill="none" stroke="#BB3636" stroke-width="3" /><path d="M 320.20724758536136 309.26271010600686 L 307.45102678261645 290.1816454608801" fill="none" stroke="#0CC261" stroke-width="3" /><path d="M 309.96600534672325 286.13008976127344 L 297.1652934898576 291.8032576411375" fill="none" stroke="#D66ECD" stroke-width="3" /><path d="M 311.58673244207057 289.78703434417423 L 298.78602058520494 295.4602022240383" fill="none" stroke="#BB3636" stroke-width="3" /><path d="M 302.5900149362809 270.66521697626445 L 297.9756570375313 293.6317299325879" fill="none" stroke="#D66ECD" stroke-width="3" /><path d="M 271.08081482187714 268.4951527599296 L 302.5900149362809 270.66521697626445" fill="none" stroke="#D66ECD" stroke-width="3" /><path d="M 271.08081482187714 268.4951527599296 L 287.0372135888399 241.596690116389" fill="none" stroke="#D66ECD" stroke-width="3" /><path d="M 249.55667842501725 255.35593061194766 L 287.0372135888399 241.596690116389" fill="none" stroke="#D66ECD" stroke-width="3" /><path d="M 249.55667842501725 255.35593061194766 L 239.96567832967938 252.7208526349303" fill="none" stroke="#D66ECD" stroke-width="3" /><path d="M 214.7487844408413 252.82935584576725 L 223.30695649410575 260.63642020504494" fill="none" stroke="#D66ECD" stroke-width="3" /><path d="M 214.7487844408413 252.82935584576725 L 202.28811135475377 232.49275404687475" fill="none" stroke="#D66ECD" stroke-width="3" /><path d="M 202.28811135475377 232.49275404687475 L 196.49791845425273 212.0579826763181" fill="none" stroke="#D66ECD" stroke-width="3" /><path d="M 196.49791845425273 212.0579826763181 L 189.12829313248722 203.20722076536214" fill="none" stroke="#D66ECD" stroke-width="3" /><path d="M 178.2025614135434 192.5584056466027 L 189.12829313248722 203.20722076536214" fill="none" stroke="#D66ECD" stroke-width="3" /><path d="M 177.63688943972954 194.88864126938137 L 178.2025614135434 192.5584056466027" fill="none" stroke="#D66ECD" stroke-width="3" /><path d="M 177.63688943972954 194.88864126938137 L 189.12829313248722 203.20722076536214" fill="none" stroke="#D66ECD" stroke-width="3" /><path d="M 202.28811135475377 232.49275404687475 L 214.7487844408413 252.82935584576725" fill="none" stroke="#D66ECD" stroke-width="3" /><path d="M 314.10171100617737 285.7354786445676 L 326.8579318089223 304.8165432896944" fill="none" stroke="#D66ECD" stroke-width="3" /><path d="M 310.7763688943969 287.95856205272383 L 323.5325896971418 307.0396266978506" fill="none" stroke="#BB3636" stroke-width="3" /><path d="M 307.45102678261645 290.1816454608801 L 320.20724758536136 309.26271010600686" fill="none" stroke="#0CC261" stroke-width="3" /><path d="M 401.98622159154047 280.37475449336074 L 374.4589708208914 305.90917677233546" fill="none" stroke="#D66ECD" stroke-width="3" /><path d="M 404.7065041211109 283.30734088753803 L 377.17925335046186 308.84176316651275" fill="none" stroke="#0CC261" stroke-width="3" /><path d="M 401.3465846388004 281.8112637902484 L 401.4641681389747 273.9163634984059" fill="none" stroke="#D66ECD" stroke-width="3" /><path d="M 405.346141073851 281.87083159065037 L 405.4637245740253 273.97593129880784" fill="none" stroke="#0CC261" stroke-width="3" /><path d="M 632.9678711030607 141.4895610886533 L 644.3575809578292 133.1141465774792" fill="none" stroke="#BB3636" stroke-width="3" /><path d="M 632.9678711030607 141.4895610886533 L 613.6079066959019 156.9383515811785" fill="none" stroke="#BB3636" stroke-width="3" /><path d="M 590.3454412559172 178.5304905338 L 613.6079066959019 156.9383515811785" fill="none" stroke="#BB3636" stroke-width="3" /><path d="M 559.1921695744738 199.03243055868603 L 547.0588235294113 186.93690596234552" fill="none" stroke="#BB3636" stroke-width="3" /><path d="M 542.7590809419388 181.2895721803033 L 547.0588235294113 186.93690596234552" fill="none" stroke="#BB3636" stroke-width="3" /><path d="M 542.7590809419388 181.2895721803033 L 537.505958623319 173.7925169947772" fill="none" stroke="#BB3636" stroke-width="3" /><path d="M 528.9509645024949 162.30151028729094 L 537.505958623319 173.7925169947772" fill="none" stroke="#BB3636" stroke-width="3" /><path d="M 528.9509645024949 162.30151028729094 L 514.5867098865472 173.001993601694" fill="none" stroke="#BB3636" stroke-width="3" /><path d="M 514.5867098865472 173.001993601694 L 497.3877395366576 186.62172996904422" fill="none" stroke="#BB3636" stroke-width="3" /><path d="M 482.6707344201869 198.3969117524603 L 497.3877395366576 186.62172996904422" fill="none" stroke="#BB3636" stroke-width="3" /><path d="M 482.6707344201869 198.3969117524603 L 464.73766167731327 212.07348313500384" fill="none" stroke="#BB3636" stroke-width="3" /><path d="M 464.73766167731327 212.07348313500384 L 453.5449836336477 214.1402109600881" fill="none" stroke="#BB3636" stroke-width="3" /><path d="M 350.87869831887303 285.2201476844559 L 340.7919407633401 267.76663120158946" fill="none" stroke="#BB3636" stroke-width="3" /><path d="M 350.87869831887303 285.2201476844559 L 337.0388025550588 292.9032083742477" fill="none" stroke="#BB3636" stroke-width="3" /><path d="M 323.5325896971418 307.0396266978506 L 337.0388025550588 292.9032083742477" fill="none" stroke="#BB3636" stroke-width="3" /><path d="M 280.5669431467883 303.92920132108816 L 297.9756570375313 293.6317299325879" fill="none" stroke="#BB3636" stroke-width="3" /><path d="M 280.5669431467883 303.92920132108816 L 256.9835065306511 313.6686561968281" fill="none" stroke="#BB3636" stroke-width="3" /><path d="M 235.13491395761417 324.7795630781183 L 255.93448175880275 311.96585056257373" fill="none" stroke="#BB3636" stroke-width="3" /><path d="M 237.23296350131085 328.1851743466271 L 258.0325313024994 315.3714618310825" fill="none" stroke="#ef7100" stroke-width="3" /><path d="M 220.82337579281085 355.01826346404073 L 234.3677238399706 325.64489424996333" fill="none" stroke="#BB3636" stroke-width="3" /><path d="M 224.45580557179466 356.6932123888595 L 238.0001536189544 327.3198431747821" fill="none" stroke="#ef7100" stroke-width="3" /><path d="M 647.5291575301114 131.0267514741228 L 632.9678711030607 141.4895610886533" fill="none" stroke="#BB3636" stroke-width="3" /><path d="M 168.3668605205442 429.2969111910048 L 155.25788921727644 444.0843487795192" fill="none" stroke="#ef7100" stroke-width="3" /><path d="M 168.3668605205442 429.2969111910048 L 186.05841039819407 411.0890390519763" fill="none" stroke="#ef7100" stroke-width="3" /><path d="M 195.9068230209437 400.90523769382594 L 186.05841039819407 411.0890390519763" fill="none" stroke="#ef7100" stroke-width="3" /><path d="M 208.5645279181371 389.56406875364746 L 195.9068230209437 400.90523769382594" fill="none" stroke="#ef7100" stroke-width="3" /><path d="M 208.5645279181371 389.56406875364746 L 221.04109066641266 375.3914826931234" fill="none" stroke="#ef7100" stroke-width="3" /><path d="M 222.63959068230275 355.8557379264501 L 221.04109066641266 375.3914826931234" fill="none" stroke="#ef7100" stroke-width="3" /><path d="M 271.4272094575276 303.4641875604424 L 256.9835065306511 313.6686561968281" fill="none" stroke="#ef7100" stroke-width="3" /><path d="M 271.4272094575276 303.4641875604424 L 282.4514570820229 281.515538058012" fill="none" stroke="#ef7100" stroke-width="3" /><path d="M 1073.1019798519083 309.53520054665955 L 1012.7784663298049 322.7002567924634" fill="none" stroke="#ef7100" stroke-width="3" /><path d="M 1073.1019798519083 309.53520054665955 L 1100.0 334.76478047143235" fill="none" stroke="#ef7100" stroke-width="3" /><path d="M 1100.0 334.76478047143235 L 1083.7957225029384 371.7798758187572" fill="none" stroke="#ef7100" stroke-width="3" /><path d="M 1057.8129468967486 404.3153386052407 L 1083.7957225029384 371.7798758187572" fill="none" stroke="#ef7100" stroke-width="3" /><path d="M 1057.8129468967486 404.3153386052407 L 1024.7147805637646 433.6008718867533" fill="none" stroke="#ef7100" stroke-width="3" /><path d="M 591.476785203545 397.8671477909425 L 624.5463501445961 414.173630330917" fill="none" stroke="#EEF608" stroke-width="3" /><path d="M 543.2675501318843 435.69343380965944 L 574.725903327295 416.20935723862976" fill="none" stroke="#EEF608" stroke-width="3" /><path d="M 543.2675501318843 435.69343380965944 L 524.8895668478087 420.2084755801763" fill="none" stroke="#EEF608" stroke-width="3" /><path d="M 496.272285251215 398.27532653639497 L 524.8895668478087 420.2084755801763" fill="none" stroke="#EEF608" stroke-width="3" /><path d="M 496.272285251215 398.27532653639497 L 473.60091524454214 390.70593587702655" fill="none" stroke="#EEF608" stroke-width="3" /><path d="M 433.16172498172546 327.3865621358425 L 439.10128070677115 337.3326897940836" fill="none" stroke="#EEF608" stroke-width="3" /><path d="M 433.16172498172546 327.3865621358425 L 425.13108971303217 313.52398524907" fill="none" stroke="#EEF608" stroke-width="3" /><path d="M 425.13108971303217 313.52398524907 L 417.17672482283 295.6209554642435" fill="none" stroke="#EEF608" stroke-width="3" /><path d="M 413.3155369116844 288.4804108285629 L 417.17672482283 295.6209554642435" fill="none" stroke="#EEF608" stroke-width="3" /><path d="M 413.3155369116844 288.4804108285629 L 391.10496710839874 259.4532185251583" fill="none" stroke="#EEF608" stroke-width="3" /><path d="M 362.06502049766345 233.12827285310044 L 373.8201925827053 244.2421017325057" fill="none" stroke="#EEF608" stroke-width="3" /><path d="M 348.00584739568296 531.7859440371628 L 313.54752597959794 546.6043825430488" fill="none" stroke="#A9C539" stroke-width="3" /><path d="M 348.00584739568296 531.7859440371628 L 368.5384688721526 520.4706091948062" fill="none" stroke="#A9C539" stroke-width="3" /><path d="M 368.5384688721526 520.4706091948062 L 389.20774144341647 502.84142084677336" fill="none" stroke="#A9C539" stroke-width="3" /><path d="M 389.20774144341647 502.84142084677336 L 385.1749451806659 480.32958801199635" fill="none" stroke="#A9C539" stroke-width="3" /><path d="M 383.3381002319896 468.9780854327185 L 385.1749451806659 480.32958801199635" fill="none" stroke="#A9C539" stroke-width="3" /><path d="M 383.3381002319896 468.9780854327185 L 399.0688657959137 455.0018385155227" fill="none" stroke="#A9C539" stroke-width="3" /><path d="M 412.7307973432478 445.27788409850524 L 399.0688657959137 455.0018385155227" fill="none" stroke="#A9C539" stroke-width="3" /><path d="M 428.4361394476739 455.2188449371599 L 412.7307973432478 445.27788409850524" fill="none" stroke="#A9C539" stroke-width="3" /><path d="M 428.4361394476739 455.2188449371599 L 453.08736136269806 433.35803136729436" fill="none" stroke="#A9C539" stroke-width="3" /><path d="M 442.276035211491 416.0543526517356 L 453.08736136269806 433.35803136729436" fill="none" stroke="#A9C539" stroke-width="3" /><path d="M 442.276035211491 416.0543526517356 L 427.3492865541669 399.4120268401877" fill="none" stroke="#A9C539" stroke-width="3" /><path d="M 427.3492865541669 399.4120268401877 L 416.02631328057953 375.9391655667476" fill="none" stroke="#A9C539" stroke-width="3" /><path d="M 401.6557027997593 343.5897082845664 L 416.02631328057953 375.9391655667476" fill="none" stroke="#A9C539" stroke-width="3" /><path d="M 398.6207773222741 307.41163770638195 L 403.489369815998 282.02705319471505" fill="none" stroke="#A9C539" stroke-width="3" /><path d="M 403.4639463565 273.94614739860685 L 403.489369815998 282.02705319471505" fill="none" stroke="#A9C539" stroke-width="3" /><path d="M 403.4639463565 273.94614739860685 L 418.51781231131116 260.3987465051357" fill="none" stroke="#A9C539" stroke-width="3" /><path d="M 402.164171989702 229.5683341743779 L 418.51781231131116 260.3987465051357" fill="none" stroke="#A9C539" stroke-width="3" /><path d="M 403.4639463565 273.94614739860685 L 395.03924746559784 287.40054553992684" fill="none" stroke="#A9C539" stroke-width="3" /><path d="M 395.03924746559784 287.40054553992684 L 398.6207773222741 307.41163770638195" fill="none" stroke="#A9C539" stroke-width="3" /><path d="M 385.1749451806659 480.32958801199635 L 389.20774144341647 502.84142084677336" fill="none" stroke="#A9C539" stroke-width="3" /><path d="M 310.7763688943969 287.95856205272383 L 302.5900149362809 270.66521697626445" fill="none" stroke="#0CC261" stroke-width="3" /><path d="M 302.5900149362809 270.66521697626445 L 287.0372135888399 241.596690116389" fill="none" stroke="#0CC261" stroke-width="3" /><path d="M 279.30212603680104 232.84409777713392 L 287.0372135888399 241.596690116389" fill="none" stroke="#0CC261" stroke-width="3" /><path d="M 277.27778307433175 209.51074063190225 L 279.30212603680104 232.84409777713392" fill="none" stroke="#0CC261" stroke-width="3" /><path d="M 277.27778307433175 209.51074063190225 L 245.78765055454795 206.09030608138812" fill="none" stroke="#0CC261" stroke-width="3" /><path d="M 245.78765055454795 206.09030608138812 L 240.69342485778833 191.4010380645379" fill="none" stroke="#0CC261" stroke-width="3" /><path d="M 240.69342485778833 191.4010380645379 L 237.34070613658824 175.38389742011634" fill="none" stroke="#0CC261" stroke-width="3" /><path d="M 239.6256395589041 148.8316116872852 L 237.34070613658824 175.38389742011634" fill="none" stroke="#0CC261" stroke-width="3" /><path d="M 239.6256395589041 148.8316116872852 L 245.717736040932 140.83854182374182" fill="none" stroke="#0CC261" stroke-width="3" /><path d="M 245.717736040932 140.83854182374182 L 246.23891696062512 123.36952488218955" fill="none" stroke="#0CC261" stroke-width="3" /><path d="M 246.23891696062512 123.36952488218955 L 236.701941716718 109.63095166490305" fill="none" stroke="#0CC261" stroke-width="3" /><path d="M 237.7157021641715 100.0 L 236.701941716718 109.63095166490305" fill="none" stroke="#0CC261" stroke-width="3" /><path d="M 245.717736040932 140.83854182374182 L 239.6256395589041 148.8316116872852" fill="none" stroke="#0CC261" stroke-width="3" /><path d="M 245.78765055454795 206.09030608138812 L 277.27778307433175 209.51074063190225" fill="none" stroke="#0CC261" stroke-width="3" /><path d="M 168.3668605205442 429.2969111910048 L 195.366574506625 467.6088782485662" fill="none" stroke="#39C5C3" stroke-width="3" /><path d="M 168.3668605205442 429.2969111910048 L 225.34718911876024 441.36660168952346" fill="none" stroke="#39C5C3" stroke-width="3" /><path d="M 225.34718911876024 441.36660168952346 L 232.52296056185753 435.1715850338203" fill="none" stroke="#39C5C3" stroke-width="3" /><path d="M 252.96659993008566 417.8575726791255 L 232.52296056185753 435.1715850338203" fill="none" stroke="#39C5C3" stroke-width="3" /><path d="M 301.5794324212679 375.9236651080618 L 275.42504846347026 398.7971753122341" fill="none" stroke="#39C5C3" stroke-width="3" /><path d="M 301.5794324212679 375.9236651080618 L 326.2020529443537 361.70974449103016" fill="none" stroke="#39C5C3" stroke-width="3" /><path d="M 326.2020529443537 361.70974449103016 L 347.1922966917729 345.9302775464445" fill="none" stroke="#39C5C3" stroke-width="3" /><path d="M 355.76635840721974 330.52282161042683 L 347.1922966917729 345.9302775464445" fill="none" stroke="#39C5C3" stroke-width="3" /><path d="M 375.81911208567664 307.3754699694241 L 403.489369815998 282.02705319471505" fill="none" stroke="#39C5C3" stroke-width="3" /><path d="M 391.10496710839874 259.4532185251583 L 403.489369815998 282.02705319471505" fill="none" stroke="#39C5C3" stroke-width="3" /><path d="M 402.164171989702 229.5683341743779 L 383.8719928814303 215.15807441394452" fill="none" stroke="#39C5C3" stroke-width="3" /><path d="M 383.8719928814303 215.15807441394452 L 372.90812597324094 194.93514264543862" fill="none" stroke="#39C5C3" stroke-width="3" /><path d="M 366.4156100041318 182.4417729427817 L 372.90812597324094 194.93514264543862" fill="none" stroke="#39C5C3" stroke-width="3" /><path d="M 366.4156100041318 182.4417729427817 L 361.2610035910634 172.43881026934736" fill="none" stroke="#39C5C3" stroke-width="3" /><path d="M 361.2610035910634 172.43881026934736 L 354.1456128642692 158.61240111949604" fill="none" stroke="#39C5C3" stroke-width="3" /><path d="M 354.1456128642692 158.61240111949604 L 331.91279753392314 138.97331996160895" fill="none" stroke="#39C5C3" stroke-width="3" /><path d="M 354.1456128642692 158.61240111949604 L 361.2610035910634 172.43881026934736" fill="none" stroke="#39C5C3" stroke-width="3" /><path d="M 395.03924746559784 287.40054553992684 L 391.10496710839874 259.4532185251583" fill="none" stroke="#39C5C3" stroke-width="3" /><path d="M 375.81911208567664 307.3754699694241 L 395.03924746559784 287.40054553992684" fill="none" stroke="#39C5C3" stroke-width="3" /><path d="M 225.34718911876024 441.36660168952346 L 168.3668605205442 429.2969111910048" fill="none" stroke="#39C5C3" stroke-width="3" /><circle cx="225.34718911876024" cy="441.36660168952346" fill="white" id="408811" r="2.5" /><circle cx="127.56538595989468" cy="394.78255651200186" fill="white" id="1400018" r="2.5" /><circle cx="326.2020529443537" cy="361.70974449103016" fill="white" id="431070" r="2.5" /><circle cx="304.8654145612868" cy="243.1364023460845" fill="white" id="229185" r="2.5" /><circle cx="214.7487844408413" cy="252.82935584576725" fill="white" id="16412" r="2.5" /><circle cx="273.58820351479403" cy="232.14141031661555" fill="white" id="229183" r="2.5" /><circle cx="323.5325896971418" cy="307.0396266978506" fill="white" id="1093894" r="2.5" /><circle cx="196.49791845425273" cy="212.0579826763181" fill="white" id="16090" r="2.5" /><circle cx="260.5650363873274" cy="411.79689333204436" fill="white" id="15993" r="2.5" /><circle cx="373.8201925827053" cy="244.2421017325057" fill="white" id="680130" r="2.5" /><circle cx="664.3245304604822" cy="292.6500342156527" fill="white" id="651858" r="2.5" /><circle cx="308.79333905361074" cy="217.76731829314002" fill="white" id="1356192" r="2.5" /><circle cx="381.30422347220747" cy="220.3042266984198" fill="white" id="937585" r="2.5" /><circle cx="893.545619220133" cy="397.91364916699973" fill="white" id="431051" r="2.5" /><circle cx="375.81911208567664" cy="307.3754699694241" fill="white" id="431059" r="2.5" /><circle cx="375.81911208567664" cy="307.3754699694241" fill="white" id="431061" r="2.5" /><circle cx="355.76635840721974" cy="330.52282161042683" fill="white" id="431063" r="2.5" /><circle cx="355.76635840721974" cy="330.52282161042683" fill="white" id="431064" r="2.5" /><circle cx="355.76635840721974" cy="330.52282161042683" fill="white" id="431065" r="2.5" /><circle cx="326.2020529443537" cy="361.70974449103016" fill="white" id="431069" r="2.5" /><circle cx="361.2610035910634" cy="172.43881026934736" fill="white" id="510676" r="2.5" /><circle cx="361.2610035910634" cy="172.43881026934736" fill="white" id="510677" r="2.5" /><circle cx="372.90812597324094" cy="194.93514264543862" fill="white" id="510685" r="2.5" /><circle cx="372.90812597324094" cy="194.93514264543862" fill="white" id="510690" r="2.5" /><circle cx="354.1456128642692" cy="158.61240111949604" fill="white" id="510700" r="2.5" /><circle cx="464.953761083039" cy="239.98464241281445" fill="white" id="1399993" r="2.5" /><circle cx="433.16172498172546" cy="327.3865621358425" fill="white" id="629657" r="2.5" /><circle cx="549.3469348841647" cy="214.5845574424985" fill="white" id="1529646" r="2.5" /><circle cx="280.5669431467883" cy="303.92920132108816" fill="white" id="1399953" r="2.5" /><circle cx="245.78765055454795" cy="206.09030608138812" fill="white" id="240417" r="2.5" /><circle cx="439.16801728795224" cy="233.11277239441472" fill="white" id="1525815" r="2.5" /><circle cx="279.30212603680104" cy="232.84409777713392" fill="white" id="825994" r="2.5" /><circle cx="938.1669685702478" cy="368.28710579436404" fill="white" id="1894165" r="2.5" /><circle cx="310.7763688943969" cy="287.95856205272383" fill="white" id="327180" r="2.5" /><circle cx="498.02332602408734" cy="586.8125723801512" fill="white" id="15971" r="2.5" /><circle cx="404.6175358311881" cy="229.29965955713385" fill="white" id="1525863" r="2.5" /><circle cx="174.34772936727302" cy="290.0097894191224" fill="white" id="652000" r="2.5" /><circle cx="355.76635840721974" cy="330.52282161042683" fill="white" id="431060" r="2.5" /><circle cx="399.0688657959137" cy="455.0018385155227" fill="white" id="651888" r="2.5" /><circle cx="909.6164235548354" cy="333.9484229804906" fill="white" id="651892" r="2.5" /><circle cx="529.5039247465584" cy="465.00996800854347" fill="white" id="651903" r="2.5" /><circle cx="912.8738043029185" cy="334.9766200734831" fill="white" id="651906" r="2.5" /><circle cx="500.3686401627092" cy="249.55359224301122" fill="white" id="651930" r="2.5" /><circle cx="590.3740426478528" cy="247.59020080917747" fill="white" id="651933" r="2.5" /><circle cx="605.4692217243443" cy="239.58163048694834" fill="white" id="651945" r="2.5" /><circle cx="310.00413131216726" cy="529.5228770686767" fill="white" id="651948" r="2.5" /><circle cx="924.3747417929891" cy="384.5729210560664" fill="white" id="651954" r="2.5" /><circle cx="650.4369657101096" cy="276.999737760176" fill="white" id="651972" r="2.5" /><circle cx="273.58820351479403" cy="232.14141031661555" fill="white" id="651975" r="2.5" /><circle cx="174.34772936727302" cy="290.0097894191224" fill="white" id="652001" r="2.5" /><circle cx="1073.1019798519083" cy="309.53520054665955" fill="white" id="652013" r="2.5" /><circle cx="237.34070613658824" cy="175.38389742011634" fill="white" id="652015" r="2.5" /><circle cx="353.5036705119642" cy="365.388520019689" fill="white" id="652021" r="2.5" /><circle cx="383.3381002319896" cy="468.9780854327185" fill="white" id="652046" r="2.5" /><circle cx="613.6079066959019" cy="156.9383515811785" fill="white" id="652050" r="2.5" /><circle cx="549.2611307083607" cy="443.78467324486695" fill="white" id="652058" r="2.5" /><circle cx="549.2611307083607" cy="443.78467324486695" fill="white" id="652059" r="2.5" /><circle cx="613.6079066959019" cy="156.9383515811785" fill="white" id="652068" r="2.5" /><circle cx="135.32271903899385" cy="369.6253120611081" fill="white" id="652079" r="2.5" /><circle cx="120.74236501732025" cy="317.8847809600118" fill="white" id="652085" r="2.5" /><circle cx="313.54752597959794" cy="546.6043825430488" fill="white" id="652087" r="2.5" /><circle cx="298.31251787586893" cy="512.6997125724497" fill="white" id="652088" r="2.5" /><circle cx="221.04109066641266" cy="375.3914826931234" fill="white" id="652093" r="2.5" /><circle cx="208.5645279181371" cy="389.56406875364746" fill="white" id="652095" r="2.5" /><circle cx="340.7919407633401" cy="267.76663120158946" fill="white" id="652109" r="2.5" /><circle cx="942.0853592652618" cy="332.61538353333293" fill="white" id="652112" r="2.5" /><circle cx="100.0" cy="351.3812721851217" fill="white" id="652117" r="2.5" /><circle cx="611.869577652777" cy="361.2653980086198" fill="white" id="652159" r="2.5" /><circle cx="514.5867098865472" cy="173.001993601694" fill="white" id="652172" r="2.5" /><circle cx="279.30212603680104" cy="232.84409777713392" fill="white" id="652173" r="2.5" /><circle cx="611.869577652777" cy="361.2653980086198" fill="white" id="652185" r="2.5" /><circle cx="404.8558807639743" cy="229.80600787425047" fill="white" id="652189" r="2.5" /><circle cx="402.164171989702" cy="229.5683341743779" fill="white" id="652190" r="2.5" /><circle cx="496.272285251215" cy="398.27532653639497" fill="white" id="652217" r="2.5" /><circle cx="348.00584739568296" cy="531.7859440371628" fill="white" id="652241" r="2.5" /><circle cx="112.00940668001319" cy="334.23259805645716" fill="white" id="652237" r="2.5" /><circle cx="650.4369657101096" cy="276.999737760176" fill="white" id="651859" r="2.5" /><circle cx="287.0372135888399" cy="241.596690116389" fill="white" id="103963" r="2.5" /><circle cx="591.476785203545" cy="397.8671477909425" fill="white" id="16189" r="2.5" /><circle cx="893.545619220133" cy="397.91364916699973" fill="white" id="1134951" r="2.5" /><circle cx="280.5669431467883" cy="303.92920132108816" fill="white" id="16023" r="2.5" /><circle cx="336.9212190548817" cy="235.13299884344175" fill="white" id="1216329" r="2.5" /><circle cx="347.1922966917729" cy="345.9302775464445" fill="white" id="431058" r="2.5" /><circle cx="528.9509645024949" cy="162.30151028729094" fill="white" id="16135" r="2.5" /><circle cx="547.0588235294113" cy="186.93690596234552" fill="white" id="680105" r="2.5" /><circle cx="239.96567832967938" cy="252.7208526349303" fill="white" id="239442" r="2.5" /><circle cx="549.3469348841647" cy="214.5845574424985" fill="white" id="1529645" r="2.5" /><circle cx="287.0372135888399" cy="241.596690116389" fill="white" id="254023" r="2.5" /><circle cx="347.1922966917729" cy="345.9302775464445" fill="white" id="825988" r="2.5" /><circle cx="373.38481583881605" cy="249.21774897140108" fill="white" id="1525826" r="2.5" /><circle cx="486.7130644802475" cy="244.45394133459317" fill="white" id="652153" r="2.5" /><circle cx="308.38338576921956" cy="406.28389685862413" fill="white" id="1093840" r="2.5" /><circle cx="468.4304191692886" cy="728.1922560749398" fill="white" id="16248" r="2.5" /><circle cx="350.87869831887303" cy="285.2201476844559" fill="white" id="103948" r="2.5" /><circle cx="168.3668605205442" cy="429.2969111910048" fill="white" id="652231" r="2.5" /><circle cx="310.7763688943969" cy="287.95856205272383" fill="white" id="16349" r="2.5" /><circle cx="327.97851717672404" cy="272.78877981654205" fill="white" id="680065" r="2.5" /><circle cx="547.0588235294113" cy="186.93690596234552" fill="white" id="680102" r="2.5" /><circle cx="327.97851717672404" cy="272.78877981654205" fill="white" id="680179" r="2.5" /><circle cx="511.82190866622125" cy="610.021925855897" fill="white" id="680240" r="2.5" /><circle cx="237.34070613658824" cy="175.38389742011634" fill="white" id="825990" r="2.5" /><circle cx="354.1456128642692" cy="158.61240111949604" fill="white" id="510699" r="2.5" /><circle cx="402.164171989702" cy="229.5683341743779" fill="white" id="1059496" r="2.5" /><circle cx="340.7919407633401" cy="267.76663120158946" fill="white" id="652106" r="2.5" /><circle cx="291.0986112435261" cy="224.90786292882055" fill="white" id="1216315" r="2.5" /><circle cx="911.7138589633581" cy="335.08512328432005" fill="white" id="2217651" r="2.5" /><circle cx="126.60247243143718" cy="395.49557761165624" fill="white" id="2217707" r="2.5" /><circle cx="522.2709505195928" cy="237.6802408878576" fill="white" id="1529607" r="2.5" /><circle cx="624.5463501445961" cy="414.173630330917" fill="white" id="980476" r="2.5" /><circle cx="911.7583500174788" cy="334.9456191561116" fill="white" id="1134949" r="2.5" /><circle cx="924.3747417929891" cy="384.5729210560664" fill="white" id="1134950" r="2.5" /><circle cx="316.38541964597727" cy="399.10718448602245" fill="white" id="16035" r="2.5" /><circle cx="246.23891696062512" cy="123.36952488218955" fill="white" id="103972" r="2.5" /><circle cx="301.5794324212679" cy="375.9236651080618" fill="white" id="431071" r="2.5" /><circle cx="996.9746083198246" cy="291.8646776421192" fill="white" id="1135008" r="2.5" /><circle cx="897.5053230368302" cy="302.9371719650536" fill="white" id="1135009" r="2.5" /><circle cx="949.0450313026333" cy="276.61739311254536" fill="white" id="1135010" r="2.5" /><circle cx="391.10496710839874" cy="259.4532185251583" fill="white" id="582851" r="2.5" /><circle cx="470.3657800235164" cy="701.7846412898668" fill="white" id="16152" r="2.5" /><circle cx="391.10496710839874" cy="259.4532185251583" fill="white" id="582852" r="2.5" /><circle cx="986.7543776019321" cy="339.7352608907413" fill="white" id="1399998" r="2.5" /><circle cx="486.9037404264781" cy="667.2702866108638" fill="white" id="1400010" r="2.5" /><circle cx="115.0951790764915" cy="365.073344026351" fill="white" id="2217710" r="2.5" /><circle cx="412.7307973432478" cy="445.27788409850524" fill="white" id="1400012" r="2.5" /><circle cx="462.242984714144" cy="748.4823564977384" fill="white" id="16222" r="2.5" /><circle cx="358.4040423300584" cy="258.12534589755035" fill="white" id="1525825" r="2.5" /><circle cx="323.5325896971418" cy="307.0396266978506" fill="white" id="1093861" r="2.5" /><circle cx="337.0388025550588" cy="292.9032083742477" fill="white" id="79733" r="2.5" /><circle cx="337.0388025550588" cy="292.9032083742477" fill="white" id="96488" r="2.5" /><circle cx="350.87869831887303" cy="285.2201476844559" fill="white" id="96489" r="2.5" /><circle cx="260.5650363873274" cy="411.79689333204436" fill="white" id="1215000" r="2.5" /><circle cx="277.27778307433175" cy="209.51074063190225" fill="white" id="1356175" r="2.5" /><circle cx="323.5325896971418" cy="307.0396266978506" fill="white" id="1093860" r="2.5" /><circle cx="647.5005561381759" cy="313.40514839913374" fill="white" id="651861" r="2.5" /><circle cx="986.7543776019321" cy="339.7352608907413" fill="white" id="651877" r="2.5" /><circle cx="333.08863253567165" cy="323.1497700944234" fill="white" id="431062" r="2.5" /><circle cx="414.8091651571478" cy="333.59707925023145" fill="white" id="16365" r="2.5" /><circle cx="245.717736040932" cy="140.83854182374182" fill="white" id="171417" r="2.5" /><circle cx="536.7559665681497" cy="226.09623142822016" fill="white" id="1301364" r="2.5" /><circle cx="403.4639463565" cy="273.94614739860685" fill="white" id="1301378" r="2.5" /><circle cx="403.4639463565" cy="273.94614739860685" fill="white" id="1301379" r="2.5" /><circle cx="232.52296056185753" cy="435.1715850338203" fill="white" id="408812" r="2.5" /><circle cx="237.7157021641715" cy="100.0" fill="white" id="327161" r="2.5" /><circle cx="403.3463628563257" cy="281.8410476904494" fill="white" id="1356157" r="2.5" /><circle cx="395.13140750627696" cy="287.53488284858554" fill="white" id="1356158" r="2.5" /><circle cx="240.57266342517644" cy="156.19949638370224" fill="white" id="1356160" r="2.5" /><circle cx="177.63688943972954" cy="194.88864126938137" fill="white" id="1356168" r="2.5" /><circle cx="244.09381256554394" cy="161.95016655703176" fill="white" id="1356173" r="2.5" /><circle cx="395.03924746559784" cy="287.40054553992684" fill="white" id="1356188" r="2.5" /><circle cx="403.489369815998" cy="282.02705319471505" fill="white" id="1356189" r="2.5" /><circle cx="308.79333905361074" cy="217.76731829314002" fill="white" id="1356193" r="2.5" /><circle cx="115.79750214510527" cy="365.7088628325767" fill="white" id="1356212" r="2.5" /><circle cx="110.73505577271317" cy="323.94546030709296" fill="white" id="1399949" r="2.5" /><circle cx="275.42504846347026" cy="398.7971753122341" fill="white" id="1399950" r="2.5" /><circle cx="869.4950265357336" cy="360.50587553290814" fill="white" id="1399951" r="2.5" /><circle cx="196.49791845425273" cy="212.0579826763181" fill="white" id="1399964" r="2.5" /><circle cx="353.5036705119642" cy="365.388520019689" fill="white" id="1399969" r="2.5" /><circle cx="472.96215082467194" cy="239.1269503654019" fill="white" id="1399972" r="2.5" /><circle cx="237.11189500111203" cy="302.27065224145633" fill="white" id="1399979" r="2.5" /><circle cx="256.24304827279457" cy="292.4123605157801" fill="white" id="1399980" r="2.5" /><circle cx="425.13108971303217" cy="313.52398524907" fill="white" id="1399994" r="2.5" /><circle cx="496.272285251215" cy="398.27532653639497" fill="white" id="1400021" r="2.5" /><circle cx="284.80948295039235" cy="486.2455964113194" fill="white" id="1400022" r="2.5" /><circle cx="401.6557027997593" cy="343.5897082845664" fill="white" id="1400023" r="2.5" /><circle cx="203.22242349127566" cy="322.72092407069874" fill="white" id="1400024" r="2.5" /><circle cx="949.0450313026333" cy="276.61739311254536" fill="white" id="1400026" r="2.5" /><circle cx="264.25143801442755" cy="188.34744770296868" fill="white" id="1928522" r="2.5" /><circle cx="264.25143801442755" cy="188.34744770296868" fill="white" id="1928523" r="2.5" /><circle cx="590.3231957288567" cy="170.03623917268965" fill="white" id="1399983" r="2.5" /><circle cx="488.83274541583074" cy="747.5936635329543" fill="white" id="1399996" r="2.5" /><circle cx="336.9212190548817" cy="235.13299884344175" fill="white" id="1216328" r="2.5" /><circle cx="407.1980169701585" cy="228.19396017071264" fill="white" id="652188" r="2.5" /><circle cx="195.366574506625" cy="467.6088782485662" fill="white" id="327163" r="2.5" /><circle cx="458.72183557377645" cy="370.7671791844872" fill="white" id="480300" r="2.5" /><circle cx="938.1669685702478" cy="368.28710579436404" fill="white" id="16006" r="2.5" /><circle cx="260.08199065687984" cy="176.42759497179452" fill="white" id="15958" r="2.5" /><circle cx="240.69342485778833" cy="191.4010380645379" fill="white" id="240415" r="2.5" /><circle cx="468.4304191692886" cy="728.1922560749398" fill="white" id="16042" r="2.5" /><circle cx="357.4697301935365" cy="245.32196702114177" fill="white" id="1356202" r="2.5" /><circle cx="373.38481583881605" cy="249.21774897140108" fill="white" id="1525827" r="2.5" /><circle cx="239.96567832967938" cy="252.7208526349303" fill="white" id="254019" r="2.5" /><circle cx="186.05841039819407" cy="411.0890390519763" fill="white" id="652166" r="2.5" /><circle cx="383.8719928814303" cy="215.15807441394452" fill="white" id="510694" r="2.5" /><circle cx="239.6256395589041" cy="148.8316116872852" fill="white" id="825961" r="2.5" /><circle cx="310.7763688943969" cy="287.95856205272383" fill="white" id="16029" r="2.5" /><circle cx="450.97721422442487" cy="357.59178929951065" fill="white" id="1480321" r="2.5" /><circle cx="304.8654145612868" cy="243.1364023460845" fill="white" id="229186" r="2.5" /><circle cx="511.82190866622125" cy="610.021925855897" fill="white" id="980432" r="2.5" /><circle cx="1057.8129468967486" cy="404.3153386052407" fill="white" id="1655651" r="2.5" /><circle cx="277.27778307433175" cy="209.51074063190225" fill="white" id="103956" r="2.5" /><circle cx="202.28811135475377" cy="232.49275404687475" fill="white" id="1399999" r="2.5" /><circle cx="362.06502049766345" cy="233.12827285310044" fill="white" id="937556" r="2.5" /><circle cx="340.7919407633401" cy="267.76663120158946" fill="white" id="96491" r="2.5" /><circle cx="439.16801728795224" cy="233.11277239441472" fill="white" id="1525816" r="2.5" /><circle cx="644.3575809578292" cy="133.1141465774792" fill="white" id="1547731" r="2.5" /><circle cx="647.5291575301114" cy="131.0267514741228" fill="white" id="1547750" r="2.5" /><circle cx="124.98490482092429" cy="395.753918589801" fill="white" id="1547770" r="2.5" /><circle cx="1024.7147805637646" cy="433.6008718867533" fill="white" id="1655652" r="2.5" /><circle cx="1057.8129468967486" cy="404.3153386052407" fill="white" id="1655653" r="2.5" /><circle cx="413.3155369116844" cy="288.4804108285629" fill="white" id="1726393" r="2.5" /><circle cx="413.3155369116844" cy="288.4804108285629" fill="white" id="1726407" r="2.5" /><circle cx="500.25105666253484" cy="636.1505323845898" fill="white" id="1170570" r="2.5" /><circle cx="240.69342485778833" cy="191.4010380645379" fill="white" id="103943" r="2.5" /><circle cx="287.0372135888399" cy="241.596690116389" fill="white" id="240421" r="2.5" /><circle cx="310.00413131216726" cy="529.5228770686767" fill="white" id="16355" r="2.5" /><circle cx="542.7590809419388" cy="181.2895721803033" fill="white" id="16018" r="2.5" /><circle cx="362.06502049766345" cy="233.12827285310044" fill="white" id="937555" r="2.5" /><circle cx="209.87383608224508" cy="318.34462790107125" fill="white" id="16038" r="2.5" /><circle cx="256.24304827279457" cy="292.4123605157801" fill="white" id="16141" r="2.5" /><circle cx="239.96567832967938" cy="252.7208526349303" fill="white" id="16144" r="2.5" /><circle cx="295.95449200749954" cy="558.9479144783979" fill="white" id="16145" r="2.5" /><circle cx="495.31890552006746" cy="559.2630904717358" fill="white" id="16304" r="2.5" /><circle cx="492.89096513807937" cy="525.208582733829" fill="white" id="16305" r="2.5" /><circle cx="249.55667842501725" cy="255.35593061194766" fill="white" id="254015" r="2.5" /><circle cx="323.5325896971418" cy="307.0396266978506" fill="white" id="1093895" r="2.5" /><circle cx="433.16172498172546" cy="327.3865621358425" fill="white" id="629656" r="2.5" /><circle cx="308.79333905361074" cy="217.76731829314002" fill="white" id="651976" r="2.5" /><circle cx="630.8418343026023" cy="335.60180524057273" fill="white" id="651978" r="2.5" /><circle cx="647.3639050433788" cy="313.45681659474064" fill="white" id="651982" r="2.5" /><circle cx="271.4272094575276" cy="303.4641875604424" fill="white" id="937578" r="2.5" /><circle cx="245.78765055454795" cy="206.09030608138812" fill="white" id="103955" r="2.5" /><circle cx="500.25105666253484" cy="636.1505323845898" fill="white" id="980448" r="2.5" /><circle cx="402.164171989702" cy="229.5683341743779" fill="white" id="1059495" r="2.5" /><circle cx="357.4697301935365" cy="245.32196702114177" fill="white" id="1400008" r="2.5" /><circle cx="225.34718911876024" cy="441.36660168952346" fill="white" id="408813" r="2.5" /><circle cx="1083.7957225029384" cy="371.7798758187572" fill="white" id="1894161" r="2.5" /><circle cx="240.75698350653184" cy="156.10649363158777" fill="white" id="2333216" r="2.5" /><circle cx="331.91279753392314" cy="138.97331996160895" fill="white" id="2333187" r="2.5" /><circle cx="330.3842120316518" cy="387.19249857436125" fill="white" id="16203" r="2.5" /><circle cx="331.91279753392314" cy="138.97331996160895" fill="white" id="825968" r="2.5" /><circle cx="271.4272094575276" cy="303.4641875604424" fill="white" id="937597" r="2.5" /><circle cx="475.59665681507585" cy="475.20410300579323" fill="white" id="16184" r="2.5" /><circle cx="159.96758508914002" cy="354.4193620880052" fill="white" id="16396" r="2.5" /><circle cx="1083.7957225029384" cy="371.7798758187572" fill="white" id="1894162" r="2.5" /><circle cx="178.2025614135434" cy="192.5584056466027" fill="white" id="1134961" r="2.5" /><circle cx="464.953761083039" cy="239.98464241281445" fill="white" id="1525849" r="2.5" /><circle cx="348.00584739568296" cy="531.7859440371628" fill="white" id="826005" r="2.5" /><circle cx="470.3816696857016" cy="673.8269806359622" fill="white" id="16153" r="2.5" /><circle cx="232.52296056185753" cy="435.1715850338203" fill="white" id="408810" r="2.5" /><circle cx="647.3639050433788" cy="313.45681659474064" fill="white" id="651983" r="2.5" /><circle cx="442.276035211491" cy="416.0543526517356" fill="white" id="16328" r="2.5" /><circle cx="439.10128070677115" cy="337.3326897940836" fill="white" id="629648" r="2.5" /><circle cx="664.3245304604822" cy="292.6500342156527" fill="white" id="651857" r="2.5" /><circle cx="304.8654145612868" cy="243.1364023460845" fill="white" id="1216468" r="2.5" /><circle cx="168.3668605205442" cy="429.2969111910048" fill="white" id="652232" r="2.5" /><circle cx="647.5005561381759" cy="313.40514839913374" fill="white" id="651860" r="2.5" /><circle cx="398.6207773222741" cy="307.41163770638195" fill="white" id="254018" r="2.5" /><circle cx="301.5794324212679" cy="375.9236651080618" fill="white" id="1301422" r="2.5" /><circle cx="417.17672482283" cy="295.6209554642435" fill="white" id="1399960" r="2.5" /><circle cx="942.0853592652618" cy="332.61538353333293" fill="white" id="1525851" r="2.5" /><circle cx="237.7157021641715" cy="100.0" fill="white" id="550639" r="2.5" /><circle cx="333.08863253567165" cy="323.1497700944234" fill="white" id="1399981" r="2.5" /><circle cx="605.4692217243443" cy="239.58163048694834" fill="white" id="651854" r="2.5" /><circle cx="463.3044141481558" cy="225.28504075690154" fill="white" id="16107" r="2.5" /><circle cx="381.30422347220747" cy="220.3042266984198" fill="white" id="937586" r="2.5" /><circle cx="450.97721422442487" cy="357.59178929951065" fill="white" id="480297" r="2.5" /><circle cx="598.3347634029301" cy="381.2816569946246" fill="white" id="651931" r="2.5" /><circle cx="623.8662726030427" cy="286.3723484469711" fill="white" id="16056" r="2.5" /><circle cx="222.63959068230275" cy="355.8557379264501" fill="white" id="651915" r="2.5" /><circle cx="237.11189500111203" cy="302.27065224145633" fill="white" id="16140" r="2.5" /><circle cx="254.60005720278372" cy="242.55255173550242" fill="white" id="229179" r="2.5" /><circle cx="373.8201925827053" cy="244.2421017325057" fill="white" id="680129" r="2.5" /><circle cx="358.4040423300584" cy="258.12534589755035" fill="white" id="1525824" r="2.5" /><circle cx="624.3620300632407" cy="414.31830127867505" fill="white" id="2255700" r="2.5" /><circle cx="254.60005720278372" cy="242.55255173550242" fill="white" id="229178" r="2.5" /><circle cx="590.5678965265181" cy="191.3028684928737" fill="white" id="2316321" r="2.5" /><circle cx="425.13108971303217" cy="313.52398524907" fill="white" id="629652" r="2.5" /><circle cx="398.6207773222741" cy="307.41163770638195" fill="white" id="254014" r="2.5" /><circle cx="1012.7784663298049" cy="322.7002567924634" fill="white" id="652143" r="2.5" /><circle cx="302.5900149362809" cy="270.66521697626445" fill="white" id="240416" r="2.5" /><circle cx="383.8719928814303" cy="215.15807441394452" fill="white" id="510695" r="2.5" /><circle cx="287.0372135888399" cy="241.596690116389" fill="white" id="2303198" r="2.5" /><circle cx="221.04109066641266" cy="375.3914826931234" fill="white" id="652096" r="2.5" /><circle cx="590.5678965265181" cy="191.3028684928737" fill="white" id="2316320" r="2.5" /><circle cx="458.72183557377645" cy="370.7671791844872" fill="white" id="937554" r="2.5" /><circle cx="304.8654145612868" cy="243.1364023460845" fill="white" id="1216467" r="2.5" /><circle cx="1012.7784663298049" cy="322.7002567924634" fill="white" id="15941" r="2.5" /><circle cx="590.3740426478528" cy="247.59020080917747" fill="white" id="15943" r="2.5" /><circle cx="1100.0" cy="334.76478047143235" fill="white" id="15950" r="2.5" /><circle cx="183.43343820510293" cy="337.65819942655764" fill="white" id="15951" r="2.5" /><circle cx="1100.0" cy="334.76478047143235" fill="white" id="15952" r="2.5" /><circle cx="522.2709505195928" cy="237.6802408878576" fill="white" id="15959" r="2.5" /><circle cx="536.7559665681497" cy="226.09623142822016" fill="white" id="15966" r="2.5" /><circle cx="536.7559665681497" cy="226.09623142822016" fill="white" id="15967" r="2.5" /><circle cx="500.3686401627092" cy="249.55359224301122" fill="white" id="15978" r="2.5" /><circle cx="403.4639463565" cy="273.94614739860685" fill="white" id="15979" r="2.5" /><circle cx="403.4639463565" cy="273.94614739860685" fill="white" id="15982" r="2.5" /><circle cx="598.3347634029301" cy="381.2816569946246" fill="white" id="15985" r="2.5" /><circle cx="439.10128070677115" cy="337.3326897940836" fill="white" id="15988" r="2.5" /><circle cx="295.95449200749954" cy="558.9479144783979" fill="white" id="15992" r="2.5" /><circle cx="275.42504846347026" cy="398.7971753122341" fill="white" id="15996" r="2.5" /><circle cx="1073.1019798519083" cy="309.53520054665955" fill="white" id="16001" r="2.5" /><circle cx="168.3668605205442" cy="429.2969111910048" fill="white" id="16015" r="2.5" /><circle cx="168.3668605205442" cy="429.2969111910048" fill="white" id="16016" r="2.5" /><circle cx="427.3492865541669" cy="399.4120268401877" fill="white" id="16019" r="2.5" /><circle cx="416.02631328057953" cy="375.9391655667476" fill="white" id="16020" r="2.5" /><circle cx="416.02631328057953" cy="375.9391655667476" fill="white" id="16021" r="2.5" /><circle cx="304.8685924937244" cy="271.04756162393187" fill="white" id="16026" r="2.5" /><circle cx="304.8685924937244" cy="271.04756162393187" fill="white" id="16028" r="2.5" /><circle cx="298.36654272730254" cy="414.75231412191266" fill="white" id="16032" r="2.5" /><circle cx="316.38541964597727" cy="399.10718448602245" fill="white" id="16036" r="2.5" /><circle cx="330.3842120316518" cy="387.19249857436125" fill="white" id="16037" r="2.5" /><circle cx="222.90018114214934" cy="309.59720238140255" fill="white" id="16041" r="2.5" /><circle cx="209.87383608224508" cy="318.34462790107125" fill="white" id="16043" r="2.5" /><circle cx="222.90018114214934" cy="309.59720238140255" fill="white" id="16044" r="2.5" /><circle cx="133.17125877903743" cy="386.0557982705686" fill="white" id="16053" r="2.5" /><circle cx="144.19232847109797" cy="362.05592140170296" fill="white" id="16054" r="2.5" /><circle cx="133.17125877903743" cy="386.0557982705686" fill="white" id="16055" r="2.5" /><circle cx="189.12829313248722" cy="203.20722076536214" fill="white" id="16058" r="2.5" /><circle cx="189.12829313248722" cy="203.20722076536214" fill="white" id="16059" r="2.5" /><circle cx="470.3816696857016" cy="673.8269806359622" fill="white" id="16062" r="2.5" /><circle cx="470.95369752439063" cy="432.2213310635016" fill="white" id="16068" r="2.5" /><circle cx="470.95369752439063" cy="432.2213310635016" fill="white" id="16069" r="2.5" /><circle cx="417.17672482283" cy="295.6209554642435" fill="white" id="16071" r="2.5" /><circle cx="502.9268757746192" cy="651.7646611031453" fill="white" id="16072" r="2.5" /><circle cx="408.793339053611" cy="321.51705511261343" fill="white" id="16074" r="2.5" /><circle cx="385.1749451806659" cy="480.32958801199635" fill="white" id="16085" r="2.5" /><circle cx="385.1749451806659" cy="480.32958801199635" fill="white" id="16086" r="2.5" /><circle cx="338.7548860711232" cy="379.95895118656625" fill="white" id="16096" r="2.5" /><circle cx="338.7548860711232" cy="379.95895118656625" fill="white" id="16097" r="2.5" /><circle cx="418.51781231131116" cy="260.3987465051357" fill="white" id="16106" r="2.5" /><circle cx="277.27778307433175" cy="209.51074063190225" fill="white" id="16108" r="2.5" /><circle cx="427.3492865541669" cy="399.4120268401877" fill="white" id="16109" r="2.5" /><circle cx="464.73766167731327" cy="212.07348313500384" fill="white" id="16110" r="2.5" /><circle cx="464.73766167731327" cy="212.07348313500384" fill="white" id="16111" r="2.5" /><circle cx="472.96215082467194" cy="239.1269503654019" fill="white" id="16114" r="2.5" /><circle cx="366.2535354498367" cy="359.62751620722344" fill="white" id="16120" r="2.5" /><circle cx="366.2535354498367" cy="359.62751620722344" fill="white" id="16121" r="2.5" /><circle cx="223.30695649410575" cy="260.63642020504494" fill="white" id="16122" r="2.5" /><circle cx="223.30695649410575" cy="260.63642020504494" fill="white" id="16126" r="2.5" /><circle cx="383.3381002319896" cy="468.9780854327185" fill="white" id="16132" r="2.5" /><circle cx="399.0688657959137" cy="455.0018385155227" fill="white" id="16133" r="2.5" /><circle cx="258.1752311945848" cy="434.360394362465" fill="white" id="16137" r="2.5" /><circle cx="258.1752311945848" cy="434.360394362465" fill="white" id="16138" r="2.5" /><circle cx="482.6707344201869" cy="198.3969117524603" fill="white" id="16139" r="2.5" /><circle cx="256.9835065306511" cy="313.6686561968281" fill="white" id="16146" r="2.5" /><circle cx="239.96567832967938" cy="252.7208526349303" fill="white" id="16147" r="2.5" /><circle cx="252.96659993008566" cy="417.8575726791255" fill="white" id="16149" r="2.5" /><circle cx="236.1839387294625" cy="326.4823687123727" fill="white" id="16155" r="2.5" /><circle cx="222.63959068230275" cy="355.8557379264501" fill="white" id="16156" r="2.5" /><circle cx="502.9268757746192" cy="651.7646611031453" fill="white" id="16157" r="2.5" /><circle cx="236.1839387294625" cy="326.4823687123727" fill="white" id="16159" r="2.5" /><circle cx="591.476785203545" cy="397.8671477909425" fill="white" id="16160" r="2.5" /><circle cx="144.19232847109797" cy="362.05592140170296" fill="white" id="16170" r="2.5" /><circle cx="135.32271903899385" cy="369.6253120611081" fill="white" id="16171" r="2.5" /><circle cx="157.81930276162404" cy="300.255592611979" fill="white" id="16172" r="2.5" /><circle cx="120.74236501732025" cy="317.8847809600118" fill="white" id="16174" r="2.5" /><circle cx="298.31251787586893" cy="512.6997125724497" fill="white" id="16177" r="2.5" /><circle cx="284.80948295039235" cy="486.2455964113194" fill="white" id="16179" r="2.5" /><circle cx="313.54752597959794" cy="546.6043825430488" fill="white" id="16181" r="2.5" /><circle cx="473.60091524454214" cy="390.70593587702655" fill="white" id="16182" r="2.5" /><circle cx="473.60091524454214" cy="390.70593587702655" fill="white" id="16183" r="2.5" /><circle cx="469.6602790224678" cy="416.4005295624451" fill="white" id="16185" r="2.5" /><circle cx="469.6602790224678" cy="416.4005295624451" fill="white" id="16186" r="2.5" /><circle cx="574.725903327295" cy="416.20935723862976" fill="white" id="16188" r="2.5" /><circle cx="408.793339053611" cy="321.51705511261343" fill="white" id="16190" r="2.5" /><circle cx="379.9663139161667" cy="356.07791116763696" fill="white" id="16191" r="2.5" /><circle cx="439.10128070677115" cy="337.3326897940836" fill="white" id="16192" r="2.5" /><circle cx="379.9663139161667" cy="356.07791116763696" fill="white" id="16195" r="2.5" /><circle cx="208.5645279181371" cy="389.56406875364746" fill="white" id="16196" r="2.5" /><circle cx="254.08523214796298" cy="154.2722726868264" fill="white" id="16208" r="2.5" /><circle cx="873.3021895954483" cy="324.4208077068381" fill="white" id="16210" r="2.5" /><circle cx="873.3021895954483" cy="324.4208077068381" fill="white" id="16211" r="2.5" /><circle cx="186.05841039819407" cy="411.0890390519763" fill="white" id="16217" r="2.5" /><circle cx="195.9068230209437" cy="400.90523769382594" fill="white" id="16219" r="2.5" /><circle cx="488.83274541583074" cy="747.5936635329543" fill="white" id="16223" r="2.5" /><circle cx="442.276035211491" cy="416.0543526517356" fill="white" id="16224" r="2.5" /><circle cx="100.0" cy="351.3812721851217" fill="white" id="16227" r="2.5" /><circle cx="559.1921695744738" cy="199.03243055868603" fill="white" id="16236" r="2.5" /><circle cx="202.28811135475377" cy="232.49275404687475" fill="white" id="16238" r="2.5" /><circle cx="559.1921695744738" cy="199.03243055868603" fill="white" id="16241" r="2.5" /><circle cx="138.0462071376365" cy="310.2740557440991" fill="white" id="16242" r="2.5" /><circle cx="157.81930276162404" cy="300.255592611979" fill="white" id="16244" r="2.5" /><circle cx="623.8662726030427" cy="286.3723484469711" fill="white" id="16245" r="2.5" /><circle cx="453.5449836336477" cy="214.1402109600881" fill="white" id="16249" r="2.5" /><circle cx="432.5038929672353" cy="224.38601415298143" fill="white" id="16252" r="2.5" /><circle cx="453.5449836336477" cy="214.1402109600881" fill="white" id="16253" r="2.5" /><circle cx="432.5038929672353" cy="224.38601415298143" fill="white" id="16254" r="2.5" /><circle cx="253.48778084977877" cy="169.70039590111617" fill="white" id="16258" r="2.5" /><circle cx="462.242984714144" cy="748.4823564977384" fill="white" id="16259" r="2.5" /><circle cx="543.2675501318843" cy="435.69343380965944" fill="white" id="16265" r="2.5" /><circle cx="543.2675501318843" cy="435.69343380965944" fill="white" id="16266" r="2.5" /><circle cx="590.3454412559172" cy="178.5304905338" fill="white" id="16268" r="2.5" /><circle cx="590.3454412559172" cy="178.5304905338" fill="white" id="16269" r="2.5" /><circle cx="253.48778084977877" cy="169.70039590111617" fill="white" id="16270" r="2.5" /><circle cx="632.9678711030607" cy="141.4895610886533" fill="white" id="16272" r="2.5" /><circle cx="632.9678711030607" cy="141.4895610886533" fill="white" id="16273" r="2.5" /><circle cx="486.7130644802475" cy="244.45394133459317" fill="white" id="16275" r="2.5" /><circle cx="463.3044141481558" cy="225.28504075690154" fill="white" id="16277" r="2.5" /><circle cx="380.1411002002094" cy="245.3116333820057" fill="white" id="16285" r="2.5" /><circle cx="380.1411002002094" cy="245.3116333820057" fill="white" id="16286" r="2.5" /><circle cx="470.3657800235164" cy="701.7846412898668" fill="white" id="16288" r="2.5" /><circle cx="482.6707344201869" cy="198.3969117524603" fill="white" id="16289" r="2.5" /><circle cx="475.59665681507585" cy="475.20410300579323" fill="white" id="16291" r="2.5" /><circle cx="497.3877395366576" cy="186.62172996904422" fill="white" id="16293" r="2.5" /><circle cx="528.9509645024949" cy="162.30151028729094" fill="white" id="16294" r="2.5" /><circle cx="514.5867098865472" cy="173.001993601694" fill="white" id="16295" r="2.5" /><circle cx="495.31890552006746" cy="559.2630904717358" fill="white" id="16301" r="2.5" /><circle cx="492.89096513807937" cy="525.208582733829" fill="white" id="16303" r="2.5" /><circle cx="498.02332602408734" cy="586.8125723801512" fill="white" id="16307" r="2.5" /><circle cx="497.3877395366576" cy="186.62172996904422" fill="white" id="16310" r="2.5" /><circle cx="486.9037404264781" cy="667.2702866108638" fill="white" id="16312" r="2.5" /><circle cx="297.9756570375313" cy="293.6317299325879" fill="white" id="16313" r="2.5" /><circle cx="574.725903327295" cy="416.20935723862976" fill="white" id="16314" r="2.5" /><circle cx="282.4514570820229" cy="281.515538058012" fill="white" id="16317" r="2.5" /><circle cx="282.4514570820229" cy="281.515538058012" fill="white" id="16318" r="2.5" /><circle cx="297.9756570375313" cy="293.6317299325879" fill="white" id="16321" r="2.5" /><circle cx="412.7307973432478" cy="445.27788409850524" fill="white" id="16323" r="2.5" /><circle cx="428.4361394476739" cy="455.2188449371599" fill="white" id="16324" r="2.5" /><circle cx="536.7559665681497" cy="226.09623142822016" fill="white" id="16325" r="2.5" /><circle cx="453.08736136269806" cy="433.35803136729436" fill="white" id="16326" r="2.5" /><circle cx="428.4361394476739" cy="455.2188449371599" fill="white" id="16327" r="2.5" /><circle cx="453.08736136269806" cy="433.35803136729436" fill="white" id="16329" r="2.5" /><circle cx="524.8895668478087" cy="420.2084755801763" fill="white" id="16357" r="2.5" /><circle cx="524.8895668478087" cy="420.2084755801763" fill="white" id="16358" r="2.5" /><circle cx="473.60091524454214" cy="390.70593587702655" fill="white" id="16361" r="2.5" /><circle cx="473.60091524454214" cy="390.70593587702655" fill="white" id="16362" r="2.5" /><circle cx="414.8091651571478" cy="333.59707925023145" fill="white" id="16367" r="2.5" /><circle cx="401.6557027997593" cy="343.5897082845664" fill="white" id="16368" r="2.5" /><circle cx="252.96659993008566" cy="417.8575726791255" fill="white" id="16369" r="2.5" /><circle cx="203.22242349127566" cy="322.72092407069874" fill="white" id="16372" r="2.5" /><circle cx="183.43343820510293" cy="337.65819942655764" fill="white" id="16373" r="2.5" /><circle cx="869.4950265357336" cy="360.50587553290814" fill="white" id="16377" r="2.5" /><circle cx="996.9746083198246" cy="291.8646776421192" fill="white" id="16383" r="2.5" /><circle cx="872.5172402834711" cy="324.5706454741826" fill="white" id="16385" r="2.5" /><circle cx="897.5053230368302" cy="302.9371719650536" fill="white" id="16387" r="2.5" /><circle cx="537.505958623319" cy="173.7925169947772" fill="white" id="16392" r="2.5" /><circle cx="537.505958623319" cy="173.7925169947772" fill="white" id="16393" r="2.5" /><circle cx="159.96758508914002" cy="354.4193620880052" fill="white" id="16397" r="2.5" /><circle cx="112.00940668001319" cy="334.23259805645716" fill="white" id="16399" r="2.5" /><circle cx="368.5384688721526" cy="520.4706091948062" fill="white" id="16402" r="2.5" /><circle cx="368.5384688721526" cy="520.4706091948062" fill="white" id="16403" r="2.5" /><circle cx="389.20774144341647" cy="502.84142084677336" fill="white" id="16404" r="2.5" /><circle cx="389.20774144341647" cy="502.84142084677336" fill="white" id="16405" r="2.5" /><circle cx="207.86856071439854" cy="269.5646844094296" fill="white" id="16408" r="2.5" /><circle cx="207.86856071439854" cy="269.5646844094296" fill="white" id="16409" r="2.5" /><circle cx="188.11771061747137" cy="281.38636756893965" fill="white" id="16410" r="2.5" /><circle cx="188.11771061747137" cy="281.38636756893965" fill="white" id="16411" r="2.5" /><circle cx="214.7487844408413" cy="252.82935584576725" fill="white" id="16413" r="2.5" /><circle cx="298.36654272730254" cy="414.75231412191266" fill="white" id="16416" r="2.5" /><circle cx="511.82190866622125" cy="610.021925855897" fill="white" id="1301381" r="2.5" /><circle cx="110.73505577271317" cy="323.94546030709296" fill="white" id="652119" r="2.5" /><circle cx="256.9835065306511" cy="313.6686561968281" fill="white" id="16025" r="2.5" /><circle cx="542.7590809419388" cy="181.2895721803033" fill="white" id="16017" r="2.5" /><circle cx="340.7919407633401" cy="267.76663120158946" fill="white" id="79736" r="2.5" /><circle cx="291.0986112435261" cy="224.90786292882055" fill="white" id="87206" r="2.5" /><circle cx="302.5900149362809" cy="270.66521697626445" fill="white" id="103942" r="2.5" /><circle cx="245.717736040932" cy="140.83854182374182" fill="white" id="103945" r="2.5" /><circle cx="195.366574506625" cy="467.6088782485662" fill="white" id="103947" r="2.5" /><circle cx="295.95449200749954" cy="558.9479144783979" fill="white" id="103952" r="2.5" /><circle cx="402.164171989702" cy="229.5683341743779" fill="white" id="103968" r="2.5" /><circle cx="236.701941716718" cy="109.63095166490305" fill="white" id="103970" r="2.5" /><circle cx="236.701941716718" cy="109.63095166490305" fill="white" id="103971" r="2.5" /><circle cx="366.4156100041318" cy="182.4417729427817" fill="white" id="510675" r="2.5" /><circle cx="872.5172402834711" cy="324.5706454741826" fill="white" id="1135007" r="2.5" /><circle cx="239.6256395589041" cy="148.8316116872852" fill="white" id="103939" r="2.5" /><circle cx="308.79333905361074" cy="217.76731829314002" fill="white" id="229180" r="2.5" /><circle cx="239.96567832967938" cy="252.7208526349303" fill="white" id="229184" r="2.5" /><circle cx="239.96567832967938" cy="252.7208526349303" fill="white" id="240413" r="2.5" /><circle cx="277.27778307433175" cy="209.51074063190225" fill="white" id="240419" r="2.5" /><circle cx="249.55667842501725" cy="255.35593061194766" fill="white" id="254016" r="2.5" /><circle cx="271.08081482187714" cy="268.4951527599296" fill="white" id="254022" r="2.5" /><circle cx="271.08081482187714" cy="268.4951527599296" fill="white" id="254024" r="2.5" /><circle cx="302.5900149362809" cy="270.66521697626445" fill="white" id="254026" r="2.5" /><circle cx="302.5900149362809" cy="270.66521697626445" fill="white" id="254027" r="2.5" /><circle cx="155.25788921727644" cy="444.0843487795192" fill="white" id="2136386" r="2.5" /><circle cx="260.08199065687984" cy="176.42759497179452" fill="white" id="15957" r="2.5" /><circle cx="308.38338576921956" cy="406.28389685862413" fill="white" id="1093839" r="2.5" /><circle cx="590.3231957288567" cy="170.03623917268965" fill="white" id="2316319" r="2.5" /><circle cx="297.9756570375313" cy="293.6317299325879" fill="white" id="254028" r="2.5" /><circle cx="297.9756570375313" cy="293.6317299325879" fill="white" id="254029" r="2.5" /><circle cx="138.0462071376365" cy="310.2740557440991" fill="white" id="652130" r="2.5" /><circle cx="155.25788921727644" cy="444.0843487795192" fill="white" id="1356197" r="2.5" /><circle cx="366.4156100041318" cy="182.4417729427817" fill="white" id="510683" r="2.5" /><circle cx="407.57619093017934" cy="228.60213891616513" fill="white" id="1525864" r="2.5" /><circle cx="418.51781231131116" cy="260.3987465051357" fill="white" id="1399971" r="2.5" /><circle cx="630.8418343026023" cy="335.60180524057273" fill="white" id="87233" r="2.5" /><circle cx="246.23891696062512" cy="123.36952488218955" fill="white" id="103973" r="2.5" /><circle cx="529.5039247465584" cy="465.00996800854347" fill="white" id="652040" r="2.5" /><circle cx="195.9068230209437" cy="400.90523769382594" fill="white" id="825987" r="2.5" /></svg>