<?xml version="1.0" encoding="utf-8" ?>
<svg baseProfile="full" height="1713.9409068557552" version="1.1" width="1200" xmlns="http://www.w3.org/2000/svg" xmlns:ev="http://www.w3.org/2001/xml-events" xmlns:xlink="http://www.w3.org/1999/xlink"><defs /><rect fill="#222B38" height="1713.9409068557552" rx="0" ry="0" width="1200" x="0" y="0" /><path class="route-100001" d="M 295.7934580774165 494.3886986187444 L 312.8679419423595 494.5888517535137" fill="none" stroke="#e1081c" stroke-width="3" /><path class="route-100001" d="M 312.8679419423595 494.5888517535137 L 332.52996824629287 494.15808739823177" fill="none" stroke="#e1081c" stroke-width="3" /><path class="route-100001" d="M 353.15064880841146 495.1893111578527 L 332.52996824629287 494.15808739823177" fill="none" stroke="#e1081c" stroke-width="3" /><path class="route-100001" d="M 353.15064880841146 495.1893111578527 L 367.05525584257043 495.78977056219173" fill="none" stroke="#e1081c" stroke-width="3" /><path class="route-100001" d="M 367.05525584257043 495.78977056219173 L 380.9214068319906 496.3858788114378" fill="none" stroke="#e1081c" stroke-width="3" /><path class="route-100001" d="M 406.156812763011 497.1647355750197 L 380.9214068319906 496.3858788114378" fill="none" stroke="#e1081c" stroke-width="3" /><path class="route-100001" d="M 406.25490894425036 495.1671427388225 L 428.6720361678347 496.26798498011584" fill="none" stroke="#e1081c" stroke-width="3" /><path class="route-100007" d="M 406.0587165817716 499.16232841121683 L 428.4758438053559 500.26317065251015" fill="none" stroke="#f08c51" stroke-width="3" /><path class="route-100001" d="M 428.61704414711716 496.26604236242736 L 450.416127794508 496.7359671136694" fill="none" stroke="#e1081c" stroke-width="3" /><path class="route-100007" d="M 428.5308358260734 500.26511327019864 L 450.32991947346426 500.7350380214407" fill="none" stroke="#f08c51" stroke-width="3" /><path class="route-100001" d="M 472.003079884162 499.210835953895 L 450.1490590299981 496.7480821650834" fill="none" stroke="#e1081c" stroke-width="3" /><path class="route-100007" d="M 472.451009092138 503.18567675883827 L 450.59698823797413 500.7229229700267" fill="none" stroke="#f08c51" stroke-width="3" /><path class="route-100001" d="M 489.96037244941834 498.01924923859974 L 472.3612382597987 499.2027634268751" fill="none" stroke="#e1081c" stroke-width="3" /><path class="route-100007" d="M 489.6919849061209 502.01023509758284 L 472.0928507165013 503.1937492858582" fill="none" stroke="#f08c51" stroke-width="3" /><path class="route-100001" d="M 490.0344911197175 498.0256202697327 L 513.8415296746492 500.51883214428756" fill="none" stroke="#e1081c" stroke-width="3" /><path class="route-100007" d="M 489.6178662358218 502.00386406644986 L 513.4249047907534 504.4970759410047" fill="none" stroke="#f08c51" stroke-width="3" /><path class="route-100001" d="M 547.4356090668355 498.79091885435423 L 513.5997834155536 498.5080937726028" fill="none" stroke="#e1081c" stroke-width="3" /><path class="route-100009" d="M 547.4690428839832 502.79077912439755 L 513.6332172327013 502.50795404264613" fill="none" stroke="#f08f84" stroke-width="3" /><path class="route-100007" d="M 547.502476701131 506.79063939444086 L 513.6666510498491 506.50781431268945" fill="none" stroke="#f08c51" stroke-width="3" /><path class="route-100001" d="M 576.5137274936325 494.6688463960831 L 548.0480138043795 498.8329018305271" fill="none" stroke="#e1081c" stroke-width="3" /><path class="route-100009" d="M 575.9347565732362 498.62672368995356 L 547.4690428839832 502.79077912439755" fill="none" stroke="#f08f84" stroke-width="3" /><path class="route-100007" d="M 575.3557856528399 502.58460098382403 L 546.8900719635869 506.748656418268" fill="none" stroke="#f08c51" stroke-width="3" /><path class="route-100001" d="M 574.8147806972028 496.9697221700076 L 594.0565373693274 483.96411956441176" fill="none" stroke="#e1081c" stroke-width="3" /><path class="route-100009" d="M 577.0547324492696 500.2837252098995 L 596.2964891213943 487.27812260430363" fill="none" stroke="#f08f84" stroke-width="3" /><path class="route-100001" d="M 596.172558145497 483.8867928118231 L 620.2954856393693 497.7408706626732" fill="none" stroke="#e1081c" stroke-width="3" /><path class="route-100009" d="M 594.1804683452248 487.3554493568923 L 618.3033958390971 501.2095272077424" fill="none" stroke="#f08f84" stroke-width="3" /><path class="route-100001" d="M 653.4697793548243 492.9459885074876 L 619.5652821950766 497.4929455910676" fill="none" stroke="#e1081c" stroke-width="3" /><path class="route-100009" d="M 652.9380964431374 496.91049519576796 L 619.0335992833898 501.457452279348" fill="none" stroke="#f08f84" stroke-width="3" /><path class="route-100001" d="M 652.7689914844093 492.9761092699491 L 680.4024064910571 486.81922479790467" fill="none" stroke="#e1081c" stroke-width="3" /><path class="route-100009" d="M 653.6388843135524 496.88037443330643 L 681.2722993202002 490.723489961262" fill="none" stroke="#f08f84" stroke-width="3" /><path class="route-100001" d="M 719.4115126410511 477.2973613705628 L 680.8373529056287 488.7713573795833" fill="none" stroke="#e1081c" stroke-width="3" /><path class="route-100001" d="M 719.4115126410511 477.2973613705628 L 737.5984749431398 476.49239767633054" fill="none" stroke="#e1081c" stroke-width="3" /><path class="route-100001" d="M 737.5984749431398 476.49239767633054 L 773.1318602836951 473.1594128667382" fill="none" stroke="#e1081c" stroke-width="3" /><path class="route-100001" d="M 789.4866667399157 466.389015525045 L 773.1318602836951 473.1594128667382" fill="none" stroke="#e1081c" stroke-width="3" /><path class="route-100001" d="M 856.9001131706461 450.81623140812906 L 789.4866667399157 466.389015525045" fill="none" stroke="#e1081c" stroke-width="3" /><path class="route-100001" d="M 856.9001131706461 450.81623140812906 L 875.0046696625741 444.89866046681396" fill="none" stroke="#e1081c" stroke-width="3" /><path class="route-100001" d="M 939.1218836869454 433.6857337640183 L 875.0046696625741 444.89866046681396" fill="none" stroke="#e1081c" stroke-width="3" /><path class="route-100001" d="M 974.853042971883 423.3473892371273 L 939.1218836869454 433.6857337640183" fill="none" stroke="#e1081c" stroke-width="3" /><path class="route-100001" d="M 974.853042971883 423.3473892371273 L 1013.7760539703119 411.5035450442803" fill="none" stroke="#e1081c" stroke-width="3" /><path class="route-100001" d="M 1033.3282058606992 393.38098403647774 L 1013.7760539703119 411.5035450442803" fill="none" stroke="#e1081c" stroke-width="3" /><path class="route-100001" d="M 1033.3282058606992 393.38098403647774 L 1049.0567281597118 382.55531013794206" fill="none" stroke="#e1081c" stroke-width="3" /><path class="route-100001" d="M 1068.0814828650834 386.2146315803388 L 1049.0567281597118 382.55531013794206" fill="none" stroke="#e1081c" stroke-width="3" /><path class="route-100001" d="M 1086.4854471339252 384.50897877961347 L 1068.0814828650834 386.2146315803388" fill="none" stroke="#e1081c" stroke-width="3" /><path class="route-100001" d="M 1086.4854471339252 384.50897877961347 L 1100.0 380.4580533778639" fill="none" stroke="#e1081c" stroke-width="3" /><path class="route-100001" d="M 150.38291233120444 480.09080294727164 L 186.72112775097943 491.13838575610316" fill="none" stroke="#e1081c" stroke-width="3" /><path class="route-100001" d="M 186.72112775097943 491.13838575610316 L 204.22137496841148 491.76495209106156" fill="none" stroke="#e1081c" stroke-width="3" /><path class="route-100001" d="M 232.11848856756598 492.31754878928564 L 204.22137496841148 491.76495209106156" fill="none" stroke="#e1081c" stroke-width="3" /><path class="route-100001" d="M 232.11848856756598 492.31754878928564 L 260.0925142562056 492.9919778303899" fill="none" stroke="#e1081c" stroke-width="3" /><path class="route-100001" d="M 260.0925142562056 492.9919778303899 L 295.7934580774165 494.3886986187444" fill="none" stroke="#e1081c" stroke-width="3" /><path class="route-100001" d="M 450.32991947346426 496.7359671136694 L 428.5308358260734 496.26604236242736" fill="none" stroke="#e1081c" stroke-width="3" /><path class="route-100007" d="M 450.416127794508 500.7350380214407 L 428.61704414711716 500.26511327019864" fill="none" stroke="#f08c51" stroke-width="3" /><path class="route-100001" d="M 380.9214068319906 496.3858788114378 L 367.05525584257043 495.78977056219173" fill="none" stroke="#e1081c" stroke-width="3" /><path class="route-100001" d="M 260.0925142562056 492.9919778303899 L 232.11848856756598 492.31754878928564" fill="none" stroke="#e1081c" stroke-width="3" /><path class="route-100003" d="M 303.54235109269996 327.8569393266371 L 301.2404821289258 307.60666347304397" fill="none" stroke="#f1a0c2" stroke-width="3" /><path class="route-100003" d="M 300.73780668695645 346.8714871307468 L 303.54235109269996 327.8569393266371" fill="none" stroke="#f1a0c2" stroke-width="3" /><path class="route-100003" d="M 308.0169865843339 356.30479139602096 L 300.73780668695645 346.8714871307468" fill="none" stroke="#f1a0c2" stroke-width="3" /><path class="route-100004" d="M 308.96430241021943 354.54337357902614 L 324.50603820620324 362.9019425336573" fill="none" stroke="#ea6fa3" stroke-width="3" /><path class="route-100003" d="M 307.06967075844835 358.0662092130158 L 322.61140655443216 366.42477816764693" fill="none" stroke="#f1a0c2" stroke-width="3" /><path class="route-100004" d="M 324.58797518612886 362.94853130327454 L 341.28339232434115 372.969241507578" fill="none" stroke="#ea6fa3" stroke-width="3" /><path class="route-100003" d="M 322.52946957450655 366.3781893980297 L 339.22488671271884 376.39889960233313" fill="none" stroke="#f1a0c2" stroke-width="3" /><path class="route-100004" d="M 361.4396506004224 390.1000123947319 L 339.04449825954777 373.09134709353236" fill="none" stroke="#ea6fa3" stroke-width="3" /><path class="route-100003" d="M 363.85893311838686 393.2854593175783 L 341.4637807775122 376.27679401637874" fill="none" stroke="#f1a0c2" stroke-width="3" /><path class="route-100004" d="M 389.7724298676035 409.63786691517896 L 361.509983843411 390.0489666373495" fill="none" stroke="#ea6fa3" stroke-width="3" /><path class="route-100003" d="M 392.0510458995907 412.9254053527901 L 363.78859987539823 393.33650507496066" fill="none" stroke="#f1a0c2" stroke-width="3" /><path class="route-100004" d="M 391.84421589138407 409.512318535306 L 410.91566722251423 419.56348682535264" fill="none" stroke="#ea6fa3" stroke-width="3" /><path class="route-100003" d="M 389.9792598758101 413.05095373266306 L 409.05071120694026 423.1021220227097" fill="none" stroke="#f1a0c2" stroke-width="3" /><path class="route-100004" d="M 427.1447074341825 438.4530509425133 L 408.5704378243462 419.91713019986224" fill="none" stroke="#ea6fa3" stroke-width="3" /><path class="route-100003" d="M 429.97021021494464 441.28439939085115 L 411.3959406051083 422.7484786482001" fill="none" stroke="#f1a0c2" stroke-width="3" /><path class="route-100004" d="M 429.82736744187065 438.32362578357146 L 439.73254582297983 446.46463698299965" fill="none" stroke="#ea6fa3" stroke-width="3" /><path class="route-100003" d="M 427.2875502072565 441.413824549793 L 437.1927285883657 449.5548357492212" fill="none" stroke="#f1a0c2" stroke-width="3" /><path class="route-100004" d="M 439.57048788669005 446.3446036781334 L 454.61229510104357 456.3522604171272" fill="none" stroke="#ea6fa3" stroke-width="3" /><path class="route-100003" d="M 437.3547865246555 449.6748690540874 L 452.396593739009 459.6825257930812" fill="none" stroke="#f1a0c2" stroke-width="3" /><path class="route-100004" d="M 473.9868670525064 468.31727000845 L 452.5256472267658 456.2732726808028" fill="none" stroke="#ea6fa3" stroke-width="3" /><path class="route-100003" d="M 475.9444614390274 471.8055108570528 L 454.4832416132868 459.7615135294056" fill="none" stroke="#f1a0c2" stroke-width="3" /><path class="route-100004" d="M 477.19026799413285 466.73706521358946 L 494.70699637359405 478.4590770635253" fill="none" stroke="#ea6fa3" stroke-width="3" /><path class="route-100005" d="M 474.9656642457669 470.0613904327514 L 492.4823926252281 481.78340228268723" fill="none" stroke="#a69dc9" stroke-width="3" /><path class="route-100003" d="M 472.74106049740095 473.38571565191336 L 490.25778887686215 485.1077275018492" fill="none" stroke="#f1a0c2" stroke-width="3" /><path class="route-100004" d="M 492.8210008331591 477.7977599904686 L 521.5531599752601 480.23875800378465" fill="none" stroke="#ea6fa3" stroke-width="3" /><path class="route-100005" d="M 492.4823926252281 481.78340228268723 L 521.2145517673291 484.2244002960033" fill="none" stroke="#a69dc9" stroke-width="3" /><path class="route-100003" d="M 492.1437844172971 485.7690445749059 L 520.8759435593981 488.21004258822194" fill="none" stroke="#f1a0c2" stroke-width="3" /><path class="route-100004" d="M 508.09080196520176 500.20977367492316 L 515.6721364998295 481.9262199282803" fill="none" stroke="#ea6fa3" stroke-width="3" /><path class="route-100003" d="M 511.78574547686816 501.7418939200718 L 519.3670800114959 483.45834017342895" fill="none" stroke="#f1a0c2" stroke-width="3" /><path class="route-100016" d="M 515.4806889885346 503.2740141652205 L 523.0620235231623 484.99046041857764" fill="none" stroke="#00aba4" stroke-width="3" /><path class="route-100018" d="M 519.1756325002009 504.8061344103691 L 526.7569670348287 486.5225806637263" fill="none" stroke="#1f93cd" stroke-width="3" /><path class="route-100004" d="M 514.4845183638948 520.3371390031284 L 507.9387501769325 500.6177040722021" fill="none" stroke="#ea6fa3" stroke-width="3" /><path class="route-100003" d="M 518.2808297344073 521.5973056500911 L 511.73506154744507 501.8778707191648" fill="none" stroke="#f1a0c2" stroke-width="3" /><path class="route-100016" d="M 522.0771411049199 522.8574722970538 L 515.5313729179576 503.1380373661275" fill="none" stroke="#00aba4" stroke-width="3" /><path class="route-100018" d="M 525.8734524754324 524.1176389440166 L 519.3276842884701 504.39820401309015" fill="none" stroke="#1f93cd" stroke-width="3" /><path class="route-100004" d="M 521.007434977386 520.4070397405104 L 540.7408796501265 529.3878238749761" fill="none" stroke="#ea6fa3" stroke-width="3" /><path class="route-100003" d="M 519.3505358619412 524.0477382066346 L 539.0839805346818 533.0285223411003" fill="none" stroke="#f1a0c2" stroke-width="3" /><path class="route-100004" d="M 539.3093045558903 529.3012804557882 L 592.6313574494329 512.4362032730262" fill="none" stroke="#ea6fa3" stroke-width="3" /><path class="route-100003" d="M 540.515555628918 533.1150657602882 L 593.8376085224606 516.2499885775262" fill="none" stroke="#f1a0c2" stroke-width="3" /><path class="route-100004" d="M 597.1719571019685 485.4861995696653 L 595.2299268425544 514.2081744105838" fill="none" stroke="#ea6fa3" stroke-width="3" /><path class="route-100003" d="M 593.1810693887533 485.7560425990501 L 591.2390391293392 514.4780174399687" fill="none" stroke="#f1a0c2" stroke-width="3" /><path class="route-100004" d="M 608.4985479085052 470.3307622110324 L 596.7062764747549 484.33277933544395" fill="none" stroke="#ea6fa3" stroke-width="3" /><path class="route-100003" d="M 605.4390214497172 472.9074457088599 L 593.6467500159669 486.90946283327145" fill="none" stroke="#f1a0c2" stroke-width="3" /><path class="route-100004" d="M 638.8966991206096 446.77182659562357 L 608.1758130933384 470.02439947094257" fill="none" stroke="#ea6fa3" stroke-width="3" /><path class="route-100003" d="M 636.4826422921551 449.9612355736307 L 605.761756264884 473.2138084489497" fill="none" stroke="#f1a0c2" stroke-width="3" /><path class="route-100003" d="M 637.6896707063823 448.3665310846271 L 671.1189610275458 436.2268083447191" fill="none" stroke="#f1a0c2" stroke-width="3" /><path class="route-100003" d="M 696.0329842989452 426.78915292432106 L 671.1189610275458 436.2268083447191" fill="none" stroke="#f1a0c2" stroke-width="3" /><path class="route-100003" d="M 696.0329842989452 426.78915292432106 L 725.9874962917378 406.27780776447213" fill="none" stroke="#f1a0c2" stroke-width="3" /><path class="route-100013" d="M 745.9819414764512 387.6003430578958 L 728.6767213430649 403.3167152932185" fill="none" stroke="#aa8667" stroke-width="3" /><path class="route-100003" d="M 743.2927164251241 390.56143552914943 L 725.9874962917378 406.27780776447213" fill="none" stroke="#f1a0c2" stroke-width="3" /><path class="route-100018" d="M 740.603491373797 393.52252800040304 L 723.2982712404107 409.23890023572574" fill="none" stroke="#1f93cd" stroke-width="3" /><path class="route-100013" d="M 740.3591338079656 387.84222736714617 L 762.8724011434032 363.55407957708235" fill="none" stroke="#aa8667" stroke-width="3" /><path class="route-100003" d="M 743.2927164251241 390.56143552914943 L 765.8059837605617 366.2732877390856" fill="none" stroke="#f1a0c2" stroke-width="3" /><path class="route-100018" d="M 746.2262990422827 393.2806436911527 L 768.7395663777203 368.9924959010889" fill="none" stroke="#1f93cd" stroke-width="3" /><path class="route-100003" d="M 765.3676841930118 364.3219052832135 L 781.2527775313264 360.75395809801563" fill="none" stroke="#f1a0c2" stroke-width="3" /><path class="route-100018" d="M 766.2442833281117 368.22467019495775 L 782.1293766664263 364.6567230097599" fill="none" stroke="#1f93cd" stroke-width="3" /><path class="route-100003" d="M 810.4056896099152 353.5833918863954 L 782.1844464908006 360.76714896296795" fill="none" stroke="#f1a0c2" stroke-width="3" /><path class="route-100018" d="M 809.4189508260666 357.45977506823505 L 781.1977077069521 364.6435321448076" fill="none" stroke="#1f93cd" stroke-width="3" /><path class="route-100003" d="M 809.1785779004476 353.66103995150183 L 835.0182931059662 343.4706346981413" fill="none" stroke="#f1a0c2" stroke-width="3" /><path class="route-100018" d="M 810.6460625355342 357.38212700312863 L 836.4857777410527 347.1917217497681" fill="none" stroke="#1f93cd" stroke-width="3" /><path class="route-100003" d="M 834.9057406311994 343.5190565049444 L 862.036480195878 330.8484928423388" fill="none" stroke="#f1a0c2" stroke-width="3" /><path class="route-100018" d="M 836.5983302158196 347.143299942965 L 863.7290697804982 334.4727362803594" fill="none" stroke="#1f93cd" stroke-width="3" /><path class="route-100003" d="M 892.9813270192095 316.70204218933 L 863.7547330161563 330.86070089745806" fill="none" stroke="#f1a0c2" stroke-width="3" /><path class="route-100018" d="M 891.2374109632732 320.3018695171121 L 862.0108169602199 334.4605282252402" fill="none" stroke="#1f93cd" stroke-width="3" /><path class="route-100004" d="M 593.8376085224606 512.4362032730262 L 540.515555628918 529.3012804557882" fill="none" stroke="#ea6fa3" stroke-width="3" /><path class="route-100003" d="M 592.6313574494329 516.2499885775262 L 539.3093045558903 533.1150657602882" fill="none" stroke="#f1a0c2" stroke-width="3" /><path class="route-100004" d="M 520.8759435593981 480.23875800378465 L 492.1437844172971 477.7977599904686" fill="none" stroke="#ea6fa3" stroke-width="3" /><path class="route-100005" d="M 521.2145517673291 484.2244002960033 L 492.4823926252281 481.78340228268723" fill="none" stroke="#a69dc9" stroke-width="3" /><path class="route-100003" d="M 521.5531599752601 488.21004258822194 L 492.8210008331591 485.7690445749059" fill="none" stroke="#f1a0c2" stroke-width="3" /><path class="route-100004" d="M 452.396593739009 456.3522604171272 L 437.3547865246555 446.3446036781334" fill="none" stroke="#ea6fa3" stroke-width="3" /><path class="route-100003" d="M 454.61229510104357 459.6825257930812 L 439.57048788669005 449.6748690540874" fill="none" stroke="#f1a0c2" stroke-width="3" /><path class="route-100004" d="M 339.22488671271884 372.969241507578 L 322.52946957450655 362.94853130327454" fill="none" stroke="#ea6fa3" stroke-width="3" /><path class="route-100003" d="M 341.28339232434115 376.39889960233313 L 324.58797518612886 366.3781893980297" fill="none" stroke="#f1a0c2" stroke-width="3" /><path class="route-100003" d="M 863.7290697804982 330.8484928423388 L 836.5983302158196 343.5190565049444" fill="none" stroke="#f1a0c2" stroke-width="3" /><path class="route-100018" d="M 862.036480195878 334.4727362803594 L 834.9057406311994 347.143299942965" fill="none" stroke="#1f93cd" stroke-width="3" /><path class="route-100004" d="M 637.6896707063823 448.3665310846271 L 658.2197048773254 416.06355559317007" fill="none" stroke="#ea6fa3" stroke-width="3" /><path class="route-100004" d="M 668.9049915946056 389.26044015308673 L 658.2197048773254 416.06355559317007" fill="none" stroke="#ea6fa3" stroke-width="3" /><path class="route-100004" d="M 668.9049915946056 389.26044015308673 L 675.8490545306717 370.4242897082199" fill="none" stroke="#ea6fa3" stroke-width="3" /><path class="route-100004" d="M 675.8490545306717 370.4242897082199 L 688.6192082449754 351.62729965931294" fill="none" stroke="#ea6fa3" stroke-width="3" /><path class="route-100004" d="M 697.9118367705715 332.8651188512423 L 688.6192082449754 351.62729965931294" fill="none" stroke="#ea6fa3" stroke-width="3" /><path class="route-100004" d="M 697.9118367705715 332.8651188512423 L 719.2988913671661 307.8155189180301" fill="none" stroke="#ea6fa3" stroke-width="3" /><path class="route-100004" d="M 738.6972190785929 271.70963386573874 L 719.2988913671661 307.8155189180301" fill="none" stroke="#ea6fa3" stroke-width="3" /><path class="route-100004" d="M 738.6972190785929 271.70963386573874 L 760.7600013184928 238.53642735350095" fill="none" stroke="#ea6fa3" stroke-width="3" /><path class="route-100004" d="M 760.7600013184928 238.53642735350095 L 773.8542845527566 217.4463785648395" fill="none" stroke="#ea6fa3" stroke-width="3" /><path class="route-100004" d="M 779.7929966048791 140.74856754813226 L 773.8542845527566 217.4463785648395" fill="none" stroke="#ea6fa3" stroke-width="3" /><path class="route-100005" d="M 547.4690428839832 502.79077912439755 L 546.6504785030709 490.77288872736966" fill="none" stroke="#a69dc9" stroke-width="3" /><path class="route-100005" d="M 546.6504785030709 490.77288872736966 L 543.5822355048184 471.17528613935445" fill="none" stroke="#a69dc9" stroke-width="3" /><path class="route-100005" d="M 545.5978692718658 467.72025784466007 L 523.2301855343765 480.7693720013089" fill="none" stroke="#a69dc9" stroke-width="3" /><path class="route-100016" d="M 543.5822355048184 471.17528613935445 L 521.2145517673291 484.2244002960033" fill="none" stroke="#00aba4" stroke-width="3" /><path class="route-100018" d="M 541.5666017377711 474.63031443404884 L 519.1989180002818 487.6794285906977" fill="none" stroke="#1f93cd" stroke-width="3" /><path class="route-100005" d="M 474.9656642457669 470.0613904327514 L 460.346873523561 439.01589876633506" fill="none" stroke="#a69dc9" stroke-width="3" /><path class="route-100005" d="M 449.002340325007 430.5006882279566 L 460.346873523561 439.01589876633506" fill="none" stroke="#a69dc9" stroke-width="3" /><path class="route-100005" d="M 449.002340325007 430.5006882279566 L 440.99798929823163 420.27112257866696" fill="none" stroke="#a69dc9" stroke-width="3" /><path class="route-100013" d="M 449.1446182616467 409.07017860209345 L 442.6840027451817 419.19531652890544" fill="none" stroke="#aa8667" stroke-width="3" /><path class="route-100005" d="M 445.77259136774654 411.2217907016165 L 439.31197585128155 421.3469286284285" fill="none" stroke="#a69dc9" stroke-width="3" /><path class="route-100005" d="M 447.4586048146966 410.145984651855 L 432.9991319921318 403.35383153466626" fill="none" stroke="#a69dc9" stroke-width="3" /><path class="route-100005" d="M 415.6856712777285 374.3881920078944 L 432.9991319921318 403.35383153466626" fill="none" stroke="#a69dc9" stroke-width="3" /><path class="route-100005" d="M 397.78163559051956 361.2607570593874 L 415.6856712777285 374.3881920078944" fill="none" stroke="#a69dc9" stroke-width="3" /><path class="route-100005" d="M 397.78163559051956 361.2607570593874 L 395.44131058200406 335.3409261053636" fill="none" stroke="#a69dc9" stroke-width="3" /><path class="route-100005" d="M 375.67490358520024 320.5078383561313 L 395.44131058200406 335.3409261053636" fill="none" stroke="#a69dc9" stroke-width="3" /><path class="route-100005" d="M 375.67490358520024 320.5078383561313 L 367.06074956324846 301.9022991318079" fill="none" stroke="#a69dc9" stroke-width="3" /><path class="route-100005" d="M 367.06074956324846 301.9022991318079 L 348.2694779866615 287.0474556070492" fill="none" stroke="#a69dc9" stroke-width="3" /><path class="route-100007" d="M 822.2484699987909 770.6565896315449 L 792.1291463856816 805.7007928384412" fill="none" stroke="#f08c51" stroke-width="3" /><path class="route-100007" d="M 822.2484699987909 770.6565896315449 L 819.8394734818098 723.4509079091832" fill="none" stroke="#f08c51" stroke-width="3" /><path class="route-100007" d="M 819.8394734818098 723.4509079091832 L 811.9092876841756 693.8456485821433" fill="none" stroke="#f08c51" stroke-width="3" /><path class="route-100007" d="M 787.3303813740876 670.7279615150452 L 811.9092876841756 693.8456485821433" fill="none" stroke="#f08c51" stroke-width="3" /><path class="route-100007" d="M 742.9273840000861 660.1677080778583 L 787.3303813740876 670.7279615150452" fill="none" stroke="#f08c51" stroke-width="3" /><path class="route-100007" d="M 742.9273840000861 660.1677080778583 L 727.2620394888636 652.244254633633" fill="none" stroke="#f08c51" stroke-width="3" /><path class="route-100007" d="M 697.8294309604108 628.7175589867485 L 727.2620394888636 652.244254633633" fill="none" stroke="#f08c51" stroke-width="3" /><path class="route-100007" d="M 697.8294309604108 628.7175589867485 L 657.2610506191427 593.468851489959" fill="none" stroke="#f08c51" stroke-width="3" /><path class="route-100007" d="M 637.6017711755459 588.6303670144107 L 657.2610506191427 593.468851489959" fill="none" stroke="#f08c51" stroke-width="3" /><path class="route-100007" d="M 637.6017711755459 588.6303670144107 L 618.7720435542176 571.2039908232389" fill="none" stroke="#f08c51" stroke-width="3" /><path class="route-100007" d="M 618.7720435542176 571.2039908232389 L 602.4584400030749 555.2221981265674" fill="none" stroke="#f08c51" stroke-width="3" /><path class="route-100007" d="M 588.6334919187351 534.3105466971488 L 602.4584400030749 555.2221981265674" fill="none" stroke="#f08c51" stroke-width="3" /><path class="route-100007" d="M 581.7526067704615 525.7300688322218 L 588.6334919187351 534.3105466971488" fill="none" stroke="#f08c51" stroke-width="3" /><path class="route-100007" d="M 581.7526067704615 525.7300688322218 L 575.9347565732362 498.62672368995356" fill="none" stroke="#f08c51" stroke-width="3" /><path class="route-100013" d="M 408.1528160632179 497.0383598433183 L 406.5541433461346 522.2881129113308" fill="none" stroke="#aa8667" stroke-width="3" /><path class="route-100007" d="M 404.160809462804 497.29111130672106 L 402.5621367457207 522.5408643747336" fill="none" stroke="#f08c51" stroke-width="3" /><path class="route-100013" d="M 406.5346279711076 522.108718334438 L 408.85023123657436 537.076691891922" fill="none" stroke="#aa8667" stroke-width="3" /><path class="route-100007" d="M 402.58165212074766 522.7202589516264 L 404.8972553862144 537.6882325091104" fill="none" stroke="#f08c51" stroke-width="3" /><path class="route-100007" d="M 406.8737433113944 537.3824622005162 L 377.8284420906894 545.1623275263039" fill="none" stroke="#f08c51" stroke-width="3" /><path class="route-100007" d="M 318.40561238504415 571.1996396681151 L 377.8284420906894 545.1623275263039" fill="none" stroke="#f08c51" stroke-width="3" /><path class="route-100007" d="M 318.40561238504415 571.1996396681151 L 267.92655994198634 582.1036343585399" fill="none" stroke="#f08c51" stroke-width="3" /><path class="route-100007" d="M 267.92655994198634 582.1036343585399 L 240.99908804236577 589.9705227864026" fill="none" stroke="#f08c51" stroke-width="3" /><path class="route-100007" d="M 240.99908804236577 589.9705227864026 L 170.33335897069554 608.0974349492981" fill="none" stroke="#f08c51" stroke-width="3" /><path class="route-100007" d="M 575.9347565732362 498.62672368995356 L 581.7526067704615 525.7300688322218" fill="none" stroke="#f08c51" stroke-width="3" /><path class="route-100007" d="M 811.9092876841756 693.8456485821433 L 819.8394734818098 723.4509079091832" fill="none" stroke="#f08c51" stroke-width="3" /><path class="route-100007" d="M 113.15471416171236 622.4867048779696 L 100.0 639.9826995507827" fill="none" stroke="#f08c51" stroke-width="3" /><path class="route-100007" d="M 113.15471416171236 622.4867048779696 L 125.71061276960444 617.0695167735779" fill="none" stroke="#f08c51" stroke-width="3" /><path class="route-100007" d="M 150.30325338138513 614.5632514337133 L 125.71061276960444 617.0695167735779" fill="none" stroke="#f08c51" stroke-width="3" /><path class="route-100007" d="M 150.30325338138513 614.5632514337133 L 170.33335897069554 608.0974349492981" fill="none" stroke="#f08c51" stroke-width="3" /><path class="route-100007" d="M 240.99908804236577 589.9705227864026 L 267.92655994198634 582.1036343585399" fill="none" stroke="#f08c51" stroke-width="3" /><path class="route-100007" d="M 377.8284420906894 545.1623275263039 L 406.8737433113944 537.3824622005162" fill="none" stroke="#f08c51" stroke-width="3" /><path class="route-100009" d="M 680.8373529056287 488.7713573795833 L 716.9283508949262 515.552717044171" fill="none" stroke="#f08f84" stroke-width="3" /><path class="route-100009" d="M 770.6349642358776 530.9732107324327 L 716.9283508949262 515.552717044171" fill="none" stroke="#f08f84" stroke-width="3" /><path class="route-100009" d="M 770.6349642358776 530.9732107324327 L 805.1602518321553 540.1846060874419" fill="none" stroke="#f08f84" stroke-width="3" /><path class="route-100009" d="M 840.8090053069321 555.3266258490451 L 805.1602518321553 540.1846060874419" fill="none" stroke="#f08f84" stroke-width="3" /><path class="route-100009" d="M 863.5365277487814 564.1072568487414 L 840.8090053069321 555.3266258490451" fill="none" stroke="#f08f84" stroke-width="3" /><path class="route-100009" d="M 863.5365277487814 564.1072568487414 L 882.4376737389144 569.820323500194" fill="none" stroke="#f08f84" stroke-width="3" /><path class="route-100009" d="M 906.1101161372538 569.9726139288177 L 882.4376737389144 569.820323500194" fill="none" stroke="#f08f84" stroke-width="3" /><path class="route-100009" d="M 906.1101161372538 569.9726139288177 L 923.5361981255421 572.3048330645322" fill="none" stroke="#f08f84" stroke-width="3" /><path class="route-100009" d="M 506.46940546954795 509.45674874358224 L 513.6332172327013 502.50795404264613" fill="none" stroke="#f08f84" stroke-width="3" /><path class="route-100009" d="M 506.46940546954795 509.45674874358224 L 494.5809939239442 522.6450998635448" fill="none" stroke="#f08f84" stroke-width="3" /><path class="route-100009" d="M 481.4949512706975 534.602074089117 L 494.5809939239442 522.6450998635448" fill="none" stroke="#f08f84" stroke-width="3" /><path class="route-100009" d="M 481.4949512706975 534.602074089117 L 467.6370408622945 545.888970428647" fill="none" stroke="#f08f84" stroke-width="3" /><path class="route-100009" d="M 456.7567270609685 553.6514311340321 L 467.6370408622945 545.888970428647" fill="none" stroke="#f08f84" stroke-width="3" /><path class="route-100009" d="M 456.7567270609685 553.6514311340321 L 442.2066078472307 561.4487010802533" fill="none" stroke="#f08f84" stroke-width="3" /><path class="route-100009" d="M 442.2066078472307 561.4487010802533 L 424.640435981672 569.6767353817565" fill="none" stroke="#f08f84" stroke-width="3" /><path class="route-100009" d="M 411.10116137255096 574.7501822329103 L 424.640435981672 569.6767353817565" fill="none" stroke="#f08f84" stroke-width="3" /><path class="route-100009" d="M 411.10116137255096 574.7501822329103 L 402.7122498983644 583.4873016815845" fill="none" stroke="#f08f84" stroke-width="3" /><path class="route-100009" d="M 424.640435981672 569.6767353817565 L 442.2066078472307 561.4487010802533" fill="none" stroke="#f08f84" stroke-width="3" /><path class="route-100012" d="M 542.2541973748555 437.32366885510334 L 532.513830614063 404.81183791866016" fill="none" stroke="#97bf12" stroke-width="3" /><path class="route-100015" d="M 546.0859298597145 438.471634954113 L 536.345563098922 405.9598040176698" fill="none" stroke="#57ab29" stroke-width="3" /><path class="route-100012" d="M 531.9112993538439 374.8769957244058 L 536.407909728185 405.09141676597056" fill="none" stroke="#97bf12" stroke-width="3" /><path class="route-100015" d="M 527.9548736104588 375.4658041287946 L 532.4514839847999 405.6802251703594" fill="none" stroke="#57ab29" stroke-width="3" /><path class="route-100012" d="M 527.9702165860289 374.7878092972877 L 521.7705528017337 343.0635374346432" fill="none" stroke="#97bf12" stroke-width="3" /><path class="route-100015" d="M 531.8959563782738 375.5549905559127 L 525.6962925939787 343.8307186932682" fill="none" stroke="#57ab29" stroke-width="3" /><path class="route-100012" d="M 521.8034790032477 342.9224211594451 L 514.7825039777013 317.09831561771296" fill="none" stroke="#97bf12" stroke-width="3" /><path class="route-100015" d="M 525.6633663924647 343.9718349684663 L 518.6423913669182 318.14772942673414" fill="none" stroke="#57ab29" stroke-width="3" /><path class="route-100012" d="M 511.73220989826757 284.8443293614213 L 518.6680322533166 317.20386986921005" fill="none" stroke="#97bf12" stroke-width="3" /><path class="route-100015" d="M 507.82104073625385 285.68263466744827 L 514.7568630913029 318.04217517523705" fill="none" stroke="#57ab29" stroke-width="3" /><path class="route-100012" d="M 508.0003683418302 284.34429152425633 L 493.7991003910988 256.901556283874" fill="none" stroke="#97bf12" stroke-width="3" /><path class="route-100015" d="M 511.5528822926912 286.1826725046132 L 497.3516143419598 258.7399372642309" fill="none" stroke="#57ab29" stroke-width="3" /><path class="route-100012" d="M 495.5753573665293 257.82074677405245 L 535.5998593607503 245.74194020556902" fill="none" stroke="#97bf12" stroke-width="3" /><path class="route-100012" d="M 535.5998593607503 245.74194020556902 L 534.5917616164725 214.86614358820964" fill="none" stroke="#97bf12" stroke-width="3" /><path class="route-100012" d="M 534.8527133486425 197.62251591140458 L 534.5917616164725 214.86614358820964" fill="none" stroke="#97bf12" stroke-width="3" /><path class="route-100012" d="M 534.8527133486425 197.62251591140458 L 534.9213848571083 171.3763483246073" fill="none" stroke="#97bf12" stroke-width="3" /><path class="route-100012" d="M 534.9213848571083 171.3763483246073 L 534.9186379967691 147.47980449389632" fill="none" stroke="#97bf12" stroke-width="3" /><path class="route-100012" d="M 528.2300330721976 116.64751942755902 L 534.9186379967691 147.47980449389632" fill="none" stroke="#97bf12" stroke-width="3" /><path class="route-100012" d="M 528.2300330721976 116.64751942755902 L 514.1935767417826 100.0" fill="none" stroke="#97bf12" stroke-width="3" /><path class="route-100012" d="M 498.37715491193376 635.300856658982 L 503.8791161702161 654.0282282262165" fill="none" stroke="#97bf12" stroke-width="3" /><path class="route-100012" d="M 498.37715491193376 635.300856658982 L 496.8636348653477 613.0664540779742" fill="none" stroke="#97bf12" stroke-width="3" /><path class="route-100012" d="M 496.8636348653477 613.0664540779742 L 494.7403118235853 601.9274970119748" fill="none" stroke="#97bf12" stroke-width="3" /><path class="route-100012" d="M 497.11085229582505 584.4750138901527 L 494.7403118235853 601.9274970119748" fill="none" stroke="#97bf12" stroke-width="3" /><path class="route-100012" d="M 502.151341017216 556.8495301354035 L 497.11085229582505 584.4750138901527" fill="none" stroke="#97bf12" stroke-width="3" /><path class="route-100012" d="M 502.151341017216 556.8495301354035 L 508.16147143814567 542.1774351250115" fill="none" stroke="#97bf12" stroke-width="3" /><path class="route-100012" d="M 502.8973571342024 530.9999732564504 L 511.03355745723354 539.3933514518867" fill="none" stroke="#97bf12" stroke-width="3" /><path class="route-100016" d="M 500.02527111511455 533.7840569295752 L 508.16147143814567 542.1774351250115" fill="none" stroke="#00aba4" stroke-width="3" /><path class="route-100015" d="M 497.1531850960267 536.5681406026999 L 505.2893854190578 544.9615187981362" fill="none" stroke="#57ab29" stroke-width="3" /><path class="route-100012" d="M 498.22841105432195 532.9058235198665 L 492.7841338631516 521.7668664538362" fill="none" stroke="#97bf12" stroke-width="3" /><path class="route-100015" d="M 501.82213117590715 534.6622903392838 L 496.3778539847368 523.5233332732535" fill="none" stroke="#57ab29" stroke-width="3" /><path class="route-100012" d="M 491.7834432134103 499.6035055725367 L 496.5382584595849 522.2338632679903" fill="none" stroke="#97bf12" stroke-width="3" /><path class="route-100015" d="M 487.868914142129 500.4259787636459 L 492.62372938830356 523.0563364590994" fill="none" stroke="#57ab29" stroke-width="3" /><path class="route-100012" d="M 487.8470736222341 499.7263965782969 L 490.5032875696926 481.49505669289283" fill="none" stroke="#97bf12" stroke-width="3" /><path class="route-100015" d="M 491.80528373330515 500.3030877578857 L 494.4614976807636 482.07174787248164" fill="none" stroke="#57ab29" stroke-width="3" /><path class="route-100012" d="M 490.6082030476131 481.08525227935036 L 497.3654794806505 462.9452866511451" fill="none" stroke="#97bf12" stroke-width="3" /><path class="route-100015" d="M 494.35658220284313 482.4815522860241 L 501.11385863588055 464.3415866578189" fill="none" stroke="#57ab29" stroke-width="3" /><path class="route-100012" d="M 527.6990964725286 443.2578071583822 L 500.37058296347004 461.99388103583345" fill="none" stroke="#97bf12" stroke-width="3" /><path class="route-100015" d="M 525.4372686621194 446.5569183956793 L 498.108755153061 465.29299227313055" fill="none" stroke="#57ab29" stroke-width="3" /><path class="route-100012" d="M 525.828226895312 443.0492816153327 L 543.430107945273 436.0395707429101" fill="none" stroke="#97bf12" stroke-width="3" /><path class="route-100015" d="M 527.308138239336 446.7654439387288 L 544.910019289297 439.7557330663062" fill="none" stroke="#57ab29" stroke-width="3" /><path class="route-100012" d="M 534.9213848571083 171.3763483246073 L 534.8527133486425 197.62251591140458" fill="none" stroke="#97bf12" stroke-width="3" /><path class="route-100012" d="M 497.3516143419598 256.901556283874 L 511.5528822926912 284.34429152425633" fill="none" stroke="#97bf12" stroke-width="3" /><path class="route-100015" d="M 493.7991003910988 258.7399372642309 L 508.0003683418302 286.1826725046132" fill="none" stroke="#57ab29" stroke-width="3" /><path class="route-100012" d="M 501.11385863588055 462.9452866511451 L 494.35658220284313 481.08525227935036" fill="none" stroke="#97bf12" stroke-width="3" /><path class="route-100015" d="M 497.3654794806505 464.3415866578189 L 490.6082030476131 482.4815522860241" fill="none" stroke="#57ab29" stroke-width="3" /><path class="route-100013" d="M 695.183762937524 403.7342243527671 L 726.0227639593556 404.2781187407435" fill="none" stroke="#aa8667" stroke-width="3" /><path class="route-100018" d="M 695.1132276022882 407.7336024002244 L 725.9522286241199 408.2774967882008" fill="none" stroke="#1f93cd" stroke-width="3" /><path class="route-100013" d="M 669.9682961089501 387.566514679586 L 696.2117997842506 404.03998790299505" fill="none" stroke="#aa8667" stroke-width="3" /><path class="route-100018" d="M 667.8416870802611 390.95436562658745 L 694.0851907555616 407.4278388499965" fill="none" stroke="#1f93cd" stroke-width="3" /><path class="route-100013" d="M 668.0523668564017 387.4512881263618 L 623.8746120301679 366.63101095411116" fill="none" stroke="#aa8667" stroke-width="3" /><path class="route-100018" d="M 669.7576163328094 391.06959217981165 L 625.5798615065756 370.249315007561" fill="none" stroke="#1f93cd" stroke-width="3" /><path class="route-100013" d="M 624.7272367683718 368.4401629808361 L 572.4956874292676 349.91294454837094" fill="none" stroke="#aa8667" stroke-width="3" /><path class="route-100013" d="M 523.7334226978562 343.4471280639557 L 572.4956874292676 349.91294454837094" fill="none" stroke="#aa8667" stroke-width="3" /><path class="route-100013" d="M 523.7334226978562 343.4471280639557 L 495.94893037258436 360.22083098954965" fill="none" stroke="#aa8667" stroke-width="3" /><path class="route-100013" d="M 475.4765802687508 377.2120916703466 L 495.94893037258436 360.22083098954965" fill="none" stroke="#aa8667" stroke-width="3" /><path class="route-100013" d="M 447.4586048146966 410.145984651855 L 475.4765802687508 377.2120916703466" fill="none" stroke="#aa8667" stroke-width="3" /><path class="route-100013" d="M 440.99798929823163 420.27112257866696 L 428.5574588245636 439.8687251666822" fill="none" stroke="#aa8667" stroke-width="3" /><path class="route-100013" d="M 428.5574588245636 439.8687251666822 L 417.61396723545005 461.83335613124825" fill="none" stroke="#aa8667" stroke-width="3" /><path class="route-100013" d="M 417.61396723545005 461.83335613124825 L 412.83717710656566 484.7334854431435" fill="none" stroke="#aa8667" stroke-width="3" /><path class="route-100013" d="M 406.156812763011 497.1647355750197 L 412.83717710656566 484.7334854431435" fill="none" stroke="#aa8667" stroke-width="3" /><path class="route-100013" d="M 416.3476646193389 554.7087618243033 L 406.8737433113944 537.3824622005162" fill="none" stroke="#aa8667" stroke-width="3" /><path class="route-100013" d="M 416.3476646193389 554.7087618243033 L 424.640435981672 569.6767353817565" fill="none" stroke="#aa8667" stroke-width="3" /><path class="route-100013" d="M 424.640435981672 569.6767353817565 L 429.99956050234505 584.8796713148151" fill="none" stroke="#aa8667" stroke-width="3" /><path class="route-100013" d="M 438.5505367365091 594.452212543434 L 429.99956050234505 584.8796713148151" fill="none" stroke="#aa8667" stroke-width="3" /><path class="route-100013" d="M 448.42549965389395 604.3946019558794 L 438.5505367365091 594.452212543434" fill="none" stroke="#aa8667" stroke-width="3" /><path class="route-100013" d="M 429.99956050234505 584.8796713148151 L 424.640435981672 569.6767353817565" fill="none" stroke="#aa8667" stroke-width="3" /><path class="route-100015" d="M 563.2384604856704 558.809451363616 L 549.1855229932264 564.0612955740435" fill="none" stroke="#57ab29" stroke-width="3" /><path class="route-100016" d="M 561.8381769177736 562.5563442002846 L 547.7852394253296 567.8081884107121" fill="none" stroke="#00aba4" stroke-width="3" /><path class="route-100015" d="M 547.5452007983358 564.1695052391686 L 524.8094377754695 552.0602405849729" fill="none" stroke="#57ab29" stroke-width="3" /><path class="route-100016" d="M 549.4255616202202 567.6999787455869 L 526.6897985973538 555.5907140913912" fill="none" stroke="#00aba4" stroke-width="3" /><path class="route-100015" d="M 524.645302432797 552.157998187992 L 507.05715568453104 540.5099559748214" fill="none" stroke="#57ab29" stroke-width="3" /><path class="route-100016" d="M 526.8539339400263 555.4929564883721 L 509.2657871917603 543.8449142752015" fill="none" stroke="#00aba4" stroke-width="3" /><path class="route-100015" d="M 495.5753573665293 257.82074677405245 L 474.31465834551017 249.76675867669917" fill="none" stroke="#57ab29" stroke-width="3" /><path class="route-100015" d="M 474.31465834551017 249.76675867669917 L 454.47957984024066 246.50339234877922" fill="none" stroke="#57ab29" stroke-width="3" /><path class="route-100015" d="M 439.75366156483017 244.55842601732456 L 454.47957984024066 246.50339234877922" fill="none" stroke="#57ab29" stroke-width="3" /><path class="route-100015" d="M 439.75366156483017 244.55842601732456 L 422.7478492083529 240.1245989664389" fill="none" stroke="#57ab29" stroke-width="3" /><path class="route-100015" d="M 401.5365936734311 170.51481961401242 L 422.7478492083529 240.1245989664389" fill="none" stroke="#57ab29" stroke-width="3" /><path class="route-100015" d="M 377.1224989836596 131.14121707870814 L 401.5365936734311 170.51481961401242" fill="none" stroke="#57ab29" stroke-width="3" /><path class="route-100015" d="M 413.6804632305268 242.395901930667 L 422.7478492083529 240.1245989664389" fill="none" stroke="#57ab29" stroke-width="3" /><path class="route-100016" d="M 571.8666564117206 323.2664706920041 L 551.3338753804384 287.32592953367674" fill="none" stroke="#00aba4" stroke-width="3" /><path class="route-100016" d="M 571.8666564117206 323.2664706920041 L 572.4956874292676 349.91294454837094" fill="none" stroke="#00aba4" stroke-width="3" /><path class="route-100016" d="M 572.4956874292676 349.91294454837094 L 570.5344291474828 383.0556929748964" fill="none" stroke="#00aba4" stroke-width="3" /><path class="route-100016" d="M 559.2970235021359 423.07761762068554 L 570.5344291474828 383.0556929748964" fill="none" stroke="#00aba4" stroke-width="3" /><path class="route-100016" d="M 560.6966693353304 421.6489848681486 L 545.5697094504795 436.4690191520712" fill="none" stroke="#00aba4" stroke-width="3" /><path class="route-100018" d="M 557.8973776689413 424.5062503732225 L 542.7704177840905 439.3262846571451" fill="none" stroke="#1f93cd" stroke-width="3" /><path class="route-100016" d="M 541.7390568541765 465.12164608540064 L 542.1703139273411 437.8660105144779" fill="none" stroke="#00aba4" stroke-width="3" /><path class="route-100018" d="M 545.7385562340643 465.1849288656611 L 546.1698133072289 437.9292932947384" fill="none" stroke="#1f93cd" stroke-width="3" /><path class="route-100016" d="M 545.7381308946469 465.10130534983824 L 545.581559855345 471.1233040136618" fill="none" stroke="#00aba4" stroke-width="3" /><path class="route-100018" d="M 541.7394821935939 465.2052696012235 L 541.5829111542919 471.2272682650471" fill="none" stroke="#1f93cd" stroke-width="3" /><path class="route-100016" d="M 521.1738749141334 520.4923976497344 L 501.0201606095844 532.049065605737" fill="none" stroke="#00aba4" stroke-width="3" /><path class="route-100018" d="M 519.1840959251938 523.9623802974106 L 499.0303816206447 535.5190482534133" fill="none" stroke="#1f93cd" stroke-width="3" /><path class="route-100016" d="M 562.538318701722 560.6828977819503 L 580.6593563556839 596.8671036260998" fill="none" stroke="#00aba4" stroke-width="3" /><path class="route-100016" d="M 594.4737956970707 627.0768338143006 L 578.8716289736358 595.9704259763978" fill="none" stroke="#00aba4" stroke-width="3" /><path class="route-100017" d="M 598.049250461167 628.8701891137047 L 582.4470837377321 597.7637812758019" fill="none" stroke="#84cff0" stroke-width="3" /><path class="route-100016" d="M 613.844498350909 657.4736037545023 L 594.5697793547209 626.9067391495137" fill="none" stroke="#00aba4" stroke-width="3" /><path class="route-100017" d="M 617.2279857997049 659.6071483834802 L 597.9532668035168 629.0402837784916" fill="none" stroke="#84cff0" stroke-width="3" /><path class="route-100016" d="M 617.4118364489626 657.8460089143019 L 631.9207527576225 697.0368629352395" fill="none" stroke="#00aba4" stroke-width="3" /><path class="route-100017" d="M 613.6606477016513 659.2347432236805 L 628.1695640103112 698.4255972446181" fill="none" stroke="#84cff0" stroke-width="3" /><path class="route-100016" d="M 631.9138833673823 697.018582255189 L 644.5082380200132 730.0438494938962" fill="none" stroke="#00aba4" stroke-width="3" /><path class="route-100017" d="M 628.1764334005514 698.4438779246685 L 640.7707880531824 731.4691451633757" fill="none" stroke="#84cff0" stroke-width="3" /><path class="route-100016" d="M 652.4943288536359 760.7936176713569 L 640.7707289283488 730.0440045520015" fill="none" stroke="#00aba4" stroke-width="3" /><path class="route-100017" d="M 656.2318970701339 762.2186032246258 L 644.5082971448468 731.4689901052704" fill="none" stroke="#84cff0" stroke-width="3" /><path class="route-100016" d="M 664.8512309603968 813.9410321478263 L 652.4161942074069 761.0483907046312" fill="none" stroke="#00aba4" stroke-width="3" /><path class="route-100017" d="M 668.7450684693529 814.8564716345466 L 656.3100317163629 761.9638301913515" fill="none" stroke="#84cff0" stroke-width="3" /><path class="route-100016" d="M 666.7981497148749 814.3987518911864 L 598.3820992605447 886.5452546691588" fill="none" stroke="#00aba4" stroke-width="3" /><path class="route-100016" d="M 577.5334292903194 956.6336610830132 L 598.3820992605447 886.5452546691588" fill="none" stroke="#00aba4" stroke-width="3" /><path class="route-100016" d="M 602.2167162932756 994.7062682422547 L 577.5334292903194 956.6336610830132" fill="none" stroke="#00aba4" stroke-width="3" /><path class="route-100016" d="M 602.2167162932756 994.7062682422547 L 655.6321624383326 1040.4456106945895" fill="none" stroke="#00aba4" stroke-width="3" /><path class="route-100016" d="M 655.6321624383326 1040.4456106945895 L 686.1580213815603 1076.9256950858003" fill="none" stroke="#00aba4" stroke-width="3" /><path class="route-100016" d="M 686.1580213815603 1076.9256950858003 L 719.4197532220658 1131.7154401543041" fill="none" stroke="#00aba4" stroke-width="3" /><path class="route-100016" d="M 744.7100963598592 1173.2950783272881 L 719.4197532220658 1131.7154401543041" fill="none" stroke="#00aba4" stroke-width="3" /><path class="route-100016" d="M 744.7100963598592 1173.2950783272881 L 774.7717359058588 1223.707561361238" fill="none" stroke="#00aba4" stroke-width="3" /><path class="route-100016" d="M 785.1576148462302 1274.120044395188 L 774.7717359058588 1223.707561361238" fill="none" stroke="#00aba4" stroke-width="3" /><path class="route-100016" d="M 785.1576148462302 1274.120044395188 L 785.2015646116471 1306.936456188909" fill="none" stroke="#00aba4" stroke-width="3" /><path class="route-100016" d="M 809.9754980057785 1344.0213511395516 L 785.2015646116471 1306.936456188909" fill="none" stroke="#00aba4" stroke-width="3" /><path class="route-100016" d="M 859.2706536428859 1358.2670329497546 L 809.9754980057785 1344.0213511395516" fill="none" stroke="#00aba4" stroke-width="3" /><path class="route-100016" d="M 859.2706536428859 1358.2670329497546 L 880.2017294232695 1369.2928599830907" fill="none" stroke="#00aba4" stroke-width="3" /><path class="route-100016" d="M 881.0319924361329 1367.4733371529314 L 924.4378795072103 1387.2797951859327" fill="none" stroke="#00aba4" stroke-width="3" /><path class="route-100018" d="M 879.3714664104061 1371.11238281325 L 922.7773534814835 1390.9188408462512" fill="none" stroke="#1f93cd" stroke-width="3" /><path class="route-100016" d="M 923.6076164943469 1389.099318016092 L 937.9077714172682 1387.6721391420253" fill="none" stroke="#00aba4" stroke-width="3" /><path class="route-100016" d="M 955.1553074835449 1397.4361311951968 L 937.9077714172682 1387.6721391420253" fill="none" stroke="#00aba4" stroke-width="3" /><path class="route-100016" d="M 955.1553074835449 1397.4361311951968 L 963.8491204553184 1417.1642684363399" fill="none" stroke="#00aba4" stroke-width="3" /><path class="route-100016" d="M 971.9248898508985 1433.7508716924742 L 963.8491204553184 1417.1642684363399" fill="none" stroke="#00aba4" stroke-width="3" /><path class="route-100016" d="M 989.4333776493452 1456.7467264166612 L 971.9248898508985 1433.7508716924742" fill="none" stroke="#00aba4" stroke-width="3" /><path class="route-100016" d="M 989.4333776493452 1456.7467264166612 L 1005.0053289090556 1478.8897547404702" fill="none" stroke="#00aba4" stroke-width="3" /><path class="route-100016" d="M 1017.2645666003754 1498.752777789834 L 1005.0053289090556 1478.8897547404702" fill="none" stroke="#00aba4" stroke-width="3" /><path class="route-100016" d="M 1017.2645666003754 1498.752777789834 L 1034.9131442760925 1524.7204714500037" fill="none" stroke="#00aba4" stroke-width="3" /><path class="route-100016" d="M 1034.9131442760925 1524.7204714500037 L 1046.0324349268788 1542.4166192576174" fill="none" stroke="#00aba4" stroke-width="3" /><path class="route-100016" d="M 1064.5297924472325 1565.8214825615598 L 1046.0324349268788 1542.4166192576174" fill="none" stroke="#00aba4" stroke-width="3" /><path class="route-100016" d="M 1064.5297924472325 1565.8214825615598 L 1080.0330721984774 1581.2419762498214" fill="none" stroke="#00aba4" stroke-width="3" /><path class="route-100016" d="M 1080.0330721984774 1581.2419762498214 L 1096.3521694702954 1599.2209491391864" fill="none" stroke="#00aba4" stroke-width="3" /><path class="route-100016" d="M 1096.3521694702954 1599.2209491391864 L 1092.3142847725042 1613.9409068557552" fill="none" stroke="#00aba4" stroke-width="3" /><path class="route-100016" d="M 880.2017294232695 1369.2928599830907 L 859.2706536428859 1358.2670329497546" fill="none" stroke="#00aba4" stroke-width="3" /><path class="route-100016" d="M 655.6321624383326 1040.4456106945895 L 602.2167162932756 994.7062682422547" fill="none" stroke="#00aba4" stroke-width="3" /><path class="route-100017" d="M 580.6593563556839 596.8671036260998 L 550.1692065968587 586.685400682956" fill="none" stroke="#84cff0" stroke-width="3" /><path class="route-100017" d="M 548.485381209278 565.9347419923778 L 550.1692065968587 586.685400682956" fill="none" stroke="#84cff0" stroke-width="3" /><path class="route-100017" d="M 548.485381209278 565.9347419923778 L 543.9310867678247 552.5766958233581" fill="none" stroke="#84cff0" stroke-width="3" /><path class="route-100017" d="M 539.9124300924042 531.2081731080382 L 543.9310867678247 552.5766958233581" fill="none" stroke="#84cff0" stroke-width="3" /><path class="route-100017" d="M 550.1692065968587 586.685400682956 L 580.6593563556839 596.8671036260998" fill="none" stroke="#84cff0" stroke-width="3" /><path class="route-100018" d="M 500.02527111511455 533.7840569295752 L 484.4203575313407 550.3227974795327" fill="none" stroke="#1f93cd" stroke-width="3" /><path class="route-100018" d="M 474.7459154186748 564.594586220386 L 484.4203575313407 550.3227974795327" fill="none" stroke="#1f93cd" stroke-width="3" /><path class="route-100018" d="M 474.7459154186748 564.594586220386 L 466.89813543120135 576.6603393235288" fill="none" stroke="#1f93cd" stroke-width="3" /><path class="route-100018" d="M 466.89813543120135 576.6603393235288 L 458.2180567611206 589.731209255704" fill="none" stroke="#1f93cd" stroke-width="3" /><path class="route-100018" d="M 448.42549965389395 604.3946019558794 L 458.2180567611206 589.731209255704" fill="none" stroke="#1f93cd" stroke-width="3" /><path class="route-100018" d="M 448.42549965389395 604.3946019558794 L 435.76247349279737 623.9095325969433" fill="none" stroke="#1f93cd" stroke-width="3" /><path class="route-100018" d="M 559.2970235021359 423.07761762068554 L 583.9610824827212 408.49689686749235" fill="none" stroke="#1f93cd" stroke-width="3" /><path class="route-100018" d="M 605.0130201180044 386.68020517645687 L 583.9610824827212 408.49689686749235" fill="none" stroke="#1f93cd" stroke-width="3" /><path class="route-100018" d="M 605.0130201180044 386.68020517645687 L 624.7272367683718 368.4401629808361" fill="none" stroke="#1f93cd" stroke-width="3" /><path class="route-100018" d="M 624.7272367683718 368.4401629808361 L 605.0130201180044 386.68020517645687" fill="none" stroke="#1f93cd" stroke-width="3" /><path class="route-100018" d="M 435.76247349279737 623.9095325969433 L 393.611901596475 682.449973364981" fill="none" stroke="#1f93cd" stroke-width="3" /><path class="route-100018" d="M 393.611901596475 682.449973364981 L 374.76843967345155 710.0667548095442" fill="none" stroke="#1f93cd" stroke-width="3" /><path class="route-100018" d="M 367.9946820783825 740.7293448268246 L 374.76843967345155 710.0667548095442" fill="none" stroke="#1f93cd" stroke-width="3" /><path class="route-100018" d="M 367.9946820783825 740.7293448268246 L 376.56763319525635 812.6843967802444" fill="none" stroke="#1f93cd" stroke-width="3" /><path class="route-100018" d="M 376.56763319525635 812.6843967802444 L 385.67072835748723 901.5480374674481" fill="none" stroke="#1f93cd" stroke-width="3" /><path class="route-100018" d="M 387.17875468339525 944.1197390041549 L 385.67072835748723 901.5480374674481" fill="none" stroke="#1f93cd" stroke-width="3" /><path class="route-100018" d="M 387.17875468339525 944.1197390041549 L 379.9957148978712 967.4245257407126" fill="none" stroke="#1f93cd" stroke-width="3" /><path class="route-100018" d="M 378.12235614692275 996.5424556961078 L 379.9957148978712 967.4245257407126" fill="none" stroke="#1f93cd" stroke-width="3" /><path class="route-100018" d="M 378.12235614692275 996.5424556961078 L 383.6353048465587 1036.7384265460778" fill="none" stroke="#1f93cd" stroke-width="3" /><path class="route-100018" d="M 421.1876325360108 1089.0306085849031 L 383.6353048465587 1036.7384265460778" fill="none" stroke="#1f93cd" stroke-width="3" /><path class="route-100018" d="M 421.1876325360108 1089.0306085849031 L 440.3002867722189 1118.644570222129" fill="none" stroke="#1f93cd" stroke-width="3" /><path class="route-100018" d="M 473.9960225462281 1181.101050583726 L 440.3002867722189 1118.644570222129" fill="none" stroke="#1f93cd" stroke-width="3" /><path class="route-100018" d="M 523.2307472558869 1232.1923138138734 L 473.9960225462281 1181.101050583726" fill="none" stroke="#1f93cd" stroke-width="3" /><path class="route-100018" d="M 523.2307472558869 1232.1923138138734 L 571.9133530374766 1246.320514436289" fill="none" stroke="#1f93cd" stroke-width="3" /><path class="route-100018" d="M 628.7870963488728 1261.7845196755725 L 571.9133530374766 1246.320514436289" fill="none" stroke="#1f93cd" stroke-width="3" /><path class="route-100018" d="M 664.8121696900438 1280.9687625287395 L 628.7870963488728 1261.7845196755725" fill="none" stroke="#1f93cd" stroke-width="3" /><path class="route-100018" d="M 664.8121696900438 1280.9687625287395 L 678.1674046564775 1292.3383308152822" fill="none" stroke="#1f93cd" stroke-width="3" /><path class="route-100018" d="M 705.4217529363923 1340.1227161664565 L 678.1674046564775 1292.3383308152822" fill="none" stroke="#1f93cd" stroke-width="3" /><path class="route-100018" d="M 705.4217529363923 1340.1227161664565 L 788.8493951413516 1365.6596454713133" fill="none" stroke="#1f93cd" stroke-width="3" /><path class="route-100018" d="M 812.5026095173203 1363.3013194050102 L 788.8493951413516 1365.6596454713133" fill="none" stroke="#1f93cd" stroke-width="3" /><path class="route-100018" d="M 812.5026095173203 1363.3013194050102 L 846.4647907441774 1353.189234943508" fill="none" stroke="#1f93cd" stroke-width="3" /><path class="route-100018" d="M 880.2017294232695 1369.2928599830907 L 846.4647907441774 1353.189234943508" fill="none" stroke="#1f93cd" stroke-width="3" /><circle cx="547.4690428839832" cy="502.79077912439755" fill="white" id="1" r="1.5" /><circle cx="513.6332172327013" cy="502.50795404264613" fill="white" id="2" r="1.5" /><circle cx="520.1789854196636" cy="522.2273889735725" fill="white" id="3" r="1.5" /><circle cx="506.46940546954795" cy="509.45674874358224" fill="white" id="4" r="1.5" /><circle cx="546.6504785030709" cy="490.77288872736966" fill="white" id="6" r="1.5" /><circle cx="521.2145517673291" cy="484.2244002960033" fill="white" id="7" r="1.5" /><circle cx="543.5822355048184" cy="471.17528613935445" fill="white" id="8" r="1.5" /><circle cx="543.7388065441204" cy="465.1532874755309" fill="white" id="9" r="1.5" /><circle cx="539.9124300924042" cy="531.2081731080382" fill="white" id="11" r="1.5" /><circle cx="562.538318701722" cy="560.6828977819503" fill="white" id="17" r="1.5" /><circle cx="548.485381209278" cy="565.9347419923778" fill="white" id="18" r="1.5" /><circle cx="525.7496181864117" cy="553.825477338182" fill="white" id="19" r="1.5" /><circle cx="550.1692065968587" cy="586.685400682956" fill="white" id="20" r="1.5" /><circle cx="502.151341017216" cy="556.8495301354035" fill="white" id="21" r="1.5" /><circle cx="508.16147143814567" cy="542.1774351250115" fill="white" id="22" r="1.5" /><circle cx="500.02527111511455" cy="533.7840569295752" fill="white" id="23" r="1.5" /><circle cx="494.5809939239442" cy="522.6450998635448" fill="white" id="24" r="1.5" /><circle cx="481.4949512706975" cy="534.602074089117" fill="white" id="25" r="1.5" /><circle cx="484.4203575313407" cy="550.3227974795327" fill="white" id="26" r="1.5" /><circle cx="489.82617867776963" cy="500.0147421680913" fill="white" id="27" r="1.5" /><circle cx="472.22704448815" cy="501.19825635636664" fill="white" id="28" r="1.5" /><circle cx="492.4823926252281" cy="481.78340228268723" fill="white" id="30" r="1.5" /><circle cx="474.9656642457669" cy="470.0613904327514" fill="white" id="31" r="1.5" /><circle cx="499.2396690582655" cy="463.643436654482" fill="white" id="32" r="1.5" /><circle cx="559.2970235021359" cy="423.07761762068554" fill="white" id="34" r="1.5" /><circle cx="544.170063617285" cy="437.89765190460815" fill="white" id="35" r="1.5" /><circle cx="526.568182567324" cy="444.90736277703076" fill="white" id="36" r="1.5" /><circle cx="575.9347565732362" cy="498.62672368995356" fill="white" id="39" r="1.5" /><circle cx="593.2344829859468" cy="514.3430959252762" fill="white" id="40" r="1.5" /><circle cx="595.1765132453609" cy="485.6211210843577" fill="white" id="41" r="1.5" /><circle cx="606.9687846791112" cy="471.61910395994613" fill="white" id="42" r="1.5" /><circle cx="859.2706536428859" cy="1358.2670329497546" fill="white" id="43" r="1.5" /><circle cx="619.2994407392332" cy="499.4751989352078" fill="white" id="44" r="1.5" /><circle cx="581.7526067704615" cy="525.7300688322218" fill="white" id="45" r="1.5" /><circle cx="588.6334919187351" cy="534.3105466971488" fill="white" id="46" r="1.5" /><circle cx="602.4584400030749" cy="555.2221981265674" fill="white" id="47" r="1.5" /><circle cx="497.11085229582505" cy="584.4750138901527" fill="white" id="52" r="1.5" /><circle cx="494.7403118235853" cy="601.9274970119748" fill="white" id="53" r="1.5" /><circle cx="496.8636348653477" cy="613.0664540779742" fill="white" id="54" r="1.5" /><circle cx="498.37715491193376" cy="635.300856658982" fill="white" id="56" r="1.5" /><circle cx="503.8791161702161" cy="654.0282282262165" fill="white" id="57" r="1.5" /><circle cx="580.6593563556839" cy="596.8671036260998" fill="white" id="65" r="1.5" /><circle cx="596.2615230791189" cy="627.9735114640026" fill="white" id="76" r="1.5" /><circle cx="630.0451583839669" cy="697.7312300899288" fill="white" id="106" r="1.5" /><circle cx="642.6395130365978" cy="730.756497328636" fill="white" id="107" r="1.5" /><circle cx="654.3631129618849" cy="761.5061104479913" fill="white" id="108" r="1.5" /><circle cx="666.7981497148749" cy="814.3987518911864" fill="white" id="124" r="1.5" /><circle cx="598.3820992605447" cy="886.5452546691588" fill="white" id="134" r="1.5" /><circle cx="260.0925142562056" cy="492.9919778303899" fill="white" id="142" r="1.5" /><circle cx="450.3730236339861" cy="498.73550256755505" fill="white" id="143" r="1.5" /><circle cx="428.5739399865953" cy="498.265577816313" fill="white" id="144" r="1.5" /><circle cx="474.7459154186748" cy="564.594586220386" fill="white" id="150" r="1.5" /><circle cx="466.89813543120135" cy="576.6603393235288" fill="white" id="151" r="1.5" /><circle cx="458.2180567611206" cy="589.731209255704" fill="white" id="152" r="1.5" /><circle cx="467.6370408622945" cy="545.888970428647" fill="white" id="153" r="1.5" /><circle cx="456.7567270609685" cy="553.6514311340321" fill="white" id="154" r="1.5" /><circle cx="442.2066078472307" cy="561.4487010802533" fill="white" id="155" r="1.5" /><circle cx="448.42549965389395" cy="604.3946019558794" fill="white" id="160" r="1.5" /><circle cx="1096.3521694702954" cy="1599.2209491391864" fill="white" id="161" r="1.5" /><circle cx="438.5505367365091" cy="594.452212543434" fill="white" id="162" r="1.5" /><circle cx="429.99956050234505" cy="584.8796713148151" fill="white" id="163" r="1.5" /><circle cx="424.640435981672" cy="569.6767353817565" fill="white" id="164" r="1.5" /><circle cx="411.10116137255096" cy="574.7501822329103" fill="white" id="165" r="1.5" /><circle cx="402.7122498983644" cy="583.4873016815845" fill="white" id="166" r="1.5" /><circle cx="435.76247349279737" cy="623.9095325969433" fill="white" id="167" r="1.5" /><circle cx="404.55814004592764" cy="522.4144886430322" fill="white" id="169" r="1.5" /><circle cx="406.8737433113944" cy="537.3824622005162" fill="white" id="170" r="1.5" /><circle cx="377.8284420906894" cy="545.1623275263039" fill="white" id="172" r="1.5" /><circle cx="416.3476646193389" cy="554.7087618243033" fill="white" id="173" r="1.5" /><circle cx="406.156812763011" cy="497.1647355750197" fill="white" id="178" r="1.5" /><circle cx="380.9214068319906" cy="496.3858788114378" fill="white" id="179" r="1.5" /><circle cx="367.05525584257043" cy="495.78977056219173" fill="white" id="180" r="1.5" /><circle cx="353.15064880841146" cy="495.1893111578527" fill="white" id="181" r="1.5" /><circle cx="412.83717710656566" cy="484.7334854431435" fill="white" id="182" r="1.5" /><circle cx="332.52996824629287" cy="494.15808739823177" fill="white" id="186" r="1.5" /><circle cx="312.8679419423595" cy="494.5888517535137" fill="white" id="187" r="1.5" /><circle cx="295.7934580774165" cy="494.3886986187444" fill="white" id="200" r="1.5" /><circle cx="822.2484699987909" cy="770.6565896315449" fill="white" id="228" r="1.5" /><circle cx="318.40561238504415" cy="571.1996396681151" fill="white" id="234" r="1.5" /><circle cx="267.92655994198634" cy="582.1036343585399" fill="white" id="235" r="1.5" /><circle cx="453.5044444200263" cy="458.0173931051042" fill="white" id="236" r="1.5" /><circle cx="438.46263720567276" cy="448.0097363661104" fill="white" id="237" r="1.5" /><circle cx="460.346873523561" cy="439.01589876633506" fill="white" id="238" r="1.5" /><circle cx="449.002340325007" cy="430.5006882279566" fill="white" id="239" r="1.5" /><circle cx="186.72112775097943" cy="491.13838575610316" fill="white" id="241" r="1.5" /><circle cx="300.73780668695645" cy="346.8714871307468" fill="white" id="242" r="1.5" /><circle cx="440.99798929823163" cy="420.27112257866696" fill="white" id="245" r="1.5" /><circle cx="447.4586048146966" cy="410.145984651855" fill="white" id="246" r="1.5" /><circle cx="432.9991319921318" cy="403.35383153466626" fill="white" id="247" r="1.5" /><circle cx="415.6856712777285" cy="374.3881920078944" fill="white" id="249" r="1.5" /><circle cx="428.5574588245636" cy="439.8687251666822" fill="white" id="251" r="1.5" /><circle cx="417.61396723545005" cy="461.83335613124825" fill="white" id="254" r="1.5" /><circle cx="409.98318921472725" cy="421.33280442403117" fill="white" id="255" r="1.5" /><circle cx="204.22137496841148" cy="491.76495209106156" fill="white" id="261" r="1.5" /><circle cx="390.9117378835971" cy="411.28163613398453" fill="white" id="262" r="1.5" /><circle cx="362.6492918594046" cy="391.6927358561551" fill="white" id="264" r="1.5" /><circle cx="395.44131058200406" cy="335.3409261053636" fill="white" id="272" r="1.5" /><circle cx="397.78163559051956" cy="361.2607570593874" fill="white" id="273" r="1.5" /><circle cx="375.67490358520024" cy="320.5078383561313" fill="white" id="274" r="1.5" /><circle cx="340.25413951853" cy="374.68407055495555" fill="white" id="282" r="1.5" /><circle cx="323.5587223803177" cy="364.6633603506521" fill="white" id="283" r="1.5" /><circle cx="308.0169865843339" cy="356.30479139602096" fill="white" id="291" r="1.5" /><circle cx="303.54235109269996" cy="327.8569393266371" fill="white" id="298" r="1.5" /><circle cx="523.7334226978562" cy="343.4471280639557" fill="white" id="303" r="1.5" /><circle cx="529.9330864821513" cy="375.1713999266002" fill="white" id="304" r="1.5" /><circle cx="534.4296968564925" cy="405.385820968165" fill="white" id="305" r="1.5" /><circle cx="583.9610824827212" cy="408.49689686749235" fill="white" id="313" r="1.5" /><circle cx="605.0130201180044" cy="386.68020517645687" fill="white" id="314" r="1.5" /><circle cx="624.7272367683718" cy="368.4401629808361" fill="white" id="315" r="1.5" /><circle cx="570.5344291474828" cy="383.0556929748964" fill="white" id="316" r="1.5" /><circle cx="572.4956874292676" cy="349.91294454837094" fill="white" id="317" r="1.5" /><circle cx="495.94893037258436" cy="360.22083098954965" fill="white" id="325" r="1.5" /><circle cx="475.4765802687508" cy="377.2120916703466" fill="white" id="326" r="1.5" /><circle cx="516.7124476723097" cy="317.62302252222355" fill="white" id="336" r="1.5" /><circle cx="509.7766253172607" cy="285.26348201443477" fill="white" id="337" r="1.5" /><circle cx="535.5998593607503" cy="245.74194020556902" fill="white" id="342" r="1.5" /><circle cx="551.3338753804384" cy="287.32592953367674" fill="white" id="343" r="1.5" /><circle cx="439.75366156483017" cy="244.55842601732456" fill="white" id="355" r="1.5" /><circle cx="422.7478492083529" cy="240.1245989664389" fill="white" id="356" r="1.5" /><circle cx="413.6804632305268" cy="242.395901930667" fill="white" id="357" r="1.5" /><circle cx="495.5753573665293" cy="257.82074677405245" fill="white" id="362" r="1.5" /><circle cx="474.31465834551017" cy="249.76675867669917" fill="white" id="363" r="1.5" /><circle cx="454.47957984024066" cy="246.50339234877922" fill="white" id="364" r="1.5" /><circle cx="534.5917616164725" cy="214.86614358820964" fill="white" id="367" r="1.5" /><circle cx="534.8527133486425" cy="197.62251591140458" fill="white" id="368" r="1.5" /><circle cx="534.9213848571083" cy="171.3763483246073" fill="white" id="369" r="1.5" /><circle cx="534.9186379967691" cy="147.47980449389632" fill="white" id="370" r="1.5" /><circle cx="1092.3142847725042" cy="1613.9409068557552" fill="white" id="371" r="1.5" /><circle cx="401.5365936734311" cy="170.51481961401242" fill="white" id="384" r="1.5" /><circle cx="377.1224989836596" cy="131.14121707870814" fill="white" id="385" r="1.5" /><circle cx="528.2300330721976" cy="116.64751942755902" fill="white" id="416" r="1.5" /><circle cx="514.1935767417826" cy="100.0" fill="white" id="417" r="1.5" /><circle cx="637.6017711755459" cy="588.6303670144107" fill="white" id="438" r="1.5" /><circle cx="657.2610506191427" cy="593.468851489959" fill="white" id="439" r="1.5" /><circle cx="618.7720435542176" cy="571.2039908232389" fill="white" id="444" r="1.5" /><circle cx="697.8294309604108" cy="628.7175589867485" fill="white" id="449" r="1.5" /><circle cx="727.2620394888636" cy="652.244254633633" fill="white" id="450" r="1.5" /><circle cx="742.9273840000861" cy="660.1677080778583" fill="white" id="451" r="1.5" /><circle cx="787.3303813740876" cy="670.7279615150452" fill="white" id="452" r="1.5" /><circle cx="811.9092876841756" cy="693.8456485821433" fill="white" id="466" r="1.5" /><circle cx="819.8394734818098" cy="723.4509079091832" fill="white" id="467" r="1.5" /><circle cx="792.1291463856816" cy="805.7007928384412" fill="white" id="486" r="1.5" /><circle cx="653.2039378989808" cy="494.9282418516278" fill="white" id="512" r="1.5" /><circle cx="680.8373529056287" cy="488.7713573795833" fill="white" id="513" r="1.5" /><circle cx="719.4115126410511" cy="477.2973613705628" fill="white" id="517" r="1.5" /><circle cx="737.5984749431398" cy="476.49239767633054" fill="white" id="518" r="1.5" /><circle cx="716.9283508949262" cy="515.552717044171" fill="white" id="521" r="1.5" /><circle cx="770.6349642358776" cy="530.9732107324327" fill="white" id="533" r="1.5" /><circle cx="805.1602518321553" cy="540.1846060874419" fill="white" id="534" r="1.5" /><circle cx="773.1318602836951" cy="473.1594128667382" fill="white" id="539" r="1.5" /><circle cx="789.4866667399157" cy="466.389015525045" fill="white" id="540" r="1.5" /><circle cx="856.9001131706461" cy="450.81623140812906" fill="white" id="546" r="1.5" /><circle cx="875.0046696625741" cy="444.89866046681396" fill="white" id="547" r="1.5" /><circle cx="840.8090053069321" cy="555.3266258490451" fill="white" id="553" r="1.5" /><circle cx="863.5365277487814" cy="564.1072568487414" fill="white" id="554" r="1.5" /><circle cx="906.1101161372538" cy="569.9726139288177" fill="white" id="555" r="1.5" /><circle cx="882.4376737389144" cy="569.820323500194" fill="white" id="556" r="1.5" /><circle cx="923.5361981255421" cy="572.3048330645322" fill="white" id="557" r="1.5" /><circle cx="637.6896707063823" cy="448.3665310846271" fill="white" id="567" r="1.5" /><circle cx="658.2197048773254" cy="416.06355559317007" fill="white" id="568" r="1.5" /><circle cx="671.1189610275458" cy="436.2268083447191" fill="white" id="569" r="1.5" /><circle cx="668.9049915946056" cy="389.26044015308673" fill="white" id="570" r="1.5" /><circle cx="695.1484952699061" cy="405.73391337649576" fill="white" id="572" r="1.5" /><circle cx="696.0329842989452" cy="426.78915292432106" fill="white" id="577" r="1.5" /><circle cx="725.9874962917378" cy="406.27780776447213" fill="white" id="578" r="1.5" /><circle cx="743.2927164251241" cy="390.56143552914943" fill="white" id="579" r="1.5" /><circle cx="765.8059837605617" cy="366.2732877390856" fill="white" id="583" r="1.5" /><circle cx="781.6910770988763" cy="362.70534055388777" fill="white" id="584" r="1.5" /><circle cx="809.9123202179909" cy="355.52158347731523" fill="white" id="585" r="1.5" /><circle cx="835.7520354235095" cy="345.3311782239547" fill="white" id="594" r="1.5" /><circle cx="862.8827749881881" cy="332.6606145613491" fill="white" id="595" r="1.5" /><circle cx="892.1093689912414" cy="318.50195585322103" fill="white" id="596" r="1.5" /><circle cx="719.2988913671661" cy="307.8155189180301" fill="white" id="606" r="1.5" /><circle cx="738.6972190785929" cy="271.70963386573874" fill="white" id="607" r="1.5" /><circle cx="760.7600013184928" cy="238.53642735350095" fill="white" id="608" r="1.5" /><circle cx="773.8542845527566" cy="217.4463785648395" fill="white" id="609" r="1.5" /><circle cx="664.8121696900438" cy="1280.9687625287395" fill="white" id="628" r="1.5" /><circle cx="675.8490545306717" cy="370.4242897082199" fill="white" id="631" r="1.5" /><circle cx="688.6192082449754" cy="351.62729965931294" fill="white" id="632" r="1.5" /><circle cx="697.9118367705715" cy="332.8651188512423" fill="white" id="633" r="1.5" /><circle cx="1086.4854471339252" cy="384.50897877961347" fill="white" id="655" r="1.5" /><circle cx="779.7929966048791" cy="140.74856754813226" fill="white" id="663" r="1.5" /><circle cx="1100.0" cy="380.4580533778639" fill="white" id="665" r="1.5" /><circle cx="1068.0814828650834" cy="386.2146315803388" fill="white" id="666" r="1.5" /><circle cx="1049.0567281597118" cy="382.55531013794206" fill="white" id="667" r="1.5" /><circle cx="939.1218836869454" cy="433.6857337640183" fill="white" id="668" r="1.5" /><circle cx="974.853042971883" cy="423.3473892371273" fill="white" id="669" r="1.5" /><circle cx="1013.7760539703119" cy="411.5035450442803" fill="white" id="670" r="1.5" /><circle cx="1033.3282058606992" cy="393.38098403647774" fill="white" id="671" r="1.5" /><circle cx="678.1674046564775" cy="1292.3383308152822" fill="white" id="672" r="1.5" /><circle cx="628.7870963488728" cy="1261.7845196755725" fill="white" id="673" r="1.5" /><circle cx="571.9133530374766" cy="1246.320514436289" fill="white" id="674" r="1.5" /><circle cx="523.2307472558869" cy="1232.1923138138734" fill="white" id="675" r="1.5" /><circle cx="473.9960225462281" cy="1181.101050583726" fill="white" id="676" r="1.5" /><circle cx="440.3002867722189" cy="1118.644570222129" fill="white" id="677" r="1.5" /><circle cx="774.7717359058588" cy="1223.707561361238" fill="white" id="678" r="1.5" /><circle cx="744.7100963598592" cy="1173.2950783272881" fill="white" id="679" r="1.5" /><circle cx="719.4197532220658" cy="1131.7154401543041" fill="white" id="680" r="1.5" /><circle cx="705.4217529363923" cy="1340.1227161664565" fill="white" id="681" r="1.5" /><circle cx="971.9248898508985" cy="1433.7508716924742" fill="white" id="683" r="1.5" /><circle cx="963.8491204553184" cy="1417.1642684363399" fill="white" id="684" r="1.5" /><circle cx="955.1553074835449" cy="1397.4361311951968" fill="white" id="685" r="1.5" /><circle cx="937.9077714172682" cy="1387.6721391420253" fill="white" id="686" r="1.5" /><circle cx="923.6076164943469" cy="1389.099318016092" fill="white" id="687" r="1.5" /><circle cx="880.2017294232695" cy="1369.2928599830907" fill="white" id="688" r="1.5" /><circle cx="846.4647907441774" cy="1353.189234943508" fill="white" id="689" r="1.5" /><circle cx="1017.2645666003754" cy="1498.752777789834" fill="white" id="690" r="1.5" /><circle cx="1005.0053289090556" cy="1478.8897547404702" fill="white" id="691" r="1.5" /><circle cx="989.4333776493452" cy="1456.7467264166612" fill="white" id="692" r="1.5" /><circle cx="809.9754980057785" cy="1344.0213511395516" fill="white" id="693" r="1.5" /><circle cx="785.2015646116471" cy="1306.936456188909" fill="white" id="694" r="1.5" /><circle cx="785.1576148462302" cy="1274.120044395188" fill="white" id="695" r="1.5" /><circle cx="812.5026095173203" cy="1363.3013194050102" fill="white" id="696" r="1.5" /><circle cx="788.8493951413516" cy="1365.6596454713133" fill="white" id="697" r="1.5" /><circle cx="1034.9131442760925" cy="1524.7204714500037" fill="white" id="698" r="1.5" /><circle cx="1046.0324349268788" cy="1542.4166192576174" fill="white" id="699" r="1.5" /><circle cx="1064.5297924472325" cy="1565.8214825615598" fill="white" id="700" r="1.5" /><circle cx="1080.0330721984774" cy="1581.2419762498214" fill="white" id="701" r="1.5" /><circle cx="150.38291233120444" cy="480.09080294727164" fill="white" id="702" r="1.5" /><circle cx="100.0" cy="639.9826995507827" fill="white" id="708" r="1.5" /><circle cx="113.15471416171236" cy="622.4867048779696" fill="white" id="709" r="1.5" /><circle cx="125.71061276960444" cy="617.0695167735779" fill="white" id="710" r="1.5" /><circle cx="150.30325338138513" cy="614.5632514337133" fill="white" id="711" r="1.5" /><circle cx="170.33335897069554" cy="608.0974349492981" fill="white" id="712" r="1.5" /><circle cx="240.99908804236577" cy="589.9705227864026" fill="white" id="713" r="1.5" /><circle cx="393.611901596475" cy="682.449973364981" fill="white" id="730" r="1.5" /><circle cx="376.56763319525635" cy="812.6843967802444" fill="white" id="731" r="1.5" /><circle cx="374.76843967345155" cy="710.0667548095442" fill="white" id="732" r="1.5" /><circle cx="367.9946820783825" cy="740.7293448268246" fill="white" id="733" r="1.5" /><circle cx="387.17875468339525" cy="944.1197390041549" fill="white" id="734" r="1.5" /><circle cx="379.9957148978712" cy="967.4245257407126" fill="white" id="735" r="1.5" /><circle cx="378.12235614692275" cy="996.5424556961078" fill="white" id="736" r="1.5" /><circle cx="383.6353048465587" cy="1036.7384265460778" fill="white" id="737" r="1.5" /><circle cx="385.67072835748723" cy="901.5480374674481" fill="white" id="738" r="1.5" /><circle cx="421.1876325360108" cy="1089.0306085849031" fill="white" id="739" r="1.5" /><circle cx="655.6321624383326" cy="1040.4456106945895" fill="white" id="740" r="1.5" /><circle cx="602.2167162932756" cy="994.7062682422547" fill="white" id="741" r="1.5" /><circle cx="577.5334292903194" cy="956.6336610830132" fill="white" id="742" r="1.5" /><circle cx="686.1580213815603" cy="1076.9256950858003" fill="white" id="743" r="1.5" /><circle cx="571.8666564117206" cy="323.2664706920041" fill="white" id="818" r="1.5" /><circle cx="232.11848856756598" cy="492.31754878928564" fill="white" id="830" r="1.5" /><circle cx="543.9310867678247" cy="552.5766958233581" fill="white" id="894" r="1.5" /><circle cx="615.536242075307" cy="658.5403760689912" fill="white" id="897" r="1.5" /><circle cx="348.2694779866615" cy="287.0474556070492" fill="white" id="903" r="1.5" /><circle cx="301.2404821289258" cy="307.60666347304397" fill="white" id="940" r="1.5" /><circle cx="367.06074956324846" cy="301.9022991318079" fill="white" id="976" r="1.5" /></svg>