<?xml version="1.0" encoding="utf-8" ?>
<svg baseProfile="full" height="1352.4693206761906" version="1.1" width="1200" xmlns="http://www.w3.org/2000/svg" xmlns:ev="http://www.w3.org/2001/xml-events" xmlns:xlink="http://www.w3.org/1999/xlink"><defs /><rect fill="#222B38" height="1352.4693206761906" rx="0" ry="0" width="1200" x="0" y="0" /><path class="route-2349874_1" d="M 723.3707375531144 445.6741394382393 L 707.9442205033224 497.4376916631472" fill="none" stroke="#0065ae" stroke-width="5" /><path class="route-2349874_1" d="M 712.5242401133033 575.2300569813738 L 707.9442205033224 497.4376916631472" fill="none" stroke="#0065ae" stroke-width="5" /><path class="route-2349874_1" d="M 683.59734175836 630.5290317228794 L 712.5242401133033 575.2300569813738" fill="none" stroke="#0065ae" stroke-width="5" /><path class="route-2349874_1" d="M 683.59734175836 630.5290317228794 L 661.751824817517 662.5112087950716" fill="none" stroke="#0065ae" stroke-width="5" /><path class="route-2349874_1" d="M 661.751824817517 662.5112087950716 L 636.7382067763384 698.5646764916795" fill="none" stroke="#0065ae" stroke-width="5" /><path class="route-2349874_1" d="M 610.5087700185206 737.3628344969294 L 636.7382067763384 698.5646764916795" fill="none" stroke="#0065ae" stroke-width="5" /><path class="route-2349874_1" d="M 610.5087700185206 737.3628344969294 L 590.6242510077385 774.0109850937663" fill="none" stroke="#0065ae" stroke-width="5" /><path class="route-2349874_1" d="M 590.6242510077385 774.0109850937663 L 580.4837128227464 806.7512194892777" fill="none" stroke="#0065ae" stroke-width="5" /><path class="route-2349874_1" d="M 583.827068503724 805.7158583008634 L 570.7537489700052 847.931809237982" fill="none" stroke="#0065ae" stroke-width="5" /><path class="route-2349871_1" d="M 577.1403571417687 807.786580677692 L 564.0670376080499 850.0025316148106" fill="none" stroke="#ec6725" stroke-width="5" /><path class="route-2349874_1" d="M 551.2490831853642 891.57575740056 L 564.0522207820537 847.9809263321652" fill="none" stroke="#0065ae" stroke-width="5" /><path class="route-2349871_1" d="M 557.9654281993118 893.5482455890221 L 570.7685657960013 849.9534145206273" fill="none" stroke="#ec6725" stroke-width="5" /><path class="route-2349874_1" d="M 558.0358356022439 891.8585529882253 L 550.4402369531562 928.8791972697899" fill="none" stroke="#0065ae" stroke-width="5" /><path class="route-2349871_1" d="M 551.178675782432 893.2654500013568 L 543.5830771333443 930.2860942829215" fill="none" stroke="#ec6725" stroke-width="5" /><path class="route-2349874_1" d="M 548.9532077333965 926.6705364175588 L 506.2862505485183 955.117290973153" fill="none" stroke="#0065ae" stroke-width="5" /><path class="route-2349871_1" d="M 545.0701063531039 932.4947551351526 L 502.4031491682257 960.9415096907468" fill="none" stroke="#ec6725" stroke-width="5" /><path class="route-2349874_1" d="M 463.56525621456586 982.6809512596238 L 502.318933085687 955.1752333812118" fill="none" stroke="#0065ae" stroke-width="5" /><path class="route-2349871_1" d="M 467.6167897599359 988.3892851611 L 506.370466631057 960.883567282688" fill="none" stroke="#ec6725" stroke-width="5" /><path class="route-2349874_1" d="M 467.70355448228935 982.7445607960681 L 436.03125902526847 1006.7213911348374" fill="none" stroke="#0065ae" stroke-width="5" /><path class="route-2349871_1" d="M 463.4784914922124 988.3256756246558 L 431.80619603519153 1012.3025059634251" fill="none" stroke="#ec6725" stroke-width="5" /><path class="route-2349874_1" d="M 433.91872753023 1009.5119485491313 L 425.4646475650949 1044.4675401222823" fill="none" stroke="#0065ae" stroke-width="5" /><path class="route-2349874_1" d="M 425.4646475650949 1044.4675401222823 L 379.4291317136927 1065.9022644371385" fill="none" stroke="#0065ae" stroke-width="5" /><path class="route-2349874_1" d="M 329.3583178995505 1065.3925362369555 L 379.4291317136927 1065.9022644371385" fill="none" stroke="#0065ae" stroke-width="5" /><path class="route-2349874_1" d="M 286.4952609216663 1059.0862835040807 L 329.3583178995505 1065.3925362369555" fill="none" stroke="#0065ae" stroke-width="5" /><path class="route-2349874_1" d="M 224.79790826887103 1069.8232505922815 L 286.4952609216663 1059.0862835040807" fill="none" stroke="#0065ae" stroke-width="5" /><path class="route-2349874_1" d="M 224.79790826887103 1069.8232505922815 L 165.5714130079495 1056.0279143030757" fill="none" stroke="#0065ae" stroke-width="5" /><path class="route-2349874_1" d="M 165.5714130079495 1056.0279143030757 L 114.36757816755593 1080.0962343187534" fill="none" stroke="#0065ae" stroke-width="5" /><path class="route-2349874_1" d="M 100.0 1117.0907386926365 L 114.36757816755593 1080.0962343187534" fill="none" stroke="#0065ae" stroke-width="5" /><path class="route-2349874_1" d="M 878.2721429349652 201.26600243376822 L 961.3007952936084 100.0" fill="none" stroke="#0065ae" stroke-width="5" /><path class="route-2349874_1" d="M 878.2721429349652 201.26600243376822 L 785.730471728951 213.19233532233397" fill="none" stroke="#0065ae" stroke-width="5" /><path class="route-2349874_1" d="M 723.3707375531144 445.6741394382393 L 785.730471728951 213.19233532233397" fill="none" stroke="#0065ae" stroke-width="5" /><path class="route-2349874_1" d="M 165.5714130079495 1056.0279143030757 L 224.79790826887103 1069.8232505922815" fill="none" stroke="#0065ae" stroke-width="5" /><path class="route-2349874_1" d="M 422.0627269601237 1043.6447787975517 L 430.51680692525883 1008.6891872244007" fill="none" stroke="#0065ae" stroke-width="5" /><path class="route-2349871_1" d="M 428.86656817006605 1045.290301447013 L 437.32064813520117 1010.3347098738618" fill="none" stroke="#ec6725" stroke-width="5" /><path class="route-2349874_1" d="M 577.1404042516948 805.7157061872224 L 587.2809424366869 772.975471791711" fill="none" stroke="#0065ae" stroke-width="5" /><path class="route-2349871_1" d="M 583.827021393798 807.786732791333 L 593.9675595787901 775.0464983958216" fill="none" stroke="#ec6725" stroke-width="5" /><path class="route-2349874_1" d="M 661.751824817517 662.5112087950716 L 683.59734175836 630.5290317228794" fill="none" stroke="#0065ae" stroke-width="5" /><path class="route-2349872_1" d="M 355.4700947815678 957.2059932394038 L 307.7089007517136 949.2137164597985" fill="none" stroke="#00a984" stroke-width="5" /><path class="route-2349872_1" d="M 355.4700947815678 957.2059932394038 L 392.9338707920265 955.6375987773093" fill="none" stroke="#00a984" stroke-width="5" /><path class="route-2349872_1" d="M 392.9338707920265 955.6375987773093 L 442.25950539274703 942.9401386115604" fill="none" stroke="#00a984" stroke-width="5" /><path class="route-2349872_1" d="M 442.25950539274703 942.9401386115604 L 480.5817627192532 914.4999190328284" fill="none" stroke="#00a984" stroke-width="5" /><path class="route-2349872_1" d="M 505.67382067763725 913.598092217145 L 480.5817627192532 914.4999190328284" fill="none" stroke="#00a984" stroke-width="5" /><path class="route-2349872_1" d="M 505.67382067763725 913.598092217145 L 554.607255692338 892.562001494791" fill="none" stroke="#00a984" stroke-width="5" /><path class="route-2349872_1" d="M 554.607255692338 892.562001494791 L 596.8079311471807 917.2053994799248" fill="none" stroke="#00a984" stroke-width="5" /><path class="route-2349872_1" d="M 645.1922867414737 943.6459161194703 L 596.8079311471807 917.2053994799248" fill="none" stroke="#00a984" stroke-width="5" /><path class="route-2349872_1" d="M 645.1922867414737 943.6459161194703 L 680.6209826778482 919.9435548115653" fill="none" stroke="#00a984" stroke-width="5" /><path class="route-2349872_1" d="M 680.6209826778482 919.9435548115653 L 717.9670988125064 891.89543384838" fill="none" stroke="#00a984" stroke-width="5" /><path class="route-2349872_1" d="M 722.6647782982878 858.9591501451416 L 717.9670988125064 891.89543384838" fill="none" stroke="#00a984" stroke-width="5" /><path class="route-2349872_1" d="M 722.6647782982878 858.9591501451416 L 746.0355158514021 825.9379117418108" fill="none" stroke="#00a984" stroke-width="5" /><path class="route-2349871_1" d="M 295.2631005556158 640.9392499648067 L 249.73308639285173 646.7357744974984" fill="none" stroke="#ec6725" stroke-width="5" /><path class="route-2349871_1" d="M 295.2631005556158 640.9392499648067 L 346.70225514761825 639.2989707565768" fill="none" stroke="#ec6725" stroke-width="5" /><path class="route-2349871_1" d="M 421.89998910556477 613.8190957249863 L 346.70225514761825 639.2989707565768" fill="none" stroke="#ec6725" stroke-width="5" /><path class="route-2349871_1" d="M 458.505283799976 657.2636223241083 L 421.89998910556477 613.8190957249863" fill="none" stroke="#ec6725" stroke-width="5" /><path class="route-2349871_1" d="M 501.32912081925747 681.0640082858768 L 458.505283799976 657.2636223241083" fill="none" stroke="#ec6725" stroke-width="5" /><path class="route-2349871_1" d="M 501.32912081925747 681.0640082858768 L 532.2954570214595 708.5827961181063" fill="none" stroke="#ec6725" stroke-width="5" /><path class="route-2349871_1" d="M 554.8817954025495 739.9049405208426 L 532.2954570214595 708.5827961181063" fill="none" stroke="#ec6725" stroke-width="5" /><path class="route-2349871_1" d="M 554.8817954025495 739.9049405208426 L 590.6242510077385 774.0109850937663" fill="none" stroke="#ec6725" stroke-width="5" /><path class="route-2349871_1" d="M 425.4646475650949 1044.4675401222823 L 426.87220830155786 1093.773941023323" fill="none" stroke="#ec6725" stroke-width="5" /><path class="route-2349871_1" d="M 414.97112975269323 1158.3721879294815 L 426.87220830155786 1093.773941023323" fill="none" stroke="#ec6725" stroke-width="5" /><path class="route-2349871_1" d="M 369.24937357010543 1188.3611970394422 L 414.97112975269323 1158.3721879294815" fill="none" stroke="#ec6725" stroke-width="5" /><path class="route-2349871_1" d="M 369.24937357010543 1188.3611970394422 L 323.8021570977216 1190.1256408092636" fill="none" stroke="#ec6725" stroke-width="5" /><path class="route-2349871_1" d="M 279.5664015687946 1193.53689876427 L 323.8021570977216 1190.1256408092636" fill="none" stroke="#ec6725" stroke-width="5" /><path class="route-2349871_1" d="M 279.5664015687946 1193.53689876427 L 211.48926898355109 1208.4366461538414" fill="none" stroke="#ec6725" stroke-width="5" /><path class="route-2349871_1" d="M 175.66837346115653 1233.4525378237029 L 211.48926898355109 1208.4366461538414" fill="none" stroke="#ec6725" stroke-width="5" /><path class="route-2349871_1" d="M 175.66837346115653 1233.4525378237029 L 131.11885826342296 1252.4693206761906" fill="none" stroke="#ec6725" stroke-width="5" /><path class="route-2349870_1" d="M 1045.506046410288 957.3628326855853 L 1100.0 957.6765115779948" fill="none" stroke="#c20831" stroke-width="5" /><path class="route-2349870_1" d="M 1045.506046410288 957.3628326855853 L 959.2264952609215 974.876570845252" fill="none" stroke="#c20831" stroke-width="5" /><path class="route-2349870_1" d="M 959.2264952609215 974.876570845252 L 921.6058394160596 1007.6690850561727" fill="none" stroke="#c20831" stroke-width="5" /><path class="route-2349870_1" d="M 921.6058394160596 1007.6690850561727 L 853.7640265824172 1007.3946160253086" fill="none" stroke="#c20831" stroke-width="5" /><path class="route-2349870_1" d="M 853.7640265824172 1007.3946160253086 L 797.3177906090012 1002.1078196927997" fill="none" stroke="#c20831" stroke-width="5" /><path class="route-2349870_1" d="M 731.511057849443 1042.1149484291873 L 797.3177906090012 1002.1078196927997" fill="none" stroke="#c20831" stroke-width="5" /><path class="route-2349870_1" d="M 731.511057849443 1042.1149484291873 L 686.6085630242922 1058.6941848885804" fill="none" stroke="#c20831" stroke-width="5" /><path class="route-2349870_1" d="M 686.6085630242922 1058.6941848885804 L 631.2953480771354 1103.8835503267046" fill="none" stroke="#c20831" stroke-width="5" /><path class="route-2349870_1" d="M 631.2953480771354 1103.8835503267046 L 596.5726113955795 1094.1268297772779" fill="none" stroke="#c20831" stroke-width="5" /><path class="route-2349870_1" d="M 596.5726113955795 1094.1268297772779 L 567.488833206233 1079.5865061186169" fill="none" stroke="#c20831" stroke-width="5" /><path class="route-2349870_1" d="M 548.6981152630995 1046.7025022307412 L 567.488833206233 1079.5865061186169" fill="none" stroke="#c20831" stroke-width="5" /><path class="route-2349870_1" d="M 548.6981152630995 1046.7025022307412 L 538.2830373679035 984.6725012562239" fill="none" stroke="#c20831" stroke-width="5" /><path class="route-2349870_1" d="M 538.2830373679035 984.6725012562239 L 504.344699858372 958.0294003319499" fill="none" stroke="#c20831" stroke-width="5" /><path class="route-2349870_1" d="M 504.344699858372 958.0294003319499 L 480.5817627192532 914.4999190328284" fill="none" stroke="#c20831" stroke-width="5" /><path class="route-2349870_1" d="M 480.5817627192532 914.4999190328284 L 490.0555616080216 882.2628778605913" fill="none" stroke="#c20831" stroke-width="5" /><path class="route-2349870_1" d="M 490.0555616080216 882.2628778605913 L 495.1062207212125 840.1580215311536" fill="none" stroke="#c20831" stroke-width="5" /><path class="route-2349870_1" d="M 506.6935396012627 812.3909045757414 L 495.1062207212125 840.1580215311536" fill="none" stroke="#c20831" stroke-width="5" /><path class="route-2349870_1" d="M 506.6935396012627 812.3909045757414 L 514.0930384573443 768.6849788996657" fill="none" stroke="#c20831" stroke-width="5" /><path class="route-2349870_1" d="M 514.0930384573443 768.6849788996657 L 532.2954570214595 708.5827961181063" fill="none" stroke="#c20831" stroke-width="5" /><path class="route-2349870_1" d="M 532.2954570214595 708.5827961181063 L 533.1931582961098 647.049453389908" fill="none" stroke="#c20831" stroke-width="5" /><path class="route-2349870_1" d="M 533.1931582961098 647.049453389908 L 531.275738097834 608.6107191155683" fill="none" stroke="#c20831" stroke-width="5" /><path class="route-2349870_1" d="M 527.4016777426721 549.0444044418734 L 531.275738097834 608.6107191155683" fill="none" stroke="#c20831" stroke-width="5" /><path class="route-2349870_1" d="M 527.4016777426721 549.0444044418734 L 516.8689399716753 494.8171659161431" fill="none" stroke="#c20831" stroke-width="5" /><path class="route-2349870_1" d="M 490.09478156661663 441.4133344829588 L 516.8689399716753 494.8171659161431" fill="none" stroke="#c20831" stroke-width="5" /><path class="route-2349870_1" d="M 454.07778625122376 434.7999378346297 L 490.09478156661663 441.4133344829588" fill="none" stroke="#c20831" stroke-width="5" /><path class="route-2349870_1" d="M 454.07778625122376 434.7999378346297 L 392.1494716200021 431.8657331951696" fill="none" stroke="#c20831" stroke-width="5" /><circle cx="505.67382067763725" cy="913.598092217145" fill="white" id="de:09162:1:52:52" r="1.5" /><circle cx="547.0116570432502" cy="929.5826457763557" fill="white" id="de:09162:2:51:51" r="1.5" /><circle cx="547.0116570432502" cy="929.5826457763557" fill="white" id="de:09162:2:52:52" r="1.5" /><circle cx="480.5817627192532" cy="914.4999190328284" fill="white" id="de:09162:6:51:51" r="1.5" /><circle cx="480.5817627192532" cy="914.4999190328284" fill="white" id="de:09162:6:55:56" r="1.5" /><circle cx="433.91872753023" cy="1009.5119485491313" fill="white" id="de:09162:30:51:51" r="1.5" /><circle cx="433.91872753023" cy="1009.5119485491313" fill="white" id="de:09162:30:51:52" r="1.5" /><circle cx="465.5910229872509" cy="985.5351182103619" fill="white" id="de:09162:40:51:51" r="1.5" /><circle cx="465.5910229872509" cy="985.5351182103619" fill="white" id="de:09162:40:51:52" r="1.5" /><circle cx="504.344699858372" cy="958.0294003319499" fill="white" id="de:09162:50:51:51" r="1.5" /><circle cx="504.344699858372" cy="958.0294003319499" fill="white" id="de:09162:50:51:52" r="1.5" /><circle cx="504.344699858372" cy="958.0294003319499" fill="white" id="de:09162:50:53:53" r="1.5" /><circle cx="554.607255692338" cy="892.562001494791" fill="white" id="de:09162:60:51:51" r="1.5" /><circle cx="554.607255692338" cy="892.562001494791" fill="white" id="de:09162:60:51:52" r="1.5" /><circle cx="554.607255692338" cy="892.562001494791" fill="white" id="de:09162:60:54:54" r="1.5" /><circle cx="567.4103932890275" cy="848.9671704263963" fill="white" id="de:09162:70:51:51" r="1.5" /><circle cx="567.4103932890275" cy="848.9671704263963" fill="white" id="de:09162:70:51:52" r="1.5" /><circle cx="580.4837128227464" cy="806.7512194892777" fill="white" id="de:09162:80:51:51" r="1.5" /><circle cx="580.4837128227464" cy="806.7512194892777" fill="white" id="de:09162:80:51:52" r="1.5" /><circle cx="490.0555616080216" cy="882.2628778605913" fill="white" id="de:09162:110:51:51" r="1.5" /><circle cx="490.0555616080216" cy="882.2628778605913" fill="white" id="de:09162:110:51:52" r="1.5" /><circle cx="495.1062207212125" cy="840.1580215311536" fill="white" id="de:09162:120:51:51" r="1.5" /><circle cx="495.1062207212125" cy="840.1580215311536" fill="white" id="de:09162:120:51:52" r="1.5" /><circle cx="506.6935396012627" cy="812.3909045757414" fill="white" id="de:09162:130:51:51" r="1.5" /><circle cx="506.6935396012627" cy="812.3909045757414" fill="white" id="de:09162:130:51:52" r="1.5" /><circle cx="514.0930384573443" cy="768.6849788996657" fill="white" id="de:09162:140:51:51" r="1.5" /><circle cx="538.2830373679035" cy="984.6725012562239" fill="white" id="de:09162:150:51:51" r="1.5" /><circle cx="548.6981152630995" cy="1046.7025022307412" fill="white" id="de:09162:160:51:51" r="1.5" /><circle cx="442.25950539274703" cy="942.9401386115604" fill="white" id="de:09162:240:51:52" r="1.5" /><circle cx="392.9338707920265" cy="955.6375987773093" fill="white" id="de:09162:250:51:52" r="1.5" /><circle cx="307.7089007517136" cy="949.2137164597985" fill="white" id="de:09162:260:51:52" r="1.5" /><circle cx="249.73308639285173" cy="646.7357744974984" fill="white" id="de:09162:300:51:51" r="1.5" /><circle cx="249.73308639285173" cy="646.7357744974984" fill="white" id="de:09162:300:51:52" r="1.5" /><circle cx="392.1494716200021" cy="431.8657331951696" fill="white" id="de:09162:320:51:51" r="1.5" /><circle cx="392.1494716200021" cy="431.8657331951696" fill="white" id="de:09162:320:51:52" r="1.5" /><circle cx="501.32912081925747" cy="681.0640082858768" fill="white" id="de:09162:340:51:51" r="1.5" /><circle cx="501.32912081925747" cy="681.0640082858768" fill="white" id="de:09162:340:51:52" r="1.5" /><circle cx="458.505283799976" cy="657.2636223241083" fill="white" id="de:09162:350:51:51" r="1.5" /><circle cx="458.505283799976" cy="657.2636223241083" fill="white" id="de:09162:350:52:52" r="1.5" /><circle cx="458.505283799976" cy="657.2636223241083" fill="white" id="de:09162:350:52:54" r="1.5" /><circle cx="346.70225514761825" cy="639.2989707565768" fill="white" id="de:09162:360:53:53" r="1.5" /><circle cx="346.70225514761825" cy="639.2989707565768" fill="white" id="de:09162:360:53:54" r="1.5" /><circle cx="295.2631005556158" cy="640.9392499648067" fill="white" id="de:09162:370:51:51" r="1.5" /><circle cx="295.2631005556158" cy="640.9392499648067" fill="white" id="de:09162:370:51:52" r="1.5" /><circle cx="421.89998910556477" cy="613.8190957249863" fill="white" id="de:09162:380:51:51" r="1.5" /><circle cx="421.89998910556477" cy="613.8190957249863" fill="white" id="de:09162:380:51:52" r="1.5" /><circle cx="532.2954570214595" cy="708.5827961181063" fill="white" id="de:09162:400:51:51" r="1.5" /><circle cx="532.2954570214595" cy="708.5827961181063" fill="white" id="de:09162:400:51:53" r="1.5" /><circle cx="532.2954570214595" cy="708.5827961181063" fill="white" id="de:09162:400:52:52" r="1.5" /><circle cx="554.8817954025495" cy="739.9049405208426" fill="white" id="de:09162:410:51:51" r="1.5" /><circle cx="554.8817954025495" cy="739.9049405208426" fill="white" id="de:09162:410:51:52" r="1.5" /><circle cx="712.5242401133033" cy="575.2300569813738" fill="white" id="de:09162:420:51:51" r="1.5" /><circle cx="712.5242401133033" cy="575.2300569813738" fill="white" id="de:09162:420:51:52" r="1.5" /><circle cx="707.9442205033224" cy="497.4376916631472" fill="white" id="de:09162:430:51:51" r="1.5" /><circle cx="707.9442205033224" cy="497.4376916631472" fill="white" id="de:09162:430:52:52" r="1.5" /><circle cx="961.3007952936084" cy="100.0" fill="white" id="de:09184:460:11:51" r="1.5" /><circle cx="961.3007952936084" cy="100.0" fill="white" id="de:09184:460:11:52" r="1.5" /><circle cx="723.3707375531144" cy="445.6741394382393" fill="white" id="de:09162:470:51:51" r="1.5" /><circle cx="723.3707375531144" cy="445.6741394382393" fill="white" id="de:09162:470:51:53" r="1.5" /><circle cx="723.3707375531144" cy="445.6741394382393" fill="white" id="de:09162:470:52:52" r="1.5" /><circle cx="723.3707375531144" cy="445.6741394382393" fill="white" id="de:09162:470:52:54" r="1.5" /><circle cx="785.730471728951" cy="213.19233532233397" fill="white" id="de:09184:480:11:51" r="1.5" /><circle cx="785.730471728951" cy="213.19233532233397" fill="white" id="de:09184:480:12:52" r="1.5" /><circle cx="878.2721429349652" cy="201.26600243376822" fill="white" id="de:09184:490:11:51" r="1.5" /><circle cx="878.2721429349652" cy="201.26600243376822" fill="white" id="de:09184:490:11:52" r="1.5" /><circle cx="590.6242510077385" cy="774.0109850937663" fill="white" id="de:09162:500:51:51" r="1.5" /><circle cx="590.6242510077385" cy="774.0109850937663" fill="white" id="de:09162:500:51:53" r="1.5" /><circle cx="590.6242510077385" cy="774.0109850937663" fill="white" id="de:09162:500:52:52" r="1.5" /><circle cx="590.6242510077385" cy="774.0109850937663" fill="white" id="de:09162:500:52:54" r="1.5" /><circle cx="610.5087700185206" cy="737.3628344969294" fill="white" id="de:09162:510:51:51" r="1.5" /><circle cx="610.5087700185206" cy="737.3628344969294" fill="white" id="de:09162:510:51:52" r="1.5" /><circle cx="636.7382067763384" cy="698.5646764916795" fill="white" id="de:09162:520:51:51" r="1.5" /><circle cx="636.7382067763384" cy="698.5646764916795" fill="white" id="de:09162:520:52:52" r="1.5" /><circle cx="661.751824817517" cy="662.5112087950716" fill="white" id="de:09162:530:51:51" r="1.5" /><circle cx="661.751824817517" cy="662.5112087950716" fill="white" id="de:09162:530:51:52" r="1.5" /><circle cx="683.59734175836" cy="630.5290317228794" fill="white" id="de:09162:540:51:51" r="1.5" /><circle cx="683.59734175836" cy="630.5290317228794" fill="white" id="de:09162:540:51:52" r="1.5" /><circle cx="717.9670988125064" cy="891.89543384838" fill="white" id="de:09162:560:51:52" r="1.5" /><circle cx="680.6209826778482" cy="919.9435548115653" fill="white" id="de:09162:570:51:52" r="1.5" /><circle cx="645.1922867414737" cy="943.6459161194703" fill="white" id="de:09162:580:52:52" r="1.5" /><circle cx="596.8079311471807" cy="917.2053994799248" fill="white" id="de:09162:590:52:52" r="1.5" /><circle cx="746.0355158514021" cy="825.9379117418108" fill="white" id="de:09162:670:51:51" r="1.5" /><circle cx="746.0355158514021" cy="825.9379117418108" fill="white" id="de:09162:670:51:52" r="1.5" /><circle cx="722.6647782982878" cy="858.9591501451416" fill="white" id="de:09162:680:52:52" r="1.5" /><circle cx="533.1931582961098" cy="647.049453389908" fill="white" id="de:09162:740:51:51" r="1.5" /><circle cx="531.275738097834" cy="608.6107191155683" fill="white" id="de:09162:750:51:51" r="1.5" /><circle cx="527.4016777426721" cy="549.0444044418734" fill="white" id="de:09162:760:51:51" r="1.5" /><circle cx="516.8689399716753" cy="494.8171659161431" fill="white" id="de:09162:770:51:51" r="1.5" /><circle cx="490.09478156661663" cy="441.4133344829588" fill="white" id="de:09162:780:51:51" r="1.5" /><circle cx="454.07778625122376" cy="434.7999378346297" fill="white" id="de:09162:790:51:51" r="1.5" /><circle cx="921.6058394160596" cy="1007.6690850561727" fill="white" id="de:09162:920:51:51" r="1.5" /><circle cx="731.511057849443" cy="1042.1149484291873" fill="white" id="de:09162:1060:51:51" r="1.5" /><circle cx="686.6085630242922" cy="1058.6941848885804" fill="white" id="de:09162:1070:51:51" r="1.5" /><circle cx="631.2953480771354" cy="1103.8835503267046" fill="white" id="de:09162:1110:51:51" r="1.5" /><circle cx="379.4291317136927" cy="1065.9022644371385" fill="white" id="de:09162:1130:51:51" r="1.5" /><circle cx="379.4291317136927" cy="1065.9022644371385" fill="white" id="de:09162:1130:51:52" r="1.5" /><circle cx="425.4646475650949" cy="1044.4675401222823" fill="white" id="de:09162:1140:51:51" r="1.5" /><circle cx="425.4646475650949" cy="1044.4675401222823" fill="white" id="de:09162:1140:51:53" r="1.5" /><circle cx="425.4646475650949" cy="1044.4675401222823" fill="white" id="de:09162:1140:52:52" r="1.5" /><circle cx="355.4700947815678" cy="957.2059932394038" fill="white" id="de:09162:1150:51:52" r="1.5" /><circle cx="596.5726113955795" cy="1094.1268297772779" fill="white" id="de:09162:1160:51:51" r="1.5" /><circle cx="567.488833206233" cy="1079.5865061186169" fill="white" id="de:09162:1170:51:51" r="1.5" /><circle cx="797.3177906090012" cy="1002.1078196927997" fill="white" id="de:09162:1220:51:51" r="1.5" /><circle cx="853.7640265824172" cy="1007.3946160253086" fill="white" id="de:09162:1230:51:51" r="1.5" /><circle cx="959.2264952609215" cy="974.876570845252" fill="white" id="de:09162:1240:51:51" r="1.5" /><circle cx="1045.506046410288" cy="957.3628326855853" fill="white" id="de:09162:1250:51:51" r="1.5" /><circle cx="1100.0" cy="957.6765115779948" fill="white" id="de:09162:1260:51:51" r="1.5" /><circle cx="329.3583178995505" cy="1065.3925362369555" fill="white" id="de:09162:1330:51:51" r="1.5" /><circle cx="329.3583178995505" cy="1065.3925362369555" fill="white" id="de:09162:1330:51:52" r="1.5" /><circle cx="286.4952609216663" cy="1059.0862835040807" fill="white" id="de:09162:1340:51:51" r="1.5" /><circle cx="286.4952609216663" cy="1059.0862835040807" fill="white" id="de:09162:1340:51:52" r="1.5" /><circle cx="426.87220830155786" cy="1093.773941023323" fill="white" id="de:09162:1430:51:51" r="1.5" /><circle cx="426.87220830155786" cy="1093.773941023323" fill="white" id="de:09162:1430:51:52" r="1.5" /><circle cx="414.97112975269323" cy="1158.3721879294815" fill="white" id="de:09162:1440:51:51" r="1.5" /><circle cx="414.97112975269323" cy="1158.3721879294815" fill="white" id="de:09162:1440:51:52" r="1.5" /><circle cx="369.24937357010543" cy="1188.3611970394422" fill="white" id="de:09162:1450:51:51" r="1.5" /><circle cx="369.24937357010543" cy="1188.3611970394422" fill="white" id="de:09162:1450:51:52" r="1.5" /><circle cx="323.8021570977216" cy="1190.1256408092636" fill="white" id="de:09162:1460:51:51" r="1.5" /><circle cx="323.8021570977216" cy="1190.1256408092636" fill="white" id="de:09162:1460:51:52" r="1.5" /><circle cx="279.5664015687946" cy="1193.53689876427" fill="white" id="de:09162:1470:51:51" r="1.5" /><circle cx="279.5664015687946" cy="1193.53689876427" fill="white" id="de:09162:1470:51:52" r="1.5" /><circle cx="211.48926898355109" cy="1208.4366461538414" fill="white" id="de:09162:1480:51:51" r="1.5" /><circle cx="211.48926898355109" cy="1208.4366461538414" fill="white" id="de:09162:1480:51:52" r="1.5" /><circle cx="175.66837346115653" cy="1233.4525378237029" fill="white" id="de:09162:1490:51:51" r="1.5" /><circle cx="175.66837346115653" cy="1233.4525378237029" fill="white" id="de:09162:1490:51:52" r="1.5" /><circle cx="131.11885826342296" cy="1252.4693206761906" fill="white" id="de:09162:1500:51:51" r="1.5" /><circle cx="131.11885826342296" cy="1252.4693206761906" fill="white" id="de:09162:1500:51:52" r="1.5" /><circle cx="224.79790826887103" cy="1069.8232505922815" fill="white" id="de:09162:1510:51:51" r="1.5" /><circle cx="224.79790826887103" cy="1069.8232505922815" fill="white" id="de:09162:1510:51:52" r="1.5" /><circle cx="165.5714130079495" cy="1056.0279143030757" fill="white" id="de:09162:1520:51:51" r="1.5" /><circle cx="165.5714130079495" cy="1056.0279143030757" fill="white" id="de:09162:1520:51:52" r="1.5" /><circle cx="114.36757816755593" cy="1080.0962343187534" fill="white" id="de:09162:1530:51:51" r="1.5" /><circle cx="114.36757816755593" cy="1080.0962343187534" fill="white" id="de:09162:1530:51:52" r="1.5" /><circle cx="100.0" cy="1117.0907386926365" fill="white" id="de:09162:1540:51:51" r="1.5" /><circle cx="100.0" cy="1117.0907386926365" fill="white" id="de:09162:1540:51:52" r="1.5" /></svg>