<?xml version="1.0" encoding="utf-8" ?>
<svg baseProfile="full" height="1364.3139709562206" version="1.1" width="1200" xmlns="http://www.w3.org/2000/svg" xmlns:ev="http://www.w3.org/2001/xml-events" xmlns:xlink="http://www.w3.org/1999/xlink"><defs /><rect fill="#222B38" height="1364.3139709562206" rx="0" ry="0" width="1200" x="0" y="0" /><path class="route-67394" d="M 320.7285914597921 663.0612478111341 L 321.7589795636447 658.1498261006047" fill="none" stroke="#BB3636" stroke-width="3" /><path class="route-41238" d="M 320.7285914597921 663.0612478111341 L 330.9543079281741 694.1584095297139" fill="none" stroke="#A9C539" stroke-width="3" /><path class="route-67394" d="M 320.7285914597921 663.0612478111341 L 330.9543079281741 694.1584095297139" fill="none" stroke="#BB3636" stroke-width="3" /><path class="route-41202" d="M 320.7285914597921 663.0612478111341 L 330.9543079281741 694.1584095297139" fill="none" stroke="#39C5C3" stroke-width="3" /><path class="route-66117" d="M 320.7285914597921 663.0612478111341 L 330.9543079281741 694.1584095297139" fill="none" stroke="#BB3636" stroke-width="3" /><path class="route-67394" d="M 330.9543079281741 694.1584095297139 L 365.0690697933513 734.3909972335175" fill="none" stroke="#BB3636" stroke-width="3" /><path class="route-67394" d="M 365.0690697933513 734.3909972335175 L 459.61562574859147 897.1400714814555" fill="none" stroke="#BB3636" stroke-width="3" /><path class="route-17658" d="M 551.7846761641676 914.2278635127125 L 459.61562574859147 897.1400714814555" fill="none" stroke="#0CC261" stroke-width="3" /><path class="route-67394" d="M 551.7846761641676 914.2278635127125 L 459.61562574859147 897.1400714814555" fill="none" stroke="#BB3636" stroke-width="3" /><path class="route-67394" d="M 551.7846761641676 914.2278635127125 L 672.2199876557592 972.1368982203838" fill="none" stroke="#BB3636" stroke-width="3" /><path class="route-41238" d="M 330.9543079281741 694.1584095297139 L 320.7285914597921 663.0612478111341" fill="none" stroke="#A9C539" stroke-width="3" /><path class="route-67394" d="M 330.9543079281741 694.1584095297139 L 320.7285914597921 663.0612478111341" fill="none" stroke="#BB3636" stroke-width="3" /><path class="route-41202" d="M 330.9543079281741 694.1584095297139 L 320.7285914597921 663.0612478111341" fill="none" stroke="#39C5C3" stroke-width="3" /><path class="route-66117" d="M 330.9543079281741 694.1584095297139 L 320.7285914597921 663.0612478111341" fill="none" stroke="#BB3636" stroke-width="3" /><path class="route-53898" d="M 877.0762869874309 1007.1204821304158 L 882.065791765053 1010.967377646496" fill="none" stroke="#A9C539" stroke-width="3" /><path class="route-67400" d="M 877.0762869874309 1007.1204821304158 L 882.065791765053 1010.967377646496" fill="none" stroke="#A9C539" stroke-width="3" /><path class="route-66117" d="M 877.0762869874309 1007.1204821304158 L 882.065791765053 1010.967377646496" fill="none" stroke="#BB3636" stroke-width="3" /><path class="route-53898" d="M 842.6057135052223 980.1709423344605 L 877.0762869874309 1007.1204821304158" fill="none" stroke="#A9C539" stroke-width="3" /><path class="route-67400" d="M 842.6057135052223 980.1709423344605 L 877.0762869874309 1007.1204821304158" fill="none" stroke="#A9C539" stroke-width="3" /><path class="route-66117" d="M 842.6057135052223 980.1709423344605 L 877.0762869874309 1007.1204821304158" fill="none" stroke="#BB3636" stroke-width="3" /><path class="route-53898" d="M 842.6057135052223 980.1709423344605 L 765.6868955480966 965.7367936621368" fill="none" stroke="#A9C539" stroke-width="3" /><path class="route-67400" d="M 842.6057135052223 980.1709423344605 L 765.6868955480966 965.7367936621368" fill="none" stroke="#A9C539" stroke-width="3" /><path class="route-66117" d="M 842.6057135052223 980.1709423344605 L 765.6868955480966 965.7367936621368" fill="none" stroke="#BB3636" stroke-width="3" /><path class="route-53898" d="M 727.2494703526105 956.1466401426179 L 765.6868955480966 965.7367936621368" fill="none" stroke="#A9C539" stroke-width="3" /><path class="route-67400" d="M 727.2494703526105 956.1466401426179 L 765.6868955480966 965.7367936621368" fill="none" stroke="#A9C539" stroke-width="3" /><path class="route-66117" d="M 727.2494703526105 956.1466401426179 L 765.6868955480966 965.7367936621368" fill="none" stroke="#BB3636" stroke-width="3" /><path class="route-53898" d="M 727.2494703526105 956.1466401426179 L 672.2199876557592 972.1368982203838" fill="none" stroke="#A9C539" stroke-width="3" /><path class="route-67400" d="M 727.2494703526105 956.1466401426179 L 672.2199876557592 972.1368982203838" fill="none" stroke="#A9C539" stroke-width="3" /><path class="route-66117" d="M 727.2494703526105 956.1466401426179 L 672.2199876557592 972.1368982203838" fill="none" stroke="#BB3636" stroke-width="3" /><path class="route-67431" d="M 495.93609395537464 510.23337539812377 L 581.5914305574556 585.7641880812234" fill="none" stroke="#8478F4" stroke-width="3" /><path class="route-67431" d="M 639.6123363214235 621.445685187817 L 581.5914305574556 585.7641880812234" fill="none" stroke="#8478F4" stroke-width="3" /><path class="route-31682" d="M 639.6123363214235 621.445685187817 L 581.5914305574556 585.7641880812234" fill="none" stroke="#0CC261" stroke-width="3" /><path class="route-31675" d="M 639.6123363214235 621.445685187817 L 581.5914305574556 585.7641880812234" fill="none" stroke="#BB3636" stroke-width="3" /><path class="route-67431" d="M 581.5914305574556 585.7641880812234 L 495.93609395537464 510.23337539812377" fill="none" stroke="#8478F4" stroke-width="3" /><path class="route-53898" d="M 615.4090042332102 850.7324174947325 L 672.2199876557592 972.1368982203838" fill="none" stroke="#A9C539" stroke-width="3" /><path class="route-52990" d="M 615.4090042332102 850.7324174947325 L 672.2199876557592 972.1368982203838" fill="none" stroke="#EEF608" stroke-width="3" /><path class="route-52986" d="M 615.4090042332102 850.7324174947325 L 672.2199876557592 972.1368982203838" fill="none" stroke="#BB3636" stroke-width="3" /><path class="route-66117" d="M 615.4090042332102 850.7324174947325 L 672.2199876557592 972.1368982203838" fill="none" stroke="#BB3636" stroke-width="3" /><path class="route-53898" d="M 615.4090042332102 850.7324174947325 L 559.6858110157816 653.0492239784885" fill="none" stroke="#A9C539" stroke-width="3" /><path class="route-52990" d="M 615.4090042332102 850.7324174947325 L 559.6858110157816 653.0492239784885" fill="none" stroke="#EEF608" stroke-width="3" /><path class="route-52986" d="M 615.4090042332102 850.7324174947325 L 559.6858110157816 653.0492239784885" fill="none" stroke="#BB3636" stroke-width="3" /><path class="route-66117" d="M 615.4090042332102 850.7324174947325 L 559.6858110157816 653.0492239784885" fill="none" stroke="#BB3636" stroke-width="3" /><path class="route-53898" d="M 559.6858110157816 653.0492239784885 L 510.14087534580744 543.2422341877204" fill="none" stroke="#A9C539" stroke-width="3" /><path class="route-31677" d="M 559.6858110157816 653.0492239784885 L 510.14087534580744 543.2422341877204" fill="none" stroke="#FF5B1A" stroke-width="3" /><path class="route-66117" d="M 559.6858110157816 653.0492239784885 L 510.14087534580744 543.2422341877204" fill="none" stroke="#BB3636" stroke-width="3" /><path class="route-53898" d="M 510.14087534580744 543.2422341877204 L 487.7948234316473 530.2835327095668" fill="none" stroke="#A9C539" stroke-width="3" /><path class="route-31677" d="M 510.14087534580744 543.2422341877204 L 487.7948234316473 530.2835327095668" fill="none" stroke="#FF5B1A" stroke-width="3" /><path class="route-66117" d="M 510.14087534580744 543.2422341877204 L 487.7948234316473 530.2835327095668" fill="none" stroke="#BB3636" stroke-width="3" /><path class="route-53898" d="M 454.14247771899767 544.7253240922826 L 487.7948234316473 530.2835327095668" fill="none" stroke="#A9C539" stroke-width="3" /><path class="route-31677" d="M 454.14247771899767 544.7253240922826 L 487.7948234316473 530.2835327095668" fill="none" stroke="#FF5B1A" stroke-width="3" /><path class="route-66117" d="M 454.14247771899767 544.7253240922826 L 487.7948234316473 530.2835327095668" fill="none" stroke="#BB3636" stroke-width="3" /><path class="route-31675" d="M 454.14247771899767 544.7253240922826 L 487.7948234316473 530.2835327095668" fill="none" stroke="#BB3636" stroke-width="3" /><path class="route-17782" d="M 454.14247771899767 544.7253240922826 L 487.7948234316473 530.2835327095668" fill="none" stroke="#8478F4" stroke-width="3" /><path class="route-41238" d="M 454.14247771899767 544.7253240922826 L 487.7948234316473 530.2835327095668" fill="none" stroke="#A9C539" stroke-width="3" /><path class="route-31682" d="M 454.14247771899767 544.7253240922826 L 487.7948234316473 530.2835327095668" fill="none" stroke="#0CC261" stroke-width="3" /><path class="route-41223" d="M 454.14247771899767 544.7253240922826 L 487.7948234316473 530.2835327095668" fill="none" stroke="#A9C539" stroke-width="3" /><path class="route-17782" d="M 454.14247771899767 544.7253240922826 L 369.01230929146595 615.6400422390457" fill="none" stroke="#8478F4" stroke-width="3" /><path class="route-41238" d="M 454.14247771899767 544.7253240922826 L 369.01230929146595 615.6400422390457" fill="none" stroke="#A9C539" stroke-width="3" /><path class="route-66117" d="M 454.14247771899767 544.7253240922826 L 369.01230929146595 615.6400422390457" fill="none" stroke="#BB3636" stroke-width="3" /><path class="route-41223" d="M 454.14247771899767 544.7253240922826 L 369.01230929146595 615.6400422390457" fill="none" stroke="#A9C539" stroke-width="3" /><path class="route-41238" d="M 327.0460796394697 658.4275793725067 L 369.01230929146595 615.6400422390457" fill="none" stroke="#A9C539" stroke-width="3" /><path class="route-41202" d="M 327.0460796394697 658.4275793725067 L 369.01230929146595 615.6400422390457" fill="none" stroke="#39C5C3" stroke-width="3" /><path class="route-66117" d="M 327.0460796394697 658.4275793725067 L 369.01230929146595 615.6400422390457" fill="none" stroke="#BB3636" stroke-width="3" /><path class="route-41238" d="M 320.7285914597921 663.0612478111341 L 327.0460796394697 658.4275793725067" fill="none" stroke="#A9C539" stroke-width="3" /><path class="route-41202" d="M 320.7285914597921 663.0612478111341 L 327.0460796394697 658.4275793725067" fill="none" stroke="#39C5C3" stroke-width="3" /><path class="route-66117" d="M 320.7285914597921 663.0612478111341 L 327.0460796394697 658.4275793725067" fill="none" stroke="#BB3636" stroke-width="3" /><path class="route-41238" d="M 330.9543079281741 694.1584095297139 L 347.1620563162643 735.9123354504123" fill="none" stroke="#A9C539" stroke-width="3" /><path class="route-41202" d="M 330.9543079281741 694.1584095297139 L 347.1620563162643 735.9123354504123" fill="none" stroke="#39C5C3" stroke-width="3" /><path class="route-66117" d="M 330.9543079281741 694.1584095297139 L 347.1620563162643 735.9123354504123" fill="none" stroke="#BB3636" stroke-width="3" /><path class="route-41238" d="M 347.1620563162643 735.9123354504123 L 365.0690697933513 734.3909972335175" fill="none" stroke="#A9C539" stroke-width="3" /><path class="route-41202" d="M 347.1620563162643 735.9123354504123 L 365.0690697933513 734.3909972335175" fill="none" stroke="#39C5C3" stroke-width="3" /><path class="route-66117" d="M 347.1620563162643 735.9123354504123 L 365.0690697933513 734.3909972335175" fill="none" stroke="#BB3636" stroke-width="3" /><path class="route-41238" d="M 371.4305255422178 736.8558788350155 L 365.0690697933513 734.3909972335175" fill="none" stroke="#A9C539" stroke-width="3" /><path class="route-41202" d="M 371.4305255422178 736.8558788350155 L 365.0690697933513 734.3909972335175" fill="none" stroke="#39C5C3" stroke-width="3" /><path class="route-66117" d="M 371.4305255422178 736.8558788350155 L 365.0690697933513 734.3909972335175" fill="none" stroke="#BB3636" stroke-width="3" /><path class="route-41238" d="M 371.4305255422178 736.8558788350155 L 425.5261045215568 792.3898954996712" fill="none" stroke="#A9C539" stroke-width="3" /><path class="route-41202" d="M 371.4305255422178 736.8558788350155 L 425.5261045215568 792.3898954996712" fill="none" stroke="#39C5C3" stroke-width="3" /><path class="route-66117" d="M 371.4305255422178 736.8558788350155 L 425.5261045215568 792.3898954996712" fill="none" stroke="#BB3636" stroke-width="3" /><path class="route-41238" d="M 425.5261045215568 792.3898954996712 L 371.4305255422178 736.8558788350155" fill="none" stroke="#A9C539" stroke-width="3" /><path class="route-41202" d="M 425.5261045215568 792.3898954996712 L 371.4305255422178 736.8558788350155" fill="none" stroke="#39C5C3" stroke-width="3" /><path class="route-66117" d="M 425.5261045215568 792.3898954996712 L 371.4305255422178 736.8558788350155" fill="none" stroke="#BB3636" stroke-width="3" /><path class="route-53898" d="M 510.14087534580744 543.2422341877204 L 559.6858110157816 653.0492239784885" fill="none" stroke="#A9C539" stroke-width="3" /><path class="route-31677" d="M 510.14087534580744 543.2422341877204 L 559.6858110157816 653.0492239784885" fill="none" stroke="#FF5B1A" stroke-width="3" /><path class="route-66117" d="M 510.14087534580744 543.2422341877204 L 559.6858110157816 653.0492239784885" fill="none" stroke="#BB3636" stroke-width="3" /><path class="route-53898" d="M 559.6858110157816 653.0492239784885 L 615.4090042332102 850.7324174947325" fill="none" stroke="#A9C539" stroke-width="3" /><path class="route-52990" d="M 559.6858110157816 653.0492239784885 L 615.4090042332102 850.7324174947325" fill="none" stroke="#EEF608" stroke-width="3" /><path class="route-52986" d="M 559.6858110157816 653.0492239784885 L 615.4090042332102 850.7324174947325" fill="none" stroke="#BB3636" stroke-width="3" /><path class="route-66117" d="M 559.6858110157816 653.0492239784885 L 615.4090042332102 850.7324174947325" fill="none" stroke="#BB3636" stroke-width="3" /><path class="route-17792" d="M 559.6858110157816 653.0492239784885 L 700.4650791662588 674.7569200768266" fill="none" stroke="#8478F4" stroke-width="3" /><path class="route-17792" d="M 730.5372674006952 683.704761519631 L 700.4650791662588 674.7569200768266" fill="none" stroke="#8478F4" stroke-width="3" /><path class="route-17792" d="M 730.5372674006952 683.704761519631 L 799.6982522080216 704.8077295330793" fill="none" stroke="#8478F4" stroke-width="3" /><path class="route-31677" d="M 730.5372674006952 683.704761519631 L 799.6982522080216 704.8077295330793" fill="none" stroke="#FF5B1A" stroke-width="3" /><path class="route-17792" d="M 799.6982522080216 704.8077295330793 L 785.3452838255869 774.342777537743" fill="none" stroke="#8478F4" stroke-width="3" /><path class="route-17658" d="M 799.6982522080216 704.8077295330793 L 785.3452838255869 774.342777537743" fill="none" stroke="#0CC261" stroke-width="3" /><path class="route-31677" d="M 799.6982522080216 704.8077295330793 L 785.3452838255869 774.342777537743" fill="none" stroke="#FF5B1A" stroke-width="3" /><path class="route-17792" d="M 559.6858110157816 653.0492239784885 L 501.2529128507491 526.372200882287" fill="none" stroke="#8478F4" stroke-width="3" /><path class="route-52990" d="M 559.6858110157816 653.0492239784885 L 501.2529128507491 526.372200882287" fill="none" stroke="#EEF608" stroke-width="3" /><path class="route-52986" d="M 559.6858110157816 653.0492239784885 L 501.2529128507491 526.372200882287" fill="none" stroke="#BB3636" stroke-width="3" /><path class="route-17792" d="M 501.2529128507491 526.372200882287 L 495.93609395537464 510.23337539812377" fill="none" stroke="#8478F4" stroke-width="3" /><path class="route-52990" d="M 501.2529128507491 526.372200882287 L 495.93609395537464 510.23337539812377" fill="none" stroke="#EEF608" stroke-width="3" /><path class="route-52986" d="M 501.2529128507491 526.372200882287 L 495.93609395537464 510.23337539812377" fill="none" stroke="#BB3636" stroke-width="3" /><path class="route-17792" d="M 477.3410694533167 505.5515545777288 L 495.93609395537464 510.23337539812377" fill="none" stroke="#8478F4" stroke-width="3" /><path class="route-52984" d="M 477.3410694533167 505.5515545777288 L 495.93609395537464 510.23337539812377" fill="none" stroke="#D66ECD" stroke-width="3" /><path class="route-52990" d="M 477.3410694533167 505.5515545777288 L 495.93609395537464 510.23337539812377" fill="none" stroke="#EEF608" stroke-width="3" /><path class="route-17661" d="M 477.3410694533167 505.5515545777288 L 495.93609395537464 510.23337539812377" fill="none" stroke="#39C5C3" stroke-width="3" /><path class="route-52986" d="M 477.3410694533167 505.5515545777288 L 495.93609395537464 510.23337539812377" fill="none" stroke="#BB3636" stroke-width="3" /><path class="route-41202" d="M 477.3410694533167 505.5515545777288 L 495.93609395537464 510.23337539812377" fill="none" stroke="#39C5C3" stroke-width="3" /><path class="route-17792" d="M 469.9097362128153 481.0385209571745 L 477.3410694533167 505.5515545777288" fill="none" stroke="#8478F4" stroke-width="3" /><path class="route-52990" d="M 469.9097362128153 481.0385209571745 L 477.3410694533167 505.5515545777288" fill="none" stroke="#EEF608" stroke-width="3" /><path class="route-17792" d="M 469.9097362128153 481.0385209571745 L 422.79197315033576 428.1392769327678" fill="none" stroke="#8478F4" stroke-width="3" /><path class="route-52990" d="M 469.9097362128153 481.0385209571745 L 422.79197315033576 428.1392769327678" fill="none" stroke="#EEF608" stroke-width="3" /><path class="route-17792" d="M 422.79197315033576 428.1392769327678 L 435.67935592450647 401.29228357240504" fill="none" stroke="#8478F4" stroke-width="3" /><path class="route-17792" d="M 435.67935592450647 401.29228357240504 L 447.5082602043255 382.66079492291385" fill="none" stroke="#8478F4" stroke-width="3" /><path class="route-17792" d="M 454.7954775284871 379.6798347719841 L 447.5082602043255 382.66079492291385" fill="none" stroke="#8478F4" stroke-width="3" /><path class="route-52990" d="M 454.7954775284871 379.6798347719841 L 447.5082602043255 382.66079492291385" fill="none" stroke="#EEF608" stroke-width="3" /><path class="route-17792" d="M 472.9255857065844 366.63735713446243 L 454.7954775284871 379.6798347719841" fill="none" stroke="#8478F4" stroke-width="3" /><path class="route-52990" d="M 472.9255857065844 366.63735713446243 L 454.7954775284871 379.6798347719841" fill="none" stroke="#EEF608" stroke-width="3" /><path class="route-17792" d="M 472.9255857065844 366.63735713446243 L 467.32786290015156 309.9378414563623" fill="none" stroke="#8478F4" stroke-width="3" /><path class="route-17792" d="M 467.32786290015156 309.9378414563623 L 469.1354184815524 269.27889355252114" fill="none" stroke="#8478F4" stroke-width="3" /><path class="route-17792" d="M 454.71894139042803 237.08068424469457 L 469.1354184815524 269.27889355252114" fill="none" stroke="#8478F4" stroke-width="3" /><path class="route-17792" d="M 453.76061124626295 225.38578652618986 L 454.71894139042803 237.08068424469457" fill="none" stroke="#8478F4" stroke-width="3" /><path class="route-17792" d="M 467.32786290015156 309.9378414563623 L 472.9255857065844 366.63735713446243" fill="none" stroke="#8478F4" stroke-width="3" /><path class="route-17792" d="M 422.79197315033576 428.1392769327678 L 469.9097362128153 481.0385209571745" fill="none" stroke="#8478F4" stroke-width="3" /><path class="route-52990" d="M 422.79197315033576 428.1392769327678 L 469.9097362128153 481.0385209571745" fill="none" stroke="#EEF608" stroke-width="3" /><path class="route-17573" d="M 372.4645776099169 624.9780465061584 L 369.01230929146595 615.6400422390457" fill="none" stroke="#BB3636" stroke-width="3" /><path class="route-17573" d="M 372.4645776099169 624.9780465061584 L 422.3522974675531 635.9067888225545" fill="none" stroke="#BB3636" stroke-width="3" /><path class="route-17573" d="M 449.22462379228267 657.1673478305937 L 422.3522974675531 635.9067888225545" fill="none" stroke="#BB3636" stroke-width="3" /><path class="route-17573" d="M 449.22462379228267 657.1673478305937 L 493.9005583888471 655.394443368652" fill="none" stroke="#BB3636" stroke-width="3" /><path class="route-17573" d="M 493.9005583888471 655.394443368652 L 559.6858110157816 653.0492239784885" fill="none" stroke="#BB3636" stroke-width="3" /><path class="route-17573" d="M 559.6858110157816 653.0492239784885 L 493.9005583888471 655.394443368652" fill="none" stroke="#BB3636" stroke-width="3" /><path class="route-17705" d="M 321.7589795636447 658.1498261006047 L 436.4069226441031 688.7797246003602" fill="none" stroke="#2D80D3" stroke-width="3" /><path class="route-17601" d="M 321.7589795636447 658.1498261006047 L 436.4069226441031 688.7797246003602" fill="none" stroke="#FF5B1A" stroke-width="3" /><path class="route-41210" d="M 559.6858110157816 653.0492239784885 L 436.4069226441031 688.7797246003602" fill="none" stroke="#2D80D3" stroke-width="3" /><path class="route-17614" d="M 559.6858110157816 653.0492239784885 L 436.4069226441031 688.7797246003602" fill="none" stroke="#EEF608" stroke-width="3" /><path class="route-17705" d="M 559.6858110157816 653.0492239784885 L 436.4069226441031 688.7797246003602" fill="none" stroke="#2D80D3" stroke-width="3" /><path class="route-17601" d="M 559.6858110157816 653.0492239784885 L 436.4069226441031 688.7797246003602" fill="none" stroke="#FF5B1A" stroke-width="3" /><path class="route-41210" d="M 559.6858110157816 653.0492239784885 L 639.6123363214235 621.445685187817" fill="none" stroke="#2D80D3" stroke-width="3" /><path class="route-17614" d="M 559.6858110157816 653.0492239784885 L 639.6123363214235 621.445685187817" fill="none" stroke="#EEF608" stroke-width="3" /><path class="route-17705" d="M 559.6858110157816 653.0492239784885 L 639.6123363214235 621.445685187817" fill="none" stroke="#2D80D3" stroke-width="3" /><path class="route-17601" d="M 559.6858110157816 653.0492239784885 L 639.6123363214235 621.445685187817" fill="none" stroke="#FF5B1A" stroke-width="3" /><path class="route-17601" d="M 648.948116641482 611.1190203845902 L 639.6123363214235 621.445685187817" fill="none" stroke="#FF5B1A" stroke-width="3" /><path class="route-31675" d="M 648.948116641482 611.1190203845902 L 639.6123363214235 621.445685187817" fill="none" stroke="#BB3636" stroke-width="3" /><path class="route-17705" d="M 436.4069226441031 688.7797246003602 L 321.7589795636447 658.1498261006047" fill="none" stroke="#2D80D3" stroke-width="3" /><path class="route-17601" d="M 436.4069226441031 688.7797246003602 L 321.7589795636447 658.1498261006047" fill="none" stroke="#FF5B1A" stroke-width="3" /><path class="route-17614" d="M 857.724043256106 448.2381877561039 L 639.6123363214235 621.445685187817" fill="none" stroke="#EEF608" stroke-width="3" /><path class="route-41210" d="M 857.724043256106 448.2381877561039 L 639.6123363214235 621.445685187817" fill="none" stroke="#2D80D3" stroke-width="3" /><path class="route-17614" d="M 390.6215548582427 721.1628634777207 L 436.4069226441031 688.7797246003602" fill="none" stroke="#EEF608" stroke-width="3" /><path class="route-41210" d="M 390.6215548582427 721.1628634777207 L 436.4069226441031 688.7797246003602" fill="none" stroke="#2D80D3" stroke-width="3" /><path class="route-17614" d="M 390.6215548582427 721.1628634777207 L 365.0690697933513 734.3909972335175" fill="none" stroke="#EEF608" stroke-width="3" /><path class="route-41210" d="M 390.6215548582427 721.1628634777207 L 365.0690697933513 734.3909972335175" fill="none" stroke="#2D80D3" stroke-width="3" /><path class="route-17782" d="M 1003.2150751244569 207.9034473230392 L 1001.6624626052022 100.0" fill="none" stroke="#8478F4" stroke-width="3" /><path class="route-17614" d="M 1003.2150751244569 207.9034473230392 L 1001.6624626052022 100.0" fill="none" stroke="#EEF608" stroke-width="3" /><path class="route-17782" d="M 1003.2150751244569 207.9034473230392 L 857.724043256106 448.2381877561039" fill="none" stroke="#8478F4" stroke-width="3" /><path class="route-17614" d="M 1003.2150751244569 207.9034473230392 L 857.724043256106 448.2381877561039" fill="none" stroke="#EEF608" stroke-width="3" /><path class="route-17782" d="M 857.724043256106 448.2381877561039 L 1003.2150751244569 207.9034473230392" fill="none" stroke="#8478F4" stroke-width="3" /><path class="route-17614" d="M 857.724043256106 448.2381877561039 L 1003.2150751244569 207.9034473230392" fill="none" stroke="#EEF608" stroke-width="3" /><path class="route-17782" d="M 321.7589795636447 658.1498261006047 L 369.01230929146595 615.6400422390457" fill="none" stroke="#8478F4" stroke-width="3" /><path class="route-17661" d="M 321.7589795636447 658.1498261006047 L 369.01230929146595 615.6400422390457" fill="none" stroke="#39C5C3" stroke-width="3" /><path class="route-41223" d="M 321.7589795636447 658.1498261006047 L 369.01230929146595 615.6400422390457" fill="none" stroke="#A9C539" stroke-width="3" /><path class="route-17782" d="M 487.7948234316473 530.2835327095668 L 592.5670383274123 512.290269721957" fill="none" stroke="#8478F4" stroke-width="3" /><path class="route-41223" d="M 487.7948234316473 530.2835327095668 L 592.5670383274123 512.290269721957" fill="none" stroke="#A9C539" stroke-width="3" /><path class="route-17782" d="M 669.8693511863235 446.77454605144874 L 592.5670383274123 512.290269721957" fill="none" stroke="#8478F4" stroke-width="3" /><path class="route-41223" d="M 669.8693511863235 446.77454605144874 L 592.5670383274123 512.290269721957" fill="none" stroke="#A9C539" stroke-width="3" /><path class="route-17782" d="M 857.724043256106 448.2381877561039 L 669.8693511863235 446.77454605144874" fill="none" stroke="#8478F4" stroke-width="3" /><path class="route-41223" d="M 857.724043256106 448.2381877561039 L 669.8693511863235 446.77454605144874" fill="none" stroke="#A9C539" stroke-width="3" /><path class="route-41210" d="M 857.724043256106 448.2381877561039 L 890.0222931861747 356.0138147304777" fill="none" stroke="#2D80D3" stroke-width="3" /><path class="route-41223" d="M 857.724043256106 448.2381877561039 L 890.0222931861747 356.0138147304777" fill="none" stroke="#A9C539" stroke-width="3" /><path class="route-41210" d="M 865.227841568111 307.00054755016413 L 890.0222931861747 356.0138147304777" fill="none" stroke="#2D80D3" stroke-width="3" /><path class="route-41223" d="M 865.227841568111 307.00054755016413 L 890.0222931861747 356.0138147304777" fill="none" stroke="#A9C539" stroke-width="3" /><path class="route-41210" d="M 865.227841568111 307.00054755016413 L 804.2513381609621 223.35687778916045" fill="none" stroke="#2D80D3" stroke-width="3" /><path class="route-41223" d="M 865.227841568111 307.00054755016413 L 804.2513381609621 223.35687778916045" fill="none" stroke="#A9C539" stroke-width="3" /><path class="route-41210" d="M 804.2513381609621 223.35687778916045 L 766.8919326023638 107.26901199781808" fill="none" stroke="#2D80D3" stroke-width="3" /><path class="route-41223" d="M 804.2513381609621 223.35687778916045 L 766.8919326023638 107.26901199781808" fill="none" stroke="#A9C539" stroke-width="3" /><path class="route-17658" d="M 416.1341434235363 906.9583885036365 L 362.1900082895591 923.9087969777804" fill="none" stroke="#0CC261" stroke-width="3" /><path class="route-17658" d="M 416.1341434235363 906.9583885036365 L 459.61562574859147 897.1400714814555" fill="none" stroke="#0CC261" stroke-width="3" /><path class="route-17658" d="M 551.7846761641676 914.2278635127125 L 615.4090042332102 850.7324174947325" fill="none" stroke="#0CC261" stroke-width="3" /><path class="route-17658" d="M 615.4090042332102 850.7324174947325 L 687.6102649609584 813.2444321168117" fill="none" stroke="#0CC261" stroke-width="3" /><path class="route-17658" d="M 687.6102649609584 813.2444321168117 L 785.3452838255869 774.342777537743" fill="none" stroke="#0CC261" stroke-width="3" /><path class="route-17658" d="M 799.6982522080216 704.8077295330793 L 861.2447055703981 675.3079651045022" fill="none" stroke="#0CC261" stroke-width="3" /><path class="route-17658" d="M 888.4883135820692 626.080909184422 L 861.2447055703981 675.3079651045022" fill="none" stroke="#0CC261" stroke-width="3" /><path class="route-17658" d="M 888.4883135820692 626.080909184422 L 878.7635909276185 570.4655282560768" fill="none" stroke="#0CC261" stroke-width="3" /><path class="route-17658" d="M 864.3843156295169 531.926977777066 L 878.7635909276185 570.4655282560768" fill="none" stroke="#0CC261" stroke-width="3" /><path class="route-17658" d="M 872.7544378746825 504.53874645503134 L 864.3843156295169 531.926977777066" fill="none" stroke="#0CC261" stroke-width="3" /><path class="route-17658" d="M 872.7544378746825 504.53874645503134 L 857.724043256106 448.2381877561039" fill="none" stroke="#0CC261" stroke-width="3" /><path class="route-17658" d="M 857.724043256106 448.2381877561039 L 872.7544378746825 504.53874645503134" fill="none" stroke="#0CC261" stroke-width="3" /><path class="route-41202" d="M 477.3410694533167 505.5515545777288 L 416.6479126008024 505.85686002946915" fill="none" stroke="#39C5C3" stroke-width="3" /><path class="route-17661" d="M 477.3410694533167 505.5515545777288 L 416.6479126008024 505.85686002946915" fill="none" stroke="#39C5C3" stroke-width="3" /><path class="route-41202" d="M 416.6479126008024 505.85686002946915 L 407.05972587199994 520.0243459903534" fill="none" stroke="#39C5C3" stroke-width="3" /><path class="route-17661" d="M 416.6479126008024 505.85686002946915 L 407.05972587199994 520.0243459903534" fill="none" stroke="#39C5C3" stroke-width="3" /><path class="route-41202" d="M 407.05972587199994 520.0243459903534 L 369.01230929146595 615.6400422390457" fill="none" stroke="#39C5C3" stroke-width="3" /><path class="route-17661" d="M 407.05972587199994 520.0243459903534 L 369.01230929146595 615.6400422390457" fill="none" stroke="#39C5C3" stroke-width="3" /><path class="route-31682" d="M 1070.8575873348977 568.0057194020626 L 1100.0 587.7357827442322" fill="none" stroke="#0CC261" stroke-width="3" /><path class="route-17705" d="M 1070.8575873348977 568.0057194020626 L 1100.0 587.7357827442322" fill="none" stroke="#2D80D3" stroke-width="3" /><path class="route-31682" d="M 1070.8575873348977 568.0057194020626 L 1028.7122876327028 520.970789066864" fill="none" stroke="#0CC261" stroke-width="3" /><path class="route-17705" d="M 1070.8575873348977 568.0057194020626 L 1028.7122876327028 520.970789066864" fill="none" stroke="#2D80D3" stroke-width="3" /><path class="route-31682" d="M 1028.7122876327028 520.970789066864 L 878.7635909276185 570.4655282560768" fill="none" stroke="#0CC261" stroke-width="3" /><path class="route-17705" d="M 1028.7122876327028 520.970789066864 L 878.7635909276185 570.4655282560768" fill="none" stroke="#2D80D3" stroke-width="3" /><path class="route-31682" d="M 820.6463558200556 594.0392660196328 L 878.7635909276185 570.4655282560768" fill="none" stroke="#0CC261" stroke-width="3" /><path class="route-17705" d="M 820.6463558200556 594.0392660196328 L 878.7635909276185 570.4655282560768" fill="none" stroke="#2D80D3" stroke-width="3" /><path class="route-31682" d="M 820.6463558200556 594.0392660196328 L 639.6123363214235 621.445685187817" fill="none" stroke="#0CC261" stroke-width="3" /><path class="route-17705" d="M 820.6463558200556 594.0392660196328 L 639.6123363214235 621.445685187817" fill="none" stroke="#2D80D3" stroke-width="3" /><path class="route-31682" d="M 639.6123363214235 621.445685187817 L 820.6463558200556 594.0392660196328" fill="none" stroke="#0CC261" stroke-width="3" /><path class="route-17705" d="M 639.6123363214235 621.445685187817 L 820.6463558200556 594.0392660196328" fill="none" stroke="#2D80D3" stroke-width="3" /><path class="route-31682" d="M 878.7635909276185 570.4655282560768 L 1028.7122876327028 520.970789066864" fill="none" stroke="#0CC261" stroke-width="3" /><path class="route-17705" d="M 878.7635909276185 570.4655282560768 L 1028.7122876327028 520.970789066864" fill="none" stroke="#2D80D3" stroke-width="3" /><path class="route-52984" d="M 542.9822061639113 379.10007298062 L 477.3410694533167 505.5515545777288" fill="none" stroke="#D66ECD" stroke-width="3" /><path class="route-52986" d="M 542.9822061639113 379.10007298062 L 477.3410694533167 505.5515545777288" fill="none" stroke="#BB3636" stroke-width="3" /><path class="route-52984" d="M 552.1445588507902 375.00524647959116 L 542.9822061639113 379.10007298062" fill="none" stroke="#D66ECD" stroke-width="3" /><path class="route-52986" d="M 552.1445588507902 375.00524647959116 L 542.9822061639113 379.10007298062" fill="none" stroke="#BB3636" stroke-width="3" /><path class="route-52984" d="M 552.1445588507902 375.00524647959116 L 581.8792552874261 356.74857284750175" fill="none" stroke="#D66ECD" stroke-width="3" /><path class="route-52986" d="M 552.1445588507902 375.00524647959116 L 581.8792552874261 356.74857284750175" fill="none" stroke="#BB3636" stroke-width="3" /><path class="route-52984" d="M 598.0760117839776 354.42807393648343 L 581.8792552874261 356.74857284750175" fill="none" stroke="#D66ECD" stroke-width="3" /><path class="route-52986" d="M 598.0760117839776 354.42807393648343 L 581.8792552874261 356.74857284750175" fill="none" stroke="#BB3636" stroke-width="3" /><path class="route-52984" d="M 603.4099291813482 353.9067380086477 L 598.0760117839776 354.42807393648343" fill="none" stroke="#D66ECD" stroke-width="3" /><path class="route-52986" d="M 603.4099291813482 353.9067380086477 L 598.0760117839776 354.42807393648343" fill="none" stroke="#BB3636" stroke-width="3" /><path class="route-52984" d="M 603.4099291813482 353.9067380086477 L 613.8351281325422 352.2176963134578" fill="none" stroke="#D66ECD" stroke-width="3" /><path class="route-52986" d="M 603.4099291813482 353.9067380086477 L 613.8351281325422 352.2176963134578" fill="none" stroke="#BB3636" stroke-width="3" /><path class="route-52984" d="M 787.1023581276675 1189.7858847992654 L 822.2080187058796 1244.5105393745052" fill="none" stroke="#D66ECD" stroke-width="3" /><path class="route-52990" d="M 740.4348555337642 1264.3139709562206 L 787.1023581276675 1189.7858847992654" fill="none" stroke="#EEF608" stroke-width="3" /><path class="route-52986" d="M 740.4348555337642 1264.3139709562206 L 787.1023581276675 1189.7858847992654" fill="none" stroke="#BB3636" stroke-width="3" /><path class="route-52990" d="M 828.1648099874452 1095.6122638676102 L 787.1023581276675 1189.7858847992654" fill="none" stroke="#EEF608" stroke-width="3" /><path class="route-52986" d="M 828.1648099874452 1095.6122638676102 L 787.1023581276675 1189.7858847992654" fill="none" stroke="#BB3636" stroke-width="3" /><path class="route-52990" d="M 740.3143518295519 1068.1347679807764 L 828.1648099874452 1095.6122638676102" fill="none" stroke="#EEF608" stroke-width="3" /><path class="route-52986" d="M 740.3143518295519 1068.1347679807764 L 828.1648099874452 1095.6122638676102" fill="none" stroke="#BB3636" stroke-width="3" /><path class="route-52990" d="M 740.3143518295519 1068.1347679807764 L 672.2199876557592 972.1368982203838" fill="none" stroke="#EEF608" stroke-width="3" /><path class="route-52986" d="M 740.3143518295519 1068.1347679807764 L 672.2199876557592 972.1368982203838" fill="none" stroke="#BB3636" stroke-width="3" /><path class="route-52990" d="M 422.79197315033576 428.1392769327678 L 447.5082602043255 382.66079492291385" fill="none" stroke="#EEF608" stroke-width="3" /><path class="route-41238" d="M 506.85552094433416 537.8050994054855 L 487.7948234316473 530.2835327095668" fill="none" stroke="#A9C539" stroke-width="3" /><path class="route-31682" d="M 506.85552094433416 537.8050994054855 L 487.7948234316473 530.2835327095668" fill="none" stroke="#0CC261" stroke-width="3" /><path class="route-31675" d="M 506.85552094433416 537.8050994054855 L 487.7948234316473 530.2835327095668" fill="none" stroke="#BB3636" stroke-width="3" /><path class="route-31682" d="M 506.85552094433416 537.8050994054855 L 581.5914305574556 585.7641880812234" fill="none" stroke="#0CC261" stroke-width="3" /><path class="route-31675" d="M 506.85552094433416 537.8050994054855 L 581.5914305574556 585.7641880812234" fill="none" stroke="#BB3636" stroke-width="3" /><path class="route-41202" d="M 100.13678799168311 971.4720604780299 L 100.0 961.3254093120624" fill="none" stroke="#39C5C3" stroke-width="3" /><path class="route-41202" d="M 100.0 961.3254093120624 L 106.71075365576687 946.6512044480954" fill="none" stroke="#39C5C3" stroke-width="3" /><path class="route-41202" d="M 106.71075365576687 946.6512044480954 L 122.57571785315929 943.2963726208031" fill="none" stroke="#39C5C3" stroke-width="3" /><path class="route-41202" d="M 189.62381674440917 944.9457141594157 L 122.57571785315929 943.2963726208031" fill="none" stroke="#39C5C3" stroke-width="3" /><path class="route-41202" d="M 189.62381674440917 944.9457141594157 L 209.6160328558542 953.6458911053194" fill="none" stroke="#39C5C3" stroke-width="3" /><path class="route-41202" d="M 209.6160328558542 953.6458911053194 L 233.9610382229025 961.1308335660333" fill="none" stroke="#39C5C3" stroke-width="3" /><path class="route-41202" d="M 233.9610382229025 961.1308335660333 L 258.4623727180993 977.0635776914111" fill="none" stroke="#39C5C3" stroke-width="3" /><path class="route-41202" d="M 258.4623727180993 977.0635776914111 L 272.0108974439769 982.184439664675" fill="none" stroke="#39C5C3" stroke-width="3" /><path class="route-41202" d="M 312.7411498988506 946.7319506714346 L 272.0108974439769 982.184439664675" fill="none" stroke="#39C5C3" stroke-width="3" /><path class="route-41202" d="M 312.7411498988506 946.7319506714346 L 362.1900082895591 923.9087969777804" fill="none" stroke="#39C5C3" stroke-width="3" /><path class="route-41202" d="M 425.5261045215568 792.3898954996712 L 362.1900082895591 923.9087969777804" fill="none" stroke="#39C5C3" stroke-width="3" /><path class="route-41202" d="M 233.9610382229025 961.1308335660333 L 209.6160328558542 953.6458911053194" fill="none" stroke="#39C5C3" stroke-width="3" /><path class="route-44942" d="M 495.93609395537464 510.23337539812377 L 592.5670383274123 512.290269721957" fill="none" stroke="#8478F4" stroke-width="3" /><path class="route-31677" d="M 605.1955009796721 665.2659683483545 L 559.6858110157816 653.0492239784885" fill="none" stroke="#FF5B1A" stroke-width="3" /><path class="route-31677" d="M 605.1955009796721 665.2659683483545 L 730.5372674006952 683.704761519631" fill="none" stroke="#FF5B1A" stroke-width="3" /><path class="route-31677" d="M 730.5372674006952 683.704761519631 L 605.1955009796721 665.2659683483545" fill="none" stroke="#FF5B1A" stroke-width="3" /><path class="route-41238" d="M 669.8693511863235 446.77454605144874 L 610.7826390003116 502.9186744417362" fill="none" stroke="#A9C539" stroke-width="3" /><path class="route-41238" d="M 610.7826390003116 502.9186744417362 L 592.5670383274123 512.290269721957" fill="none" stroke="#A9C539" stroke-width="3" /><path class="route-41238" d="M 506.85552094433416 537.8050994054855 L 592.5670383274123 512.290269721957" fill="none" stroke="#A9C539" stroke-width="3" /><circle cx="669.8693511863235" cy="446.77454605144874" fill="white" id="2324058" r="1.5" /><circle cx="487.7948234316473" cy="530.2835327095668" fill="white" id="2323248" r="1.5" /><circle cx="740.4348555337642" cy="1264.3139709562206" fill="white" id="2324136" r="1.5" /><circle cx="365.0690697933513" cy="734.3909972335175" fill="white" id="2324350" r="1.5" /><circle cx="1070.8575873348977" cy="568.0057194020626" fill="white" id="89052" r="1.5" /><circle cx="1003.2150751244569" cy="207.9034473230392" fill="white" id="1725934" r="1.5" /><circle cx="416.6479126008024" cy="505.85686002946915" fill="white" id="2323844" r="1.5" /><circle cx="330.9543079281741" cy="694.1584095297139" fill="white" id="2323512" r="1.5" /><circle cx="320.7285914597921" cy="663.0612478111341" fill="white" id="2323744" r="1.5" /><circle cx="320.7285914597921" cy="663.0612478111341" fill="white" id="53929" r="1.5" /><circle cx="785.3452838255869" cy="774.342777537743" fill="white" id="2324172" r="1.5" /><circle cx="787.1023581276675" cy="1189.7858847992654" fill="white" id="2324451" r="1.5" /><circle cx="598.0760117839776" cy="354.42807393648343" fill="white" id="2323340" r="1.5" /><circle cx="842.6057135052223" cy="980.1709423344605" fill="white" id="2323905" r="1.5" /><circle cx="842.6057135052223" cy="980.1709423344605" fill="white" id="2323906" r="1.5" /><circle cx="106.71075365576687" cy="946.6512044480954" fill="white" id="2324107" r="1.5" /><circle cx="272.0108974439769" cy="982.184439664675" fill="white" id="2324276" r="1.5" /><circle cx="390.6215548582427" cy="721.1628634777207" fill="white" id="2324325" r="1.5" /><circle cx="672.2199876557592" cy="972.1368982203838" fill="white" id="2323597" r="1.5" /><circle cx="615.4090042332102" cy="850.7324174947325" fill="white" id="2323917" r="1.5" /><circle cx="740.4348555337642" cy="1264.3139709562206" fill="white" id="2324135" r="1.5" /><circle cx="730.5372674006952" cy="683.704761519631" fill="white" id="2323564" r="1.5" /><circle cx="365.0690697933513" cy="734.3909972335175" fill="white" id="2324346" r="1.5" /><circle cx="321.7589795636447" cy="658.1498261006047" fill="white" id="2323750" r="1.5" /><circle cx="365.0690697933513" cy="734.3909972335175" fill="white" id="2324348" r="1.5" /><circle cx="495.93609395537464" cy="510.23337539812377" fill="white" id="2323237" r="1.5" /><circle cx="672.2199876557592" cy="972.1368982203838" fill="white" id="2323588" r="1.5" /><circle cx="362.1900082895591" cy="923.9087969777804" fill="white" id="2324312" r="1.5" /><circle cx="493.9005583888471" cy="655.394443368652" fill="white" id="2324670" r="1.5" /><circle cx="487.7948234316473" cy="530.2835327095668" fill="white" id="2323251" r="1.5" /><circle cx="209.6160328558542" cy="953.6458911053194" fill="white" id="2323419" r="1.5" /><circle cx="362.1900082895591" cy="923.9087969777804" fill="white" id="2324311" r="1.5" /><circle cx="581.5914305574556" cy="585.7641880812234" fill="white" id="2323942" r="1.5" /><circle cx="469.9097362128153" cy="481.0385209571745" fill="white" id="2324746" r="1.5" /><circle cx="799.6982522080216" cy="704.8077295330793" fill="white" id="2323095" r="1.5" /><circle cx="258.4623727180993" cy="977.0635776914111" fill="white" id="2323965" r="1.5" /><circle cx="740.3143518295519" cy="1068.1347679807764" fill="white" id="2324714" r="1.5" /><circle cx="495.93609395537464" cy="510.23337539812377" fill="white" id="2323230" r="1.5" /><circle cx="477.3410694533167" cy="505.5515545777288" fill="white" id="2323272" r="1.5" /><circle cx="422.79197315033576" cy="428.1392769327678" fill="white" id="2323423" r="1.5" /><circle cx="436.4069226441031" cy="688.7797246003602" fill="white" id="2323668" r="1.5" /><circle cx="1001.6624626052022" cy="100.0" fill="white" id="2323710" r="1.5" /><circle cx="804.2513381609621" cy="223.35687778916045" fill="white" id="2323891" r="1.5" /><circle cx="687.6102649609584" cy="813.2444321168117" fill="white" id="2324211" r="1.5" /><circle cx="371.4305255422178" cy="736.8558788350155" fill="white" id="2324328" r="1.5" /><circle cx="371.4305255422178" cy="736.8558788350155" fill="white" id="2324329" r="1.5" /><circle cx="454.14247771899767" cy="544.7253240922826" fill="white" id="2324408" r="1.5" /><circle cx="425.5261045215568" cy="792.3898954996712" fill="white" id="2323449" r="1.5" /><circle cx="861.2447055703981" cy="675.3079651045022" fill="white" id="2323497" r="1.5" /><circle cx="669.8693511863235" cy="446.77454605144874" fill="white" id="2324057" r="1.5" /><circle cx="592.5670383274123" cy="512.290269721957" fill="white" id="2323115" r="1.5" /><circle cx="605.1955009796721" cy="665.2659683483545" fill="white" id="2323444" r="1.5" /><circle cx="425.5261045215568" cy="792.3898954996712" fill="white" id="2323456" r="1.5" /><circle cx="672.2199876557592" cy="972.1368982203838" fill="white" id="2323594" r="1.5" /><circle cx="727.2494703526105" cy="956.1466401426179" fill="white" id="2323856" r="1.5" /><circle cx="687.6102649609584" cy="813.2444321168117" fill="white" id="2324210" r="1.5" /><circle cx="347.1620563162643" cy="735.9123354504123" fill="white" id="2324388" r="1.5" /><circle cx="559.6858110157816" cy="653.0492239784885" fill="white" id="2324509" r="1.5" /><circle cx="559.6858110157816" cy="653.0492239784885" fill="white" id="2324527" r="1.5" /><circle cx="472.9255857065844" cy="366.63735713446243" fill="white" id="2323954" r="1.5" /><circle cx="1028.7122876327028" cy="520.970789066864" fill="white" id="2323158" r="1.5" /><circle cx="447.5082602043255" cy="382.66079492291385" fill="white" id="2323164" r="1.5" /><circle cx="510.14087534580744" cy="543.2422341877204" fill="white" id="2323205" r="1.5" /><circle cx="453.76061124626295" cy="225.38578652618986" fill="white" id="2323795" r="1.5" /><circle cx="615.4090042332102" cy="850.7324174947325" fill="white" id="2323923" r="1.5" /><circle cx="890.0222931861747" cy="356.0138147304777" fill="white" id="2324122" r="1.5" /><circle cx="459.61562574859147" cy="897.1400714814555" fill="white" id="2323296" r="1.5" /><circle cx="365.0690697933513" cy="734.3909972335175" fill="white" id="2324338" r="1.5" /><circle cx="100.0" cy="961.3254093120624" fill="white" id="2324638" r="1.5" /><circle cx="799.6982522080216" cy="704.8077295330793" fill="white" id="2323088" r="1.5" /><circle cx="639.6123363214235" cy="621.445685187817" fill="white" id="2323144" r="1.5" /><circle cx="469.9097362128153" cy="481.0385209571745" fill="white" id="2324748" r="1.5" /><circle cx="872.7544378746825" cy="504.53874645503134" fill="white" id="2324687" r="1.5" /><circle cx="639.6123363214235" cy="621.445685187817" fill="white" id="2323137" r="1.5" /><circle cx="495.93609395537464" cy="510.23337539812377" fill="white" id="2323226" r="1.5" /><circle cx="407.05972587199994" cy="520.0243459903534" fill="white" id="2323773" r="1.5" /><circle cx="615.4090042332102" cy="850.7324174947325" fill="white" id="2323926" r="1.5" /><circle cx="327.0460796394697" cy="658.4275793725067" fill="white" id="2324016" r="1.5" /><circle cx="362.1900082895591" cy="923.9087969777804" fill="white" id="2324310" r="1.5" /><circle cx="453.76061124626295" cy="225.38578652618986" fill="white" id="2323794" r="1.5" /><circle cx="828.1648099874452" cy="1095.6122638676102" fill="white" id="2324294" r="1.5" /><circle cx="559.6858110157816" cy="653.0492239784885" fill="white" id="2324532" r="1.5" /><circle cx="510.14087534580744" cy="543.2422341877204" fill="white" id="2323206" r="1.5" /><circle cx="495.93609395537464" cy="510.23337539812377" fill="white" id="2323225" r="1.5" /><circle cx="1003.2150751244569" cy="207.9034473230392" fill="white" id="2323258" r="1.5" /><circle cx="672.2199876557592" cy="972.1368982203838" fill="white" id="2323591" r="1.5" /><circle cx="454.71894139042803" cy="237.08068424469457" fill="white" id="2323798" r="1.5" /><circle cx="542.9822061639113" cy="379.10007298062" fill="white" id="2323872" r="1.5" /><circle cx="372.4645776099169" cy="624.9780465061584" fill="white" id="2324024" r="1.5" /><circle cx="766.8919326023638" cy="107.26901199781808" fill="white" id="2324091" r="1.5" /><circle cx="365.0690697933513" cy="734.3909972335175" fill="white" id="2324337" r="1.5" /><circle cx="559.6858110157816" cy="653.0492239784885" fill="white" id="2324519" r="1.5" /><circle cx="469.1354184815524" cy="269.27889355252114" fill="white" id="2323176" r="1.5" /><circle cx="878.7635909276185" cy="570.4655282560768" fill="white" id="2323525" r="1.5" /><circle cx="320.7285914597921" cy="663.0612478111341" fill="white" id="2323743" r="1.5" /><circle cx="822.2080187058796" cy="1244.5105393745052" fill="white" id="2323896" r="1.5" /><circle cx="347.1620563162643" cy="735.9123354504123" fill="white" id="2324389" r="1.5" /><circle cx="559.6858110157816" cy="653.0492239784885" fill="white" id="2324538" r="1.5" /><circle cx="861.2447055703981" cy="675.3079651045022" fill="white" id="2323498" r="1.5" /><circle cx="189.62381674440917" cy="944.9457141594157" fill="white" id="2323737" r="1.5" /><circle cx="365.0690697933513" cy="734.3909972335175" fill="white" id="2324345" r="1.5" /><circle cx="469.9097362128153" cy="481.0385209571745" fill="white" id="2324747" r="1.5" /><circle cx="785.3452838255869" cy="774.342777537743" fill="white" id="2324174" r="1.5" /><circle cx="365.0690697933513" cy="734.3909972335175" fill="white" id="2324351" r="1.5" /><circle cx="454.14247771899767" cy="544.7253240922826" fill="white" id="2324406" r="1.5" /><circle cx="1100.0" cy="587.7357827442322" fill="white" id="2323615" r="1.5" /><circle cx="365.0690697933513" cy="734.3909972335175" fill="white" id="2324349" r="1.5" /><circle cx="106.71075365576687" cy="946.6512044480954" fill="white" id="2324106" r="1.5" /><circle cx="233.9610382229025" cy="961.1308335660333" fill="white" id="2324002" r="1.5" /><circle cx="436.4069226441031" cy="688.7797246003602" fill="white" id="2323670" r="1.5" /><circle cx="592.5670383274123" cy="512.290269721957" fill="white" id="2323117" r="1.5" /><circle cx="472.9255857065844" cy="366.63735713446243" fill="white" id="2323953" r="1.5" /><circle cx="613.8351281325422" cy="352.2176963134578" fill="white" id="2323603" r="1.5" /><circle cx="189.62381674440917" cy="944.9457141594157" fill="white" id="2323738" r="1.5" /><circle cx="435.67935592450647" cy="401.29228357240504" fill="white" id="2323853" r="1.5" /><circle cx="766.8919326023638" cy="107.26901199781808" fill="white" id="2324089" r="1.5" /><circle cx="312.7411498988506" cy="946.7319506714346" fill="white" id="2323322" r="1.5" /><circle cx="1001.6624626052022" cy="100.0" fill="white" id="2323718" r="1.5" /><circle cx="510.14087534580744" cy="543.2422341877204" fill="white" id="2323204" r="1.5" /><circle cx="362.1900082895591" cy="923.9087969777804" fill="white" id="2324314" r="1.5" /><circle cx="1028.7122876327028" cy="520.970789066864" fill="white" id="2323151" r="1.5" /><circle cx="510.14087534580744" cy="543.2422341877204" fill="white" id="2323203" r="1.5" /><circle cx="495.93609395537464" cy="510.23337539812377" fill="white" id="2323217" r="1.5" /><circle cx="610.7826390003116" cy="502.9186744417362" fill="white" id="2323120" r="1.5" /><circle cx="435.67935592450647" cy="401.29228357240504" fill="white" id="2323852" r="1.5" /><circle cx="362.1900082895591" cy="923.9087969777804" fill="white" id="2324313" r="1.5" /><circle cx="857.724043256106" cy="448.2381877561039" fill="white" id="2324765" r="1.5" /><circle cx="454.7954775284871" cy="379.6798347719841" fill="white" id="2323172" r="1.5" /><circle cx="878.7635909276185" cy="570.4655282560768" fill="white" id="2323529" r="1.5" /><circle cx="610.7826390003116" cy="502.9186744417362" fill="white" id="2323119" r="1.5" /><circle cx="477.3410694533167" cy="505.5515545777288" fill="white" id="2323267" r="1.5" /><circle cx="857.724043256106" cy="448.2381877561039" fill="white" id="2324775" r="1.5" /><circle cx="422.79197315033576" cy="428.1392769327678" fill="white" id="2323422" r="1.5" /><circle cx="765.6868955480966" cy="965.7367936621368" fill="white" id="2323492" r="1.5" /><circle cx="365.0690697933513" cy="734.3909972335175" fill="white" id="2324347" r="1.5" /><circle cx="467.32786290015156" cy="309.9378414563623" fill="white" id="2324401" r="1.5" /><circle cx="454.14247771899767" cy="544.7253240922826" fill="white" id="2324404" r="1.5" /><circle cx="100.13678799168311" cy="971.4720604780299" fill="white" id="2324633" r="1.5" /><circle cx="501.2529128507491" cy="526.372200882287" fill="white" id="2323199" r="1.5" /><circle cx="459.61562574859147" cy="897.1400714814555" fill="white" id="2323290" r="1.5" /><circle cx="416.1341434235363" cy="906.9583885036365" fill="white" id="2323635" r="1.5" /><circle cx="321.7589795636447" cy="658.1498261006047" fill="white" id="2323755" r="1.5" /><circle cx="552.1445588507902" cy="375.00524647959116" fill="white" id="2323875" r="1.5" /><circle cx="864.3843156295169" cy="531.926977777066" fill="white" id="2324235" r="1.5" /><circle cx="321.7589795636447" cy="658.1498261006047" fill="white" id="2323749" r="1.5" /><circle cx="100.13678799168311" cy="971.4720604780299" fill="white" id="2324634" r="1.5" /><circle cx="820.6463558200556" cy="594.0392660196328" fill="white" id="2323179" r="1.5" /><circle cx="495.93609395537464" cy="510.23337539812377" fill="white" id="2323210" r="1.5" /><circle cx="312.7411498988506" cy="946.7319506714346" fill="white" id="2323321" r="1.5" /><circle cx="877.0762869874309" cy="1007.1204821304158" fill="white" id="2323377" r="1.5" /><circle cx="330.9543079281741" cy="694.1584095297139" fill="white" id="2323511" r="1.5" /><circle cx="506.85552094433416" cy="537.8050994054855" fill="white" id="2323540" r="1.5" /><circle cx="730.5372674006952" cy="683.704761519631" fill="white" id="2323565" r="1.5" /><circle cx="436.4069226441031" cy="688.7797246003602" fill="white" id="2323673" r="1.5" /><circle cx="321.7589795636447" cy="658.1498261006047" fill="white" id="2323751" r="1.5" /><circle cx="542.9822061639113" cy="379.10007298062" fill="white" id="2323871" r="1.5" /><circle cx="552.1445588507902" cy="375.00524647959116" fill="white" id="2323876" r="1.5" /><circle cx="551.7846761641676" cy="914.2278635127125" fill="white" id="2324473" r="1.5" /><circle cx="551.7846761641676" cy="914.2278635127125" fill="white" id="2324475" r="1.5" /><circle cx="447.5082602043255" cy="382.66079492291385" fill="white" id="2323163" r="1.5" /><circle cx="459.61562574859147" cy="897.1400714814555" fill="white" id="2323289" r="1.5" /><circle cx="857.724043256106" cy="448.2381877561039" fill="white" id="2324769" r="1.5" /><circle cx="639.6123363214235" cy="621.445685187817" fill="white" id="2323132" r="1.5" /><circle cx="469.1354184815524" cy="269.27889355252114" fill="white" id="2323175" r="1.5" /><circle cx="727.2494703526105" cy="956.1466401426179" fill="white" id="2323857" r="1.5" /><circle cx="495.93609395537464" cy="510.23337539812377" fill="white" id="2323229" r="1.5" /><circle cx="477.3410694533167" cy="505.5515545777288" fill="white" id="2323268" r="1.5" /><circle cx="615.4090042332102" cy="850.7324174947325" fill="white" id="2323918" r="1.5" /><circle cx="615.4090042332102" cy="850.7324174947325" fill="white" id="2323922" r="1.5" /><circle cx="369.01230929146595" cy="615.6400422390457" fill="white" id="2324033" r="1.5" /><circle cx="258.4623727180993" cy="977.0635776914111" fill="white" id="2323966" r="1.5" /><circle cx="416.1341434235363" cy="906.9583885036365" fill="white" id="2323636" r="1.5" /><circle cx="615.4090042332102" cy="850.7324174947325" fill="white" id="2323912" r="1.5" /><circle cx="615.4090042332102" cy="850.7324174947325" fill="white" id="2323919" r="1.5" /><circle cx="766.8919326023638" cy="107.26901199781808" fill="white" id="2324088" r="1.5" /><circle cx="785.3452838255869" cy="774.342777537743" fill="white" id="2324178" r="1.5" /><circle cx="740.3143518295519" cy="1068.1347679807764" fill="white" id="2324712" r="1.5" /><circle cx="857.724043256106" cy="448.2381877561039" fill="white" id="2324772" r="1.5" /><circle cx="495.93609395537464" cy="510.23337539812377" fill="white" id="2323224" r="1.5" /><circle cx="559.6858110157816" cy="653.0492239784885" fill="white" id="2324518" r="1.5" /><circle cx="100.0" cy="961.3254093120624" fill="white" id="2324637" r="1.5" /><circle cx="648.948116641482" cy="611.1190203845902" fill="white" id="2323148" r="1.5" /><circle cx="501.2529128507491" cy="526.372200882287" fill="white" id="2323198" r="1.5" /><circle cx="495.93609395537464" cy="510.23337539812377" fill="white" id="2323214" r="1.5" /><circle cx="495.93609395537464" cy="510.23337539812377" fill="white" id="2323236" r="1.5" /><circle cx="487.7948234316473" cy="530.2835327095668" fill="white" id="2323252" r="1.5" /><circle cx="477.3410694533167" cy="505.5515545777288" fill="white" id="2323270" r="1.5" /><circle cx="459.61562574859147" cy="897.1400714814555" fill="white" id="2323295" r="1.5" /><circle cx="449.22462379228267" cy="657.1673478305937" fill="white" id="2323302" r="1.5" /><circle cx="209.6160328558542" cy="953.6458911053194" fill="white" id="2323420" r="1.5" /><circle cx="454.71894139042803" cy="237.08068424469457" fill="white" id="2323797" r="1.5" /><circle cx="581.8792552874261" cy="356.74857284750175" fill="white" id="2323831" r="1.5" /><circle cx="581.5914305574556" cy="585.7641880812234" fill="white" id="2323943" r="1.5" /><circle cx="700.4650791662588" cy="674.7569200768266" fill="white" id="2323977" r="1.5" /><circle cx="272.0108974439769" cy="982.184439664675" fill="white" id="2324277" r="1.5" /><circle cx="369.01230929146595" cy="615.6400422390457" fill="white" id="2324036" r="1.5" /><circle cx="740.4348555337642" cy="1264.3139709562206" fill="white" id="2324134" r="1.5" /><circle cx="740.4348555337642" cy="1264.3139709562206" fill="white" id="2324138" r="1.5" /><circle cx="865.227841568111" cy="307.00054755016413" fill="white" id="2324470" r="1.5" /><circle cx="425.5261045215568" cy="792.3898954996712" fill="white" id="2323453" r="1.5" /><circle cx="469.9097362128153" cy="481.0385209571745" fill="white" id="2324745" r="1.5" /><circle cx="592.5670383274123" cy="512.290269721957" fill="white" id="2323116" r="1.5" /><circle cx="1028.7122876327028" cy="520.970789066864" fill="white" id="2323153" r="1.5" /><circle cx="615.4090042332102" cy="850.7324174947325" fill="white" id="2323915" r="1.5" /><circle cx="493.9005583888471" cy="655.394443368652" fill="white" id="2324671" r="1.5" /><circle cx="369.01230929146595" cy="615.6400422390457" fill="white" id="2324041" r="1.5" /><circle cx="559.6858110157816" cy="653.0492239784885" fill="white" id="2324541" r="1.5" /><circle cx="369.01230929146595" cy="615.6400422390457" fill="white" id="2324029" r="1.5" /><circle cx="551.7846761641676" cy="914.2278635127125" fill="white" id="2324474" r="1.5" /><circle cx="425.5261045215568" cy="792.3898954996712" fill="white" id="2323463" r="1.5" /><circle cx="592.5670383274123" cy="512.290269721957" fill="white" id="2323114" r="1.5" /><circle cx="639.6123363214235" cy="621.445685187817" fill="white" id="2323133" r="1.5" /><circle cx="669.8693511863235" cy="446.77454605144874" fill="white" id="2324059" r="1.5" /><circle cx="820.6463558200556" cy="594.0392660196328" fill="white" id="2323181" r="1.5" /><circle cx="828.1648099874452" cy="1095.6122638676102" fill="white" id="2324295" r="1.5" /><circle cx="799.6982522080216" cy="704.8077295330793" fill="white" id="2323086" r="1.5" /><circle cx="495.93609395537464" cy="510.23337539812377" fill="white" id="2323233" r="1.5" /><circle cx="122.57571785315929" cy="943.2963726208031" fill="white" id="2323196" r="1.5" /><circle cx="700.4650791662588" cy="674.7569200768266" fill="white" id="2323976" r="1.5" /><circle cx="510.14087534580744" cy="543.2422341877204" fill="white" id="2323202" r="1.5" /><circle cx="495.93609395537464" cy="510.23337539812377" fill="white" id="2323228" r="1.5" /><circle cx="559.6858110157816" cy="653.0492239784885" fill="white" id="2324512" r="1.5" /><circle cx="799.6982522080216" cy="704.8077295330793" fill="white" id="2323087" r="1.5" /><circle cx="477.3410694533167" cy="505.5515545777288" fill="white" id="2323271" r="1.5" /><circle cx="672.2199876557592" cy="972.1368982203838" fill="white" id="2323600" r="1.5" /><circle cx="613.8351281325422" cy="352.2176963134578" fill="white" id="2323602" r="1.5" /><circle cx="233.9610382229025" cy="961.1308335660333" fill="white" id="2324001" r="1.5" /><circle cx="820.6463558200556" cy="594.0392660196328" fill="white" id="2323180" r="1.5" /><circle cx="672.2199876557592" cy="972.1368982203838" fill="white" id="2323599" r="1.5" /><circle cx="467.32786290015156" cy="309.9378414563623" fill="white" id="2324399" r="1.5" /><circle cx="122.57571785315929" cy="943.2963726208031" fill="white" id="2323195" r="1.5" /><circle cx="1028.7122876327028" cy="520.970789066864" fill="white" id="2323156" r="1.5" /><circle cx="321.7589795636447" cy="658.1498261006047" fill="white" id="2323747" r="1.5" /><circle cx="857.724043256106" cy="448.2381877561039" fill="white" id="2324758" r="1.5" /><circle cx="449.22462379228267" cy="657.1673478305937" fill="white" id="2323301" r="1.5" /><circle cx="407.05972587199994" cy="520.0243459903534" fill="white" id="2323774" r="1.5" /><circle cx="369.01230929146595" cy="615.6400422390457" fill="white" id="2324030" r="1.5" /><circle cx="639.6123363214235" cy="621.445685187817" fill="white" id="2323140" r="1.5" /><circle cx="1070.8575873348977" cy="568.0057194020626" fill="white" id="2323806" r="1.5" /><circle cx="639.6123363214235" cy="621.445685187817" fill="white" id="2323145" r="1.5" /><circle cx="872.7544378746825" cy="504.53874645503134" fill="white" id="2324686" r="1.5" /><circle cx="878.7635909276185" cy="570.4655282560768" fill="white" id="2323532" r="1.5" /><circle cx="603.4099291813482" cy="353.9067380086477" fill="white" id="2323337" r="1.5" /><circle cx="390.6215548582427" cy="721.1628634777207" fill="white" id="2324324" r="1.5" /><circle cx="605.1955009796721" cy="665.2659683483545" fill="white" id="2323443" r="1.5" /><circle cx="785.3452838255869" cy="774.342777537743" fill="white" id="2324179" r="1.5" /><circle cx="454.7954775284871" cy="379.6798347719841" fill="white" id="2323173" r="1.5" /><circle cx="1070.8575873348977" cy="568.0057194020626" fill="white" id="2323807" r="1.5" /><circle cx="787.1023581276675" cy="1189.7858847992654" fill="white" id="2324446" r="1.5" /><circle cx="495.93609395537464" cy="510.23337539812377" fill="white" id="2323234" r="1.5" /><circle cx="542.9822061639113" cy="379.10007298062" fill="white" id="2323873" r="1.5" /><circle cx="799.6982522080216" cy="704.8077295330793" fill="white" id="2323093" r="1.5" /><circle cx="459.61562574859147" cy="897.1400714814555" fill="white" id="2323292" r="1.5" /><circle cx="882.065791765053" cy="1010.967377646496" fill="white" id="2324608" r="1.5" /><circle cx="100.13678799168311" cy="971.4720604780299" fill="white" id="2324635" r="1.5" /><circle cx="510.14087534580744" cy="543.2422341877204" fill="white" id="2323201" r="1.5" /><circle cx="615.4090042332102" cy="850.7324174947325" fill="white" id="2323925" r="1.5" /><circle cx="365.0690697933513" cy="734.3909972335175" fill="white" id="2324335" r="1.5" /><circle cx="1100.0" cy="587.7357827442322" fill="white" id="2323616" r="1.5" /><circle cx="1001.6624626052022" cy="100.0" fill="white" id="2323717" r="1.5" /><circle cx="864.3843156295169" cy="531.926977777066" fill="white" id="2324234" r="1.5" /><circle cx="495.93609395537464" cy="510.23337539812377" fill="white" id="2323213" r="1.5" /><circle cx="416.6479126008024" cy="505.85686002946915" fill="white" id="2323839" r="1.5" /><circle cx="495.93609395537464" cy="510.23337539812377" fill="white" id="2323231" r="1.5" /><circle cx="506.85552094433416" cy="537.8050994054855" fill="white" id="2323539" r="1.5" /><circle cx="487.7948234316473" cy="530.2835327095668" fill="white" id="2323250" r="1.5" /><circle cx="669.8693511863235" cy="446.77454605144874" fill="white" id="2324060" r="1.5" /><circle cx="495.93609395537464" cy="510.23337539812377" fill="white" id="2323211" r="1.5" /><circle cx="581.5914305574556" cy="585.7641880812234" fill="white" id="2323945" r="1.5" /><circle cx="369.01230929146595" cy="615.6400422390457" fill="white" id="2324038" r="1.5" /><circle cx="495.93609395537464" cy="510.23337539812377" fill="white" id="2323216" r="1.5" /><circle cx="890.0222931861747" cy="356.0138147304777" fill="white" id="2324124" r="1.5" /><circle cx="785.3452838255869" cy="774.342777537743" fill="white" id="2324180" r="1.5" /><circle cx="495.93609395537464" cy="510.23337539812377" fill="white" id="2323232" r="1.5" /><circle cx="467.32786290015156" cy="309.9378414563623" fill="white" id="2324400" r="1.5" /><circle cx="447.5082602043255" cy="382.66079492291385" fill="white" id="2323167" r="1.5" /><circle cx="495.93609395537464" cy="510.23337539812377" fill="white" id="2323227" r="1.5" /><circle cx="447.5082602043255" cy="382.66079492291385" fill="white" id="2323165" r="1.5" /><circle cx="1100.0" cy="587.7357827442322" fill="white" id="2323617" r="1.5" /><circle cx="598.0760117839776" cy="354.42807393648343" fill="white" id="2323339" r="1.5" /><circle cx="362.1900082895591" cy="923.9087969777804" fill="white" id="2324307" r="1.5" /><circle cx="877.0762869874309" cy="1007.1204821304158" fill="white" id="2323378" r="1.5" /><circle cx="477.3410694533167" cy="505.5515545777288" fill="white" id="2323269" r="1.5" /><circle cx="882.065791765053" cy="1010.967377646496" fill="white" id="2324606" r="1.5" /><circle cx="785.3452838255869" cy="774.342777537743" fill="white" id="2324173" r="1.5" /><circle cx="321.7589795636447" cy="658.1498261006047" fill="white" id="2323746" r="1.5" /><circle cx="799.6982522080216" cy="704.8077295330793" fill="white" id="2323094" r="1.5" /><circle cx="495.93609395537464" cy="510.23337539812377" fill="white" id="2323235" r="1.5" /><circle cx="865.227841568111" cy="307.00054755016413" fill="white" id="2324471" r="1.5" /><circle cx="559.6858110157816" cy="653.0492239784885" fill="white" id="2324535" r="1.5" /><circle cx="888.4883135820692" cy="626.080909184422" fill="white" id="2324791" r="1.5" /><circle cx="559.6858110157816" cy="653.0492239784885" fill="white" id="2324522" r="1.5" /><circle cx="454.14247771899767" cy="544.7253240922826" fill="white" id="2324407" r="1.5" /><circle cx="320.7285914597921" cy="663.0612478111341" fill="white" id="2323742" r="1.5" /><circle cx="615.4090042332102" cy="850.7324174947325" fill="white" id="2323920" r="1.5" /><circle cx="365.0690697933513" cy="734.3909972335175" fill="white" id="2324336" r="1.5" /><circle cx="321.7589795636447" cy="658.1498261006047" fill="white" id="2323748" r="1.5" /><circle cx="1003.2150751244569" cy="207.9034473230392" fill="white" id="2323262" r="1.5" /><circle cx="787.1023581276675" cy="1189.7858847992654" fill="white" id="2324450" r="1.5" /><circle cx="436.4069226441031" cy="688.7797246003602" fill="white" id="2323666" r="1.5" /><circle cx="422.3522974675531" cy="635.9067888225545" fill="white" id="2323191" r="1.5" /><circle cx="804.2513381609621" cy="223.35687778916045" fill="white" id="2323890" r="1.5" /><circle cx="765.6868955480966" cy="965.7367936621368" fill="white" id="2323493" r="1.5" /><circle cx="787.1023581276675" cy="1189.7858847992654" fill="white" id="2324448" r="1.5" /><circle cx="888.4883135820692" cy="626.080909184422" fill="white" id="2324792" r="1.5" /><circle cx="639.6123363214235" cy="621.445685187817" fill="white" id="2323142" r="1.5" /><circle cx="327.0460796394697" cy="658.4275793725067" fill="white" id="2324017" r="1.5" /><circle cx="447.5082602043255" cy="382.66079492291385" fill="white" id="2323166" r="1.5" /></svg>