<?xml version="1.0" encoding="utf-8" ?>
<svg baseProfile="full" height="970.8777576070476" version="1.1" width="1200" xmlns="http://www.w3.org/2000/svg" xmlns:ev="http://www.w3.org/2001/xml-events" xmlns:xlink="http://www.w3.org/1999/xlink"><defs /><rect fill="#222B38" height="970.8777576070476" rx="0" ry="0" width="1200" x="0" y="0" /><path class="route-2230733_106" d="M 660.083572288964 641.4116497536172 L 674.623893842547 673.6654454179486" fill="none" stroke="#FF5B1A" stroke-width="5" /><path class="route-2230733_106" d="M 693.242516167726 721.2594159534619 L 674.623893842547 673.6654454179486" fill="none" stroke="#FF5B1A" stroke-width="5" /><path class="route-2230733_106" d="M 693.242516167726 721.2594159534619 L 699.2733429869352 759.5257403089813" fill="none" stroke="#FF5B1A" stroke-width="5" /><path class="route-2230733_106" d="M 699.2733429869352 759.5257403089813 L 699.8441435158823 764.6496789950847" fill="none" stroke="#FF5B1A" stroke-width="5" /><path class="route-2230733_106" d="M 715.1053994902406 788.9056372605224 L 699.8441435158823 764.6496789950847" fill="none" stroke="#FF5B1A" stroke-width="5" /><path class="route-2230733_106" d="M 708.2088903276409 803.6927944945159 L 715.1053994902406 788.9056372605224" fill="none" stroke="#FF5B1A" stroke-width="5" /><path class="route-2230733_106" d="M 708.2088903276409 803.6927944945159 L 703.4958306426865 822.8503028079245" fill="none" stroke="#FF5B1A" stroke-width="5" /><path class="route-2230733_106" d="M 713.4210498263867 870.8777576070476 L 703.4958306426865 822.8503028079245" fill="none" stroke="#FF5B1A" stroke-width="5" /><path class="route-2230733_106" d="M 708.2088903276409 803.6927944945159 L 713.4210498263867 870.8777576070476" fill="none" stroke="#FF5B1A" stroke-width="5" /><path class="route-2230733_106" d="M 699.2733429869352 759.5257403089813 L 693.242516167726 721.2594159534619" fill="none" stroke="#FF5B1A" stroke-width="5" /><path class="route-1994842_2" d="M 285.2213493087165 259.9432125811274 L 292.584530262134 248.9797170267849" fill="none" stroke="#EEF608" stroke-width="5" /><path class="route-1994842_2" d="M 285.2213493087165 259.9432125811274 L 276.1100847224178 265.30199918944584" fill="none" stroke="#EEF608" stroke-width="5" /><path class="route-1994842_2" d="M 270.73039913959144 268.4388713241151 L 276.1100847224178 265.30199918944584" fill="none" stroke="#EEF608" stroke-width="5" /><path class="route-1994842_2" d="M 267.6149525726138 270.26702880243306 L 270.73039913959144 268.4388713241151" fill="none" stroke="#EEF608" stroke-width="5" /><path class="route-1994842_2" d="M 267.6149525726138 270.26702880243306 L 262.14740836699104 273.5376728448915" fill="none" stroke="#EEF608" stroke-width="5" /><path class="route-1994842_2" d="M 253.47667117928606 277.1372094490743 L 262.14740836699104 273.5376728448915" fill="none" stroke="#EEF608" stroke-width="5" /><path class="route-1994842_2" d="M 253.47667117928606 277.1372094490743 L 226.38300188116204 272.6097071402723" fill="none" stroke="#EEF608" stroke-width="5" /><path class="route-1994842_2" d="M 213.43703942248948 279.42117580636074 L 226.38300188116204 272.6097071402723" fill="none" stroke="#EEF608" stroke-width="5" /><path class="route-1994842_2" d="M 213.43703942248948 279.42117580636074 L 202.75453052582213 283.0305563354269" fill="none" stroke="#EEF608" stroke-width="5" /><path class="route-1994842_2" d="M 202.75453052582213 283.0305563354269 L 185.28783236619654 284.69910160313754" fill="none" stroke="#EEF608" stroke-width="5" /><path class="route-1994842_2" d="M 185.28783236619654 284.69910160313754 L 176.79539320099929 292.625746330998" fill="none" stroke="#EEF608" stroke-width="5" /><path class="route-1994842_2" d="M 178.02215989708316 316.84461409375183 L 176.79539320099929 292.625746330998" fill="none" stroke="#EEF608" stroke-width="5" /><path class="route-1994842_2" d="M 178.02215989708316 316.84461409375183 L 178.86181005594116 329.509350809167" fill="none" stroke="#EEF608" stroke-width="5" /><path class="route-1994842_2" d="M 178.86181005594116 329.509350809167 L 188.35592728717148 339.64665981080975" fill="none" stroke="#EEF608" stroke-width="5" /><path class="route-1994842_2" d="M 188.35592728717148 339.64665981080975 L 201.00510040063756 362.6355643162756" fill="none" stroke="#EEF608" stroke-width="5" /><path class="route-1994842_2" d="M 203.43260160827293 375.560637687979 L 201.00510040063756 362.6355643162756" fill="none" stroke="#EEF608" stroke-width="5" /><path class="route-1994842_2" d="M 203.43260160827293 375.560637687979 L 199.13572025275906 378.5686598773021" fill="none" stroke="#EEF608" stroke-width="5" /><path class="route-1994842_2" d="M 199.13572025275906 378.5686598773021 L 197.30987668935697 378.18966876929716" fill="none" stroke="#EEF608" stroke-width="5" /><path class="route-1994842_2" d="M 192.65853123497476 376.69497424640036 L 197.30987668935697 378.18966876929716" fill="none" stroke="#EEF608" stroke-width="5" /><path class="route-1994842_2" d="M 192.65853123497476 376.69497424640036 L 169.79295997719947 382.8973500603369" fill="none" stroke="#EEF608" stroke-width="5" /><path class="route-1994842_2" d="M 169.79295997719947 382.8973500603369 L 143.8678215830374 401.65916775031354" fill="none" stroke="#EEF608" stroke-width="5" /><path class="route-1994842_2" d="M 129.39482464462426 400.1839852928098 L 143.8678215830374 401.65916775031354" fill="none" stroke="#EEF608" stroke-width="5" /><path class="route-1994842_2" d="M 129.39482464462426 400.1839852928098 L 118.00237768099242 400.9533934930589" fill="none" stroke="#EEF608" stroke-width="5" /><path class="route-1994842_2" d="M 118.00237768099242 400.9533934930589 L 114.13581282410492 404.30243736583816" fill="none" stroke="#EEF608" stroke-width="5" /><path class="route-1994842_2" d="M 102.80249931413054 408.57013037147186 L 114.13581282410492 404.30243736583816" fill="none" stroke="#EEF608" stroke-width="5" /><path class="route-1994842_2" d="M 100.0 408.99236443521335 L 102.80249931413054 408.57013037147186" fill="none" stroke="#EEF608" stroke-width="5" /><path class="route-1994842_2" d="M 292.584530262134 248.9797170267849 L 276.1100847224178 265.30199918944584" fill="none" stroke="#EEF608" stroke-width="5" /><path class="route-1994842_2" d="M 253.47667117928606 277.1372094490743 L 267.6149525726138 270.26702880243306" fill="none" stroke="#EEF608" stroke-width="5" /><path class="route-1994842_2" d="M 253.47667117928606 277.1372094490743 L 226.993972763827 284.04325010779087" fill="none" stroke="#EEF608" stroke-width="5" /><path class="route-1994842_2" d="M 217.59612973228934 284.9916067996679 L 226.993972763827 284.04325010779087" fill="none" stroke="#EEF608" stroke-width="5" /><path class="route-1994842_2" d="M 203.60068873081323 288.8340774072194 L 217.59612973228934 284.9916067996679" fill="none" stroke="#EEF608" stroke-width="5" /><path class="route-1994842_2" d="M 204.43163109372063 285.4341458212127 L 190.03729174736412 288.9521184763628" fill="none" stroke="#EEF608" stroke-width="5" /><path class="route-1449959_3" d="M 202.76974636790584 292.2340089932261 L 188.37540702154934 295.75198164837616" fill="none" stroke="#A9C539" stroke-width="5" /><path class="route-1994842_2" d="M 189.28351540424347 288.8529008221412 L 176.87255922078603 289.12659709076974" fill="none" stroke="#EEF608" stroke-width="5" /><path class="route-1449959_3" d="M 189.12918336466998 295.85119930259776 L 176.71822718121254 296.1248955712263" fill="none" stroke="#A9C539" stroke-width="5" /><path class="route-1994842_2" d="M 203.43260160827293 375.560637687979 L 188.35592728717148 339.64665981080975" fill="none" stroke="#EEF608" stroke-width="5" /><path class="route-162784_106" d="M 826.5042983961595 121.97972642056128 L 844.4401369158257 120.1041071615574" fill="none" stroke="#39C5C3" stroke-width="5" /><path class="route-162784_106" d="M 850.0900186208665 120.18549532621645 L 844.4401369158257 120.1041071615574" fill="none" stroke="#39C5C3" stroke-width="5" /><path class="route-162784_106" d="M 850.0900186208665 120.18549532621645 L 866.9047900902657 123.31832442031013" fill="none" stroke="#39C5C3" stroke-width="5" /><path class="route-162784_106" d="M 876.8153100663204 123.11283248837158 L 866.9047900902657 123.31832442031013" fill="none" stroke="#39C5C3" stroke-width="5" /><path class="route-162784_106" d="M 879.2820839661381 123.34275844814485 L 876.8153100663204 123.11283248837158" fill="none" stroke="#39C5C3" stroke-width="5" /><path class="route-162784_106" d="M 879.2820839661381 123.34275844814485 L 882.6715417168564 123.5696960735786" fill="none" stroke="#39C5C3" stroke-width="5" /><path class="route-162784_106" d="M 882.6715417168564 123.5696960735786 L 895.3313745610576 118.39056109438049" fill="none" stroke="#39C5C3" stroke-width="5" /><path class="route-162784_106" d="M 909.110703547839 103.75809410855288 L 895.3313745610576 118.39056109438049" fill="none" stroke="#39C5C3" stroke-width="5" /><path class="route-162784_106" d="M 909.110703547839 103.75809410855288 L 912.4390081064448 103.21949078994062" fill="none" stroke="#39C5C3" stroke-width="5" /><path class="route-162784_106" d="M 912.4390081064448 103.21949078994062 L 916.652743562224 100.0" fill="none" stroke="#39C5C3" stroke-width="5" /><path class="route-162784_106" d="M 916.652743562224 100.0 L 918.6344436097442 100.91741864224468" fill="none" stroke="#39C5C3" stroke-width="5" /><path class="route-162784_106" d="M 921.2999373320042 100.72264955705437 L 918.6344436097442 100.91741864224468" fill="none" stroke="#39C5C3" stroke-width="5" /><path class="route-162784_106" d="M 921.2999373320042 100.72264955705437 L 927.8241413727154 103.96481653110123" fill="none" stroke="#39C5C3" stroke-width="5" /><path class="route-162784_106" d="M 927.8241413727154 103.96481653110123 L 959.5945150636022 117.23231786124309" fill="none" stroke="#39C5C3" stroke-width="5" /><path class="route-162784_106" d="M 967.7499945298752 120.89496105530174 L 959.5945150636022 117.23231786124309" fill="none" stroke="#39C5C3" stroke-width="5" /><path class="route-162784_106" d="M 967.7499945298752 120.89496105530174 L 978.5208108801068 122.02947339809681" fill="none" stroke="#39C5C3" stroke-width="5" /><path class="route-162784_106" d="M 994.0867107381079 127.90295665030897 L 978.5208108801068 122.02947339809681" fill="none" stroke="#39C5C3" stroke-width="5" /><path class="route-162784_106" d="M 994.0867107381079 127.90295665030897 L 1048.715698809869 133.25418453059115" fill="none" stroke="#39C5C3" stroke-width="5" /><path class="route-162784_106" d="M 927.8241413727154 103.96481653110123 L 921.2999373320042 100.72264955705437" fill="none" stroke="#39C5C3" stroke-width="5" /><path class="route-162784_106" d="M 1048.715698809869 133.25418453059115 L 1040.4274776440202 133.0163482740367" fill="none" stroke="#39C5C3" stroke-width="5" /><path class="route-162784_106" d="M 1032.1129998782549 133.1694564628464 L 1040.4274776440202 133.0163482740367" fill="none" stroke="#39C5C3" stroke-width="5" /><path class="route-162784_106" d="M 1032.1129998782549 133.1694564628464 L 1027.2325263169116 133.92040730393984" fill="none" stroke="#39C5C3" stroke-width="5" /><path class="route-162784_106" d="M 1027.2325263169116 133.92040730393984 L 1018.8840496204857 131.47630138292737" fill="none" stroke="#39C5C3" stroke-width="5" /><path class="route-162784_106" d="M 1005.9332622310592 129.60243996765195 L 1018.8840496204857 131.47630138292737" fill="none" stroke="#39C5C3" stroke-width="5" /><path class="route-162784_106" d="M 1005.9332622310592 129.60243996765195 L 994.0867107381079 127.90295665030897" fill="none" stroke="#39C5C3" stroke-width="5" /><path class="route-162784_106" d="M 927.8241413727154 103.96481653110123 L 923.961503785046 102.65504716851011" fill="none" stroke="#39C5C3" stroke-width="5" /><path class="route-162784_106" d="M 921.2999373320042 100.72264955705437 L 923.961503785046 102.65504716851011" fill="none" stroke="#39C5C3" stroke-width="5" /><path class="route-162784_106" d="M 882.6715417168564 123.5696960735786 L 866.9047900902657 123.31832442031013" fill="none" stroke="#39C5C3" stroke-width="5" /><path class="route-162784_106" d="M 826.5042983961595 121.97972642056128 L 866.9047900902657 123.31832442031013" fill="none" stroke="#39C5C3" stroke-width="5" /><path class="route-162784_106" d="M 810.3540208784852 126.4304109583985 L 826.5042983961595 121.97972642056128" fill="none" stroke="#39C5C3" stroke-width="5" /><path class="route-162784_106" d="M 810.3540208784852 126.4304109583985 L 804.9729888033555 124.69418870711658" fill="none" stroke="#39C5C3" stroke-width="5" /><path class="route-162784_106" d="M 780.6074251195994 121.51108528236995 L 804.9729888033555 124.69418870711658" fill="none" stroke="#39C5C3" stroke-width="5" /><path class="route-162784_106" d="M 760.4952062068808 133.52243148365935 L 780.6074251195994 121.51108528236995" fill="none" stroke="#39C5C3" stroke-width="5" /><path class="route-162784_106" d="M 760.4952062068808 133.52243148365935 L 745.0659753176741 144.15457349505783" fill="none" stroke="#39C5C3" stroke-width="5" /><path class="route-162784_106" d="M 722.7755806888318 166.22658671139885 L 745.0659753176741 144.15457349505783" fill="none" stroke="#39C5C3" stroke-width="5" /><path class="route-162784_106" d="M 721.1135603556761 169.4775429040905 L 722.7755806888318 166.22658671139885" fill="none" stroke="#39C5C3" stroke-width="5" /><path class="route-162534_106" d="M 197.06268314399227 677.203633275984 L 200.93328747778992 677.368519017778" fill="none" stroke="#FF5B1A" stroke-width="5" /><path class="route-162534_106" d="M 197.06268314399227 677.203633275984 L 195.7617471635298 676.9209720043357" fill="none" stroke="#FF5B1A" stroke-width="5" /><path class="route-162534_106" d="M 191.19287436273044 675.869078316812 L 195.7617471635298 676.9209720043357" fill="none" stroke="#FF5B1A" stroke-width="5" /><path class="route-162534_106" d="M 184.90273556742596 675.9576736407611 L 191.19287436273044 675.869078316812" fill="none" stroke="#FF5B1A" stroke-width="5" /><path class="route-162534_106" d="M 178.67330113346605 671.2311834218195 L 184.90273556742596 675.9576736407611" fill="none" stroke="#FF5B1A" stroke-width="5" /><path class="route-162534_106" d="M 178.67330113346605 671.2311834218195 L 176.8079604624977 666.5034627122668" fill="none" stroke="#FF5B1A" stroke-width="5" /><path class="route-162534_106" d="M 176.8079604624977 666.5034627122668 L 173.9078404563711 662.1165879017977" fill="none" stroke="#FF5B1A" stroke-width="5" /><path class="route-162534_106" d="M 173.9078404563711 662.1165879017977 L 170.7638931356384 657.743072703669" fill="none" stroke="#FF5B1A" stroke-width="5" /><path class="route-162534_106" d="M 170.7638931356384 657.743072703669 L 166.9343568170942 651.7363448967865" fill="none" stroke="#FF5B1A" stroke-width="5" /><path class="route-162534_106" d="M 166.9343568170942 651.7363448967865 L 162.42876915455432 647.6577958764102" fill="none" stroke="#FF5B1A" stroke-width="5" /><path class="route-162534_106" d="M 162.42876915455432 647.6577958764102 L 160.89432896714501 643.0283386313175" fill="none" stroke="#FF5B1A" stroke-width="5" /><path class="route-162534_106" d="M 156.8686536030732 632.6470409200701 L 160.89432896714501 643.0283386313175" fill="none" stroke="#FF5B1A" stroke-width="5" /><path class="route-162534_106" d="M 156.8686536030732 632.6470409200701 L 152.2366078717062 613.1386669983231" fill="none" stroke="#FF5B1A" stroke-width="5" /><path class="route-162534_106" d="M 154.17499575013375 597.4017467974691 L 152.2366078717062 613.1386669983231" fill="none" stroke="#FF5B1A" stroke-width="5" /><path class="route-162534_106" d="M 162.94335362983475 586.7022793712442 L 154.17499575013375 597.4017467974691" fill="none" stroke="#FF5B1A" stroke-width="5" /><path class="route-162534_106" d="M 253.64049440953232 491.09808090515264 L 267.95763486382765 482.27177175671204" fill="none" stroke="#FF5B1A" stroke-width="5" /><path class="route-162534_106" d="M 235.56215212109012 512.3472474718783 L 253.64049440953232 491.09808090515264" fill="none" stroke="#FF5B1A" stroke-width="5" /><path class="route-162534_106" d="M 235.56215212109012 512.3472474718783 L 220.65008648407854 517.0484247411204" fill="none" stroke="#FF5B1A" stroke-width="5" /><path class="route-162534_106" d="M 220.65008648407854 517.0484247411204 L 217.04216035713472 534.3863890104848" fill="none" stroke="#FF5B1A" stroke-width="5" /><path class="route-162534_106" d="M 217.04216035713472 534.3863890104848 L 195.60746158709932 548.6845141190277" fill="none" stroke="#FF5B1A" stroke-width="5" /><path class="route-162534_106" d="M 172.80439001373986 573.6562663509758 L 195.60746158709932 548.6845141190277" fill="none" stroke="#FF5B1A" stroke-width="5" /><path class="route-162534_106" d="M 162.94335362983475 586.7022793712442 L 172.80439001373986 573.6562663509758" fill="none" stroke="#FF5B1A" stroke-width="5" /><path class="route-162534_106" d="M 162.94335362983475 586.7022793712442 L 161.1741749508671 588.8494854864033" fill="none" stroke="#FF5B1A" stroke-width="5" /><path class="route-162534_106" d="M 156.70471816513503 594.8773074180349 L 161.1741749508671 588.8494854864033" fill="none" stroke="#FF5B1A" stroke-width="5" /><path class="route-162534_106" d="M 156.70471816513503 594.8773074180349 L 154.17499575013375 597.4017467974691" fill="none" stroke="#FF5B1A" stroke-width="5" /><path class="route-162534_106" d="M 154.1028462042102 602.0811268044699 L 154.17499575013375 597.4017467974691" fill="none" stroke="#FF5B1A" stroke-width="5" /><path class="route-162534_106" d="M 154.1028462042102 602.0811268044699 L 155.98748659819378 603.2620462217135" fill="none" stroke="#FF5B1A" stroke-width="5" /><path class="route-162534_106" d="M 155.98748659819378 603.2620462217135 L 154.92241118620922 607.8788469919557" fill="none" stroke="#FF5B1A" stroke-width="5" /><path class="route-162534_106" d="M 154.92241118620922 607.8788469919557 L 152.2366078717062 613.1386669983231" fill="none" stroke="#FF5B1A" stroke-width="5" /><path class="route-162534_106" d="M 152.2366078717062 613.1386669983231 L 153.68936085937634 618.2931921653127" fill="none" stroke="#FF5B1A" stroke-width="5" /><path class="route-162534_106" d="M 157.14973387140662 622.5948115549182 L 153.68936085937634 618.2931921653127" fill="none" stroke="#FF5B1A" stroke-width="5" /><path class="route-162534_106" d="M 157.89928125362923 628.961721541904 L 157.14973387140662 622.5948115549182" fill="none" stroke="#FF5B1A" stroke-width="5" /><path class="route-162534_106" d="M 157.89928125362923 628.961721541904 L 156.8686536030732 632.6470409200701" fill="none" stroke="#FF5B1A" stroke-width="5" /><path class="route-162534_106" d="M 170.7638931356384 657.743072703669 L 160.89432896714501 643.0283386313175" fill="none" stroke="#FF5B1A" stroke-width="5" /><path class="route-162534_106" d="M 173.9078404563711 662.1165879017977 L 184.90273556742596 675.9576736407611" fill="none" stroke="#FF5B1A" stroke-width="5" /><path class="route-162534_106" d="M 184.90273556742596 675.9576736407611 L 200.93328747778992 677.368519017778" fill="none" stroke="#FF5B1A" stroke-width="5" /><path class="route-162013_2" d="M 956.4375516506033 358.3017763864266 L 957.326909816995 361.0448915257671" fill="none" stroke="#0CC261" stroke-width="5" /><path class="route-162013_2" d="M 956.4375516506033 358.3017763864266 L 958.2993016754292 356.5912186535892" fill="none" stroke="#0CC261" stroke-width="5" /><path class="route-162013_2" d="M 958.2993016754292 356.5912186535892 L 963.7311638350122 348.0185663552654" fill="none" stroke="#0CC261" stroke-width="5" /><path class="route-162013_2" d="M 977.5808470446459 348.530977802312 L 963.7311638350122 348.0185663552654" fill="none" stroke="#0CC261" stroke-width="5" /><path class="route-162013_2" d="M 985.3986935658428 351.86121274718937 L 977.5808470446459 348.530977802312" fill="none" stroke="#0CC261" stroke-width="5" /><path class="route-162013_2" d="M 985.3986935658428 351.86121274718937 L 1008.2814326004864 346.0993525717775" fill="none" stroke="#0CC261" stroke-width="5" /><path class="route-162013_2" d="M 1035.5020087982052 337.7474854458348 L 1008.2814326004864 346.0993525717775" fill="none" stroke="#0CC261" stroke-width="5" /><path class="route-162013_2" d="M 1062.7915927264733 350.6940045110334 L 1035.5020087982052 337.7474854458348" fill="none" stroke="#0CC261" stroke-width="5" /><path class="route-162013_2" d="M 1062.7915927264733 350.6940045110334 L 1097.2549510241479 342.37588798469017" fill="none" stroke="#0CC261" stroke-width="5" /><path class="route-162013_2" d="M 1100.0 343.5612020112568 L 1097.2549510241479 342.37588798469017" fill="none" stroke="#0CC261" stroke-width="5" /><circle cx="100.0" cy="408.99236443521335" fill="white" id="de:05334:1008" r="1.5" /><circle cx="226.993972763827" cy="284.04325010779087" fill="white" id="de:05911:5194" r="1.5" /><circle cx="170.7638931356384" cy="657.743072703669" fill="white" id="de:10044:8000075" r="1.5" /><circle cx="253.47667117928606" cy="277.1372094490743" fill="white" id="de:05913:131" r="1.5" /><circle cx="178.02215989708316" cy="316.84461409375183" fill="white" id="de:05111:18488" r="1.5" /><circle cx="143.8678215830374" cy="401.65916775031354" fill="white" id="de:05358:2286" r="1.5" /><circle cx="178.86181005594116" cy="329.509350809167" fill="white" id="de:05111:18235_G" r="1.5" /><circle cx="176.79539320099929" cy="292.625746330998" fill="white" id="de:05112:16032" r="1.5" /><circle cx="203.60068873081323" cy="288.8340774072194" fill="white" id="de:05113:9289_G" r="1.5" /><circle cx="213.43703942248948" cy="279.42117580636074" fill="white" id="de:05513:5613_G" r="1.5" /><circle cx="162.94335362983475" cy="586.7022793712442" fill="white" id="de:07211:1318_G" r="1.5" /><circle cx="292.584530262134" cy="248.9797170267849" fill="white" id="de:05915:7756" r="1.5" /><circle cx="226.38300188116204" cy="272.6097071402723" fill="white" id="de:05916:7501_G" r="1.5" /><circle cx="184.90273556742596" cy="675.9576736407611" fill="white" id="de:10041:8000175" r="1.5" /><circle cx="169.79295997719947" cy="382.8973500603369" fill="white" id="de:05362:87303" r="1.5" /><circle cx="699.8441435158823" cy="764.6496789950847" fill="white" id="de:09161:9000" r="1.5" /><circle cx="267.95763486382765" cy="482.27177175671204" fill="white" id="de:07111:010001" r="1.5" /><circle cx="197.30987668935697" cy="378.18966876929716" fill="white" id="de:05315:11201" r="1.5" /><circle cx="192.65853123497476" cy="376.69497424640036" fill="white" id="de:05315:14201" r="1.5" /><circle cx="203.43260160827293" cy="375.560637687979" fill="white" id="de:05315:19201" r="1.5" /><circle cx="715.1053994902406" cy="788.9056372605224" fill="white" id="de:09186:8181" r="1.5" /><circle cx="189.20634938445673" cy="292.35205006236947" fill="white" id="de:05117:15225" r="1.5" /><circle cx="713.4210498263867" cy="870.8777576070476" fill="white" id="de:09162:100_G_G" r="1.5" /><circle cx="660.083572288964" cy="641.4116497536172" fill="white" id="de:09564:510" r="1.5" /><circle cx="185.28783236619654" cy="284.69910160313754" fill="white" id="de:05119:14022_G" r="1.5" /><circle cx="200.93328747778992" cy="677.368519017778" fill="white" id="de:10041:8000323" r="1.5" /><circle cx="114.13581282410492" cy="404.30243736583816" fill="white" id="de:05334:5766" r="1.5" /><circle cx="195.60746158709932" cy="548.6845141190277" fill="white" id="de:07231:40916" r="1.5" /><circle cx="156.70471816513503" cy="594.8773074180349" fill="white" id="de:07235:10502" r="1.5" /><circle cx="102.80249931413054" cy="408.57013037147186" fill="white" id="de:05334:1646" r="1.5" /><circle cx="674.4970991506439" cy="747.7360582019378" fill="white" id="de:09176:9001" r="1.5" /><circle cx="674.623893842547" cy="673.6654454179486" fill="white" id="de:09576:8350_G" r="1.5" /><circle cx="702.3974295461928" cy="776.884798703096" fill="white" id="de:09186:9024" r="1.5" /><circle cx="166.9343568170942" cy="651.7363448967865" fill="white" id="de:10042:8000840" r="1.5" /><circle cx="178.67330113346605" cy="671.2311834218195" fill="white" id="de:10044:8001110" r="1.5" /><circle cx="217.04216035713472" cy="534.3863890104848" fill="white" id="de:07135:070009" r="1.5" /><circle cx="195.7617471635298" cy="676.9209720043357" fill="white" id="de:10041:8001302" r="1.5" /><circle cx="220.65008648407854" cy="517.0484247411204" fill="white" id="de:07135:070006" r="1.5" /><circle cx="700.6209573672485" cy="850.7645096580992" fill="white" id="de:09174:6800" r="1.5" /><circle cx="262.14740836699104" cy="273.5376728448915" fill="white" id="de:05913:162" r="1.5" /><circle cx="267.6149525726138" cy="270.26702880243306" fill="white" id="de:05913:298" r="1.5" /><circle cx="188.35592728717148" cy="339.64665981080975" fill="white" id="de:05111:18263_G" r="1.5" /><circle cx="669.134356929302" cy="742.6172172626497" fill="white" id="de:09176:9004" r="1.5" /><circle cx="686.5948836658703" cy="752.0919949627744" fill="white" id="de:09176:9005" r="1.5" /><circle cx="176.8079604624977" cy="666.5034627122668" fill="white" id="de:10044:8001799" r="1.5" /><circle cx="118.00237768099242" cy="400.9533934930589" fill="white" id="de:05334:2828" r="1.5" /><circle cx="202.75453052582213" cy="283.0305563354269" fill="white" id="de:05113:9117" r="1.5" /><circle cx="162.42876915455432" cy="647.6577958764102" fill="white" id="de:10042:8002083" r="1.5" /><circle cx="692.26485054777" cy="755.1137283331852" fill="white" id="de:09176:9008" r="1.5" /><circle cx="699.2733429869352" cy="759.5257403089813" fill="white" id="de:09161:9009" r="1.5" /><circle cx="276.1100847224178" cy="265.30199918944584" fill="white" id="de:05978:11186" r="1.5" /><circle cx="270.73039913959144" cy="268.4388713241151" fill="white" id="de:05978:11188" r="1.5" /><circle cx="154.1028462042102" cy="602.0811268044699" fill="white" id="de:07235:10413" r="1.5" /><circle cx="235.56215212109012" cy="512.3472474718783" fill="white" id="de:07135:070003" r="1.5" /><circle cx="693.242516167726" cy="721.2594159534619" fill="white" id="de:09176:8840_G" r="1.5" /><circle cx="253.64049440953232" cy="491.09808090515264" fill="white" id="de:07137:030034" r="1.5" /><circle cx="199.13572025275906" cy="378.5686598773021" fill="white" id="de:05315:11901" r="1.5" /><circle cx="154.17499575013375" cy="597.4017467974691" fill="white" id="de:07235:10487" r="1.5" /><circle cx="129.39482464462426" cy="400.1839852928098" fill="white" id="de:05358:4566" r="1.5" /><circle cx="191.19287436273044" cy="675.869078316812" fill="white" id="de:10041:8003796" r="1.5" /><circle cx="160.89432896714501" cy="643.0283386313175" fill="white" id="de:10042:8003992" r="1.5" /><circle cx="156.8686536030732" cy="632.6470409200701" fill="white" id="de:10042:8004004" r="1.5" /><circle cx="285.2213493087165" cy="259.9432125811274" fill="white" id="de:05978:21858" r="1.5" /><circle cx="703.4958306426865" cy="822.8503028079245" fill="white" id="de:09174:6840" r="1.5" /><circle cx="708.2088903276409" cy="803.6927944945159" fill="white" id="de:09186:8134_G" r="1.5" /><circle cx="197.06268314399227" cy="677.203633275984" fill="white" id="de:10041:8005243" r="1.5" /><circle cx="152.2366078717062" cy="613.1386669983231" fill="white" id="de:07235:7484" r="1.5" /><circle cx="157.89928125362923" cy="628.961721541904" fill="white" id="de:10042:8005246" r="1.5" /><circle cx="173.9078404563711" cy="662.1165879017977" fill="white" id="de:10044:8005247" r="1.5" /><circle cx="154.92241118620922" cy="607.8788469919557" fill="white" id="de:07235:11130" r="1.5" /><circle cx="172.80439001373986" cy="573.6562663509758" fill="white" id="de:07235:6507" r="1.5" /><circle cx="153.68936085937634" cy="618.2931921653127" fill="white" id="de:07235:11150" r="1.5" /><circle cx="157.14973387140662" cy="622.5948115549182" fill="white" id="de:07235:7511" r="1.5" /><circle cx="681.7062189430148" cy="751.519113691444" fill="white" id="de:09176:7823" r="1.5" /><circle cx="161.1741749508671" cy="588.8494854864033" fill="white" id="de:07211:1501" r="1.5" /><circle cx="217.59612973228934" cy="284.9916067996679" fill="white" id="de:05911:5503" r="1.5" /><circle cx="155.98748659819378" cy="603.2620462217135" fill="white" id="de:07235:10989" r="1.5" /><circle cx="201.00510040063756" cy="362.6355643162756" fill="white" id="de:05316:21101_G" r="1.5" /><circle cx="985.3986935658428" cy="351.86121274718937" fill="white" id="de:14625:6770" r="1.5" /><circle cx="1035.5020087982052" cy="337.7474854458348" fill="white" id="de:14625:7500" r="1.5" /><circle cx="1008.2814326004864" cy="346.0993525717775" fill="white" id="de:14625:7000" r="1.5" /><circle cx="826.5042983961595" cy="121.97972642056128" fill="white" id="de:12051:900275110_G" r="1.5" /><circle cx="957.326909816995" cy="361.0448915257671" fill="white" id="de:14612:28" r="1.5" /><circle cx="963.7311638350122" cy="348.0185663552654" fill="white" id="de:14612:658" r="1.5" /><circle cx="958.2993016754292" cy="356.5912186535892" fill="white" id="de:14612:16" r="1.5" /><circle cx="1048.715698809869" cy="133.25418453059115" fill="white" id="de:12053:900360000_G" r="1.5" /><circle cx="994.0867107381079" cy="127.90295665030897" fill="white" id="de:12067:900310001_G_G" r="1.5" /><circle cx="780.6074251195994" cy="121.51108528236995" fill="white" id="de:15086:8010123" r="1.5" /><circle cx="1097.2549510241479" cy="342.37588798469017" fill="white" id="de:14626:8885" r="1.5" /><circle cx="760.4952062068808" cy="133.52243148365935" fill="white" id="de:15086:8010151" r="1.5" /><circle cx="1062.7915927264733" cy="350.6940045110334" fill="white" id="de:14626:9155" r="1.5" /><circle cx="721.1135603556761" cy="169.4775429040905" fill="white" id="de:15003:8010224" r="1.5" /><circle cx="722.7755806888318" cy="166.22658671139885" fill="white" id="de:15003:8010226" r="1.5" /><circle cx="923.961503785046" cy="102.65504716851011" fill="white" id="de:11000:900120005_G" r="1.5" /><circle cx="879.2820839661381" cy="123.34275844814485" fill="white" id="de:12054:900230006_G" r="1.5" /><circle cx="866.9047900902657" cy="123.31832442031013" fill="white" id="de:12069:900220009" r="1.5" /><circle cx="876.8153100663204" cy="123.11283248837158" fill="white" id="de:12054:900230007_G" r="1.5" /><circle cx="909.110703547839" cy="103.75809410855288" fill="white" id="de:11000:900024101_G" r="1.5" /><circle cx="895.3313745610576" cy="118.39056109438049" fill="white" id="de:11000:900053301_G" r="1.5" /><circle cx="912.4390081064448" cy="103.21949078994062" fill="white" id="de:11000:900023201_G" r="1.5" /><circle cx="1005.9332622310592" cy="129.60243996765195" fill="white" id="de:12067:900310005_G" r="1.5" /><circle cx="921.2999373320042" cy="100.72264955705437" fill="white" id="de:11000:900100003_G" r="1.5" /><circle cx="916.652743562224" cy="100.0" fill="white" id="de:11000:900003201_G" r="1.5" /><circle cx="927.8241413727154" cy="103.96481653110123" fill="white" id="de:11000:900120003_G" r="1.5" /><circle cx="1018.8840496204857" cy="131.47630138292737" fill="white" id="de:12067:900310006" r="1.5" /><circle cx="745.0659753176741" cy="144.15457349505783" fill="white" id="de:15086:8011294" r="1.5" /><circle cx="918.6344436097442" cy="100.91741864224468" fill="white" id="de:11000:900100001_G" r="1.5" /><circle cx="967.7499945298752" cy="120.89496105530174" fill="white" id="de:12067:900310003_G" r="1.5" /><circle cx="1040.4274776440202" cy="133.0163482740367" fill="white" id="de:12053:900360004_G" r="1.5" /><circle cx="844.4401369158257" cy="120.1041071615574" fill="white" id="de:12069:900220182" r="1.5" /><circle cx="850.0900186208665" cy="120.18549532621645" fill="white" id="de:12069:900220699" r="1.5" /><circle cx="997.2291993588452" cy="350.22342974473867" fill="white" id="de:14625:7103" r="1.5" /><circle cx="978.5208108801068" cy="122.02947339809681" fill="white" id="de:12067:900310002_G_G" r="1.5" /><circle cx="1027.2325263169116" cy="133.92040730393984" fill="white" id="de:12067:900310007_G" r="1.5" /><circle cx="810.3540208784852" cy="126.4304109583985" fill="white" id="de:12051:900275719_G" r="1.5" /><circle cx="969.5616999240917" cy="345.89438799295885" fill="white" id="de:14612:6680" r="1.5" /><circle cx="1032.1129998782549" cy="133.1694564628464" fill="white" id="de:12067:900310008" r="1.5" /><circle cx="882.6715417168564" cy="123.5696960735786" fill="white" id="de:12054:900230999_G" r="1.5" /><circle cx="977.5808470446459" cy="348.530977802312" fill="white" id="de:14625:6700" r="1.5" /><circle cx="1004.3516948130315" cy="348.6796913817987" fill="white" id="de:14625:7063" r="1.5" /><circle cx="804.9729888033555" cy="124.69418870711658" fill="white" id="de:12069:900220249" r="1.5" /><circle cx="956.4375516506033" cy="358.3017763864266" fill="white" id="de:14612:1" r="1.5" /><circle cx="959.5945150636022" cy="117.23231786124309" fill="white" id="de:12067:900310004_G" r="1.5" /><circle cx="1100.0" cy="343.5612020112568" fill="white" id="000005100085" r="1.5" /><circle cx="1098.5556625892264" cy="343.06021654844835" fill="white" id="000005104531" r="1.5" /><circle cx="696.4912654727394" cy="756.5715081377706" fill="white" id="de:09161:1750:2" r="1.5" /></svg>