<?xml version="1.0" encoding="utf-8" ?>
<svg baseProfile="full" height="1056.089275710786" version="1.1" width="1200" xmlns="http://www.w3.org/2000/svg" xmlns:ev="http://www.w3.org/2001/xml-events" xmlns:xlink="http://www.w3.org/1999/xlink"><defs /><rect fill="#222B38" height="1056.089275710786" rx="0" ry="0" width="1200" x="0" y="0" /><path d="M 740.4983148149859 676.1309164880666 L 692.0141998119802 648.5019073443935" fill="none" stroke="#ffdd00" stroke-width="3" /><path d="M 742.478751706552 679.606239454141 L 693.9946367035463 651.9772303104679" fill="none" stroke="#e32119" stroke-width="3" /><path d="M 744.4591885981181 683.0815624202154 L 695.9750735951125 655.4525532765423" fill="none" stroke="#00b43f" stroke-width="3" /><path d="M 769.5964579604532 687.992587335805 L 740.9263898682451 675.9197543093223" fill="none" stroke="#ffdd00" stroke-width="3" /><path d="M 771.1488197987601 691.6790724806236 L 742.478751706552 679.606239454141" fill="none" stroke="#e32119" stroke-width="3" /><path d="M 772.701181637067 695.3655576254423 L 744.0311135448588 683.2927245989597" fill="none" stroke="#00b43f" stroke-width="3" /><path d="M 771.5395143856537 687.6981984886751 L 798.6065386054175 690.3546352076885" fill="none" stroke="#ffdd00" stroke-width="3" /><path d="M 771.1488197987601 691.6790724806236 L 798.215844018524 694.335509199637" fill="none" stroke="#e32119" stroke-width="3" /><path d="M 770.7581252118665 695.6599464725722 L 797.8251494316304 698.3163831915856" fill="none" stroke="#00b43f" stroke-width="3" /><path d="M 817.7338893117142 680.9619544341232 L 800.1789664807615 690.8503764620991" fill="none" stroke="#ffdd00" stroke-width="3" /><path d="M 815.7707668494767 684.4470871716611 L 798.215844018524 694.335509199637" fill="none" stroke="#e32119" stroke-width="3" /><path d="M 813.8076443872392 687.932219909199 L 796.2527215562865 697.820641937175" fill="none" stroke="#00b43f" stroke-width="3" /><path d="M 813.0119309232011 681.5507404500321 L 826.522087426995 668.6820100408124" fill="none" stroke="#ffdd00" stroke-width="3" /><path d="M 815.7707668494767 684.4470871716611 L 829.2809233532705 671.5783567624414" fill="none" stroke="#e32119" stroke-width="3" /><path d="M 818.5296027757522 687.3434338932901 L 832.039759279546 674.4747034840705" fill="none" stroke="#00b43f" stroke-width="3" /><path d="M 827.4399903615911 668.0271646076649 L 843.9693897615648 659.4583473311545" fill="none" stroke="#ffdd00" stroke-width="3" /><path d="M 829.2809233532705 671.5783567624414 L 845.8103227532442 663.0095394859311" fill="none" stroke="#e32119" stroke-width="3" /><path d="M 831.12185634495 675.129548917218 L 847.6512557449237 666.5607316407077" fill="none" stroke="#00b43f" stroke-width="3" /><path d="M 865.6633505399399 653.526832955117 L 846.9682494844794 659.1808052714562" fill="none" stroke="#ffdd00" stroke-width="3" /><path d="M 864.5054238087047 657.355567169592 L 845.8103227532442 663.0095394859311" fill="none" stroke="#e32119" stroke-width="3" /><path d="M 863.3474970774695 661.1843013840669 L 844.652396022009 666.838273700406" fill="none" stroke="#00b43f" stroke-width="3" /><path d="M 862.0450660956502 654.2017377633283 L 876.3238343634505 643.0626198481905" fill="none" stroke="#ffdd00" stroke-width="3" /><path d="M 864.5054238087047 657.355567169592 L 878.784192076505 646.2164492544541" fill="none" stroke="#e32119" stroke-width="3" /><path d="M 866.9657815217591 660.5093965758556 L 881.2445497895594 649.3702786607178" fill="none" stroke="#00b43f" stroke-width="3" /><path d="M 877.0933814201634 642.5913755552858 L 897.0751640474144 633.2714516578469" fill="none" stroke="#ffdd00" stroke-width="3" /><path d="M 878.784192076505 646.2164492544541 L 898.765974703756 636.8965253570152" fill="none" stroke="#e32119" stroke-width="3" /><path d="M 880.4750027328465 649.8415229536224 L 900.4567853600976 640.5215990561835" fill="none" stroke="#00b43f" stroke-width="3" /><path d="M 912.3074984537303 635.8372642383873 L 897.9820189737538 632.9741009264625" fill="none" stroke="#ffdd00" stroke-width="3" /><path d="M 913.0914541837325 639.75968866894 L 898.765974703756 636.8965253570152" fill="none" stroke="#e32119" stroke-width="3" /><path d="M 913.8754099137346 643.6821130994928 L 899.5499304337582 640.8189497875679" fill="none" stroke="#00b43f" stroke-width="3" /><path d="M 956.1672471565863 647.9496466989594 L 912.0378910706463 635.9009317749723" fill="none" stroke="#ffdd00" stroke-width="3" /><path d="M 957.2208102696725 651.8084035929272 L 913.0914541837325 639.75968866894" fill="none" stroke="#e32119" stroke-width="3" /><path d="M 958.2743733827587 655.667160486895 L 914.1450172968187 643.6184455629078" fill="none" stroke="#00b43f" stroke-width="3" /><path d="M 957.3683861492719 647.8111268499733 L 1007.7634143777074 649.6716661862497" fill="none" stroke="#ffdd00" stroke-width="3" /><path d="M 957.2208102696725 651.8084035929272 L 1007.6158384981079 653.6689429292036" fill="none" stroke="#e32119" stroke-width="3" /><path d="M 957.073234390073 655.8056803358811 L 1007.4682626185084 657.6662196721575" fill="none" stroke="#00b43f" stroke-width="3" /><path d="M 1005.7745717738768 652.888086444157 L 1020.1743645459524 618.933243557164" fill="none" stroke="#ffdd00" stroke-width="3" /><path d="M 1009.457105222339 654.4497994142502 L 1023.8568979944146 620.4949565272572" fill="none" stroke="#00b43f" stroke-width="3" /><path d="M 1007.5283885779417 582.6912555561572 L 1023.8390945754489 618.8925274195226" fill="none" stroke="#ffdd00" stroke-width="3" /><path d="M 1003.8814619674107 584.3344008015332 L 1020.192167964918 620.5356726648986" fill="none" stroke="#00b43f" stroke-width="3" /><path d="M 1003.7706135081156 583.0044602043597 L 999.379759563461 566.2975060532685" fill="none" stroke="#ffdd00" stroke-width="3" /><path d="M 1007.6392370372367 584.0211961533307 L 1003.2483830925821 567.3142420022396" fill="none" stroke="#00b43f" stroke-width="3" /><path d="M 998.3766754314107 548.4960064755412 L 1003.2431344455083 566.2779389098159" fill="none" stroke="#ffdd00" stroke-width="3" /><path d="M 994.5185491964372 549.5518767114174 L 999.3850082105348 567.3338091456922" fill="none" stroke="#00b43f" stroke-width="3" /><path d="M 992.9816082373904 527.0130798961293 L 998.3873694284407 548.536763662245" fill="none" stroke="#ffdd00" stroke-width="3" /><path d="M 989.102094008357 527.9874357585979 L 994.5078551994072 549.5111195247136" fill="none" stroke="#00b43f" stroke-width="3" /><path d="M 991.0418511228737 527.5002578273636 L 975.357500015925 514.9864080693317" fill="none" stroke="#00b43f" stroke-width="3" /><path d="M 963.5947674949424 518.2836972263926 L 975.357500015925 514.9864080693317" fill="none" stroke="#00b43f" stroke-width="3" /><path d="M 975.357500015925 514.9864080693317 L 991.0418511228737 527.5002578273636" fill="none" stroke="#00b43f" stroke-width="3" /><path d="M 900.4567853600976 633.2714516578469 L 880.4750027328465 642.5913755552858" fill="none" stroke="#ffdd00" stroke-width="3" /><path d="M 898.765974703756 636.8965253570152 L 878.784192076505 646.2164492544541" fill="none" stroke="#e32119" stroke-width="3" /><path d="M 897.0751640474144 640.5215990561835 L 877.0933814201634 649.8415229536224" fill="none" stroke="#00b43f" stroke-width="3" /><path d="M 529.7427029286998 940.2527916637258 L 503.54408260804877 954.3274271983233" fill="none" stroke="#e32119" stroke-width="3" /><path d="M 527.8496738014721 943.7764886886513 L 501.6510534808212 957.8511242232488" fill="none" stroke="#34b4e4" stroke-width="3" /><path d="M 537.46608899916 909.2386590318434 L 530.7545371040641 941.6085980397753" fill="none" stroke="#e32119" stroke-width="3" /><path d="M 533.5493915212038 910.0507433046699 L 526.8378396261079 942.4206823126018" fill="none" stroke="#34b4e4" stroke-width="3" /><path d="M 534.6611216143923 907.8327307301421 L 593.1966401831603 880.4828024869154" fill="none" stroke="#e32119" stroke-width="3" /><path d="M 536.3543589059715 911.4566716063713 L 594.8898774747395 884.1067433631446" fill="none" stroke="#34b4e4" stroke-width="3" /><path d="M 604.7138736341232 862.4613875566954 L 595.8557292157953 881.4492251163234" fill="none" stroke="#e32119" stroke-width="3" /><path d="M 601.0889328604322 864.1524831741085 L 592.2307884421044 883.1403207337365" fill="none" stroke="#34b4e4" stroke-width="3" /><path d="M 602.2595508321518 861.4127269615569 L 625.2393439864119 853.6260252949328" fill="none" stroke="#e32119" stroke-width="3" /><path d="M 603.5432556624036 865.201143769247 L 626.5230488166636 857.4144421026228" fill="none" stroke="#34b4e4" stroke-width="3" /><path d="M 625.8811964015377 855.5202336987778 L 636.0323921024085 780.0271274078729" fill="none" stroke="#e32119" stroke-width="3" /><path d="M 613.9677140594375 696.9299279407599 L 636.0323921024085 780.0271274078729" fill="none" stroke="#e32119" stroke-width="3" /><path d="M 613.9677140594375 696.9299279407599 L 642.2301206635534 672.10206413117" fill="none" stroke="#e32119" stroke-width="3" /><path d="M 661.9995795990903 653.0005269454297 L 642.2301206635534 672.10206413117" fill="none" stroke="#e32119" stroke-width="3" /><path d="M 661.9995795990903 653.0005269454297 L 693.9946367035463 651.9772303104679" fill="none" stroke="#e32119" stroke-width="3" /><path d="M 1051.3821210712163 628.5206529005654 L 1007.6158384981079 653.6689429292036" fill="none" stroke="#e32119" stroke-width="3" /><path d="M 1051.3821210712163 628.5206529005654 L 1075.38531441954 618.8079484765924" fill="none" stroke="#e32119" stroke-width="3" /><path d="M 1100.0 602.466211306309 L 1075.38531441954 618.8079484765924" fill="none" stroke="#e32119" stroke-width="3" /><path d="M 517.0992761885345 105.0200107647295 L 553.304712099691 108.95470691663118" fill="none" stroke="#003a8c" stroke-width="3" /><path d="M 603.5765925869299 100.0 L 553.304712099691 108.95470691663118" fill="none" stroke="#003a8c" stroke-width="3" /><path d="M 603.5765925869299 100.0 L 638.3148717883396 116.61048174106091" fill="none" stroke="#003a8c" stroke-width="3" /><path d="M 638.3148717883396 116.61048174106091 L 660.5111905201712 142.90954980359956" fill="none" stroke="#003a8c" stroke-width="3" /><path d="M 660.5111905201712 142.90954980359956 L 674.7559869972961 158.82060657195353" fill="none" stroke="#003a8c" stroke-width="3" /><path d="M 674.7559869972961 158.82060657195353 L 704.5089059172486 216.23891775528665" fill="none" stroke="#003a8c" stroke-width="3" /><path d="M 704.5089059172486 216.23891775528665 L 752.039687544455 309.88261890448064" fill="none" stroke="#003a8c" stroke-width="3" /><path d="M 771.388745570397 365.995107109199 L 752.039687544455 309.88261890448064" fill="none" stroke="#003a8c" stroke-width="3" /><path d="M 788.769562974146 414.3622389658707 L 771.388745570397 365.995107109199" fill="none" stroke="#003a8c" stroke-width="3" /><path d="M 788.769562974146 414.3622389658707 L 803.430513887031 468.4935973217873" fill="none" stroke="#003a8c" stroke-width="3" /><path d="M 803.430513887031 468.4935973217873 L 806.1864754054857 532.1343789519722" fill="none" stroke="#003a8c" stroke-width="3" /><path d="M 811.4245008800808 560.3732315447353 L 806.1864754054857 532.1343789519722" fill="none" stroke="#003a8c" stroke-width="3" /><path d="M 811.4245008800808 560.3732315447353 L 796.8081379424563 620.2412528541704" fill="none" stroke="#003a8c" stroke-width="3" /><path d="M 822.6054664857672 643.8528752087625 L 796.8081379424563 620.2412528541704" fill="none" stroke="#003a8c" stroke-width="3" /><path d="M 822.7972464584825 641.8620913324803 L 839.8574550877412 643.5055677461763" fill="none" stroke="#003a8c" stroke-width="3" /><path d="M 822.413686513052 645.8436590850447 L 839.4738951423107 647.4871354987407" fill="none" stroke="#34b4e4" stroke-width="3" /><path d="M 843.9231116607639 662.3473957761377 L 837.7784640225456 644.8342079126651" fill="none" stroke="#003a8c" stroke-width="3" /><path d="M 847.6975338457246 663.6716831957245 L 841.5528862075063 646.158495332252" fill="none" stroke="#34b4e4" stroke-width="3" /><path d="M 845.5972868017303 678.9642540919629 L 843.822260738998 662.7913436392446" fill="none" stroke="#003a8c" stroke-width="3" /><path d="M 849.5734108302228 679.4006457853359 L 847.7983847674905 663.2277353326176" fill="none" stroke="#34b4e4" stroke-width="3" /><path d="M 848.9212858508765 677.694070874438 L 871.7609453686043 698.1944580055921" fill="none" stroke="#003a8c" stroke-width="3" /><path d="M 846.2494117810766 680.6708290028607 L 869.0890712988044 701.1712161340148" fill="none" stroke="#34b4e4" stroke-width="3" /><path d="M 872.1563731095334 698.6816497681369 L 881.0463660816191 714.0552173949114" fill="none" stroke="#003a8c" stroke-width="3" /><path d="M 868.6936435578752 700.68402437147 L 877.5836365299609 716.0575919982444" fill="none" stroke="#34b4e4" stroke-width="3" /><path d="M 881.2704208642253 714.636482858031 L 876.4825216160638 736.9319459043642" fill="none" stroke="#003a8c" stroke-width="3" /><path d="M 877.3595817473547 715.4763265351249 L 872.5716824991931 737.7717895814582" fill="none" stroke="#34b4e4" stroke-width="3" /><path d="M 860.2274724705326 769.4402755714917 L 872.6569013834976 736.643101604837" fill="none" stroke="#003a8c" stroke-width="3" /><path d="M 863.9678738187943 770.85780784764 L 876.3973027317593 738.0606338809853" fill="none" stroke="#34b4e4" stroke-width="3" /><path d="M 863.8617099203497 769.2066117365564 L 841.2577297004239 811.5166544206858" fill="none" stroke="#003a8c" stroke-width="3" /><path d="M 860.3336363689772 771.0914716825753 L 837.7296561490514 813.4015143667046" fill="none" stroke="#34b4e4" stroke-width="3" /><path d="M 872.5716824991931 736.9319459043642 L 877.3595817473547 714.636482858031" fill="none" stroke="#003a8c" stroke-width="3" /><path d="M 876.4825216160638 737.7717895814582 L 881.2704208642253 715.4763265351249" fill="none" stroke="#34b4e4" stroke-width="3" /><path d="M 877.5836365299609 714.0552173949114 L 868.6936435578752 698.6816497681369" fill="none" stroke="#003a8c" stroke-width="3" /><path d="M 881.0463660816191 716.0575919982444 L 872.1563731095334 700.68402437147" fill="none" stroke="#34b4e4" stroke-width="3" /><path d="M 660.5111905201712 142.90954980359956 L 638.3148717883396 116.61048174106091" fill="none" stroke="#003a8c" stroke-width="3" /><path d="M 625.8811964015377 855.5202336987778 L 663.1503740081835 857.7287627998043" fill="none" stroke="#34b4e4" stroke-width="3" /><path d="M 663.1503740081835 857.7287627998043 L 712.7576813403574 867.8066842046095" fill="none" stroke="#34b4e4" stroke-width="3" /><path d="M 839.4936929247376 812.4590843936952 L 712.7576813403574 867.8066842046095" fill="none" stroke="#34b4e4" stroke-width="3" /><path d="M 712.7576813403574 867.8066842046095 L 663.1503740081835 857.7287627998043" fill="none" stroke="#34b4e4" stroke-width="3" /><path d="M 100.0 468.2799798424382 L 300.9240327063409 612.4407694146709" fill="none" stroke="#ffdd00" stroke-width="3" /><path d="M 323.109735253589 635.035986020739 L 300.9240327063409 612.4407694146709" fill="none" stroke="#ffdd00" stroke-width="3" /><path d="M 364.1327957297455 670.6274144350145 L 323.109735253589 635.035986020739" fill="none" stroke="#ffdd00" stroke-width="3" /><path d="M 364.1327957297455 670.6274144350145 L 492.4952067926598 712.7135033101506" fill="none" stroke="#ffdd00" stroke-width="3" /><path d="M 555.8504731633471 715.5663302924311 L 492.4952067926598 712.7135033101506" fill="none" stroke="#ffdd00" stroke-width="3" /><path d="M 555.8504731633471 715.5663302924311 L 594.1812692285647 689.9012237815266" fill="none" stroke="#ffdd00" stroke-width="3" /><path d="M 594.1812692285647 689.9012237815266 L 639.6992222583174 647.3603364019414" fill="none" stroke="#ffdd00" stroke-width="3" /><path d="M 693.9946367035463 651.9772303104679 L 639.6992222583174 647.3603364019414" fill="none" stroke="#ffdd00" stroke-width="3" /><path d="M 991.0418511228737 527.5002578273636 L 1000.5199807210096 508.2540120265779" fill="none" stroke="#ffdd00" stroke-width="3" /><path d="M 1015.2637378736637 503.37526443368716 L 1000.5199807210096 508.2540120265779" fill="none" stroke="#ffdd00" stroke-width="3" /><path d="M 1036.447272596019 499.63695854507705 L 1015.2637378736637 503.37526443368716" fill="none" stroke="#ffdd00" stroke-width="3" /><path d="M 1036.447272596019 499.63695854507705 L 1054.5181419978383 488.1601871948335" fill="none" stroke="#ffdd00" stroke-width="3" /><path d="M 1054.5181419978383 488.1601871948335 L 1069.6462050324965 453.30608362866" fill="none" stroke="#ffdd00" stroke-width="3" /><path d="M 300.9240327063409 612.4407694146709 L 100.0 468.2799798424382" fill="none" stroke="#ffdd00" stroke-width="3" /><circle cx="1005.7049252726762" cy="583.5128281788452" fill="white" id="1543586" r="2.5" /><circle cx="300.9240327063409" cy="612.4407694146709" fill="white" id="1828518" r="2.5" /><circle cx="839.4936929247376" cy="812.4590843936952" fill="white" id="1796056" r="2.5" /><circle cx="752.039687544455" cy="309.88261890448064" fill="white" id="1543604" r="2.5" /><circle cx="625.8811964015377" cy="855.5202336987778" fill="white" id="1796117" r="2.5" /><circle cx="625.8811964015377" cy="855.5202336987778" fill="white" id="1796118" r="2.5" /><circle cx="1054.5181419978383" cy="488.1601871948335" fill="white" id="1796134" r="2.5" /><circle cx="963.5947674949424" cy="518.2836972263926" fill="white" id="1796135" r="2.5" /><circle cx="594.0432588289499" cy="882.29477292503" fill="white" id="1894080" r="2.5" /><circle cx="528.796188365086" cy="942.0146401761885" fill="white" id="1894081" r="2.5" /><circle cx="1001.3140713280216" cy="566.805874027754" fill="white" id="1894125" r="2.5" /><circle cx="879.31500130579" cy="715.0564046965779" fill="white" id="1894134" r="2.5" /><circle cx="847.5853488159765" cy="679.1824499386494" fill="white" id="1377837" r="2.5" /><circle cx="625.8811964015377" cy="855.5202336987778" fill="white" id="1377783" r="2.5" /><circle cx="602.9014032472777" cy="863.306935365402" fill="white" id="1894079" r="2.5" /><circle cx="636.0323921024085" cy="780.0271274078729" fill="white" id="1894098" r="2.5" /><circle cx="1000.5199807210096" cy="508.2540120265779" fill="white" id="1543578" r="2.5" /><circle cx="822.6054664857672" cy="643.8528752087625" fill="white" id="2343503" r="2.5" /><circle cx="822.6054664857672" cy="643.8528752087625" fill="white" id="2343504" r="2.5" /><circle cx="822.6054664857672" cy="643.8528752087625" fill="white" id="2343508" r="2.5" /><circle cx="594.1812692285647" cy="689.9012237815266" fill="white" id="1828497" r="2.5" /><circle cx="323.109735253589" cy="635.035986020739" fill="white" id="1828504" r="2.5" /><circle cx="100.0" cy="468.2799798424382" fill="white" id="1828505" r="2.5" /><circle cx="639.6992222583174" cy="647.3603364019414" fill="white" id="1828495" r="2.5" /><circle cx="517.0992761885345" cy="105.0200107647295" fill="white" id="2327978" r="2.5" /><circle cx="674.7559869972961" cy="158.82060657195353" fill="white" id="2327977" r="2.5" /><circle cx="674.7559869972961" cy="158.82060657195353" fill="white" id="2327975" r="2.5" /><circle cx="660.5111905201712" cy="142.90954980359956" fill="white" id="2327976" r="2.5" /><circle cx="553.304712099691" cy="108.95470691663118" fill="white" id="2327949" r="2.5" /><circle cx="502.597568044435" cy="956.0892757107861" fill="white" id="2327967" r="2.5" /><circle cx="839.6656751150259" cy="645.4963516224585" fill="white" id="1543607" r="2.5" /><circle cx="771.1488197987601" cy="691.6790724806236" fill="white" id="1543549" r="2.5" /><circle cx="811.4245008800808" cy="560.3732315447353" fill="white" id="1355767" r="2.5" /><circle cx="815.7707668494767" cy="684.4470871716611" fill="white" id="1355786" r="2.5" /><circle cx="870.4250083337043" cy="699.6828370698034" fill="white" id="1355811" r="2.5" /><circle cx="815.7707668494767" cy="684.4470871716611" fill="white" id="1355868" r="2.5" /><circle cx="625.8811964015377" cy="855.5202336987778" fill="white" id="1355881" r="2.5" /><circle cx="845.8103227532442" cy="663.0095394859311" fill="white" id="1355884" r="2.5" /><circle cx="661.9995795990903" cy="653.0005269454297" fill="white" id="1355909" r="2.5" /><circle cx="845.8103227532442" cy="663.0095394859311" fill="white" id="1355963" r="2.5" /><circle cx="613.9677140594375" cy="696.9299279407599" fill="white" id="1377742" r="2.5" /><circle cx="878.784192076505" cy="646.2164492544541" fill="white" id="1377784" r="2.5" /><circle cx="878.784192076505" cy="646.2164492544541" fill="white" id="1377785" r="2.5" /><circle cx="847.5853488159765" cy="679.1824499386494" fill="white" id="1377838" r="2.5" /><circle cx="913.0914541837325" cy="639.75968866894" fill="white" id="1543567" r="2.5" /><circle cx="874.5271020576284" cy="737.3518677429112" fill="white" id="1355777" r="2.5" /><circle cx="991.0418511228737" cy="527.5002578273636" fill="white" id="1894123" r="2.5" /><circle cx="603.5765925869299" cy="100.0" fill="white" id="1962402" r="2.5" /><circle cx="712.7576813403574" cy="867.8066842046095" fill="white" id="1894076" r="2.5" /><circle cx="996.447612313924" cy="549.0239415934793" fill="white" id="1543582" r="2.5" /><circle cx="870.4250083337043" cy="699.6828370698034" fill="white" id="1894085" r="2.5" /><circle cx="803.430513887031" cy="468.4935973217873" fill="white" id="1543602" r="2.5" /><circle cx="803.430513887031" cy="468.4935973217873" fill="white" id="1543603" r="2.5" /><circle cx="704.5089059172486" cy="216.23891775528665" fill="white" id="1543606" r="2.5" /><circle cx="839.6656751150259" cy="645.4963516224585" fill="white" id="1543608" r="2.5" /><circle cx="839.4936929247376" cy="812.4590843936952" fill="white" id="1796055" r="2.5" /><circle cx="535.5077402601819" cy="909.6447011682567" fill="white" id="1543497" r="2.5" /><circle cx="594.0432588289499" cy="882.29477292503" fill="white" id="1543498" r="2.5" /><circle cx="535.5077402601819" cy="909.6447011682567" fill="white" id="1543500" r="2.5" /><circle cx="1100.0" cy="602.466211306309" fill="white" id="1543532" r="2.5" /><circle cx="1075.38531441954" cy="618.8079484765924" fill="white" id="1543533" r="2.5" /><circle cx="1075.38531441954" cy="618.8079484765924" fill="white" id="1543534" r="2.5" /><circle cx="1051.3821210712163" cy="628.5206529005654" fill="white" id="1543537" r="2.5" /><circle cx="1051.3821210712163" cy="628.5206529005654" fill="white" id="1543538" r="2.5" /><circle cx="742.478751706552" cy="679.606239454141" fill="white" id="1543545" r="2.5" /><circle cx="742.478751706552" cy="679.606239454141" fill="white" id="1543546" r="2.5" /><circle cx="829.2809233532705" cy="671.5783567624414" fill="white" id="1543548" r="2.5" /><circle cx="798.215844018524" cy="694.335509199637" fill="white" id="1543552" r="2.5" /><circle cx="864.5054238087047" cy="657.355567169592" fill="white" id="1543559" r="2.5" /><circle cx="864.5054238087047" cy="657.355567169592" fill="white" id="1543560" r="2.5" /><circle cx="898.765974703756" cy="636.8965253570152" fill="white" id="1543561" r="2.5" /><circle cx="898.765974703756" cy="636.8965253570152" fill="white" id="1543562" r="2.5" /><circle cx="913.0914541837325" cy="639.75968866894" fill="white" id="1543563" r="2.5" /><circle cx="957.2208102696725" cy="651.8084035929272" fill="white" id="1543566" r="2.5" /><circle cx="1007.6158384981079" cy="653.6689429292036" fill="white" id="1543568" r="2.5" /><circle cx="957.2208102696725" cy="651.8084035929272" fill="white" id="1543569" r="2.5" /><circle cx="957.2208102696725" cy="651.8084035929272" fill="white" id="1543570" r="2.5" /><circle cx="528.796188365086" cy="942.0146401761885" fill="white" id="1543502" r="2.5" /><circle cx="996.447612313924" cy="549.0239415934793" fill="white" id="1894124" r="2.5" /><circle cx="1000.5199807210096" cy="508.2540120265779" fill="white" id="1894122" r="2.5" /><circle cx="502.597568044435" cy="956.0892757107861" fill="white" id="2327968" r="2.5" /><circle cx="553.304712099691" cy="108.95470691663118" fill="white" id="2327950" r="2.5" /><circle cx="660.5111905201712" cy="142.90954980359956" fill="white" id="2327928" r="2.5" /><circle cx="364.1327957297455" cy="670.6274144350145" fill="white" id="1828473" r="2.5" /><circle cx="712.7576813403574" cy="867.8066842046095" fill="white" id="1543481" r="2.5" /><circle cx="364.1327957297455" cy="670.6274144350145" fill="white" id="1828474" r="2.5" /><circle cx="639.6992222583174" cy="647.3603364019414" fill="white" id="1828475" r="2.5" /><circle cx="555.8504731633471" cy="715.5663302924311" fill="white" id="1828492" r="2.5" /><circle cx="492.4952067926598" cy="712.7135033101506" fill="white" id="1828493" r="2.5" /><circle cx="594.1812692285647" cy="689.9012237815266" fill="white" id="1828496" r="2.5" /><circle cx="100.0" cy="468.2799798424382" fill="white" id="1828506" r="2.5" /><circle cx="663.1503740081835" cy="857.7287627998043" fill="white" id="1894075" r="2.5" /><circle cx="874.5271020576284" cy="737.3518677429112" fill="white" id="1894077" r="2.5" /><circle cx="613.9677140594375" cy="696.9299279407599" fill="white" id="1894099" r="2.5" /><circle cx="1100.0" cy="602.466211306309" fill="white" id="1894100" r="2.5" /><circle cx="1069.6462050324965" cy="453.30608362866" fill="white" id="1894101" r="2.5" /><circle cx="1069.6462050324965" cy="453.30608362866" fill="white" id="1894102" r="2.5" /><circle cx="661.9995795990903" cy="653.0005269454297" fill="white" id="1894107" r="2.5" /><circle cx="1001.3140713280216" cy="566.805874027754" fill="white" id="1894126" r="2.5" /><circle cx="1036.447272596019" cy="499.63695854507705" fill="white" id="1894130" r="2.5" /><circle cx="1015.2637378736637" cy="503.37526443368716" fill="white" id="1894131" r="2.5" /><circle cx="798.215844018524" cy="694.335509199637" fill="white" id="1543551" r="2.5" /><circle cx="636.0323921024085" cy="780.0271274078729" fill="white" id="1796098" r="2.5" /><circle cx="603.5765925869299" cy="100.0" fill="white" id="1962405" r="2.5" /><circle cx="638.3148717883396" cy="116.61048174106091" fill="white" id="1962406" r="2.5" /><circle cx="638.3148717883396" cy="116.61048174106091" fill="white" id="1962407" r="2.5" /><circle cx="492.4952067926598" cy="712.7135033101506" fill="white" id="1962574" r="2.5" /><circle cx="300.9240327063409" cy="612.4407694146709" fill="white" id="1962598" r="2.5" /><circle cx="300.9240327063409" cy="612.4407694146709" fill="white" id="1962599" r="2.5" /><circle cx="845.8103227532442" cy="663.0095394859311" fill="white" id="1355946" r="2.5" /><circle cx="879.31500130579" cy="715.0564046965779" fill="white" id="1355960" r="2.5" /><circle cx="752.039687544455" cy="309.88261890448064" fill="white" id="1543605" r="2.5" /><circle cx="845.8103227532442" cy="663.0095394859311" fill="white" id="1796119" r="2.5" /><circle cx="1022.0156312701835" cy="619.7141000422106" fill="white" id="1543571" r="2.5" /><circle cx="1022.0156312701835" cy="619.7141000422106" fill="white" id="1543572" r="2.5" /><circle cx="1007.6158384981079" cy="653.6689429292036" fill="white" id="1543573" r="2.5" /><circle cx="555.8504731633471" cy="715.5663302924311" fill="white" id="1828491" r="2.5" /><circle cx="693.9946367035463" cy="651.9772303104679" fill="white" id="2332505" r="2.5" /><circle cx="693.9946367035463" cy="651.9772303104679" fill="white" id="2332507" r="2.5" /><circle cx="693.9946367035463" cy="651.9772303104679" fill="white" id="2332506" r="2.5" /><circle cx="975.357500015925" cy="514.9864080693317" fill="white" id="1543593" r="2.5" /><circle cx="975.357500015925" cy="514.9864080693317" fill="white" id="1543594" r="2.5" /><circle cx="771.1488197987601" cy="691.6790724806236" fill="white" id="1543550" r="2.5" /><circle cx="811.4245008800808" cy="560.3732315447353" fill="white" id="1532070" r="2.5" /><circle cx="771.388745570397" cy="365.995107109199" fill="white" id="1532151" r="2.5" /><circle cx="771.388745570397" cy="365.995107109199" fill="white" id="1532154" r="2.5" /><circle cx="806.1864754054857" cy="532.1343789519722" fill="white" id="1927241" r="2.5" /><circle cx="806.1864754054857" cy="532.1343789519722" fill="white" id="1927242" r="2.5" /><circle cx="642.2301206635534" cy="672.10206413117" fill="white" id="1894097" r="2.5" /><circle cx="796.8081379424563" cy="620.2412528541704" fill="white" id="1543479" r="2.5" /><circle cx="1005.7049252726762" cy="583.5128281788452" fill="white" id="1543480" r="2.5" /><circle cx="839.4936929247376" cy="812.4590843936952" fill="white" id="1543484" r="2.5" /><circle cx="862.0976731446634" cy="770.1490417095658" fill="white" id="1543487" r="2.5" /><circle cx="862.0976731446634" cy="770.1490417095658" fill="white" id="1543488" r="2.5" /><circle cx="663.1503740081835" cy="857.7287627998043" fill="white" id="1543494" r="2.5" /><circle cx="602.9014032472777" cy="863.306935365402" fill="white" id="1543496" r="2.5" /><circle cx="991.0418511228737" cy="527.5002578273636" fill="white" id="1543581" r="2.5" /><circle cx="1036.447272596019" cy="499.63695854507705" fill="white" id="1543589" r="2.5" /><circle cx="1054.5181419978383" cy="488.1601871948335" fill="white" id="1543591" r="2.5" /><circle cx="963.5947674949424" cy="518.2836972263926" fill="white" id="1543595" r="2.5" /><circle cx="1015.2637378736637" cy="503.37526443368716" fill="white" id="1543598" r="2.5" /><circle cx="642.2301206635534" cy="672.10206413117" fill="white" id="1543599" r="2.5" /><circle cx="323.109735253589" cy="635.035986020739" fill="white" id="1828519" r="2.5" /><circle cx="788.769562974146" cy="414.3622389658707" fill="white" id="2262957" r="2.5" /><circle cx="788.769562974146" cy="414.3622389658707" fill="white" id="2262958" r="2.5" /><circle cx="1007.6158384981079" cy="653.6689429292036" fill="white" id="1543574" r="2.5" /><circle cx="829.2809233532705" cy="671.5783567624414" fill="white" id="1543547" r="2.5" /><circle cx="704.5089059172486" cy="216.23891775528665" fill="white" id="1543508" r="2.5" /><circle cx="796.8081379424563" cy="620.2412528541704" fill="white" id="1543477" r="2.5" /></svg>