<?xml version="1.0" encoding="utf-8" ?>
<svg baseProfile="full" height="1527.6228648700226" version="1.1" width="1200" xmlns="http://www.w3.org/2000/svg" xmlns:ev="http://www.w3.org/2001/xml-events" xmlns:xlink="http://www.w3.org/1999/xlink"><defs /><rect fill="#222B38" height="1527.6228648700226" rx="0" ry="0" width="1200" x="0" y="0" /><path d="M 993.5372407316086 1090.271213046651 L 934.5592440272538 1025.4192528384344" fill="none" stroke="#8478F4" stroke-width="3" /><path d="M 996.496508816783 1092.9624455524124 L 937.5185121124283 1028.110485344196" fill="none" stroke="#D66ECD" stroke-width="3" /><path d="M 909.9374787846764 990.5623907414689 L 939.0607835968503 1024.1441655625217" fill="none" stroke="#8478F4" stroke-width="3" /><path d="M 906.9155732576671 993.1830942702625 L 936.0388780698411 1026.7648690913152" fill="none" stroke="#D66ECD" stroke-width="3" /><path d="M 903.8936677306579 995.803797799056 L 933.0169725428318 1029.3855726201086" fill="none" stroke="#BB3636" stroke-width="3" /><path d="M 904.1798591826599 990.2648981665354 L 879.7198078974468 967.3343944588189" fill="none" stroke="#8478F4" stroke-width="3" /><path d="M 906.9155732576671 993.1830942702625 L 882.455521972454 970.252590562546" fill="none" stroke="#D66ECD" stroke-width="3" /><path d="M 909.6512873326743 996.1012903739895 L 885.1912360474612 973.170786666273" fill="none" stroke="#BB3636" stroke-width="3" /><path d="M 850.3832210286109 928.5080746947859 L 886.7657629071316 966.0786448172074" fill="none" stroke="#EEF608" stroke-width="3" /><path d="M 847.5097270721592 931.2907051916783 L 883.8922689506799 968.8612753140998" fill="none" stroke="#8478F4" stroke-width="3" /><path d="M 844.6362331157075 934.0733356885706 L 881.0187749942281 971.6439058109921" fill="none" stroke="#D66ECD" stroke-width="3" /><path d="M 841.7627391592557 936.855966185463 L 878.1452810377764 974.4265363078845" fill="none" stroke="#BB3636" stroke-width="3" /><path d="M 845.3657672152201 926.7238453886358 L 806.635737166669 922.1267370783586" fill="none" stroke="#EEF608" stroke-width="3" /><path d="M 845.8372424676955 930.6959620896282 L 807.1072124191444 926.098853779351" fill="none" stroke="#8478F4" stroke-width="3" /><path d="M 846.3087177201711 934.6680787906207 L 807.57868767162 930.0709704803435" fill="none" stroke="#D66ECD" stroke-width="3" /><path d="M 846.7801929726465 938.6401954916131 L 808.0501629240954 934.0430871813359" fill="none" stroke="#BB3636" stroke-width="3" /><path d="M 807.2957872313729 922.0850974936293 L 765.2859707830937 921.7548704316539" fill="none" stroke="#EEF608" stroke-width="3" /><path d="M 807.327229107379 926.0849739177746 L 765.3174126590999 925.7547468557992" fill="none" stroke="#8478F4" stroke-width="3" /><path d="M 807.3586709833853 930.0848503419198 L 765.3488545351062 929.7546232799444" fill="none" stroke="#D66ECD" stroke-width="3" /><path d="M 807.3901128593915 934.0847267660652 L 765.3802964111123 933.7544997040898" fill="none" stroke="#BB3636" stroke-width="3" /><path d="M 768.1012071625638 918.1454307400794 L 746.9738136322543 924.2314575579139" fill="none" stroke="#39C5C3" stroke-width="3" /><path d="M 766.9939777363795 921.9891324711964 L 745.86658420607 928.0751592890309" fill="none" stroke="#8478F4" stroke-width="3" /><path d="M 765.8867483101952 925.8328342023134 L 744.7593547798857 931.9188610201479" fill="none" stroke="#EEF608" stroke-width="3" /><path d="M 764.7795188840108 929.6765359334303 L 743.6521253537013 935.7625627512648" fill="none" stroke="#2D80D3" stroke-width="3" /><path d="M 763.6722894578265 933.5202376645473 L 742.544895927517 939.6062644823818" fill="none" stroke="#D66ECD" stroke-width="3" /><path d="M 762.5650600316422 937.3639393956643 L 741.4376665013327 943.4499662134988" fill="none" stroke="#BB3636" stroke-width="3" /><path d="M 742.7095720146478 921.9343488322908 L 661.7282796624904 911.7581412116097" fill="none" stroke="#A9C539" stroke-width="3" /><path d="M 743.2082946986965 925.9031365167626 L 662.227002346539 915.7269288960815" fill="none" stroke="#39C5C3" stroke-width="3" /><path d="M 743.707017382745 929.8719242012345 L 662.7257250305876 919.6957165805534" fill="none" stroke="#8478F4" stroke-width="3" /><path d="M 744.2057400667935 933.8407118857064 L 663.2244477146361 923.6645042650252" fill="none" stroke="#2D80D3" stroke-width="3" /><path d="M 744.704462750842 937.8094995701782 L 663.7231703986846 927.6332919494971" fill="none" stroke="#D66ECD" stroke-width="3" /><path d="M 745.2031854348905 941.7782872546501 L 664.2218930827331 931.602079633969" fill="none" stroke="#0CC261" stroke-width="3" /><path d="M 745.7019081189392 945.747074939122 L 664.7206157667817 935.5708673184408" fill="none" stroke="#BB3636" stroke-width="3" /><path d="M 632.0182684974897 898.6516415952062 L 667.5742548566801 912.480623998006" fill="none" stroke="#A9C539" stroke-width="3" /><path d="M 630.5683327834751 902.3796016842127 L 666.1243191426655 916.2085840870125" fill="none" stroke="#39C5C3" stroke-width="3" /><path d="M 629.1183970694603 906.1075617732191 L 664.6743834286508 919.9365441760189" fill="none" stroke="#8478F4" stroke-width="3" /><path d="M 627.6684613554456 909.8355218622255 L 663.2244477146361 923.6645042650252" fill="none" stroke="#2D80D3" stroke-width="3" /><path d="M 626.2185256414309 913.5634819512319 L 661.7745120006214 927.3924643540316" fill="none" stroke="#D66ECD" stroke-width="3" /><path d="M 624.7685899274162 917.2914420402383 L 660.3245762866067 931.120424443038" fill="none" stroke="#0CC261" stroke-width="3" /><path d="M 623.3186542134016 921.0194021292448 L 658.874640572592 934.8483845320445" fill="none" stroke="#BB3636" stroke-width="3" /><path d="M 741.4376665013327 924.2314575579139 L 762.5650600316422 918.1454307400794" fill="none" stroke="#A9C539" stroke-width="3" /><path d="M 742.544895927517 928.0751592890309 L 763.6722894578265 921.9891324711964" fill="none" stroke="#8478F4" stroke-width="3" /><path d="M 743.6521253537013 931.9188610201479 L 764.7795188840108 925.8328342023134" fill="none" stroke="#EEF608" stroke-width="3" /><path d="M 744.7593547798857 935.7625627512648 L 765.8867483101952 929.6765359334303" fill="none" stroke="#D66ECD" stroke-width="3" /><path d="M 745.86658420607 939.6062644823818 L 766.9939777363795 933.5202376645473" fill="none" stroke="#0CC261" stroke-width="3" /><path d="M 746.9738136322543 943.4499662134988 L 768.1012071625638 937.3639393956643" fill="none" stroke="#BB3636" stroke-width="3" /><path d="M 808.0501629240954 922.1267370783586 L 846.7801929726465 926.7238453886358" fill="none" stroke="#EEF608" stroke-width="3" /><path d="M 807.57868767162 926.098853779351 L 846.3087177201711 930.6959620896282" fill="none" stroke="#8478F4" stroke-width="3" /><path d="M 807.1072124191444 930.0709704803435 L 845.8372424676955 934.6680787906207" fill="none" stroke="#D66ECD" stroke-width="3" /><path d="M 806.635737166669 934.0430871813359 L 845.3657672152201 938.6401954916131" fill="none" stroke="#BB3636" stroke-width="3" /><path d="M 536.3497194094963 886.6913648684856 L 566.0616586426826 894.6805423856496" fill="none" stroke="#A9C539" stroke-width="3" /><path d="M 535.3110609047063 890.5541602954306 L 565.0230001378926 898.5433378125946" fill="none" stroke="#D66ECD" stroke-width="3" /><path d="M 534.2724023999162 894.4169557223756 L 563.9843416331025 902.4061332395396" fill="none" stroke="#39C5C3" stroke-width="3" /><path d="M 533.2337438951263 898.2797511493206 L 562.9456831283126 906.2689286664846" fill="none" stroke="#2D80D3" stroke-width="3" /><path d="M 532.1950853903362 902.1425465762657 L 561.9070246235225 910.1317240934296" fill="none" stroke="#D66ECD" stroke-width="3" /><path d="M 531.1564268855462 906.0053420032107 L 560.8683661187325 913.9945195203746" fill="none" stroke="#0CC261" stroke-width="3" /><path d="M 526.1619501976132 889.83875649292 L 505.76065661178706 866.0479243868831" fill="none" stroke="#A9C539" stroke-width="3" /><path d="M 529.1983993775765 892.4425952700913 L 508.79710579175025 868.6517631640544" fill="none" stroke="#D66ECD" stroke-width="3" /><path d="M 532.2348485575396 895.0464340472626 L 511.83355497171345 871.2556019412257" fill="none" stroke="#39C5C3" stroke-width="3" /><path d="M 535.2712977375029 897.6502728244337 L 514.8700041516767 873.8594407183969" fill="none" stroke="#2D80D3" stroke-width="3" /><path d="M 538.307746917466 900.254111601605 L 517.9064533316398 876.4632794955681" fill="none" stroke="#D66ECD" stroke-width="3" /><path d="M 541.3441960974293 902.8579503787763 L 520.942902511603 879.0671182727394" fill="none" stroke="#0CC261" stroke-width="3" /><path d="M 502.6642956173022 842.2438313489478 L 521.2802997765144 866.4633792898519" fill="none" stroke="#A9C539" stroke-width="3" /><path d="M 499.4928875313744 844.6814881649315 L 518.1088916905867 868.9010361058356" fill="none" stroke="#D66ECD" stroke-width="3" /><path d="M 496.32147944544664 847.1191449809153 L 514.937483604659 871.3386929218194" fill="none" stroke="#39C5C3" stroke-width="3" /><path d="M 493.1500713595189 849.556801796899 L 511.76607551873116 873.7763497378031" fill="none" stroke="#2D80D3" stroke-width="3" /><path d="M 489.97866327359117 851.9944586128828 L 508.5946674328034 876.2140065537869" fill="none" stroke="#D66ECD" stroke-width="3" /><path d="M 486.8072551876634 854.4321154288665 L 505.4232593468756 878.6516633697706" fill="none" stroke="#0CC261" stroke-width="3" /><path d="M 487.5646272144418 841.368422925272 L 475.02530414402486 828.4663936789295" fill="none" stroke="#A9C539" stroke-width="3" /><path d="M 490.4330864896582 844.156243110726 L 477.8937634192412 831.2542138643836" fill="none" stroke="#D66ECD" stroke-width="3" /><path d="M 493.30154576487456 846.94406329618 L 480.7622226944576 834.0420340498376" fill="none" stroke="#39C5C3" stroke-width="3" /><path d="M 496.170005040091 849.7318834816342 L 483.630681969674 836.8298542352918" fill="none" stroke="#2D80D3" stroke-width="3" /><path d="M 499.03846431530735 852.5197036670883 L 486.4991412448904 839.6176744207459" fill="none" stroke="#D66ECD" stroke-width="3" /><path d="M 501.9069235905237 855.3075238525423 L 489.36760052010675 842.4054946061999" fill="none" stroke="#0CC261" stroke-width="3" /><path d="M 476.1964542676873 835.431124655654 L 476.20879091722963 820.072669544702" fill="none" stroke="#39C5C3" stroke-width="3" /><path d="M 480.19645297727294 835.4343376469278 L 480.2087896268153 820.0758825359758" fill="none" stroke="#2D80D3" stroke-width="3" /><path d="M 484.19645168685867 835.4375506382016 L 484.208788336401 820.0790955272496" fill="none" stroke="#D66ECD" stroke-width="3" /><path d="M 488.19645039644433 835.4407636294754 L 488.2087870459867 820.0823085185234" fill="none" stroke="#D66ECD" stroke-width="3" /><path d="M 472.22659712844046 819.4809609044028 L 474.3308770646422 784.268327873699" fill="none" stroke="#A9C539" stroke-width="3" /><path d="M 476.21947386970754 819.7195721552868 L 478.3237538059093 784.506939124583" fill="none" stroke="#D66ECD" stroke-width="3" /><path d="M 480.2123506109746 819.9581834061707 L 482.3166305471764 784.745550375467" fill="none" stroke="#39C5C3" stroke-width="3" /><path d="M 484.2052273522417 820.1967946570546 L 486.30950728844346 784.9841616263509" fill="none" stroke="#2D80D3" stroke-width="3" /><path d="M 488.1981040935088 820.4354059079386 L 490.30238402971054 785.2227728772349" fill="none" stroke="#D66ECD" stroke-width="3" /><path d="M 492.19098083477587 820.6740171588226 L 494.2952607709776 785.4613841281189" fill="none" stroke="#0CC261" stroke-width="3" /><path d="M 607.9456707042388 887.6303771863304 L 590.3694698635835 892.5866798447311" fill="none" stroke="#A9C539" stroke-width="3" /><path d="M 606.8600506606051 891.4802381086055 L 589.2838498199499 896.4365407670061" fill="none" stroke="#D66ECD" stroke-width="3" /><path d="M 605.7744306169715 895.3300990308805 L 588.1982297763162 900.2864016892812" fill="none" stroke="#39C5C3" stroke-width="3" /><path d="M 604.688810573338 899.1799599531557 L 587.1126097326827 904.1362626115564" fill="none" stroke="#2D80D3" stroke-width="3" /><path d="M 603.6031905297043 903.0298208754308 L 586.0269896890491 907.9861235338315" fill="none" stroke="#D66ECD" stroke-width="3" /><path d="M 602.5175704860707 906.8796817977059 L 584.9413696454154 911.8359844561065" fill="none" stroke="#0CC261" stroke-width="3" /><path d="M 562.589444980884 894.3759356124873 L 586.7798523546759 892.249736809894" fill="none" stroke="#A9C539" stroke-width="3" /><path d="M 562.9396719408135 898.3605737486972 L 587.1300793146054 896.2343749461039" fill="none" stroke="#D66ECD" stroke-width="3" /><path d="M 563.2898989007429 902.3452118849071 L 587.4803062745348 900.2190130823138" fill="none" stroke="#39C5C3" stroke-width="3" /><path d="M 563.6401258606722 906.3298500211171 L 587.8305332344642 904.2036512185238" fill="none" stroke="#2D80D3" stroke-width="3" /><path d="M 563.9903528206016 910.314488157327 L 588.1807601943935 908.1882893547337" fill="none" stroke="#D66ECD" stroke-width="3" /><path d="M 564.3405797805311 914.2991262935369 L 588.530987154323 912.1729274909436" fill="none" stroke="#0CC261" stroke-width="3" /><path d="M 488.2087870459867 820.072669544702 L 488.19645039644433 835.431124655654" fill="none" stroke="#A9C539" stroke-width="3" /><path d="M 484.208788336401 820.0758825359758 L 484.19645168685867 835.4343376469278" fill="none" stroke="#D66ECD" stroke-width="3" /><path d="M 480.2087896268153 820.0790955272496 L 480.19645297727294 835.4375506382016" fill="none" stroke="#D66ECD" stroke-width="3" /><path d="M 476.20879091722963 820.0823085185234 L 476.1964542676873 835.4407636294754" fill="none" stroke="#0CC261" stroke-width="3" /><path d="M 975.0720372214346 995.3759178309928 L 932.3519822352239 977.0367289763196" fill="none" stroke="#EEF608" stroke-width="3" /><path d="M 932.3519822352239 977.0367289763196 L 882.455521972454 970.252590562546" fill="none" stroke="#EEF608" stroke-width="3" /><path d="M 764.2918849598043 926.0471133196505 L 785.9585663129566 912.8351341115996" fill="none" stroke="#A9C539" stroke-width="3" /><path d="M 766.3743822344018 929.4622568160931 L 788.041063587554 916.2502776080422" fill="none" stroke="#0CC261" stroke-width="3" /><path d="M 781.0710402524842 913.6209517803239 L 789.7084573105462 858.0645936941398" fill="none" stroke="#A9C539" stroke-width="3" /><path d="M 785.023556717665 914.2354544999886 L 793.660973775727 858.6790964138045" fill="none" stroke="#39C5C3" stroke-width="3" /><path d="M 788.9760731828457 914.8499572196532 L 797.6134902409077 859.2935991334691" fill="none" stroke="#2D80D3" stroke-width="3" /><path d="M 792.9285896480264 915.4644599393179 L 801.5660067060885 859.9081018531338" fill="none" stroke="#0CC261" stroke-width="3" /><path d="M 793.8501471923499 858.088390168547 L 808.5378096616178 828.8575017255932" fill="none" stroke="#A9C539" stroke-width="3" /><path d="M 797.4243168242848 859.8843053787266 L 812.1119792935526 830.6534169357728" fill="none" stroke="#0CC261" stroke-width="3" /><path d="M 827.6031532978956 797.278675960106 L 815.9238709384233 827.598734361898" fill="none" stroke="#A9C539" stroke-width="3" /><path d="M 823.8705023240035 798.7164926059628 L 812.1912199645312 829.0365510077547" fill="none" stroke="#39C5C3" stroke-width="3" /><path d="M 820.1378513501114 800.1543092518194 L 808.4585689906392 830.4743676536114" fill="none" stroke="#2D80D3" stroke-width="3" /><path d="M 816.4052003762193 801.5921258976762 L 804.7259180167471 831.9121842994681" fill="none" stroke="#0CC261" stroke-width="3" /><path d="M 816.9505884805221 796.2010161770888 L 797.5415139935975 765.875164318063" fill="none" stroke="#A9C539" stroke-width="3" /><path d="M 820.319647384879 798.3572726782903 L 800.9105728979544 768.0314208192644" fill="none" stroke="#39C5C3" stroke-width="3" /><path d="M 823.6887062892359 800.5135291794919 L 804.2796318023113 770.187677320466" fill="none" stroke="#2D80D3" stroke-width="3" /><path d="M 827.0577651935928 802.6697856806934 L 807.6486907066682 772.3439338216675" fill="none" stroke="#0CC261" stroke-width="3" /><path d="M 790.8720184278146 750.9086404281325 L 806.5413257249432 764.5898896716252" fill="none" stroke="#A9C539" stroke-width="3" /><path d="M 788.2412028446076 753.9217466936258 L 803.9105101417363 767.6029959371185" fill="none" stroke="#39C5C3" stroke-width="3" /><path d="M 785.6103872614008 756.9348529591192 L 801.2796945585294 770.616102202612" fill="none" stroke="#2D80D3" stroke-width="3" /><path d="M 782.9795716781938 759.9479592246125 L 798.6488789753224 773.6292084681053" fill="none" stroke="#0CC261" stroke-width="3" /><path d="M 782.4555922494067 751.4261395478843 L 751.4588790853205 716.8044391544288" fill="none" stroke="#A9C539" stroke-width="3" /><path d="M 785.4357274518051 754.0942464002097 L 754.4390142877189 719.4725460067542" fill="none" stroke="#39C5C3" stroke-width="3" /><path d="M 788.4158626542034 756.7623532525353 L 757.4191494901172 722.1406528590798" fill="none" stroke="#2D80D3" stroke-width="3" /><path d="M 791.3959978566018 759.4304601048607 L 760.3992846925156 724.8087597114052" fill="none" stroke="#0CC261" stroke-width="3" /><path d="M 739.7891406357063 703.8780223860501 L 759.0642743561758 715.6908816735746" fill="none" stroke="#A9C539" stroke-width="3" /><path d="M 737.6990123242011 707.2885008922784 L 756.9741460446706 719.1013601798029" fill="none" stroke="#39C5C3" stroke-width="3" /><path d="M 735.608884012696 710.6989793985066 L 754.8840177331655 722.5118386860311" fill="none" stroke="#2D80D3" stroke-width="3" /><path d="M 733.5187557011908 714.1094579047349 L 752.7938894216603 725.9223171922594" fill="none" stroke="#0CC261" stroke-width="3" /><path d="M 733.5413077145187 703.8642694705022 L 711.8975372819433 690.7305019350351" fill="none" stroke="#A9C539" stroke-width="3" /><path d="M 735.616401350472 707.2839165870957 L 713.9726309178966 694.1501490516287" fill="none" stroke="#39C5C3" stroke-width="3" /><path d="M 737.6914949864251 710.7035637036893 L 716.0477245538498 697.5697961682222" fill="none" stroke="#2D80D3" stroke-width="3" /><path d="M 739.7665886223784 714.1232108202828 L 718.1228181898031 700.9894432848157" fill="none" stroke="#0CC261" stroke-width="3" /><path d="M 715.2674860689228 689.8654924471638 L 668.0956629764768 691.8903057482793" fill="none" stroke="#A9C539" stroke-width="3" /><path d="M 715.0959471802231 693.8618125556716 L 667.924124087777 695.8866258567871" fill="none" stroke="#39C5C3" stroke-width="3" /><path d="M 714.9244082915233 697.8581326641793 L 667.7525851990772 699.8829459652948" fill="none" stroke="#2D80D3" stroke-width="3" /><path d="M 714.7528694028235 701.8544527726871 L 667.5810463103775 703.8792660738026" fill="none" stroke="#0CC261" stroke-width="3" /><path d="M 626.1227993138775 709.4879870333165 L 665.4449885404598 692.382804568182" fill="none" stroke="#A9C539" stroke-width="3" /><path d="M 627.7183767158557 713.1559745952225 L 667.040565942438 696.050792130088" fill="none" stroke="#39C5C3" stroke-width="3" /><path d="M 629.313954117834 716.8239621571283 L 668.6361433444163 699.7187796919939" fill="none" stroke="#2D80D3" stroke-width="3" /><path d="M 630.9095315198122 720.4919497190343 L 670.2317207463944 703.3867672538998" fill="none" stroke="#0CC261" stroke-width="3" /><path d="M 631.1317322665692 709.590078557427 L 591.9663947270284 728.560754249923" fill="none" stroke="#A9C539" stroke-width="3" /><path d="M 629.3880210334196 713.1900051032593 L 590.2226834938788 732.1606807957553" fill="none" stroke="#39C5C3" stroke-width="3" /><path d="M 627.6443098002701 716.7899316490915 L 588.4789722607293 735.7606073415875" fill="none" stroke="#2D80D3" stroke-width="3" /><path d="M 625.9005985671205 720.3898581949238 L 586.7352610275797 739.3605338874198" fill="none" stroke="#0CC261" stroke-width="3" /><path d="M 589.748684409363 732.0006159617561 L 563.0768480990791 737.4146017411517" fill="none" stroke="#A9C539" stroke-width="3" /><path d="M 588.952971345245 735.9206721755867 L 562.2811350349612 741.3346579549823" fill="none" stroke="#0CC261" stroke-width="3" /><path d="M 563.1150553529974 737.4227465588923 L 512.7674261926797 748.6707437667105" fill="none" stroke="#A9C539" stroke-width="3" /><path d="M 562.2429277810429 741.3265131372417 L 511.8952986207253 752.5745103450599" fill="none" stroke="#0CC261" stroke-width="3" /><path d="M 516.9749783016265 746.8230439971261 L 488.95668481273384 781.0652729421498" fill="none" stroke="#A9C539" stroke-width="3" /><path d="M 513.8792343716772 749.3560993696321 L 485.8609408827846 783.5983283146559" fill="none" stroke="#39C5C3" stroke-width="3" /><path d="M 510.78349044172785 751.8891547421383 L 482.76519695283525 786.131383687162" fill="none" stroke="#2D80D3" stroke-width="3" /><path d="M 507.6877465117786 754.4222101146444 L 479.669453022886 788.6644390596681" fill="none" stroke="#0CC261" stroke-width="3" /><path d="M 609.1442023109691 890.277085359462 L 631.5810430712601 902.8575777296694" fill="none" stroke="#A9C539" stroke-width="3" /><path d="M 607.1879114530619 893.7660574257401 L 629.6247522133528 906.3465497959475" fill="none" stroke="#39C5C3" stroke-width="3" /><path d="M 605.2316205951547 897.2550294920181 L 627.6684613554456 909.8355218622255" fill="none" stroke="#2D80D3" stroke-width="3" /><path d="M 603.2753297372475 900.7440015582962 L 625.7121704975384 913.3244939285036" fill="none" stroke="#D66ECD" stroke-width="3" /><path d="M 601.3190388793403 904.2329736245742 L 623.7558796396312 916.8134659947816" fill="none" stroke="#0CC261" stroke-width="3" /><path d="M 812.1119792935526 828.8575017255932 L 797.4243168242848 858.088390168547" fill="none" stroke="#39C5C3" stroke-width="3" /><path d="M 808.5378096616178 830.6534169357728 L 793.8501471923499 859.8843053787266" fill="none" stroke="#2D80D3" stroke-width="3" /><path d="M 788.041063587554 912.8351341115996 L 766.3743822344018 926.0471133196505" fill="none" stroke="#39C5C3" stroke-width="3" /><path d="M 785.9585663129566 916.2502776080422 L 764.2918849598043 929.4622568160931" fill="none" stroke="#2D80D3" stroke-width="3" /><path d="M 511.8952986207253 748.6707437667105 L 562.2429277810429 737.4227465588923" fill="none" stroke="#39C5C3" stroke-width="3" /><path d="M 512.7674261926797 752.5745103450599 L 563.1150553529974 741.3265131372417" fill="none" stroke="#2D80D3" stroke-width="3" /><path d="M 562.2811350349612 737.4146017411517 L 588.952971345245 732.0006159617561" fill="none" stroke="#39C5C3" stroke-width="3" /><path d="M 563.0768480990791 741.3346579549823 L 589.748684409363 735.9206721755867" fill="none" stroke="#2D80D3" stroke-width="3" /><path d="M 960.4284342148159 671.2957139639514 L 981.0940845765431 631.4714889799169" fill="none" stroke="#A9C539" stroke-width="3" /><path d="M 960.4284342148159 671.2957139639514 L 949.854163178625 691.7668950784515" fill="none" stroke="#A9C539" stroke-width="3" /><path d="M 937.7501475992008 713.4257349246614 L 949.854163178625 691.7668950784515" fill="none" stroke="#A9C539" stroke-width="3" /><path d="M 928.0288677599295 738.108759443794 L 937.7501475992008 713.4257349246614" fill="none" stroke="#A9C539" stroke-width="3" /><path d="M 928.0288677599295 738.108759443794 L 929.6079589013324 764.0199968952111" fill="none" stroke="#A9C539" stroke-width="3" /><path d="M 929.6079589013324 764.0199968952111 L 899.8924949111305 798.9516472503544" fill="none" stroke="#A9C539" stroke-width="3" /><path d="M 861.4462078020479 807.6215559917977 L 899.8924949111305 798.9516472503544" fill="none" stroke="#A9C539" stroke-width="3" /><path d="M 861.4462078020479 807.6215559917977 L 836.8945128345207 828.7966421594709" fill="none" stroke="#A9C539" stroke-width="3" /><path d="M 836.8945128345207 828.7966421594709 L 810.3248944775852 829.755459330683" fill="none" stroke="#A9C539" stroke-width="3" /><path d="M 810.3248944775852 829.755459330683 L 774.9680568895776 822.0733350466004" fill="none" stroke="#A9C539" stroke-width="3" /><path d="M 751.3310363666787 809.8027926380603 L 774.9680568895776 822.0733350466004" fill="none" stroke="#A9C539" stroke-width="3" /><path d="M 751.3310363666787 809.8027926380603 L 720.1016892397984 793.8736819901678" fill="none" stroke="#A9C539" stroke-width="3" /><path d="M 720.1016892397984 793.8736819901678 L 708.188010539024 776.4585495633454" fill="none" stroke="#A9C539" stroke-width="3" /><path d="M 708.188010539024 776.4585495633454 L 692.4869804287856 773.2866317311157" fill="none" stroke="#A9C539" stroke-width="3" /><path d="M 664.4510631548334 779.3292076197275 L 692.4869804287856 773.2866317311157" fill="none" stroke="#A9C539" stroke-width="3" /><path d="M 633.8297366125329 764.602239346619 L 664.4510631548334 779.3292076197275" fill="none" stroke="#A9C539" stroke-width="3" /><path d="M 633.8297366125329 764.602239346619 L 595.0979441854739 780.9803429296659" fill="none" stroke="#A9C539" stroke-width="3" /><path d="M 575.9638007454848 798.3375407842123 L 595.0979441854739 780.9803429296659" fill="none" stroke="#A9C539" stroke-width="3" /><path d="M 575.9638007454848 798.3375407842123 L 569.7355551051684 818.7247167689153" fill="none" stroke="#A9C539" stroke-width="3" /><path d="M 545.5839200585115 823.6433619553276 L 569.7355551051684 818.7247167689153" fill="none" stroke="#A9C539" stroke-width="3" /><path d="M 545.5839200585115 823.6433619553276 L 518.8997470986851 825.0656557047685" fill="none" stroke="#A9C539" stroke-width="3" /><path d="M 482.1964523320658 835.4359441425647 L 518.8997470986851 825.0656557047685" fill="none" stroke="#A9C539" stroke-width="3" /><path d="M 445.0243648828453 871.5639434152375 L 482.1964523320658 835.4359441425647" fill="none" stroke="#A9C539" stroke-width="3" /><path d="M 324.04412995779177 1038.0389368566543 L 445.0243648828453 871.5639434152375" fill="none" stroke="#A9C539" stroke-width="3" /><path d="M 325.54128015430973 1036.7128368268427 L 300.51726774716576 1064.9646309983175" fill="none" stroke="#A9C539" stroke-width="3" /><path d="M 322.5469797612738 1039.365036886466 L 297.52296735412983 1067.6168310579408" fill="none" stroke="#E64DFF" stroke-width="3" /><path d="M 210.38834010380307 1145.9855286540064 L 299.0201175506478 1066.2907310281291" fill="none" stroke="#A9C539" stroke-width="3" /><path d="M 210.38834010380307 1145.9855286540064 L 150.1555299031569 1153.4532950206658" fill="none" stroke="#A9C539" stroke-width="3" /><path d="M 100.0 1152.595863350952 L 150.1555299031569 1153.4532950206658" fill="none" stroke="#A9C539" stroke-width="3" /><path d="M 1096.3818369271166 1427.6228648700226 L 1100.0 1362.4870252576598" fill="none" stroke="#D66ECD" stroke-width="3" /><path d="M 1089.0133323933965 1274.2990193357741 L 1100.0 1362.4870252576598" fill="none" stroke="#D66ECD" stroke-width="3" /><path d="M 1067.1827498391838 1209.308016154091 L 1089.0133323933965 1274.2990193357741" fill="none" stroke="#D66ECD" stroke-width="3" /><path d="M 1067.1827498391838 1209.308016154091 L 995.0168747741958 1091.6168292995317" fill="none" stroke="#D66ECD" stroke-width="3" /><path d="M 881.7858181401622 1231.334740534265 L 800.3551192689648 1220.0288087541705" fill="none" stroke="#BB3636" stroke-width="3" /><path d="M 800.3551192689648 1220.0288087541705 L 887.5611325044262 1154.7886869116821" fill="none" stroke="#BB3636" stroke-width="3" /><path d="M 940.7426663024414 1129.781228787808 L 887.5611325044262 1154.7886869116821" fill="none" stroke="#BB3636" stroke-width="3" /><path d="M 940.7426663024414 1129.781228787808 L 969.610426231241 1105.877424265805" fill="none" stroke="#BB3636" stroke-width="3" /><path d="M 969.610426231241 1105.877424265805 L 936.0388780698411 1026.7648690913152" fill="none" stroke="#BB3636" stroke-width="3" /><path d="M 936.0388780698411 1026.7648690913152 L 969.610426231241 1105.877424265805" fill="none" stroke="#BB3636" stroke-width="3" /><path d="M 469.75229770097843 1136.7102036322822 L 527.3591639276366 1099.6060068166958" fill="none" stroke="#0CC261" stroke-width="3" /><path d="M 536.5288192945194 1075.2242420734106 L 527.3591639276366 1099.6060068166958" fill="none" stroke="#0CC261" stroke-width="3" /><path d="M 536.5288192945194 1075.2242420734106 L 561.5775050007483 1044.156827689223" fill="none" stroke="#0CC261" stroke-width="3" /><path d="M 587.4527462263071 1015.374932181424 L 561.5775050007483 1044.156827689223" fill="none" stroke="#0CC261" stroke-width="3" /><path d="M 587.4527462263071 1015.374932181424 L 607.968594415021 986.5843464877638" fill="none" stroke="#0CC261" stroke-width="3" /><path d="M 610.8359842443363 956.8465305373796 L 607.968594415021 986.5843464877638" fill="none" stroke="#0CC261" stroke-width="3" /><path d="M 608.9530444141335 956.1723365031164 L 625.7855215252429 909.1613278279623" fill="none" stroke="#00B300" stroke-width="3" /><path d="M 612.718924074539 957.5207245716429 L 629.5514011856484 910.5097158964887" fill="none" stroke="#0CC261" stroke-width="3" /><path d="M 641.3334726548521 860.3433961031609 L 629.6136555897401 909.3705278935901" fill="none" stroke="#00B300" stroke-width="3" /><path d="M 637.4430841862631 861.2733840404318 L 625.7232671211511 910.300515830861" fill="none" stroke="#0CC261" stroke-width="3" /><path d="M 637.5946678137248 859.9235392419631 L 654.9505713411249 824.7427702260351" fill="none" stroke="#00B300" stroke-width="3" /><path d="M 641.1818890273905 861.6932409016296 L 658.5377925547907 826.5124718857015" fill="none" stroke="#0CC261" stroke-width="3" /><path d="M 651.9181865853284 808.2311475196502 L 661.6641397236843 822.1933794387033" fill="none" stroke="#E64DFF" stroke-width="3" /><path d="M 648.638214734844 810.5206419310936 L 658.3841678732 824.4828738501467" fill="none" stroke="#E64DFF" stroke-width="3" /><path d="M 645.3582428843597 812.8101363425368 L 655.1041960227157 826.7723682615899" fill="none" stroke="#00B300" stroke-width="3" /><path d="M 642.0782710338754 815.0996307539801 L 651.8242241722313 829.0618626730333" fill="none" stroke="#0CC261" stroke-width="3" /><path d="M 643.362130126487 809.9984199209475 L 652.8613502739986 789.278120145642" fill="none" stroke="#E64DFF" stroke-width="3" /><path d="M 646.9982288096019 811.6653891368152 L 656.4974489571134 790.9450893615096" fill="none" stroke="#E64DFF" stroke-width="3" /><path d="M 650.6343274927167 813.3323583526828 L 660.1335476402282 792.6120585773773" fill="none" stroke="#0CC261" stroke-width="3" /><path d="M 653.1970021129885 788.6852109070114 L 661.1506163107084 777.0693291652293" fill="none" stroke="#E64DFF" stroke-width="3" /><path d="M 656.4974489571134 790.9450893615096 L 664.4510631548334 779.3292076197275" fill="none" stroke="#E64DFF" stroke-width="3" /><path d="M 659.7978958012384 793.2049678160079 L 667.7515099989583 781.5890860742257" fill="none" stroke="#0CC261" stroke-width="3" /><path d="M 661.4299437850086 776.7075978560003 L 673.0933647379259 763.2667770874726" fill="none" stroke="#E64DFF" stroke-width="3" /><path d="M 664.4510631548334 779.3292076197275 L 676.1144841077506 765.8883868511998" fill="none" stroke="#E64DFF" stroke-width="3" /><path d="M 667.4721825246581 781.9508173834547 L 679.1356034775754 768.509996614927" fill="none" stroke="#0CC261" stroke-width="3" /><path d="M 676.1144841077506 765.8883868511998 L 668.5891278869952 747.027786846022" fill="none" stroke="#0CC261" stroke-width="3" /><path d="M 664.967368243236 745.3298890037366 L 647.2237414445077 707.4812329343821" fill="none" stroke="#E64DFF" stroke-width="3" /><path d="M 668.5891278869952 747.027786846022 L 650.8455010882669 709.1791307766674" fill="none" stroke="#E64DFF" stroke-width="3" /><path d="M 672.2108875307545 748.7256846883073 L 654.4672607320261 710.8770286189527" fill="none" stroke="#0CC261" stroke-width="3" /><path d="M 648.6313473904074 705.8478362231559 L 665.6242009455676 694.5534913575294" fill="none" stroke="#E64DFF" stroke-width="3" /><path d="M 650.8455010882669 709.1791307766674 L 667.8383546434271 697.8847859110409" fill="none" stroke="#E64DFF" stroke-width="3" /><path d="M 653.0596547861264 712.5104253301789 L 670.0525083412866 701.2160804645524" fill="none" stroke="#0CC261" stroke-width="3" /><path d="M 687.440227133696 677.3991479539449 L 670.7522650600827 695.1445074427633" fill="none" stroke="#00B300" stroke-width="3" /><path d="M 684.5263167170405 680.1394264222225 L 667.8383546434271 697.8847859110409" fill="none" stroke="#E64DFF" stroke-width="3" /><path d="M 681.6124063003849 682.8797048905002 L 664.9244442267716 700.6250643793186" fill="none" stroke="#0CC261" stroke-width="3" /><path d="M 678.1851748772685 650.0225560947031 L 686.4524924490623 679.6010519713334" fill="none" stroke="#E64DFF" stroke-width="3" /><path d="M 674.3328234132248 651.0993049964814 L 682.6001409850186 680.6778008731117" fill="none" stroke="#0CC261" stroke-width="3" /><path d="M 654.8332079893277 628.9953928163118 L 677.5819897451844 649.0610319248593" fill="none" stroke="#E64DFF" stroke-width="3" /><path d="M 652.1872267894522 631.9951900577776 L 674.9360085453089 652.0608291663251" fill="none" stroke="#0CC261" stroke-width="3" /><path d="M 653.5102173893899 630.4952914370447 L 599.7664848479519 612.9179422078205" fill="none" stroke="#0CC261" stroke-width="3" /><path d="M 570.1127041054617 612.33859648504 L 599.7664848479519 612.9179422078205" fill="none" stroke="#0CC261" stroke-width="3" /><path d="M 570.1127041054617 612.33859648504 L 539.5565855678826 614.1461551401254" fill="none" stroke="#0CC261" stroke-width="3" /><path d="M 539.5565855678826 614.1461551401254 L 492.1697522977019 581.5289909474981" fill="none" stroke="#0CC261" stroke-width="3" /><path d="M 492.1697522977019 581.5289909474981 L 416.2729219354444 509.95662035501766" fill="none" stroke="#0CC261" stroke-width="3" /><path d="M 386.37769533762713 476.2531829321586 L 416.2729219354444 509.95662035501766" fill="none" stroke="#0CC261" stroke-width="3" /><path d="M 386.37769533762713 476.2531829321586 L 346.2078020496456 439.40969169184524" fill="none" stroke="#0CC261" stroke-width="3" /><path d="M 416.2729219354444 509.95662035501766 L 492.1697522977019 581.5289909474981" fill="none" stroke="#0CC261" stroke-width="3" /><path d="M 492.1697522977019 581.5289909474981 L 539.5565855678826 614.1461551401254" fill="none" stroke="#0CC261" stroke-width="3" /><path d="M 672.3043159400787 745.5454313791295 L 679.8296721608341 764.4060313843073" fill="none" stroke="#E64DFF" stroke-width="3" /><path d="M 668.5891278869952 747.027786846022 L 676.1144841077506 765.8883868511998" fill="none" stroke="#E64DFF" stroke-width="3" /><path d="M 664.8739398339118 748.5101423129145 L 672.3992960546672 767.3707423180923" fill="none" stroke="#0CC261" stroke-width="3" /><path d="M 851.26670955121 443.03929264506985 L 811.8405399927747 503.46215480262407" fill="none" stroke="#00B300" stroke-width="3" /><path d="M 764.0642210727581 574.9707973656152 L 811.8405399927747 503.46215480262407" fill="none" stroke="#00B300" stroke-width="3" /><path d="M 764.0642210727581 574.9707973656152 L 739.5988826520276 613.9781448805106" fill="none" stroke="#00B300" stroke-width="3" /><path d="M 739.5988826520276 613.9781448805106 L 709.9715375871269 643.8781776332964" fill="none" stroke="#00B300" stroke-width="3" /><path d="M 684.5263167170405 680.1394264222225 L 709.9715375871269 643.8781776332964" fill="none" stroke="#00B300" stroke-width="3" /><path d="M 703.7961633019927 1243.8399179605155 L 716.3672091855163 1309.1205940035786" fill="none" stroke="#00B300" stroke-width="3" /><path d="M 703.7961633019927 1243.8399179605155 L 681.6941744578476 1164.1451203346178" fill="none" stroke="#00B300" stroke-width="3" /><path d="M 669.7505353224713 1132.6084359149677 L 681.6941744578476 1164.1451203346178" fill="none" stroke="#00B300" stroke-width="3" /><path d="M 669.7505353224713 1132.6084359149677 L 657.8227575936467 1096.816457161504" fill="none" stroke="#00B300" stroke-width="3" /><path d="M 644.3106015879019 1059.4573482278993 L 657.8227575936467 1096.816457161504" fill="none" stroke="#00B300" stroke-width="3" /><path d="M 619.9104711718927 991.4363669160596 L 644.3106015879019 1059.4573482278993" fill="none" stroke="#00B300" stroke-width="3" /><path d="M 610.8359842443363 956.8465305373796 L 619.9104711718927 991.4363669160596" fill="none" stroke="#00B300" stroke-width="3" /><path d="M 630.2744357390814 859.7970971252843 L 655.1081112675755 824.4772851358896" fill="none" stroke="#E64DFF" stroke-width="3" /><path d="M 633.546577099846 862.0977689652417 L 658.3802526283401 826.777956975847" fill="none" stroke="#E64DFF" stroke-width="3" /><path d="M 633.5325432537805 859.7773918032037 L 620.8240318467859 877.3952952330025" fill="none" stroke="#E64DFF" stroke-width="3" /><path d="M 630.2884695851468 862.1174742873222 L 617.5799581781522 879.735377717121" fill="none" stroke="#E64DFF" stroke-width="3" /><path d="M 603.6296933105473 896.0576035131659 L 617.6000677278616 877.3679104962094" fill="none" stroke="#E64DFF" stroke-width="3" /><path d="M 606.8335478797621 898.4524554708704 L 620.8039222970765 879.762762453914" fill="none" stroke="#E64DFF" stroke-width="3" /><path d="M 606.8240937831106 896.0450587710329 L 585.2349570842221 924.4590697448681" fill="none" stroke="#E64DFF" stroke-width="3" /><path d="M 603.6391474071988 898.4650002130033 L 582.0500107083103 926.8790111868385" fill="none" stroke="#E64DFF" stroke-width="3" /><path d="M 567.635036294468 943.0522070220857 L 582.0618667448443 924.4436224063197" fill="none" stroke="#E64DFF" stroke-width="3" /><path d="M 570.7962705973117 945.5030431411528 L 585.223101047688 926.8944585253869" fill="none" stroke="#E64DFF" stroke-width="3" /><path d="M 570.8284560376768 943.0948876636243 L 552.7464525657932 967.7518416252151" fill="none" stroke="#E64DFF" stroke-width="3" /><path d="M 567.6028508541029 945.4603624996142 L 549.5208473822194 970.1173164612051" fill="none" stroke="#E64DFF" stroke-width="3" /><path d="M 552.3504261209647 967.3472996701339 L 523.9567460102866 989.1133184750554" fill="none" stroke="#E64DFF" stroke-width="3" /><path d="M 549.9168738270479 970.5218584162862 L 521.5231937163697 992.2878772212077" fill="none" stroke="#E64DFF" stroke-width="3" /><path d="M 500.7931040377477 1000.6568907726127 L 521.7654082595266 988.9541071724062" fill="none" stroke="#E64DFF" stroke-width="3" /><path d="M 502.7422272453509 1004.1498721240633 L 523.7145314671297 992.4470885238569" fill="none" stroke="#E64DFF" stroke-width="3" /><path d="M 502.77538997098236 1000.6758133090542 L 466.3998976064869 1021.8943504059499" fill="none" stroke="#E64DFF" stroke-width="3" /><path d="M 500.7599413121162 1004.1309495876218 L 464.38444894762074 1025.3494866845176" fill="none" stroke="#E64DFF" stroke-width="3" /><path d="M 466.3867874419535 1021.8867693692316 L 441.2305966468559 1036.3066844092589" fill="none" stroke="#E64DFF" stroke-width="3" /><path d="M 464.3975591121541 1025.3570677212358 L 439.24136831705647 1039.776982761263" fill="none" stroke="#E64DFF" stroke-width="3" /><path d="M 420.0690852374352 100.0 L 447.22205087986885 139.87057264186342" fill="none" stroke="#E64DFF" stroke-width="3" /><path d="M 470.9048932439215 216.39345243553143 L 447.22205087986885 139.87057264186342" fill="none" stroke="#E64DFF" stroke-width="3" /><path d="M 492.2455345734609 292.52237713769375 L 470.9048932439215 216.39345243553143" fill="none" stroke="#E64DFF" stroke-width="3" /><path d="M 492.2455345734609 292.52237713769375 L 489.5755311368206 347.95707262209226" fill="none" stroke="#E64DFF" stroke-width="3" /><path d="M 489.5755311368206 347.95707262209226 L 493.7012592194431 453.62973245752346" fill="none" stroke="#E64DFF" stroke-width="3" /><path d="M 524.084664663429 496.48103884310785 L 493.7012592194431 453.62973245752346" fill="none" stroke="#E64DFF" stroke-width="3" /><path d="M 524.084664663429 496.48103884310785 L 547.6459029105688 529.6543749296013" fill="none" stroke="#E64DFF" stroke-width="3" /><path d="M 574.7072248706854 559.3921908800061 L 547.6459029105688 529.6543749296013" fill="none" stroke="#E64DFF" stroke-width="3" /><path d="M 574.7072248706854 559.3921908800061 L 623.0140197210148 603.0111303482527" fill="none" stroke="#E64DFF" stroke-width="3" /><path d="M 653.5102173893899 630.4952914370447 L 623.0140197210148 603.0111303482527" fill="none" stroke="#E64DFF" stroke-width="3" /><path d="M 392.3574456085944 1020.786021232213 L 440.23598248195617 1038.041833585261" fill="none" stroke="#E64DFF" stroke-width="3" /><path d="M 392.3574456085944 1020.786021232213 L 360.5042164905761 1013.1386576914919" fill="none" stroke="#E64DFF" stroke-width="3" /><path d="M 324.04412995779177 1038.0389368566543 L 360.5042164905761 1013.1386576914919" fill="none" stroke="#E64DFF" stroke-width="3" /><circle cx="595.0979441854739" cy="780.9803429296659" fill="white" id="060003102224" r="2.5" /><circle cx="575.9638007454848" cy="798.3375407842123" fill="white" id="060003103234" r="2.5" /><circle cx="633.8297366125329" cy="764.602239346619" fill="white" id="060003201214" r="2.5" /><circle cx="667.8383546434271" cy="697.8847859110409" fill="white" id="060007102721" r="2.5" /><circle cx="667.8383546434271" cy="697.8847859110409" fill="white" id="060007102722" r="2.5" /><circle cx="667.8383546434271" cy="697.8847859110409" fill="white" id="060007102723" r="2.5" /><circle cx="667.8383546434271" cy="697.8847859110409" fill="white" id="060007102724" r="2.5" /><circle cx="512.3313624067025" cy="750.6226270558852" fill="white" id="060020201955" r="2.5" /><circle cx="512.3313624067025" cy="750.6226270558852" fill="white" id="060020201956" r="2.5" /><circle cx="562.6789915670201" cy="739.374629848067" fill="white" id="060020202811" r="2.5" /><circle cx="562.6789915670201" cy="739.374629848067" fill="white" id="060020202812" r="2.5" /><circle cx="100.0" cy="1152.595863350952" fill="white" id="060023005896" r="2.5" /><circle cx="100.0" cy="1152.595863350952" fill="white" id="060023005897" r="2.5" /><circle cx="569.7355551051684" cy="818.7247167689153" fill="white" id="060023201256" r="2.5" /><circle cx="518.8997470986851" cy="825.0656557047685" fill="white" id="060024101335" r="2.5" /><circle cx="518.8997470986851" cy="825.0656557047685" fill="white" id="060024101337" r="2.5" /><circle cx="518.8997470986851" cy="825.0656557047685" fill="white" id="060024101338" r="2.5" /><circle cx="482.1964523320658" cy="835.4359441425647" fill="white" id="060024102371" r="2.5" /><circle cx="482.1964523320658" cy="835.4359441425647" fill="white" id="060024102372" r="2.5" /><circle cx="482.20878898160817" cy="820.0774890316127" fill="white" id="060024106801" r="2.5" /><circle cx="482.20878898160817" cy="820.0774890316127" fill="white" id="060024106802" r="2.5" /><circle cx="545.5839200585115" cy="823.6433619553276" fill="white" id="060024203304" r="2.5" /><circle cx="484.3130689178099" cy="784.864856000909" fill="white" id="060026207811" r="2.5" /><circle cx="484.3130689178099" cy="784.864856000909" fill="white" id="060026207812" r="2.5" /><circle cx="494.7357754024828" cy="848.3379733889071" fill="white" id="060040101711" r="2.5" /><circle cx="494.7357754024828" cy="848.3379733889071" fill="white" id="060040101712" r="2.5" /><circle cx="513.351779561695" cy="872.5575213298113" fill="white" id="060044101701" r="2.5" /><circle cx="513.351779561695" cy="872.5575213298113" fill="white" id="060044101702" r="2.5" /><circle cx="563.4650123807075" cy="904.3375309530121" fill="white" id="060044202621" r="2.5" /><circle cx="563.4650123807075" cy="904.3375309530121" fill="white" id="060044202622" r="2.5" /><circle cx="533.7530731475213" cy="896.3483534358481" fill="white" id="060045102631" r="2.5" /><circle cx="533.7530731475213" cy="896.3483534358481" fill="white" id="060045102632" r="2.5" /><circle cx="445.0243648828453" cy="871.5639434152375" fill="white" id="060048101201" r="2.5" /><circle cx="299.0201175506478" cy="1066.2907310281291" fill="white" id="060053301431" r="2.5" /><circle cx="299.0201175506478" cy="1066.2907310281291" fill="white" id="060053301432" r="2.5" /><circle cx="587.6554197544995" cy="902.2113321504188" fill="white" id="060054105611" r="2.5" /><circle cx="587.6554197544995" cy="902.2113321504188" fill="white" id="060054105612" r="2.5" /><circle cx="610.8359842443363" cy="956.8465305373796" fill="white" id="060058102522" r="2.5" /><circle cx="610.8359842443363" cy="956.8465305373796" fill="white" id="060058102523" r="2.5" /><circle cx="610.8359842443363" cy="956.8465305373796" fill="white" id="060058102524" r="2.5" /><circle cx="607.968594415021" cy="986.5843464877638" fill="white" id="060063452531" r="2.5" /><circle cx="607.968594415021" cy="986.5843464877638" fill="white" id="060063452532" r="2.5" /><circle cx="527.3591639276366" cy="1099.6060068166958" fill="white" id="060064201631" r="2.5" /><circle cx="527.3591639276366" cy="1099.6060068166958" fill="white" id="060064201632" r="2.5" /><circle cx="536.5288192945194" cy="1075.2242420734106" fill="white" id="060064256621" r="2.5" /><circle cx="536.5288192945194" cy="1075.2242420734106" fill="white" id="060064256622" r="2.5" /><circle cx="561.5775050007483" cy="1044.156827689223" fill="white" id="060064301621" r="2.5" /><circle cx="561.5775050007483" cy="1044.156827689223" fill="white" id="060064301622" r="2.5" /><circle cx="587.4527462263071" cy="1015.374932181424" fill="white" id="060067221602" r="2.5" /><circle cx="663.2244477146361" cy="923.6645042650252" fill="white" id="060068201511" r="2.5" /><circle cx="663.2244477146361" cy="923.6645042650252" fill="white" id="060068201512" r="2.5" /><circle cx="786.9998149502553" cy="914.5427058598209" fill="white" id="060077106401" r="2.5" /><circle cx="786.9998149502553" cy="914.5427058598209" fill="white" id="060077106402" r="2.5" /><circle cx="807.3429500453822" cy="928.0849121298472" fill="white" id="060077155441" r="2.5" /><circle cx="807.3429500453822" cy="928.0849121298472" fill="white" id="060077155442" r="2.5" /><circle cx="765.333133597103" cy="927.7546850678718" fill="white" id="060078201461" r="2.5" /><circle cx="765.333133597103" cy="927.7546850678718" fill="white" id="060078201462" r="2.5" /><circle cx="744.2057400667935" cy="933.8407118857064" fill="white" id="060079221471" r="2.5" /><circle cx="744.2057400667935" cy="933.8407118857064" fill="white" id="060079221472" r="2.5" /><circle cx="599.7664848479519" cy="612.9179422078205" fill="white" id="060085105001" r="2.5" /><circle cx="653.5102173893899" cy="630.4952914370447" fill="white" id="060085201683" r="2.5" /><circle cx="653.5102173893899" cy="630.4952914370447" fill="white" id="060085201684" r="2.5" /><circle cx="492.1697522977019" cy="581.5289909474981" fill="white" id="060089303001" r="2.5" /><circle cx="492.1697522977019" cy="581.5289909474981" fill="white" id="060089303005" r="2.5" /><circle cx="386.37769533762713" cy="476.2531829321586" fill="white" id="060091203001" r="2.5" /><circle cx="386.37769533762713" cy="476.2531829321586" fill="white" id="060091203002" r="2.5" /><circle cx="416.2729219354444" cy="509.95662035501766" fill="white" id="060091205001" r="2.5" /><circle cx="539.5565855678826" cy="614.1461551401254" fill="white" id="060096405002" r="2.5" /><circle cx="570.1127041054617" cy="612.33859648504" fill="white" id="060096458002" r="2.5" /><circle cx="664.4510631548334" cy="779.3292076197275" fill="white" id="060100001756" r="2.5" /><circle cx="692.4869804287856" cy="773.2866317311157" fill="white" id="060100002734" r="2.5" /><circle cx="708.188010539024" cy="776.4585495633454" fill="white" id="060100003724" r="2.5" /><circle cx="720.1016892397984" cy="793.8736819901678" fill="white" id="060100004704" r="2.5" /><circle cx="715.0101777358732" cy="695.8599726099254" fill="white" id="060110001771" r="2.5" /><circle cx="715.0101777358732" cy="695.8599726099254" fill="white" id="060110001772" r="2.5" /><circle cx="736.6539481684486" cy="708.9937401453925" fill="white" id="060110002781" r="2.5" /><circle cx="736.6539481684486" cy="708.9937401453925" fill="white" id="060110002782" r="2.5" /><circle cx="684.5263167170405" cy="680.1394264222225" fill="white" id="060110011611" r="2.5" /><circle cx="684.5263167170405" cy="680.1394264222225" fill="white" id="060110011612" r="2.5" /><circle cx="684.5263167170405" cy="680.1394264222225" fill="white" id="060110011614" r="2.5" /><circle cx="751.3310363666787" cy="809.8027926380603" fill="white" id="060120005011" r="2.5" /><circle cx="739.5988826520276" cy="613.9781448805106" fill="white" id="060130001001" r="2.5" /><circle cx="709.9715375871269" cy="643.8781776332964" fill="white" id="060130002642" r="2.5" /><circle cx="676.2589991452467" cy="650.5609305455922" fill="white" id="060130003653" r="2.5" /><circle cx="676.2589991452467" cy="650.5609305455922" fill="white" id="060130003654" r="2.5" /><circle cx="764.0642210727581" cy="574.9707973656152" fill="white" id="060142001001" r="2.5" /><circle cx="937.7501475992008" cy="713.4257349246614" fill="white" id="060170001332" r="2.5" /><circle cx="975.0720372214346" cy="995.3759178309928" fill="white" id="060180003001" r="2.5" /><circle cx="846.0729800939333" cy="932.6820204401245" fill="white" id="060191001004" r="2.5" /><circle cx="846.0729800939333" cy="932.6820204401245" fill="white" id="060191001005" r="2.5" /><circle cx="882.455521972454" cy="970.252590562546" fill="white" id="060192001004" r="2.5" /><circle cx="882.455521972454" cy="970.252590562546" fill="white" id="060192001005" r="2.5" /><circle cx="882.455521972454" cy="970.252590562546" fill="white" id="060192001006" r="2.5" /><circle cx="932.3519822352239" cy="977.0367289763196" fill="white" id="060192002001" r="2.5" /><circle cx="906.9155732576671" cy="993.1830942702625" fill="white" id="060193001003" r="2.5" /><circle cx="906.9155732576671" cy="993.1830942702625" fill="white" id="060193001004" r="2.5" /><circle cx="936.0388780698411" cy="1026.7648690913152" fill="white" id="060193002003" r="2.5" /><circle cx="936.0388780698411" cy="1026.7648690913152" fill="white" id="060193002004" r="2.5" /><circle cx="346.2078020496456" cy="439.40969169184524" fill="white" id="060200000101" r="2.5" /><circle cx="346.2078020496456" cy="439.40969169184524" fill="white" id="060200000105" r="2.5" /><circle cx="420.0690852374352" cy="100.0" fill="white" id="060200005030" r="2.5" /><circle cx="447.22205087986885" cy="139.87057264186342" fill="white" id="060200006102" r="2.5" /><circle cx="470.9048932439215" cy="216.39345243553143" fill="white" id="060200007102" r="2.5" /><circle cx="492.2455345734609" cy="292.52237713769375" fill="white" id="060200008006" r="2.5" /><circle cx="489.5755311368206" cy="347.95707262209226" fill="white" id="060200009004" r="2.5" /><circle cx="150.1555299031569" cy="1153.4532950206658" fill="white" id="060230000842" r="2.5" /><circle cx="210.38834010380307" cy="1145.9855286540064" fill="white" id="060230003821" r="2.5" /><circle cx="1096.3818369271166" cy="1427.6228648700226" fill="white" id="060260001002" r="2.5" /><circle cx="628.5161654168448" cy="714.9899683761754" fill="white" id="060009104841" r="2.5" /><circle cx="628.5161654168448" cy="714.9899683761754" fill="white" id="060009104842" r="2.5" /><circle cx="650.8455010882669" cy="709.1791307766674" fill="white" id="060008101711" r="2.5" /><circle cx="650.8455010882669" cy="709.1791307766674" fill="white" id="060008101712" r="2.5" /><circle cx="440.23598248195617" cy="1038.041833585261" fill="white" id="060049201861" r="2.5" /><circle cx="465.3921732770538" cy="1023.6219185452337" fill="white" id="060049202851" r="2.5" /><circle cx="392.3574456085944" cy="1020.786021232213" fill="white" id="060050301871" r="2.5" /><circle cx="360.5042164905761" cy="1013.1386576914919" fill="white" id="060050355871" r="2.5" /><circle cx="324.04412995779177" cy="1038.0389368566543" fill="white" id="060052200881" r="2.5" /><circle cx="605.2316205951547" cy="897.2550294920181" fill="white" id="060054104821" r="2.5" /><circle cx="631.9105064194637" cy="860.947433045263" fill="white" id="060057102801" r="2.5" /><circle cx="583.6424838962662" cy="925.6690404658533" fill="white" id="060060101831" r="2.5" /><circle cx="551.1336499740063" cy="968.9345790432101" fill="white" id="060062202841" r="2.5" /><circle cx="569.2156534458899" cy="944.2776250816192" fill="white" id="060063101841" r="2.5" /><circle cx="501.7676656415493" cy="1002.403381448338" fill="white" id="060066101851" r="2.5" /><circle cx="522.7399698633282" cy="990.7005978481316" fill="white" id="060066102851" r="2.5" /><circle cx="623.0140197210148" cy="603.0111303482527" fill="white" id="060084101102" r="2.5" /><circle cx="627.6684613554456" cy="909.8355218622255" fill="white" id="060058101501" r="2.5" /><circle cx="627.6684613554456" cy="909.8355218622255" fill="white" id="060058101502" r="2.5" /><circle cx="482.1964523320658" cy="835.4359441425647" fill="white" id="060024100801" r="2.5" /><circle cx="482.1964523320658" cy="835.4359441425647" fill="white" id="060024100802" r="2.5" /><circle cx="324.04412995779177" cy="1038.0389368566543" fill="white" id="060052201423" r="2.5" /><circle cx="605.2316205951547" cy="897.2550294920181" fill="white" id="060054100601" r="2.5" /><circle cx="605.2316205951547" cy="897.2550294920181" fill="white" id="060054100602" r="2.5" /><circle cx="627.6684613554456" cy="909.8355218622255" fill="white" id="060058100531" r="2.5" /><circle cx="627.6684613554456" cy="909.8355218622255" fill="white" id="060058100532" r="2.5" /><circle cx="469.75229770097843" cy="1136.7102036322822" fill="white" id="060220114641" r="2.5" /><circle cx="469.75229770097843" cy="1136.7102036322822" fill="white" id="060220114642" r="2.5" /><circle cx="639.3882784205576" cy="860.8083900717963" fill="white" id="060058103481" r="2.5" /><circle cx="639.3882784205576" cy="860.8083900717963" fill="white" id="060058103482" r="2.5" /><circle cx="995.0168747741958" cy="1091.6168292995317" fill="white" id="060186001811" r="2.5" /><circle cx="995.0168747741958" cy="1091.6168292995317" fill="white" id="060186001812" r="2.5" /><circle cx="995.0168747741958" cy="1091.6168292995317" fill="white" id="060186001813" r="2.5" /><circle cx="995.0168747741958" cy="1091.6168292995317" fill="white" id="060186001814" r="2.5" /><circle cx="656.7441819479578" cy="825.6276210558683" fill="white" id="060012101472" r="2.5" /><circle cx="656.7441819479578" cy="825.6276210558683" fill="white" id="060012101474" r="2.5" /><circle cx="646.9982288096019" cy="811.6653891368152" fill="white" id="060100020451" r="2.5" /><circle cx="646.9982288096019" cy="811.6653891368152" fill="white" id="060100020452" r="2.5" /><circle cx="646.9982288096019" cy="811.6653891368152" fill="white" id="060100020454" r="2.5" /><circle cx="668.5891278869952" cy="747.027786846022" fill="white" id="060007104411" r="2.5" /><circle cx="668.5891278869952" cy="747.027786846022" fill="white" id="060007104414" r="2.5" /><circle cx="664.4510631548334" cy="779.3292076197275" fill="white" id="060100000431" r="2.5" /><circle cx="664.4510631548334" cy="779.3292076197275" fill="white" id="060100000432" r="2.5" /><circle cx="676.1144841077506" cy="765.8883868511998" fill="white" id="060100007431" r="2.5" /><circle cx="676.1144841077506" cy="765.8883868511998" fill="white" id="060100007432" r="2.5" /><circle cx="656.4974489571134" cy="790.9450893615096" fill="white" id="060100025432" r="2.5" /><circle cx="656.4974489571134" cy="790.9450893615096" fill="white" id="060100025441" r="2.5" /><circle cx="619.2019950124691" cy="878.5653364750617" fill="white" id="060057104811" r="2.5" /><circle cx="1089.0133323933965" cy="1274.2990193357741" fill="white" id="060260003883" r="2.5" /><circle cx="1089.0133323933965" cy="1274.2990193357741" fill="white" id="060260003884" r="2.5" /><circle cx="969.610426231241" cy="1105.877424265805" fill="white" id="060195510641" r="2.5" /><circle cx="969.610426231241" cy="1105.877424265805" fill="white" id="060195510642" r="2.5" /><circle cx="940.7426663024414" cy="1129.781228787808" fill="white" id="060196001651" r="2.5" /><circle cx="940.7426663024414" cy="1129.781228787808" fill="white" id="060196001652" r="2.5" /><circle cx="1100.0" cy="1362.4870252576598" fill="white" id="060260002904" r="2.5" /><circle cx="1067.1827498391838" cy="1209.308016154091" fill="white" id="060260004873" r="2.5" /><circle cx="1067.1827498391838" cy="1209.308016154091" fill="white" id="060260004874" r="2.5" /><circle cx="887.5611325044262" cy="1154.7886869116821" fill="white" id="060260005671" r="2.5" /><circle cx="887.5611325044262" cy="1154.7886869116821" fill="white" id="060260005672" r="2.5" /><circle cx="493.7012592194431" cy="453.62973245752346" fill="white" id="060092201132" r="2.5" /><circle cx="524.084664663429" cy="496.48103884310785" fill="white" id="060093201132" r="2.5" /><circle cx="547.6459029105688" cy="529.6543749296013" fill="white" id="060094101122" r="2.5" /><circle cx="574.7072248706854" cy="559.3921908800061" fill="white" id="060096101112" r="2.5" /><circle cx="755.9290818889181" cy="720.806599432917" fill="white" id="060110003511" r="2.5" /><circle cx="755.9290818889181" cy="720.806599432917" fill="white" id="060110003512" r="2.5" /><circle cx="786.9257950530042" cy="755.4282998263725" fill="white" id="060110004531" r="2.5" /><circle cx="786.9257950530042" cy="755.4282998263725" fill="white" id="060110004532" r="2.5" /><circle cx="802.5951023501328" cy="769.1095490698652" fill="white" id="060110012541" r="2.5" /><circle cx="802.5951023501328" cy="769.1095490698652" fill="white" id="060110012542" r="2.5" /><circle cx="822.0041768370575" cy="799.4354009288911" fill="white" id="060120001541" r="2.5" /><circle cx="822.0041768370575" cy="799.4354009288911" fill="white" id="060120001542" r="2.5" /><circle cx="810.3248944775852" cy="829.755459330683" fill="white" id="060120901551" r="2.5" /><circle cx="810.3248944775852" cy="829.755459330683" fill="white" id="060120901552" r="2.5" /><circle cx="795.6372320083174" cy="858.9863477736368" fill="white" id="060190001571" r="2.5" /><circle cx="795.6372320083174" cy="858.9863477736368" fill="white" id="060190001572" r="2.5" /><circle cx="774.9680568895776" cy="822.0733350466004" fill="white" id="060120004624" r="2.5" /><circle cx="810.3248944775852" cy="829.755459330683" fill="white" id="060120003654" r="2.5" /><circle cx="851.26670955121" cy="443.03929264506985" fill="white" id="060135001111" r="2.5" /><circle cx="811.8405399927747" cy="503.46215480262407" fill="white" id="060143001102" r="2.5" /><circle cx="810.3248944775852" cy="829.755459330683" fill="white" id="060120003652" r="2.5" /><circle cx="836.8945128345207" cy="828.7966421594709" fill="white" id="060160003682" r="2.5" /><circle cx="619.9104711718927" cy="991.4363669160596" fill="white" id="060068301902" r="2.5" /><circle cx="657.8227575936467" cy="1096.816457161504" fill="white" id="060072101922" r="2.5" /><circle cx="644.3106015879019" cy="1059.4573482278993" fill="white" id="060073101912" r="2.5" /><circle cx="681.6941744578476" cy="1164.1451203346178" fill="white" id="060074201932" r="2.5" /><circle cx="669.7505353224713" cy="1132.6084359149677" fill="white" id="060074202922" r="2.5" /><circle cx="589.350827877304" cy="733.9606440686714" fill="white" id="060001201831" r="2.5" /><circle cx="589.350827877304" cy="733.9606440686714" fill="white" id="060001201832" r="2.5" /><circle cx="861.4462078020479" cy="807.6215559917977" fill="white" id="060160004692" r="2.5" /><circle cx="949.854163178625" cy="691.7668950784515" fill="white" id="060170002332" r="2.5" /><circle cx="960.4284342148159" cy="671.2957139639514" fill="white" id="060170003332" r="2.5" /><circle cx="981.0940845765431" cy="631.4714889799169" fill="white" id="060170004341" r="2.5" /><circle cx="981.0940845765431" cy="631.4714889799169" fill="white" id="060170004342" r="2.5" /><circle cx="928.0288677599295" cy="738.108759443794" fill="white" id="060170005322" r="2.5" /><circle cx="899.8924949111305" cy="798.9516472503544" fill="white" id="060171002702" r="2.5" /><circle cx="929.6079589013324" cy="764.0199968952111" fill="white" id="060171003312" r="2.5" /><circle cx="881.7858181401622" cy="1231.334740534265" fill="white" id="060901639696" r="2.5" /><circle cx="800.3551192689648" cy="1220.0288087541705" fill="white" id="060901654691" r="2.5" /><circle cx="800.3551192689648" cy="1220.0288087541705" fill="white" id="060901654692" r="2.5" /><circle cx="716.3672091855163" cy="1309.1205940035786" fill="white" id="060250006962" r="2.5" /><circle cx="703.7961633019927" cy="1243.8399179605155" fill="white" id="060250007952" r="2.5" /></svg>