<?xml version="1.0" encoding="utf-8" ?>
<svg baseProfile="full" height="626.5377881455029" version="1.1" width="1200" xmlns="http://www.w3.org/2000/svg" xmlns:ev="http://www.w3.org/2001/xml-events" xmlns:xlink="http://www.w3.org/1999/xlink"><defs /><rect fill="#222B38" height="626.5377881455029" rx="0" ry="0" width="1200" x="0" y="0" /><path d="M 302.0259913001876 115.17798761688466 L 551.1710143203588 133.40295515338767" fill="none" stroke="#e10528" stroke-width="3" /><path d="M 302.0259913001876 115.17798761688466 L 551.1710143203588 133.40295515338767" fill="none" stroke="#004990" stroke-width="3" /><path d="M 551.1710143203588 133.40295515338767 L 672.5845041674221 209.7175441748711" fill="none" stroke="#e10528" stroke-width="3" /><path d="M 551.1710143203588 133.40295515338767 L 672.5845041674221 209.7175441748711" fill="none" stroke="#004990" stroke-width="3" /><path d="M 672.5845041674221 209.7175441748711 L 755.9545598321687 318.36689424000934" fill="none" stroke="#e10528" stroke-width="3" /><path d="M 672.5845041674221 209.7175441748711 L 755.9545598321687 318.36689424000934" fill="none" stroke="#004990" stroke-width="3" /><path d="M 776.5172631004111 373.0155297812498 L 755.9545598321687 318.36689424000934" fill="none" stroke="#e10528" stroke-width="3" /><path d="M 776.5172631004111 373.0155297812498 L 755.9545598321687 318.36689424000934" fill="none" stroke="#004990" stroke-width="3" /><path d="M 776.5172631004111 373.0155297812498 L 817.8832797592828 442.05851873592627" fill="none" stroke="#e10528" stroke-width="3" /><path d="M 776.5172631004111 373.0155297812498 L 817.8832797592828 442.05851873592627" fill="none" stroke="#004990" stroke-width="3" /><path d="M 817.8832797592828 442.05851873592627 L 823.9985617462356 505.97942937742675" fill="none" stroke="#e10528" stroke-width="3" /><path d="M 817.8832797592828 442.05851873592627 L 823.9985617462356 505.97942937742675" fill="none" stroke="#004990" stroke-width="3" /><path d="M 817.8832797592828 442.05851873592627 L 776.5172631004111 373.0155297812498" fill="none" stroke="#004990" stroke-width="3" /><path d="M 551.1710143203588 133.40295515338767 L 302.0259913001876 115.17798761688466" fill="none" stroke="#e10528" stroke-width="3" /><path d="M 551.1710143203588 133.40295515338767 L 302.0259913001876 115.17798761688466" fill="none" stroke="#004990" stroke-width="3" /><path d="M 776.9849659225791 513.7676151202648 L 777.7311276504289 525.6841084266506" fill="none" stroke="#659ad2" stroke-width="3" /><path d="M 823.9985617462356 505.97942937742675 L 755.9545598321687 318.36689424000934" fill="none" stroke="#e10528" stroke-width="3" /><path d="M 388.31581024782946 125.72859337305701 L 397.8293722779296 100.0" fill="none" stroke="#0fa30f" stroke-width="3" /><path d="M 397.8293722779296 100.0 L 388.31581024782946 125.72859337305701" fill="none" stroke="#0fa30f" stroke-width="3" /><path d="M 823.9985617462356 505.97942937742675 L 842.6309770663408 494.54449898940135" fill="none" stroke="#fcaf17" stroke-width="3" /><path d="M 842.6309770663408 494.54449898940135 L 823.9985617462356 505.97942937742675" fill="none" stroke="#fcaf17" stroke-width="3" /><path d="M 776.9849659225791 513.7676151202648 L 823.9985617462356 505.97942937742675" fill="none" stroke="#f36f2b" stroke-width="3" /><path d="M 823.9985617462356 505.97942937742675 L 776.9849659225791 513.7676151202648" fill="none" stroke="#f36f2b" stroke-width="3" /><path d="M 302.0259913001876 115.17798761688466 L 295.14562319373636 143.24435006621587" fill="none" stroke="#a474fe" stroke-width="3" /><path d="M 245.70970523908278 135.72321285079545 L 295.14562319373636 143.24435006621587" fill="none" stroke="#a474fe" stroke-width="3" /><path d="M 136.3591633256117 164.18358132421707 L 245.70970523908278 135.72321285079545" fill="none" stroke="#a474fe" stroke-width="3" /><path d="M 136.3591633256117 164.18358132421707 L 100.0 147.74915227498755" fill="none" stroke="#8478F4" stroke-width="3" /><path d="M 1100.0 514.5600050131779 L 1070.421175853558 526.5377881455029" fill="none" stroke="#5dbc56" stroke-width="3" /><path d="M 969.6866391091482 486.0689916267555 L 1070.421175853558 526.5377881455029" fill="none" stroke="#5dbc56" stroke-width="3" /><path d="M 969.6866391091482 486.0689916267555 L 823.9985617462356 505.97942937742675" fill="none" stroke="#5dbc56" stroke-width="3" /><circle cx="397.8293722779296" cy="100.0" fill="white" r="1.5" /><circle cx="397.8293722779296" cy="100.0" fill="white" r="1.5" /><circle cx="136.3591633256117" cy="164.18358132421707" fill="white" r="1.5" /><circle cx="295.14562319373636" cy="143.24435006621587" fill="white" r="1.5" /><circle cx="969.6866391091482" cy="486.0689916267555" fill="white" r="1.5" /><circle cx="969.6866391091482" cy="486.0689916267555" fill="white" r="1.5" /><circle cx="776.5172631004111" cy="373.0155297812498" fill="white" r="1.5" /><circle cx="388.31581024782946" cy="125.72859337305701" fill="white" r="1.5" /><circle cx="776.9849659225791" cy="513.7676151202648" fill="white" r="1.5" /><circle cx="776.9849659225791" cy="513.7676151202648" fill="white" r="1.5" /><circle cx="672.5845041674221" cy="209.7175441748711" fill="white" r="1.5" /><circle cx="100.0" cy="147.74915227498755" fill="white" r="1.5" /><circle cx="100.0" cy="147.74915227498755" fill="white" r="1.5" /><circle cx="776.5172631004111" cy="373.0155297812498" fill="white" r="1.5" /><circle cx="245.70970523908278" cy="135.72321285079545" fill="white" r="1.5" /><circle cx="823.9985617462356" cy="505.97942937742675" fill="white" r="1.5" /><circle cx="817.8832797592828" cy="442.05851873592627" fill="white" r="1.5" /><circle cx="823.9985617462356" cy="505.97942937742675" fill="white" r="1.5" /><circle cx="823.9985617462356" cy="505.97942937742675" fill="white" r="1.5" /><circle cx="777.7311276504289" cy="525.6841084266506" fill="white" r="1.5" /><circle cx="755.9545598321687" cy="318.36689424000934" fill="white" r="1.5" /><circle cx="1070.421175853558" cy="526.5377881455029" fill="white" r="1.5" /><circle cx="672.5845041674221" cy="209.7175441748711" fill="white" r="1.5" /><circle cx="817.8832797592828" cy="442.05851873592627" fill="white" r="1.5" /><circle cx="823.9985617462356" cy="505.97942937742675" fill="white" r="1.5" /><circle cx="823.9985617462356" cy="505.97942937742675" fill="white" r="1.5" /><circle cx="823.9985617462356" cy="505.97942937742675" fill="white" r="1.5" /><circle cx="842.6309770663408" cy="494.54449898940135" fill="white" r="1.5" /><circle cx="1100.0" cy="514.5600050131779" fill="white" r="1.5" /><circle cx="777.7311276504289" cy="525.6841084266506" fill="white" r="1.5" /><circle cx="1100.0" cy="514.5600050131779" fill="white" r="1.5" /><circle cx="842.6309770663408" cy="494.54449898940135" fill="white" r="1.5" /><circle cx="1070.421175853558" cy="526.5377881455029" fill="white" r="1.5" /><circle cx="755.9545598321687" cy="318.36689424000934" fill="white" r="1.5" /><circle cx="302.0259913001876" cy="115.17798761688466" fill="white" r="1.5" /><circle cx="302.0259913001876" cy="115.17798761688466" fill="white" r="1.5" /><circle cx="551.1710143203588" cy="133.40295515338767" fill="white" r="1.5" /><circle cx="551.1710143203588" cy="133.40295515338767" fill="white" r="1.5" /><circle cx="136.3591633256117" cy="164.18358132421707" fill="white" r="1.5" /><circle cx="245.70970523908278" cy="135.72321285079545" fill="white" r="1.5" /><circle cx="388.31581024782946" cy="125.72859337305701" fill="white" r="1.5" /><circle cx="295.14562319373636" cy="143.24435006621587" fill="white" r="1.5" /></svg>